<svg width="467" height="420" viewBox="0 0 467 420" fill="none" xmlns="http://www.w3.org/2000/svg">
<g clip-path="url(#clip0_311_444)">
<g opacity="0.1" clip-path="url(#clip1_311_444)">
<line y1="-2" x2="1079.3" y2="-2" transform="matrix(0.000240869 -1 1 -0.000240869 258.83 1308.63)" stroke="white" stroke-width="4"/>
<line y1="-2" x2="1079.3" y2="-2" transform="matrix(0.000240869 -1 1 -0.000240869 143.059 1424.41)" stroke="white" stroke-width="4"/>
<line y1="-2" x2="1079.3" y2="-2" transform="matrix(0.000240869 -1 1 -0.000240869 242.307 1325.16)" stroke="white" stroke-width="4"/>
<line y1="-2" x2="1079.3" y2="-2" transform="matrix(0.000240869 -1 1 -0.000240869 126.535 1440.93)" stroke="white" stroke-width="4"/>
<line y1="-2" x2="1079.3" y2="-2" transform="matrix(0.000442626 -1 1 -0.000442626 225.675 1341.79)" stroke="white" stroke-width="4"/>
<line y1="-2" x2="1079.3" y2="-2" transform="matrix(0.000442626 -1 1 -0.000442626 109.902 1457.56)" stroke="white" stroke-width="4"/>
<line y1="-2" x2="1079.3" y2="-2" transform="matrix(0.000442626 -1 1 -0.000442626 93.5303 1459.57)" stroke="white" stroke-width="4"/>
<line y1="-2" x2="1079.3" y2="-2" transform="matrix(0.000442626 -1 1 -0.000442626 77.2676 1458.87)" stroke="white" stroke-width="4"/>
<line y1="-2" x2="1079.3" y2="-2" transform="matrix(0.000442626 -1 1 -0.000442626 59.5889 1458.16)" stroke="white" stroke-width="4"/>
<line y1="-2" x2="1079.3" y2="-2" transform="matrix(0.000442626 -1 1 -0.000442626 43.3252 1456.04)" stroke="white" stroke-width="4"/>
<line y1="-2" x2="1079.3" y2="-2" transform="matrix(0.000240869 -1 1 -0.000240869 275.354 1292.11)" stroke="white" stroke-width="4"/>
<line y1="-2" x2="1079.3" y2="-2" transform="matrix(0.000240869 -1 1 -0.000240869 159.582 1407.88)" stroke="white" stroke-width="4"/>
<line y1="-2" x2="1079.3" y2="-2" transform="matrix(0.000240869 -1 1 -0.000240869 291.877 1275.59)" stroke="white" stroke-width="4"/>
<line y1="-2" x2="1079.3" y2="-2" transform="matrix(0.000240869 -1 1 -0.000240869 176.104 1391.36)" stroke="white" stroke-width="4"/>
<line y1="-2" x2="1079.3" y2="-2" transform="matrix(0.000240869 -1 1 -0.000240869 308.399 1259.07)" stroke="white" stroke-width="4"/>
<line y1="-2" x2="1079.3" y2="-2" transform="matrix(0.000240869 -1 1 -0.000240869 192.628 1374.84)" stroke="white" stroke-width="4"/>
<line y1="-2" x2="1079.3" y2="-2" transform="matrix(0.000240869 -1 1 -0.000240869 324.923 1242.54)" stroke="white" stroke-width="4"/>
<line y1="-2" x2="1079.3" y2="-2" transform="matrix(0.000240869 -1 1 -0.000240869 209.151 1358.31)" stroke="white" stroke-width="4"/>
<line y1="-2" x2="1079.3" y2="-2" transform="matrix(0.000240869 -1 1 -0.000240869 341.446 1226.02)" stroke="white" stroke-width="4"/>
<line y1="-2" x2="1079.3" y2="-2" transform="matrix(0.000240869 -1 1 -0.000240869 357.969 1209.5)" stroke="white" stroke-width="4"/>
<line y1="-2" x2="1079.3" y2="-2" transform="matrix(0.000240869 -1 1 -0.000240869 374.492 1192.97)" stroke="white" stroke-width="4"/>
<line y1="-2" x2="1079.3" y2="-2" transform="matrix(0.000240869 -1 1 -0.000240869 391.016 1176.45)" stroke="white" stroke-width="4"/>
<line y1="-2" x2="1079.3" y2="-2" transform="matrix(0.000240869 -1 1 -0.000240869 407.539 1159.93)" stroke="white" stroke-width="4"/>
<line y1="-2" x2="1079.3" y2="-2" transform="matrix(0.000240869 -1 1 -0.000240869 424.062 1143.4)" stroke="white" stroke-width="4"/>
<line y1="-2" x2="1079.3" y2="-2" transform="matrix(0.000240869 -1 1 -0.000240869 440.585 1126.88)" stroke="white" stroke-width="4"/>
<line y1="-2" x2="1079.3" y2="-2" transform="matrix(0.000240869 -1 1 -0.000240869 457.108 1110.36)" stroke="white" stroke-width="4"/>
</g>
</g>
<defs>
<clipPath id="clip0_311_444">
<rect width="467" height="420" fill="white"/>
</clipPath>
<clipPath id="clip1_311_444">
<rect width="820" height="397" fill="white" transform="translate(30 558.828) rotate(-45)"/>
</clipPath>
</defs>
</svg>
