<svg width="120" height="120" viewBox="0 0 120 120" fill="none" xmlns="http://www.w3.org/2000/svg">
<g clip-path="url(#clip0_1421_515)">
<path d="M93.4633 45.7461H82.3047V97.2306H93.4633V45.7461Z" fill="#1A1A21"/>
<path d="M95.8167 20.2441C96.4597 21.5055 96.0176 33.9365 95.803 35.2984C95.5884 36.6595 94.9394 37.9217 93.9402 38.924C92.9402 39.9264 91.6336 40.6246 90.1855 40.9303C88.7373 41.236 87.2136 41.1354 85.8058 40.6415C84.398 40.1468 83.1696 39.2812 82.2768 38.1534C81.3832 37.0264 80.8656 35.6878 80.7875 34.3066C80.7102 32.9261 81.0767 31.565 81.8407 30.3962C82.6047 29.2273 94.4682 20.8064 95.8167 20.2441Z" fill="#1270C7"/>
<path d="M76.544 87.5472V97.2262H53.4696C45.9246 97.2262 39.4418 94.7549 34.0211 89.8125C28.6737 84.8008 26 78.7257 26 71.5871V20H36.5483V71.5871C36.5483 76.0485 38.1965 79.8245 41.4928 82.9136C44.7892 86.0026 48.7817 87.5472 53.4696 87.5472H76.544ZM153.784 55.73H126.424C121.663 55.73 117.634 57.2745 114.338 60.3635C111.042 63.4526 109.393 67.1932 109.393 71.5871C109.393 75.9801 111.042 79.7216 114.338 82.8106C117.707 85.8997 121.737 87.4442 126.424 87.4442H153.784V97.2262H126.424C118.806 97.2262 112.323 94.7204 106.976 89.7095C101.702 84.6978 99.0648 78.6573 99.0648 71.5871C99.0648 64.5161 101.702 58.4755 106.976 53.4647C112.323 48.3846 118.806 45.845 126.424 45.845H153.784V55.73ZM122.689 74.985C121.737 74.0237 121.26 72.8565 121.26 71.4841C121.26 70.1109 121.737 68.9783 122.689 68.0862C123.714 67.1249 124.959 66.6446 126.424 66.6446H140.159V76.3236H126.424C124.959 76.3236 123.714 75.8772 122.689 74.985ZM162.862 89.7095C157.515 84.6295 154.841 78.5197 154.841 71.3811C154.841 64.2417 157.515 58.1666 162.862 53.1558C168.209 48.0757 174.692 45.5361 182.31 45.5361H210V55.4211H182.31C177.549 55.4211 173.483 56.9994 170.114 60.1576C166.818 63.2467 165.169 66.9873 165.169 71.3811C165.169 75.8426 166.818 79.6524 170.114 82.8106C173.483 85.9681 177.549 87.5472 182.31 87.5472H210V97.3291H182.31C174.766 97.3291 168.283 94.7887 162.862 89.7095ZM243.393 45.1242C251.232 45.1242 257.824 47.6639 263.171 52.7439C268.519 57.7548 271.156 63.8983 271.083 71.1752V97.2262H260.644V71.1752C260.644 66.713 258.959 62.9032 255.59 59.7457C252.221 56.5191 248.155 54.9062 243.393 54.9062C238.632 54.9062 234.566 56.5191 231.197 59.7457C227.828 62.9032 226.142 66.713 226.142 71.1752V97.2262H215.484V20H226.142V50.7875C231.124 47.0115 236.874 45.1242 243.393 45.1242ZM276.626 20H286.954V45.7421H304.095V55.4211H286.954V71.4841C286.954 75.8772 288.639 79.6524 292.008 82.8106C295.378 85.9681 299.407 87.5472 304.095 87.5472V97.2262C296.55 97.2262 290.068 94.7549 284.647 89.8125C279.3 84.87 276.626 78.8978 276.626 71.896V20Z" fill="#1A1A21"/>
</g>
<defs>
<clipPath id="clip0_1421_515">
<rect width="83" height="100" fill="white" transform="translate(15 7)"/>
</clipPath>
</defs>
</svg>
