<svg width="2088" height="925" viewBox="0 0 2088 925" fill="none" xmlns="http://www.w3.org/2000/svg">
<g clip-path="url(#clip0_502_619)">
<g opacity="0.7">
<path fill-rule="evenodd" clip-rule="evenodd" d="M2007.74 -91.8931L2086.17 -46.6593L2007.74 -1.42555V-91.8931Z" fill="#D7D7D7"/>
<path fill-rule="evenodd" clip-rule="evenodd" d="M1847.22 -91.8931L1925.65 -46.6593L1847.22 -1.42555V-91.8931Z" fill="#D7D7D7"/>
<path fill-rule="evenodd" clip-rule="evenodd" d="M1686.7 -91.8931L1765.13 -46.6593L1686.7 -1.42555V-91.8931Z" fill="#D7D7D7"/>
<path fill-rule="evenodd" clip-rule="evenodd" d="M1526.17 -91.8931L1604.61 -46.6593L1526.17 -1.42555V-91.8931Z" fill="#D7D7D7"/>
<path fill-rule="evenodd" clip-rule="evenodd" d="M1365.65 -91.8931L1444.09 -46.6593L1365.65 -1.42555V-91.8931Z" fill="#D7D7D7"/>
<path fill-rule="evenodd" clip-rule="evenodd" d="M1205.13 -91.8931L1283.56 -46.6593L1205.13 -1.42555V-91.8931Z" fill="#D7D7D7"/>
<path fill-rule="evenodd" clip-rule="evenodd" d="M1044.61 -91.8931L1123.04 -46.6593L1044.61 -1.42555V-91.8931Z" fill="#D7D7D7"/>
<path fill-rule="evenodd" clip-rule="evenodd" d="M884.086 -91.8931L962.52 -46.6593L884.086 -1.42555V-91.8931Z" fill="#D7D7D7"/>
<path fill-rule="evenodd" clip-rule="evenodd" d="M723.564 -91.8931L801.999 -46.6593L723.564 -1.42555V-91.8931Z" fill="#D7D7D7"/>
<path fill-rule="evenodd" clip-rule="evenodd" d="M563.043 -91.8931L641.477 -46.6593L563.043 -1.42555V-91.8931Z" fill="#D7D7D7"/>
<path fill-rule="evenodd" clip-rule="evenodd" d="M402.521 -91.8931L480.955 -46.6593L402.521 -1.42555V-91.8931Z" fill="#D7D7D7"/>
<path fill-rule="evenodd" clip-rule="evenodd" d="M241.999 -91.8931L320.433 -46.6593L241.999 -1.42555V-91.8931Z" fill="#D7D7D7"/>
<path fill-rule="evenodd" clip-rule="evenodd" d="M81.477 -91.8931L159.911 -46.6593L81.477 -1.42555V-91.8931Z" fill="#D7D7D7"/>
<path fill-rule="evenodd" clip-rule="evenodd" d="M2007.74 -94V-0.0200102L1926.26 46.9685V-47.0115L2007.74 -94ZM1927.48 -45.6059L2005.91 -0.372112L1927.48 44.8617V-45.6059ZM2006.52 -1.42555L1928.09 -46.6593L2006.52 -91.8931V-1.42555Z" fill="#D7D7D7"/>
<path fill-rule="evenodd" clip-rule="evenodd" d="M1847.22 -94V-0.0200102L1765.74 46.9685V-47.0115L1847.22 -94ZM1766.96 -45.6059L1845.39 -0.372112L1766.96 44.8617V-45.6059ZM1846 -1.42555L1767.57 -46.6593L1846 -91.8931V-1.42555Z" fill="#D7D7D7"/>
<path fill-rule="evenodd" clip-rule="evenodd" d="M1686.7 -94V-0.0200102L1605.22 46.9685V-47.0115L1686.7 -94ZM1606.43 -45.6059L1684.87 -0.372112L1606.43 44.8617V-45.6059ZM1685.48 -1.42555L1607.05 -46.6593L1685.48 -91.8931V-1.42555Z" fill="#D7D7D7"/>
<path fill-rule="evenodd" clip-rule="evenodd" d="M1526.17 -94V-0.0200102L1444.7 46.9685V-47.0115L1526.17 -94ZM1445.91 -45.6059L1524.35 -0.372112L1445.91 44.8617V-45.6059ZM1524.96 -1.42555L1446.52 -46.6593L1524.96 -91.8931V-1.42555Z" fill="#D7D7D7"/>
<path fill-rule="evenodd" clip-rule="evenodd" d="M1365.65 -94V-0.0200102L1284.17 46.9685V-47.0115L1365.65 -94ZM1285.39 -45.6059L1363.83 -0.372112L1285.39 44.8617V-45.6059ZM1364.44 -1.42555L1286 -46.6593L1364.44 -91.8931V-1.42555Z" fill="#D7D7D7"/>
<path fill-rule="evenodd" clip-rule="evenodd" d="M1205.13 -94V-0.0200102L1123.65 46.9685V-47.0115L1205.13 -94ZM1124.87 -45.6059L1203.3 -0.372112L1124.87 44.8617V-45.6059ZM1203.91 -1.42555L1125.48 -46.6593L1203.91 -91.8931V-1.42555Z" fill="#D7D7D7"/>
<path fill-rule="evenodd" clip-rule="evenodd" d="M1044.61 -94V-0.0200102L963.131 46.9685V-47.0115L1044.61 -94ZM964.347 -45.6059L1042.78 -0.372112L964.347 44.8617V-45.6059ZM1043.39 -1.42555L964.958 -46.6593L1043.39 -91.8931V-1.42555Z" fill="#D7D7D7"/>
<path fill-rule="evenodd" clip-rule="evenodd" d="M884.086 -94V-0.0200102L802.609 46.9685V-47.0115L884.086 -94ZM803.825 -45.6059L882.26 -0.372112L803.825 44.8617V-45.6059ZM882.87 -1.42555L804.436 -46.6593L882.87 -91.8931V-1.42555Z" fill="#D7D7D7"/>
<path fill-rule="evenodd" clip-rule="evenodd" d="M723.564 -94V-0.0200102L642.087 46.9685V-47.0115L723.564 -94ZM643.303 -45.6059L721.738 -0.372112L643.303 44.8617V-45.6059ZM722.348 -1.42555L643.914 -46.6593L722.348 -91.8931V-1.42555Z" fill="#D7D7D7"/>
<path fill-rule="evenodd" clip-rule="evenodd" d="M563.043 -94V-0.0200102L481.566 46.9685V-47.0115L563.043 -94ZM482.782 -45.6059L561.216 -0.372112L482.782 44.8617V-45.6059ZM561.826 -1.42555L483.392 -46.6593L561.826 -91.8931V-1.42555Z" fill="#D7D7D7"/>
<path fill-rule="evenodd" clip-rule="evenodd" d="M402.521 -94V-0.0200102L321.044 46.9685V-47.0115L402.521 -94ZM322.26 -45.6059L400.694 -0.372112L322.26 44.8617V-45.6059ZM401.305 -1.42555L322.87 -46.6593L401.305 -91.8931V-1.42555Z" fill="#D7D7D7"/>
<path fill-rule="evenodd" clip-rule="evenodd" d="M241.999 -94V-0.0200102L160.522 46.9685V-47.0115L241.999 -94ZM161.738 -45.6059L240.172 -0.372112L161.738 44.8617V-45.6059ZM240.783 -1.42555L162.349 -46.6593L240.783 -91.8931V-1.42555Z" fill="#D7D7D7"/>
<path fill-rule="evenodd" clip-rule="evenodd" d="M81.477 -94V-0.0200102L0 46.9685V-47.0115L81.477 -94ZM1.2161 -45.6059L79.6504 -0.372112L1.2161 44.8617V-45.6059ZM80.2609 -1.42555L1.82665 -46.6593L80.2609 -91.8931V-1.42555Z" fill="#D7D7D7"/>
<path fill-rule="evenodd" clip-rule="evenodd" d="M2088 -47.7128V46.2672L2006.52 93.2558V-0.724231L2088 -47.7128ZM2007.74 0.68131L2086.17 45.9151L2007.74 91.1489V0.68131ZM2086.78 44.8617L2008.35 -0.372112L2086.78 -45.6059V44.8617Z" fill="#D7D7D7"/>
<path fill-rule="evenodd" clip-rule="evenodd" d="M1927.48 -47.7128V46.2672L1846 93.2558V-0.724231L1927.48 -47.7128ZM1847.22 0.68131L1925.65 45.9151L1847.22 91.1489V0.68131ZM1926.26 44.8617L1847.83 -0.372112L1926.26 -45.6059V44.8617Z" fill="#D7D7D7"/>
<path fill-rule="evenodd" clip-rule="evenodd" d="M1766.96 -47.7128V46.2672L1685.48 93.2558V-0.724231L1766.96 -47.7128ZM1686.7 0.68131L1765.13 45.9151L1686.7 91.1489V0.68131ZM1765.74 44.8617L1687.31 -0.372112L1765.74 -45.6059V44.8617Z" fill="#D7D7D7"/>
<path fill-rule="evenodd" clip-rule="evenodd" d="M1606.43 -47.7128V46.2672L1524.96 93.2558V-0.724231L1606.43 -47.7128ZM1526.17 0.68131L1604.61 45.9151L1526.17 91.1489V0.68131ZM1605.22 44.8617L1526.78 -0.372112L1605.22 -45.6059V44.8617Z" fill="#D7D7D7"/>
<path fill-rule="evenodd" clip-rule="evenodd" d="M1445.91 -47.7128V46.2672L1364.44 93.2558V-0.724231L1445.91 -47.7128ZM1365.65 0.68131L1444.09 45.9151L1365.65 91.1489V0.68131ZM1444.7 44.8617L1366.26 -0.372112L1444.7 -45.6059V44.8617Z" fill="#D7D7D7"/>
<path fill-rule="evenodd" clip-rule="evenodd" d="M1285.39 -47.7128V46.2672L1203.91 93.2558V-0.724231L1285.39 -47.7128ZM1205.13 0.68131L1283.56 45.9151L1205.13 91.1489V0.68131ZM1284.17 44.8617L1205.74 -0.372112L1284.17 -45.6059V44.8617Z" fill="#D7D7D7"/>
<path fill-rule="evenodd" clip-rule="evenodd" d="M1124.87 -47.7128V46.2672L1043.39 93.2558V-0.724231L1124.87 -47.7128ZM1044.61 0.68131L1123.04 45.9151L1044.61 91.1489V0.68131ZM1123.65 44.8617L1045.22 -0.372112L1123.65 -45.6059V44.8617Z" fill="#D7D7D7"/>
<path fill-rule="evenodd" clip-rule="evenodd" d="M964.347 -47.7128V46.2672L882.87 93.2558V-0.724231L964.347 -47.7128ZM884.086 0.68131L962.52 45.9151L884.086 91.1489V0.68131ZM963.131 44.8617L884.697 -0.372112L963.131 -45.6059V44.8617Z" fill="#D7D7D7"/>
<path fill-rule="evenodd" clip-rule="evenodd" d="M803.825 -47.7128V46.2672L722.348 93.2558V-0.724231L803.825 -47.7128ZM723.564 0.68131L801.999 45.9151L723.564 91.1489V0.68131ZM802.609 44.8617L724.175 -0.372112L802.609 -45.6059V44.8617Z" fill="#D7D7D7"/>
<path fill-rule="evenodd" clip-rule="evenodd" d="M643.303 -47.7128V46.2672L561.826 93.2558V-0.724231L643.303 -47.7128ZM563.043 0.68131L641.477 45.9151L563.043 91.1489V0.68131ZM642.087 44.8617L563.653 -0.372112L642.087 -45.6059V44.8617Z" fill="#D7D7D7"/>
<path fill-rule="evenodd" clip-rule="evenodd" d="M482.782 -47.7128V46.2672L401.305 93.2558V-0.724231L482.782 -47.7128ZM402.521 0.68131L480.955 45.9151L402.521 91.1489V0.68131ZM481.566 44.8617L403.131 -0.372112L481.566 -45.6059V44.8617Z" fill="#D7D7D7"/>
<path fill-rule="evenodd" clip-rule="evenodd" d="M322.26 -47.7128V46.2672L240.783 93.2558V-0.724231L322.26 -47.7128ZM241.999 0.68131L320.433 45.9151L241.999 91.1489V0.68131ZM321.044 44.8617L242.609 -0.372112L321.044 -45.6059V44.8617Z" fill="#D7D7D7"/>
<path fill-rule="evenodd" clip-rule="evenodd" d="M161.738 -47.7128V46.2672L80.2609 93.2558V-0.724231L161.738 -47.7128ZM81.477 0.68131L159.911 45.9151L81.477 91.1489V0.68131ZM160.522 44.8617L82.0876 -0.372112L160.522 -45.6059V44.8617Z" fill="#D7D7D7"/>
<path fill-rule="evenodd" clip-rule="evenodd" d="M2007.74 -1.42555V92.5544L1926.26 139.543V45.563L2007.74 -1.42555ZM1927.48 46.9685L2005.91 92.2023L1927.48 137.436V46.9685ZM2006.52 91.1489L1928.09 45.9151L2006.52 0.68131V91.1489Z" fill="#D7D7D7"/>
<path fill-rule="evenodd" clip-rule="evenodd" d="M1847.22 -1.42555V92.5544L1765.74 139.543V45.563L1847.22 -1.42555ZM1766.96 46.9685L1845.39 92.2023L1766.96 137.436V46.9685ZM1846 91.1489L1767.57 45.9151L1846 0.68131V91.1489Z" fill="#D7D7D7"/>
<path fill-rule="evenodd" clip-rule="evenodd" d="M1686.7 -1.42555V92.5544L1605.22 139.543V45.563L1686.7 -1.42555ZM1606.43 46.9685L1684.87 92.2023L1606.43 137.436V46.9685ZM1685.48 91.1489L1607.05 45.9151L1685.48 0.68131V91.1489Z" fill="#D7D7D7"/>
<path fill-rule="evenodd" clip-rule="evenodd" d="M1526.17 -1.42555V92.5544L1444.7 139.543V45.563L1526.17 -1.42555ZM1445.91 46.9685L1524.35 92.2023L1445.91 137.436V46.9685ZM1524.96 91.1489L1446.52 45.9151L1524.96 0.68131V91.1489Z" fill="#D7D7D7"/>
<path fill-rule="evenodd" clip-rule="evenodd" d="M1365.65 -1.42555V92.5544L1284.17 139.543V45.563L1365.65 -1.42555ZM1285.39 46.9685L1363.83 92.2023L1285.39 137.436V46.9685ZM1364.44 91.1489L1286 45.9151L1364.44 0.68131V91.1489Z" fill="#D7D7D7"/>
<path fill-rule="evenodd" clip-rule="evenodd" d="M1205.13 -1.42555V92.5544L1123.65 139.543V45.563L1205.13 -1.42555ZM1124.87 46.9685L1203.3 92.2023L1124.87 137.436V46.9685ZM1203.91 91.1489L1125.48 45.9151L1203.91 0.68131V91.1489Z" fill="#D7D7D7"/>
<path fill-rule="evenodd" clip-rule="evenodd" d="M1044.61 -1.42555V92.5544L963.131 139.543V45.563L1044.61 -1.42555ZM964.347 46.9685L1042.78 92.2023L964.347 137.436V46.9685ZM1043.39 91.1489L964.958 45.9151L1043.39 0.68131V91.1489Z" fill="#D7D7D7"/>
<path fill-rule="evenodd" clip-rule="evenodd" d="M884.086 -1.42555V92.5544L802.609 139.543V45.563L884.086 -1.42555ZM803.825 46.9685L882.26 92.2023L803.825 137.436V46.9685ZM882.87 91.1489L804.436 45.9151L882.87 0.68131V91.1489Z" fill="#D7D7D7"/>
<path fill-rule="evenodd" clip-rule="evenodd" d="M723.564 -1.42555V92.5544L642.087 139.543V45.563L723.564 -1.42555ZM643.303 46.9685L721.738 92.2023L643.303 137.436V46.9685ZM722.348 91.1489L643.914 45.9151L722.348 0.68131V91.1489Z" fill="#D7D7D7"/>
<path fill-rule="evenodd" clip-rule="evenodd" d="M563.043 -1.42555V92.5544L481.566 139.543V45.563L563.043 -1.42555ZM482.782 46.9685L561.216 92.2023L482.782 137.436V46.9685ZM561.826 91.1489L483.392 45.9151L561.826 0.68131V91.1489Z" fill="#D7D7D7"/>
<path fill-rule="evenodd" clip-rule="evenodd" d="M402.521 -1.42555V92.5544L321.044 139.543V45.563L402.521 -1.42555ZM322.26 46.9685L400.694 92.2023L322.26 137.436V46.9685ZM401.305 91.1489L322.87 45.9151L401.305 0.68131V91.1489Z" fill="#D7D7D7"/>
<path fill-rule="evenodd" clip-rule="evenodd" d="M241.999 -1.42555V92.5544L160.522 139.543V45.563L241.999 -1.42555ZM161.738 46.9685L240.172 92.2023L161.738 137.436V46.9685ZM240.783 91.1489L162.349 45.9151L240.783 0.68131V91.1489Z" fill="#D7D7D7"/>
<path fill-rule="evenodd" clip-rule="evenodd" d="M81.477 -1.42555V92.5544L0 139.543V45.563L81.477 -1.42555ZM1.2161 46.9685L79.6504 92.2023L1.2161 137.436V46.9685ZM80.2609 91.1489L1.82665 45.9151L80.2609 0.68131V91.1489Z" fill="#D7D7D7"/>
<path fill-rule="evenodd" clip-rule="evenodd" d="M2088 44.8617V138.842L2006.52 185.83V91.8502L2088 44.8617ZM2007.74 93.2558L2086.17 138.49L2007.74 183.723V93.2558ZM2086.78 137.436L2008.35 92.2023L2086.78 46.9685V137.436Z" fill="#D7D7D7"/>
<path fill-rule="evenodd" clip-rule="evenodd" d="M1927.48 44.8617V138.842L1846 185.83V91.8502L1927.48 44.8617ZM1847.22 93.2558L1925.65 138.49L1847.22 183.723V93.2558ZM1926.26 137.436L1847.83 92.2023L1926.26 46.9685V137.436Z" fill="#D7D7D7"/>
<path fill-rule="evenodd" clip-rule="evenodd" d="M1766.96 44.8617V138.842L1685.48 185.83V91.8502L1766.96 44.8617ZM1686.7 93.2558L1765.13 138.49L1686.7 183.723V93.2558ZM1765.74 137.436L1687.31 92.2023L1765.74 46.9685V137.436Z" fill="#D7D7D7"/>
<path fill-rule="evenodd" clip-rule="evenodd" d="M1606.43 44.8617V138.842L1524.96 185.83V91.8502L1606.43 44.8617ZM1526.17 93.2558L1604.61 138.49L1526.17 183.723V93.2558ZM1605.22 137.436L1526.78 92.2023L1605.22 46.9685V137.436Z" fill="#D7D7D7"/>
<path fill-rule="evenodd" clip-rule="evenodd" d="M1445.91 44.8617V138.842L1364.44 185.83V91.8502L1445.91 44.8617ZM1365.65 93.2558L1444.09 138.49L1365.65 183.723V93.2558ZM1444.7 137.436L1366.26 92.2023L1444.7 46.9685V137.436Z" fill="#D7D7D7"/>
<path fill-rule="evenodd" clip-rule="evenodd" d="M1285.39 44.8617V138.842L1203.91 185.83V91.8502L1285.39 44.8617ZM1205.13 93.2558L1283.56 138.49L1205.13 183.723V93.2558ZM1284.17 137.436L1205.74 92.2023L1284.17 46.9685V137.436Z" fill="#D7D7D7"/>
<path fill-rule="evenodd" clip-rule="evenodd" d="M1124.87 44.8617V138.842L1043.39 185.83V91.8502L1124.87 44.8617ZM1044.61 93.2558L1123.04 138.49L1044.61 183.723V93.2558ZM1123.65 137.436L1045.22 92.2023L1123.65 46.9685V137.436Z" fill="#D7D7D7"/>
<path fill-rule="evenodd" clip-rule="evenodd" d="M964.347 44.8617V138.842L882.87 185.83V91.8502L964.347 44.8617ZM884.086 93.2558L962.52 138.49L884.086 183.723V93.2558ZM963.131 137.436L884.697 92.2023L963.131 46.9685V137.436Z" fill="#D7D7D7"/>
<path fill-rule="evenodd" clip-rule="evenodd" d="M803.825 44.8617V138.842L722.348 185.83V91.8502L803.825 44.8617ZM723.564 93.2558L801.999 138.49L723.564 183.723V93.2558ZM802.609 137.436L724.175 92.2023L802.609 46.9685V137.436Z" fill="#D7D7D7"/>
<path fill-rule="evenodd" clip-rule="evenodd" d="M643.303 44.8617V138.842L561.826 185.83V91.8502L643.303 44.8617ZM563.043 93.2558L641.477 138.49L563.043 183.723V93.2558ZM642.087 137.436L563.653 92.2023L642.087 46.9685V137.436Z" fill="#D7D7D7"/>
<path fill-rule="evenodd" clip-rule="evenodd" d="M482.782 44.8617V138.842L401.305 185.83V91.8502L482.782 44.8617ZM402.521 93.2558L480.955 138.49L402.521 183.723V93.2558ZM481.566 137.436L403.131 92.2023L481.566 46.9685V137.436Z" fill="#D7D7D7"/>
<path fill-rule="evenodd" clip-rule="evenodd" d="M322.26 44.8617V138.842L240.783 185.83V91.8502L322.26 44.8617ZM241.999 93.2558L320.433 138.49L241.999 183.723V93.2558ZM321.044 137.436L242.609 92.2023L321.044 46.9685V137.436Z" fill="#D7D7D7"/>
<path fill-rule="evenodd" clip-rule="evenodd" d="M161.738 44.8617V138.842L80.2609 185.83V91.8502L161.738 44.8617ZM81.477 93.2558L159.911 138.49L81.477 183.723V93.2558ZM160.522 137.436L82.0876 92.2023L160.522 46.9685V137.436Z" fill="#D7D7D7"/>
<path fill-rule="evenodd" clip-rule="evenodd" d="M2007.74 91.1489V185.129L1926.26 232.117V138.137L2007.74 91.1489ZM1927.48 139.543L2005.91 184.777L1927.48 230.011V139.543ZM2006.52 183.723L1928.09 138.49L2006.52 93.2558V183.723Z" fill="#D7D7D7"/>
<path fill-rule="evenodd" clip-rule="evenodd" d="M1847.22 91.1489V185.129L1765.74 232.117V138.137L1847.22 91.1489ZM1766.96 139.543L1845.39 184.777L1766.96 230.011V139.543ZM1846 183.723L1767.57 138.49L1846 93.2558V183.723Z" fill="#D7D7D7"/>
<path fill-rule="evenodd" clip-rule="evenodd" d="M1686.7 91.1489V185.129L1605.22 232.117V138.137L1686.7 91.1489ZM1606.43 139.543L1684.87 184.777L1606.43 230.011V139.543ZM1685.48 183.723L1607.05 138.49L1685.48 93.2558V183.723Z" fill="#D7D7D7"/>
<path fill-rule="evenodd" clip-rule="evenodd" d="M1526.17 91.1489V185.129L1444.7 232.117V138.137L1526.17 91.1489ZM1445.91 139.543L1524.35 184.777L1445.91 230.011V139.543ZM1524.96 183.723L1446.52 138.49L1524.96 93.2558V183.723Z" fill="#D7D7D7"/>
<path fill-rule="evenodd" clip-rule="evenodd" d="M1365.65 91.1489V185.129L1284.17 232.117V138.137L1365.65 91.1489ZM1285.39 139.543L1363.83 184.777L1285.39 230.011V139.543ZM1364.44 183.723L1286 138.49L1364.44 93.2558V183.723Z" fill="#D7D7D7"/>
<path fill-rule="evenodd" clip-rule="evenodd" d="M1205.13 91.1489V185.129L1123.65 232.117V138.137L1205.13 91.1489ZM1124.87 139.543L1203.3 184.777L1124.87 230.011V139.543ZM1203.91 183.723L1125.48 138.49L1203.91 93.2558V183.723Z" fill="#D7D7D7"/>
<path fill-rule="evenodd" clip-rule="evenodd" d="M1044.61 91.1489V185.129L963.131 232.117V138.137L1044.61 91.1489ZM964.347 139.543L1042.78 184.777L964.347 230.011V139.543ZM1043.39 183.723L964.958 138.49L1043.39 93.2558V183.723Z" fill="#D7D7D7"/>
<path fill-rule="evenodd" clip-rule="evenodd" d="M884.086 91.1489V185.129L802.609 232.117V138.137L884.086 91.1489ZM803.825 139.543L882.26 184.777L803.825 230.011V139.543ZM882.87 183.723L804.436 138.49L882.87 93.2558V183.723Z" fill="#D7D7D7"/>
<path fill-rule="evenodd" clip-rule="evenodd" d="M723.564 91.1489V185.129L642.087 232.117V138.137L723.564 91.1489ZM643.303 139.543L721.738 184.777L643.303 230.011V139.543ZM722.348 183.723L643.914 138.49L722.348 93.2558V183.723Z" fill="#D7D7D7"/>
<path fill-rule="evenodd" clip-rule="evenodd" d="M563.043 91.1489V185.129L481.566 232.117V138.137L563.043 91.1489ZM482.782 139.543L561.216 184.777L482.782 230.011V139.543ZM561.826 183.723L483.392 138.49L561.826 93.2558V183.723Z" fill="#D7D7D7"/>
<path fill-rule="evenodd" clip-rule="evenodd" d="M402.521 91.1489V185.129L321.044 232.117V138.137L402.521 91.1489ZM322.26 139.543L400.694 184.777L322.26 230.011V139.543ZM401.305 183.723L322.87 138.49L401.305 93.2558V183.723Z" fill="#D7D7D7"/>
<path fill-rule="evenodd" clip-rule="evenodd" d="M241.999 91.1489V185.129L160.522 232.117V138.137L241.999 91.1489ZM161.738 139.543L240.172 184.777L161.738 230.011V139.543ZM240.783 183.723L162.349 138.49L240.783 93.2558V183.723Z" fill="#D7D7D7"/>
<path fill-rule="evenodd" clip-rule="evenodd" d="M81.477 91.1489V185.129L0 232.117V138.137L81.477 91.1489ZM1.2161 139.543L79.6504 184.777L1.2161 230.011V139.543ZM80.2609 183.723L1.82665 138.49L80.2609 93.2558V183.723Z" fill="#D7D7D7"/>
<path fill-rule="evenodd" clip-rule="evenodd" d="M2088 137.436V231.416L2006.52 278.405V184.425L2088 137.436ZM2007.74 185.83L2086.17 231.064L2007.74 276.298V185.83ZM2086.78 230.011L2008.35 184.777L2086.78 139.543V230.011Z" fill="#D7D7D7"/>
<path fill-rule="evenodd" clip-rule="evenodd" d="M1927.48 137.436V231.416L1846 278.405V184.425L1927.48 137.436ZM1847.22 185.83L1925.65 231.064L1847.22 276.298V185.83ZM1926.26 230.011L1847.83 184.777L1926.26 139.543V230.011Z" fill="#D7D7D7"/>
<path fill-rule="evenodd" clip-rule="evenodd" d="M1766.96 137.436V231.416L1685.48 278.405V184.425L1766.96 137.436ZM1686.7 185.83L1765.13 231.064L1686.7 276.298V185.83ZM1765.74 230.011L1687.31 184.777L1765.74 139.543V230.011Z" fill="#D7D7D7"/>
<path fill-rule="evenodd" clip-rule="evenodd" d="M1606.43 137.436V231.416L1524.96 278.405V184.425L1606.43 137.436ZM1526.17 185.83L1604.61 231.064L1526.17 276.298V185.83ZM1605.22 230.011L1526.78 184.777L1605.22 139.543V230.011Z" fill="#D7D7D7"/>
<path fill-rule="evenodd" clip-rule="evenodd" d="M1445.91 137.436V231.416L1364.44 278.405V184.425L1445.91 137.436ZM1365.65 185.83L1444.09 231.064L1365.65 276.298V185.83ZM1444.7 230.011L1366.26 184.777L1444.7 139.543V230.011Z" fill="#D7D7D7"/>
<path fill-rule="evenodd" clip-rule="evenodd" d="M1285.39 137.436V231.416L1203.91 278.405V184.425L1285.39 137.436ZM1205.13 185.83L1283.56 231.064L1205.13 276.298V185.83ZM1284.17 230.011L1205.74 184.777L1284.17 139.543V230.011Z" fill="#D7D7D7"/>
<path fill-rule="evenodd" clip-rule="evenodd" d="M1124.87 137.436V231.416L1043.39 278.405V184.425L1124.87 137.436ZM1044.61 185.83L1123.04 231.064L1044.61 276.298V185.83ZM1123.65 230.011L1045.22 184.777L1123.65 139.543V230.011Z" fill="#D7D7D7"/>
<path fill-rule="evenodd" clip-rule="evenodd" d="M964.347 137.436V231.416L882.87 278.405V184.425L964.347 137.436ZM884.086 185.83L962.52 231.064L884.086 276.298V185.83ZM963.131 230.011L884.697 184.777L963.131 139.543V230.011Z" fill="#D7D7D7"/>
<path fill-rule="evenodd" clip-rule="evenodd" d="M803.825 137.436V231.416L722.348 278.405V184.425L803.825 137.436ZM723.564 185.83L801.999 231.064L723.564 276.298V185.83ZM802.609 230.011L724.175 184.777L802.609 139.543V230.011Z" fill="#D7D7D7"/>
<path fill-rule="evenodd" clip-rule="evenodd" d="M643.303 137.436V231.416L561.826 278.405V184.425L643.303 137.436ZM563.043 185.83L641.477 231.064L563.043 276.298V185.83ZM642.087 230.011L563.653 184.777L642.087 139.543V230.011Z" fill="#D7D7D7"/>
<path fill-rule="evenodd" clip-rule="evenodd" d="M482.782 137.436V231.416L401.305 278.405V184.425L482.782 137.436ZM402.521 185.83L480.955 231.064L402.521 276.298V185.83ZM481.566 230.011L403.131 184.777L481.566 139.543V230.011Z" fill="#D7D7D7"/>
<path fill-rule="evenodd" clip-rule="evenodd" d="M322.26 137.436V231.416L240.783 278.405V184.425L322.26 137.436ZM241.999 185.83L320.433 231.064L241.999 276.298V185.83ZM321.044 230.011L242.609 184.777L321.044 139.543V230.011Z" fill="#D7D7D7"/>
<path fill-rule="evenodd" clip-rule="evenodd" d="M161.738 137.436V231.416L80.2609 278.405V184.425L161.738 137.436ZM81.477 185.83L159.911 231.064L81.477 276.298V185.83ZM160.522 230.011L82.0876 184.777L160.522 139.543V230.011Z" fill="#D7D7D7"/>
<path fill-rule="evenodd" clip-rule="evenodd" d="M2007.74 183.723V277.703L1926.26 324.692V230.712L2007.74 183.723ZM1927.48 232.117L2005.91 277.351L1927.48 322.585V232.117ZM2006.52 276.298L1928.09 231.064L2006.52 185.83V276.298Z" fill="#D7D7D7"/>
<path fill-rule="evenodd" clip-rule="evenodd" d="M1847.22 183.723V277.703L1765.74 324.692V230.712L1847.22 183.723ZM1766.96 232.117L1845.39 277.351L1766.96 322.585V232.117ZM1846 276.298L1767.57 231.064L1846 185.83V276.298Z" fill="#D7D7D7"/>
<path fill-rule="evenodd" clip-rule="evenodd" d="M1686.7 183.723V277.703L1605.22 324.692V230.712L1686.7 183.723ZM1606.43 232.117L1684.87 277.351L1606.43 322.585V232.117ZM1685.48 276.298L1607.05 231.064L1685.48 185.83V276.298Z" fill="#D7D7D7"/>
<path fill-rule="evenodd" clip-rule="evenodd" d="M1526.17 183.723V277.703L1444.7 324.692V230.712L1526.17 183.723ZM1445.91 232.117L1524.35 277.351L1445.91 322.585V232.117ZM1524.96 276.298L1446.52 231.064L1524.96 185.83V276.298Z" fill="#D7D7D7"/>
<path fill-rule="evenodd" clip-rule="evenodd" d="M1365.65 183.723V277.703L1284.17 324.692V230.712L1365.65 183.723ZM1285.39 232.117L1363.83 277.351L1285.39 322.585V232.117ZM1364.44 276.298L1286 231.064L1364.44 185.83V276.298Z" fill="#D7D7D7"/>
<path fill-rule="evenodd" clip-rule="evenodd" d="M1205.13 183.723V277.703L1123.65 324.692V230.712L1205.13 183.723ZM1124.87 232.117L1203.3 277.351L1124.87 322.585V232.117ZM1203.91 276.298L1125.48 231.064L1203.91 185.83V276.298Z" fill="#D7D7D7"/>
<path fill-rule="evenodd" clip-rule="evenodd" d="M1044.61 183.723V277.703L963.131 324.692V230.712L1044.61 183.723ZM964.347 232.117L1042.78 277.351L964.347 322.585V232.117ZM1043.39 276.298L964.958 231.064L1043.39 185.83V276.298Z" fill="#D7D7D7"/>
<path fill-rule="evenodd" clip-rule="evenodd" d="M884.086 183.723V277.703L802.609 324.692V230.712L884.086 183.723ZM803.825 232.117L882.26 277.351L803.825 322.585V232.117ZM882.87 276.298L804.436 231.064L882.87 185.83V276.298Z" fill="#D7D7D7"/>
<path fill-rule="evenodd" clip-rule="evenodd" d="M723.564 183.723V277.703L642.087 324.692V230.712L723.564 183.723ZM643.303 232.117L721.738 277.351L643.303 322.585V232.117ZM722.348 276.298L643.914 231.064L722.348 185.83V276.298Z" fill="#D7D7D7"/>
<path fill-rule="evenodd" clip-rule="evenodd" d="M563.043 183.723V277.703L481.566 324.692V230.712L563.043 183.723ZM482.782 232.117L561.216 277.351L482.782 322.585V232.117ZM561.826 276.298L483.392 231.064L561.826 185.83V276.298Z" fill="#D7D7D7"/>
<path fill-rule="evenodd" clip-rule="evenodd" d="M402.521 183.723V277.703L321.044 324.692V230.712L402.521 183.723ZM322.26 232.117L400.694 277.351L322.26 322.585V232.117ZM401.305 276.298L322.87 231.064L401.305 185.83V276.298Z" fill="#D7D7D7"/>
<path fill-rule="evenodd" clip-rule="evenodd" d="M241.999 183.723V277.703L160.522 324.692V230.712L241.999 183.723ZM161.738 232.117L240.172 277.351L161.738 322.585V232.117ZM240.783 276.298L162.349 231.064L240.783 185.83V276.298Z" fill="#D7D7D7"/>
<path fill-rule="evenodd" clip-rule="evenodd" d="M81.477 183.723V277.703L0 324.692V230.712L81.477 183.723ZM1.2161 232.117L79.6504 277.351L1.2161 322.585V232.117ZM80.2609 276.298L1.82665 231.064L80.2609 185.83V276.298Z" fill="#D7D7D7"/>
<path fill-rule="evenodd" clip-rule="evenodd" d="M2088 230.011V323.991L2006.52 370.979V276.999L2088 230.011ZM2007.74 278.405L2086.17 323.638L2007.74 368.872V278.405ZM2086.78 322.585L2008.35 277.351L2086.78 232.117V322.585Z" fill="#D7D7D7"/>
<path fill-rule="evenodd" clip-rule="evenodd" d="M1927.48 230.011V323.991L1846 370.979V276.999L1927.48 230.011ZM1847.22 278.405L1925.65 323.638L1847.22 368.872V278.405ZM1926.26 322.585L1847.83 277.351L1926.26 232.117V322.585Z" fill="#D7D7D7"/>
<path fill-rule="evenodd" clip-rule="evenodd" d="M1766.96 230.011V323.991L1685.48 370.979V276.999L1766.96 230.011ZM1686.7 278.405L1765.13 323.638L1686.7 368.872V278.405ZM1765.74 322.585L1687.31 277.351L1765.74 232.117V322.585Z" fill="#D7D7D7"/>
<path fill-rule="evenodd" clip-rule="evenodd" d="M1606.43 230.011V323.991L1524.96 370.979V276.999L1606.43 230.011ZM1526.17 278.405L1604.61 323.638L1526.17 368.872V278.405ZM1605.22 322.585L1526.78 277.351L1605.22 232.117V322.585Z" fill="#D7D7D7"/>
<path fill-rule="evenodd" clip-rule="evenodd" d="M1445.91 230.011V323.991L1364.44 370.979V276.999L1445.91 230.011ZM1365.65 278.405L1444.09 323.638L1365.65 368.872V278.405ZM1444.7 322.585L1366.26 277.351L1444.7 232.117V322.585Z" fill="#D7D7D7"/>
<path fill-rule="evenodd" clip-rule="evenodd" d="M1285.39 230.011V323.991L1203.91 370.979V276.999L1285.39 230.011ZM1205.13 278.405L1283.56 323.638L1205.13 368.872V278.405ZM1284.17 322.585L1205.74 277.351L1284.17 232.117V322.585Z" fill="#D7D7D7"/>
<path fill-rule="evenodd" clip-rule="evenodd" d="M1124.87 230.011V323.991L1043.39 370.979V276.999L1124.87 230.011ZM1044.61 278.405L1123.04 323.638L1044.61 368.872V278.405ZM1123.65 322.585L1045.22 277.351L1123.65 232.117V322.585Z" fill="#D7D7D7"/>
<path fill-rule="evenodd" clip-rule="evenodd" d="M964.347 230.011V323.991L882.87 370.979V276.999L964.347 230.011ZM884.086 278.405L962.52 323.638L884.086 368.872V278.405ZM963.131 322.585L884.697 277.351L963.131 232.117V322.585Z" fill="#D7D7D7"/>
<path fill-rule="evenodd" clip-rule="evenodd" d="M803.825 230.011V323.991L722.348 370.979V276.999L803.825 230.011ZM723.564 278.405L801.999 323.638L723.564 368.872V278.405ZM802.609 322.585L724.175 277.351L802.609 232.117V322.585Z" fill="#D7D7D7"/>
<path fill-rule="evenodd" clip-rule="evenodd" d="M643.303 230.011V323.991L561.826 370.979V276.999L643.303 230.011ZM563.043 278.405L641.477 323.638L563.043 368.872V278.405ZM642.087 322.585L563.653 277.351L642.087 232.117V322.585Z" fill="#D7D7D7"/>
<path fill-rule="evenodd" clip-rule="evenodd" d="M482.782 230.011V323.991L401.305 370.979V276.999L482.782 230.011ZM402.521 278.405L480.955 323.638L402.521 368.872V278.405ZM481.566 322.585L403.131 277.351L481.566 232.117V322.585Z" fill="#D7D7D7"/>
<path fill-rule="evenodd" clip-rule="evenodd" d="M322.26 230.011V323.991L240.783 370.979V276.999L322.26 230.011ZM241.999 278.405L320.433 323.638L241.999 368.872V278.405ZM321.044 322.585L242.609 277.351L321.044 232.117V322.585Z" fill="#D7D7D7"/>
<path fill-rule="evenodd" clip-rule="evenodd" d="M161.738 230.011V323.991L80.2609 370.979V276.999L161.738 230.011ZM81.477 278.405L159.911 323.638L81.477 368.872V278.405ZM160.522 322.585L82.0876 277.351L160.522 232.117V322.585Z" fill="#D7D7D7"/>
<path fill-rule="evenodd" clip-rule="evenodd" d="M2007.74 276.298V370.278L1926.26 417.266V323.286L2007.74 276.298ZM1927.48 324.692L2005.91 369.926L1927.48 415.159V324.692ZM2006.52 368.872L1928.09 323.638L2006.52 278.405V368.872Z" fill="#D7D7D7"/>
<path fill-rule="evenodd" clip-rule="evenodd" d="M1847.22 276.298V370.278L1765.74 417.266V323.286L1847.22 276.298ZM1766.96 324.692L1845.39 369.926L1766.96 415.159V324.692ZM1846 368.872L1767.57 323.638L1846 278.405V368.872Z" fill="#D7D7D7"/>
<path fill-rule="evenodd" clip-rule="evenodd" d="M1686.7 276.298V370.278L1605.22 417.266V323.286L1686.7 276.298ZM1606.43 324.692L1684.87 369.926L1606.43 415.159V324.692ZM1685.48 368.872L1607.05 323.638L1685.48 278.405V368.872Z" fill="#D7D7D7"/>
<path fill-rule="evenodd" clip-rule="evenodd" d="M1526.17 276.298V370.278L1444.7 417.266V323.286L1526.17 276.298ZM1445.91 324.692L1524.35 369.926L1445.91 415.159V324.692ZM1524.96 368.872L1446.52 323.638L1524.96 278.405V368.872Z" fill="#D7D7D7"/>
<path fill-rule="evenodd" clip-rule="evenodd" d="M1365.65 276.298V370.278L1284.17 417.266V323.286L1365.65 276.298ZM1285.39 324.692L1363.83 369.926L1285.39 415.159V324.692ZM1364.44 368.872L1286 323.638L1364.44 278.405V368.872Z" fill="#D7D7D7"/>
<path fill-rule="evenodd" clip-rule="evenodd" d="M1205.13 276.298V370.278L1123.65 417.266V323.286L1205.13 276.298ZM1124.87 324.692L1203.3 369.926L1124.87 415.159V324.692ZM1203.91 368.872L1125.48 323.638L1203.91 278.405V368.872Z" fill="#D7D7D7"/>
<path fill-rule="evenodd" clip-rule="evenodd" d="M1044.61 276.298V370.278L963.131 417.266V323.286L1044.61 276.298ZM964.347 324.692L1042.78 369.926L964.347 415.159V324.692ZM1043.39 368.872L964.958 323.638L1043.39 278.405V368.872Z" fill="#D7D7D7"/>
<path fill-rule="evenodd" clip-rule="evenodd" d="M884.086 276.298V370.278L802.609 417.266V323.286L884.086 276.298ZM803.825 324.692L882.26 369.926L803.825 415.159V324.692ZM882.87 368.872L804.436 323.638L882.87 278.405V368.872Z" fill="#D7D7D7"/>
<path fill-rule="evenodd" clip-rule="evenodd" d="M723.564 276.298V370.278L642.087 417.266V323.286L723.564 276.298ZM643.303 324.692L721.738 369.926L643.303 415.159V324.692ZM722.348 368.872L643.914 323.638L722.348 278.405V368.872Z" fill="#D7D7D7"/>
<path fill-rule="evenodd" clip-rule="evenodd" d="M563.043 276.298V370.278L481.566 417.266V323.286L563.043 276.298ZM482.782 324.692L561.216 369.926L482.782 415.159V324.692ZM561.826 368.872L483.392 323.638L561.826 278.405V368.872Z" fill="#D7D7D7"/>
<path fill-rule="evenodd" clip-rule="evenodd" d="M402.521 276.298V370.278L321.044 417.266V323.286L402.521 276.298ZM322.26 324.692L400.694 369.926L322.26 415.159V324.692ZM401.305 368.872L322.87 323.638L401.305 278.405V368.872Z" fill="#D7D7D7"/>
<path fill-rule="evenodd" clip-rule="evenodd" d="M241.999 276.298V370.278L160.522 417.266V323.286L241.999 276.298ZM161.738 324.692L240.172 369.926L161.738 415.159V324.692ZM240.783 368.872L162.349 323.638L240.783 278.405V368.872Z" fill="#D7D7D7"/>
<path fill-rule="evenodd" clip-rule="evenodd" d="M81.477 276.298V370.278L0 417.266V323.286L81.477 276.298ZM1.2161 324.692L79.6504 369.926L1.2161 415.159V324.692ZM80.2609 368.872L1.82665 323.638L80.2609 278.405V368.872Z" fill="#D7D7D7"/>
<path fill-rule="evenodd" clip-rule="evenodd" d="M2088 322.585V416.565L2006.52 463.554V369.574L2088 322.585ZM2007.74 370.979L2086.17 416.213L2007.74 461.447V370.979ZM2086.78 415.159L2008.35 369.926L2086.78 324.692V415.159Z" fill="#D7D7D7"/>
<path fill-rule="evenodd" clip-rule="evenodd" d="M1927.48 322.585V416.565L1846 463.554V369.574L1927.48 322.585ZM1847.22 370.979L1925.65 416.213L1847.22 461.447V370.979ZM1926.26 415.159L1847.83 369.926L1926.26 324.692V415.159Z" fill="#D7D7D7"/>
<path fill-rule="evenodd" clip-rule="evenodd" d="M1766.96 322.585V416.565L1685.48 463.554V369.574L1766.96 322.585ZM1686.7 370.979L1765.13 416.213L1686.7 461.447V370.979ZM1765.74 415.159L1687.31 369.926L1765.74 324.692V415.159Z" fill="#D7D7D7"/>
<path fill-rule="evenodd" clip-rule="evenodd" d="M1606.43 322.585V416.565L1524.96 463.554V369.574L1606.43 322.585ZM1526.17 370.979L1604.61 416.213L1526.17 461.447V370.979ZM1605.22 415.159L1526.78 369.926L1605.22 324.692V415.159Z" fill="#D7D7D7"/>
<path fill-rule="evenodd" clip-rule="evenodd" d="M1445.91 322.585V416.565L1364.44 463.554V369.574L1445.91 322.585ZM1365.65 370.979L1444.09 416.213L1365.65 461.447V370.979ZM1444.7 415.159L1366.26 369.926L1444.7 324.692V415.159Z" fill="#D7D7D7"/>
<path fill-rule="evenodd" clip-rule="evenodd" d="M1285.39 322.585V416.565L1203.91 463.554V369.574L1285.39 322.585ZM1205.13 370.979L1283.56 416.213L1205.13 461.447V370.979ZM1284.17 415.159L1205.74 369.926L1284.17 324.692V415.159Z" fill="#D7D7D7"/>
<path fill-rule="evenodd" clip-rule="evenodd" d="M1124.87 322.585V416.565L1043.39 463.554V369.574L1124.87 322.585ZM1044.61 370.979L1123.04 416.213L1044.61 461.447V370.979ZM1123.65 415.159L1045.22 369.926L1123.65 324.692V415.159Z" fill="#D7D7D7"/>
<path fill-rule="evenodd" clip-rule="evenodd" d="M964.347 322.585V416.565L882.87 463.554V369.574L964.347 322.585ZM884.086 370.979L962.52 416.213L884.086 461.447V370.979ZM963.131 415.159L884.697 369.926L963.131 324.692V415.159Z" fill="#D7D7D7"/>
<path fill-rule="evenodd" clip-rule="evenodd" d="M803.825 322.585V416.565L722.348 463.554V369.574L803.825 322.585ZM723.564 370.979L801.999 416.213L723.564 461.447V370.979ZM802.609 415.159L724.175 369.926L802.609 324.692V415.159Z" fill="#D7D7D7"/>
<path fill-rule="evenodd" clip-rule="evenodd" d="M643.303 322.585V416.565L561.826 463.554V369.574L643.303 322.585ZM563.043 370.979L641.477 416.213L563.043 461.447V370.979ZM642.087 415.159L563.653 369.926L642.087 324.692V415.159Z" fill="#D7D7D7"/>
<path fill-rule="evenodd" clip-rule="evenodd" d="M482.782 322.585V416.565L401.305 463.554V369.574L482.782 322.585ZM402.521 370.979L480.955 416.213L402.521 461.447V370.979ZM481.566 415.159L403.131 369.926L481.566 324.692V415.159Z" fill="#D7D7D7"/>
<path fill-rule="evenodd" clip-rule="evenodd" d="M322.26 322.585V416.565L240.783 463.554V369.574L322.26 322.585ZM241.999 370.979L320.433 416.213L241.999 461.447V370.979ZM321.044 415.159L242.609 369.926L321.044 324.692V415.159Z" fill="#D7D7D7"/>
<path fill-rule="evenodd" clip-rule="evenodd" d="M161.738 322.585V416.565L80.2609 463.554V369.574L161.738 322.585ZM81.477 370.979L159.911 416.213L81.477 461.447V370.979ZM160.522 415.159L82.0876 369.926L160.522 324.692V415.159Z" fill="#D7D7D7"/>
<path fill-rule="evenodd" clip-rule="evenodd" d="M2088 415.159V509.139L2006.52 556.128V462.148L2088 415.159ZM2007.74 463.554L2086.17 508.787L2007.74 554.021V463.554ZM2086.78 507.734L2008.35 462.5L2086.78 417.266V507.734Z" fill="#D7D7D7"/>
<path fill-rule="evenodd" clip-rule="evenodd" d="M1927.48 415.159V509.139L1846 556.128V462.148L1927.48 415.159ZM1847.22 463.554L1925.65 508.787L1847.22 554.021V463.554ZM1926.26 507.734L1847.83 462.5L1926.26 417.266V507.734Z" fill="#D7D7D7"/>
<path fill-rule="evenodd" clip-rule="evenodd" d="M1766.96 415.159V509.139L1685.48 556.128V462.148L1766.96 415.159ZM1686.7 463.554L1765.13 508.787L1686.7 554.021V463.554ZM1765.74 507.734L1687.31 462.5L1765.74 417.266V507.734Z" fill="#D7D7D7"/>
<path fill-rule="evenodd" clip-rule="evenodd" d="M1606.43 415.159V509.139L1524.96 556.128V462.148L1606.43 415.159ZM1526.17 463.554L1604.61 508.787L1526.17 554.021V463.554ZM1605.22 507.734L1526.78 462.5L1605.22 417.266V507.734Z" fill="#D7D7D7"/>
<path fill-rule="evenodd" clip-rule="evenodd" d="M1445.91 415.159V509.139L1364.44 556.128V462.148L1445.91 415.159ZM1365.65 463.554L1444.09 508.787L1365.65 554.021V463.554ZM1444.7 507.734L1366.26 462.5L1444.7 417.266V507.734Z" fill="#D7D7D7"/>
<path fill-rule="evenodd" clip-rule="evenodd" d="M1285.39 415.159V509.139L1203.91 556.128V462.148L1285.39 415.159ZM1205.13 463.554L1283.56 508.787L1205.13 554.021V463.554ZM1284.17 507.734L1205.74 462.5L1284.17 417.266V507.734Z" fill="#D7D7D7"/>
<path fill-rule="evenodd" clip-rule="evenodd" d="M1124.87 415.159V509.139L1043.39 556.128V462.148L1124.87 415.159ZM1044.61 463.554L1123.04 508.787L1044.61 554.021V463.554ZM1123.65 507.734L1045.22 462.5L1123.65 417.266V507.734Z" fill="#D7D7D7"/>
<path fill-rule="evenodd" clip-rule="evenodd" d="M964.347 415.159V509.139L882.87 556.128V462.148L964.347 415.159ZM884.086 463.554L962.52 508.787L884.086 554.021V463.554ZM963.131 507.734L884.697 462.5L963.131 417.266V507.734Z" fill="#D7D7D7"/>
<path fill-rule="evenodd" clip-rule="evenodd" d="M803.825 415.159V509.139L722.348 556.128V462.148L803.825 415.159ZM723.564 463.554L801.999 508.787L723.564 554.021V463.554ZM802.609 507.734L724.175 462.5L802.609 417.266V507.734Z" fill="#D7D7D7"/>
<path fill-rule="evenodd" clip-rule="evenodd" d="M643.303 415.159V509.139L561.826 556.128V462.148L643.303 415.159ZM563.043 463.554L641.477 508.787L563.043 554.021V463.554ZM642.087 507.734L563.653 462.5L642.087 417.266V507.734Z" fill="#D7D7D7"/>
<path fill-rule="evenodd" clip-rule="evenodd" d="M482.782 415.159V509.139L401.305 556.128V462.148L482.782 415.159ZM402.521 463.554L480.955 508.787L402.521 554.021V463.554ZM481.566 507.734L403.131 462.5L481.566 417.266V507.734Z" fill="#D7D7D7"/>
<path fill-rule="evenodd" clip-rule="evenodd" d="M322.26 415.159V509.139L240.783 556.128V462.148L322.26 415.159ZM241.999 463.554L320.433 508.787L241.999 554.021V463.554ZM321.044 507.734L242.609 462.5L321.044 417.266V507.734Z" fill="#D7D7D7"/>
<path fill-rule="evenodd" clip-rule="evenodd" d="M161.738 415.159V509.139L80.2609 556.128V462.148L161.738 415.159ZM81.477 463.554L159.911 508.787L81.477 554.021V463.554ZM160.522 507.734L82.0876 462.5L160.522 417.266V507.734Z" fill="#D7D7D7"/>
<path fill-rule="evenodd" clip-rule="evenodd" d="M2088 507.734V601.714L2006.52 648.702V554.722L2088 507.734ZM2007.74 556.128L2086.17 601.362L2007.74 646.596V556.128ZM2086.78 600.308L2008.35 555.074L2086.78 509.841V600.308Z" fill="#D7D7D7"/>
<path fill-rule="evenodd" clip-rule="evenodd" d="M1927.48 507.734V601.714L1846 648.702V554.722L1927.48 507.734ZM1847.22 556.128L1925.65 601.362L1847.22 646.596V556.128ZM1926.26 600.308L1847.83 555.074L1926.26 509.841V600.308Z" fill="#D7D7D7"/>
<path fill-rule="evenodd" clip-rule="evenodd" d="M1766.96 507.734V601.714L1685.48 648.702V554.722L1766.96 507.734ZM1686.7 556.128L1765.13 601.362L1686.7 646.596V556.128ZM1765.74 600.308L1687.31 555.074L1765.74 509.841V600.308Z" fill="#D7D7D7"/>
<path fill-rule="evenodd" clip-rule="evenodd" d="M1606.43 507.734V601.714L1524.96 648.702V554.722L1606.43 507.734ZM1526.17 556.128L1604.61 601.362L1526.17 646.596V556.128ZM1605.22 600.308L1526.78 555.074L1605.22 509.841V600.308Z" fill="#D7D7D7"/>
<path fill-rule="evenodd" clip-rule="evenodd" d="M1445.91 507.734V601.714L1364.44 648.702V554.722L1445.91 507.734ZM1365.65 556.128L1444.09 601.362L1365.65 646.596V556.128ZM1444.7 600.308L1366.26 555.074L1444.7 509.841V600.308Z" fill="#D7D7D7"/>
<path fill-rule="evenodd" clip-rule="evenodd" d="M1285.39 507.734V601.714L1203.91 648.702V554.722L1285.39 507.734ZM1205.13 556.128L1283.56 601.362L1205.13 646.596V556.128ZM1284.17 600.308L1205.74 555.074L1284.17 509.841V600.308Z" fill="#D7D7D7"/>
<path fill-rule="evenodd" clip-rule="evenodd" d="M1124.87 507.734V601.714L1043.39 648.702V554.722L1124.87 507.734ZM1044.61 556.128L1123.04 601.362L1044.61 646.596V556.128ZM1123.65 600.308L1045.22 555.074L1123.65 509.841V600.308Z" fill="#D7D7D7"/>
<path fill-rule="evenodd" clip-rule="evenodd" d="M964.347 507.734V601.714L882.87 648.702V554.722L964.347 507.734ZM884.086 556.128L962.52 601.362L884.086 646.596V556.128ZM963.131 600.308L884.697 555.074L963.131 509.841V600.308Z" fill="#D7D7D7"/>
<path fill-rule="evenodd" clip-rule="evenodd" d="M803.825 507.734V601.714L722.348 648.702V554.722L803.825 507.734ZM723.564 556.128L801.999 601.362L723.564 646.596V556.128ZM802.609 600.308L724.175 555.074L802.609 509.841V600.308Z" fill="#D7D7D7"/>
<path fill-rule="evenodd" clip-rule="evenodd" d="M643.303 507.734V601.714L561.826 648.702V554.722L643.303 507.734ZM563.043 556.128L641.477 601.362L563.043 646.596V556.128ZM642.087 600.308L563.653 555.074L642.087 509.841V600.308Z" fill="#D7D7D7"/>
<path fill-rule="evenodd" clip-rule="evenodd" d="M482.782 507.734V601.714L401.305 648.702V554.722L482.782 507.734ZM402.521 556.128L480.955 601.362L402.521 646.596V556.128ZM481.566 600.308L403.131 555.074L481.566 509.841V600.308Z" fill="#D7D7D7"/>
<path fill-rule="evenodd" clip-rule="evenodd" d="M322.26 507.734V601.714L240.783 648.702V554.722L322.26 507.734ZM241.999 556.128L320.433 601.362L241.999 646.596V556.128ZM321.044 600.308L242.609 555.074L321.044 509.841V600.308Z" fill="#D7D7D7"/>
<path fill-rule="evenodd" clip-rule="evenodd" d="M161.738 507.734V601.714L80.2609 648.702V554.722L161.738 507.734ZM81.477 556.128L159.911 601.362L81.477 646.596V556.128ZM160.522 600.308L82.0876 555.074L160.522 509.841V600.308Z" fill="#D7D7D7"/>
<path fill-rule="evenodd" clip-rule="evenodd" d="M2088 600.308V694.288L2006.52 741.277V647.297L2088 600.308ZM2007.74 648.702L2086.17 693.936L2007.74 739.17V648.702ZM2086.78 692.883L2008.35 647.649L2086.78 602.415V692.883Z" fill="#D7D7D7"/>
<path fill-rule="evenodd" clip-rule="evenodd" d="M1927.48 600.308V694.288L1846 741.277V647.297L1927.48 600.308ZM1847.22 648.702L1925.65 693.936L1847.22 739.17V648.702ZM1926.26 692.883L1847.83 647.649L1926.26 602.415V692.883Z" fill="#D7D7D7"/>
<path fill-rule="evenodd" clip-rule="evenodd" d="M1766.96 600.308V694.288L1685.48 741.277V647.297L1766.96 600.308ZM1686.7 648.702L1765.13 693.936L1686.7 739.17V648.702ZM1765.74 692.883L1687.31 647.649L1765.74 602.415V692.883Z" fill="#D7D7D7"/>
<path fill-rule="evenodd" clip-rule="evenodd" d="M1606.43 600.308V694.288L1524.96 741.277V647.297L1606.43 600.308ZM1526.17 648.702L1604.61 693.936L1526.17 739.17V648.702ZM1605.22 692.883L1526.78 647.649L1605.22 602.415V692.883Z" fill="#D7D7D7"/>
<path fill-rule="evenodd" clip-rule="evenodd" d="M1445.91 600.308V694.288L1364.44 741.277V647.297L1445.91 600.308ZM1365.65 648.702L1444.09 693.936L1365.65 739.17V648.702ZM1444.7 692.883L1366.26 647.649L1444.7 602.415V692.883Z" fill="#D7D7D7"/>
<path fill-rule="evenodd" clip-rule="evenodd" d="M1285.39 600.308V694.288L1203.91 741.277V647.297L1285.39 600.308ZM1205.13 648.702L1283.56 693.936L1205.13 739.17V648.702ZM1284.17 692.883L1205.74 647.649L1284.17 602.415V692.883Z" fill="#D7D7D7"/>
<path fill-rule="evenodd" clip-rule="evenodd" d="M1124.87 600.308V694.288L1043.39 741.277V647.297L1124.87 600.308ZM1044.61 648.702L1123.04 693.936L1044.61 739.17V648.702ZM1123.65 692.883L1045.22 647.649L1123.65 602.415V692.883Z" fill="#D7D7D7"/>
<path fill-rule="evenodd" clip-rule="evenodd" d="M964.347 600.308V694.288L882.87 741.277V647.297L964.347 600.308ZM884.086 648.702L962.52 693.936L884.086 739.17V648.702ZM963.131 692.883L884.697 647.649L963.131 602.415V692.883Z" fill="#D7D7D7"/>
<path fill-rule="evenodd" clip-rule="evenodd" d="M803.825 600.308V694.288L722.348 741.277V647.297L803.825 600.308ZM723.564 648.702L801.999 693.936L723.564 739.17V648.702ZM802.609 692.883L724.175 647.649L802.609 602.415V692.883Z" fill="#D7D7D7"/>
<path fill-rule="evenodd" clip-rule="evenodd" d="M643.303 600.308V694.288L561.826 741.277V647.297L643.303 600.308ZM563.043 648.702L641.477 693.936L563.043 739.17V648.702ZM642.087 692.883L563.653 647.649L642.087 602.415V692.883Z" fill="#D7D7D7"/>
<path fill-rule="evenodd" clip-rule="evenodd" d="M482.782 600.308V694.288L401.305 741.277V647.297L482.782 600.308ZM402.521 648.702L480.955 693.936L402.521 739.17V648.702ZM481.566 692.883L403.131 647.649L481.566 602.415V692.883Z" fill="#D7D7D7"/>
<path fill-rule="evenodd" clip-rule="evenodd" d="M322.26 600.308V694.288L240.783 741.277V647.297L322.26 600.308ZM241.999 648.702L320.433 693.936L241.999 739.17V648.702ZM321.044 692.883L242.609 647.649L321.044 602.415V692.883Z" fill="#D7D7D7"/>
<path fill-rule="evenodd" clip-rule="evenodd" d="M161.738 600.308V694.288L80.2609 741.277V647.297L161.738 600.308ZM81.477 648.702L159.911 693.936L81.477 739.17V648.702ZM160.522 692.883L82.0876 647.649L160.522 602.415V692.883Z" fill="#D7D7D7"/>
<path fill-rule="evenodd" clip-rule="evenodd" d="M2088 692.883V786.863L2006.52 833.851V739.871L2088 692.883ZM2007.74 741.277L2086.17 786.511L2007.74 831.744V741.277ZM2086.78 785.457L2008.35 740.223L2086.78 694.99V785.457Z" fill="#D7D7D7"/>
<path fill-rule="evenodd" clip-rule="evenodd" d="M1927.48 692.883V786.863L1846 833.851V739.871L1927.48 692.883ZM1847.22 741.277L1925.65 786.511L1847.22 831.744V741.277ZM1926.26 785.457L1847.83 740.223L1926.26 694.99V785.457Z" fill="#D7D7D7"/>
<path fill-rule="evenodd" clip-rule="evenodd" d="M1766.96 692.883V786.863L1685.48 833.851V739.871L1766.96 692.883ZM1686.7 741.277L1765.13 786.511L1686.7 831.744V741.277ZM1765.74 785.457L1687.31 740.223L1765.74 694.99V785.457Z" fill="#D7D7D7"/>
<path fill-rule="evenodd" clip-rule="evenodd" d="M1606.43 692.883V786.863L1524.96 833.851V739.871L1606.43 692.883ZM1526.17 741.277L1604.61 786.511L1526.17 831.744V741.277ZM1605.22 785.457L1526.78 740.223L1605.22 694.99V785.457Z" fill="#D7D7D7"/>
<path fill-rule="evenodd" clip-rule="evenodd" d="M1445.91 692.883V786.863L1364.44 833.851V739.871L1445.91 692.883ZM1365.65 741.277L1444.09 786.511L1365.65 831.744V741.277ZM1444.7 785.457L1366.26 740.223L1444.7 694.99V785.457Z" fill="#D7D7D7"/>
<path fill-rule="evenodd" clip-rule="evenodd" d="M1285.39 692.883V786.863L1203.91 833.851V739.871L1285.39 692.883ZM1205.13 741.277L1283.56 786.511L1205.13 831.744V741.277ZM1284.17 785.457L1205.74 740.223L1284.17 694.99V785.457Z" fill="#D7D7D7"/>
<path fill-rule="evenodd" clip-rule="evenodd" d="M1124.87 692.883V786.863L1043.39 833.851V739.871L1124.87 692.883ZM1044.61 741.277L1123.04 786.511L1044.61 831.744V741.277ZM1123.65 785.457L1045.22 740.223L1123.65 694.99V785.457Z" fill="#D7D7D7"/>
<path fill-rule="evenodd" clip-rule="evenodd" d="M964.347 692.883V786.863L882.87 833.851V739.871L964.347 692.883ZM884.086 741.277L962.52 786.511L884.086 831.744V741.277ZM963.131 785.457L884.697 740.223L963.131 694.99V785.457Z" fill="#D7D7D7"/>
<path fill-rule="evenodd" clip-rule="evenodd" d="M803.825 692.883V786.863L722.348 833.851V739.871L803.825 692.883ZM723.564 741.277L801.999 786.511L723.564 831.744V741.277ZM802.609 785.457L724.175 740.223L802.609 694.99V785.457Z" fill="#D7D7D7"/>
<path fill-rule="evenodd" clip-rule="evenodd" d="M643.303 692.883V786.863L561.826 833.851V739.871L643.303 692.883ZM563.043 741.277L641.477 786.511L563.043 831.744V741.277ZM642.087 785.457L563.653 740.223L642.087 694.99V785.457Z" fill="#D7D7D7"/>
<path fill-rule="evenodd" clip-rule="evenodd" d="M482.782 692.883V786.863L401.305 833.851V739.871L482.782 692.883ZM402.521 741.277L480.955 786.511L402.521 831.744V741.277ZM481.566 785.457L403.131 740.223L481.566 694.99V785.457Z" fill="#D7D7D7"/>
<path fill-rule="evenodd" clip-rule="evenodd" d="M322.26 692.883V786.863L240.783 833.851V739.871L322.26 692.883ZM241.999 741.277L320.433 786.511L241.999 831.744V741.277ZM321.044 785.457L242.609 740.223L321.044 694.99V785.457Z" fill="#D7D7D7"/>
<path fill-rule="evenodd" clip-rule="evenodd" d="M161.738 692.883V786.863L80.2609 833.851V739.871L161.738 692.883ZM81.477 741.277L159.911 786.511L81.477 831.744V741.277ZM160.522 785.457L82.0876 740.223L160.522 694.99V785.457Z" fill="#D7D7D7"/>
<path fill-rule="evenodd" clip-rule="evenodd" d="M2088 785.457V879.437L2006.52 926.426V832.446L2088 785.457ZM2007.74 833.851L2086.17 879.085L2007.74 924.319V833.851ZM2086.78 878.032L2008.35 832.798L2086.78 787.564V878.032Z" fill="#D7D7D7"/>
<path fill-rule="evenodd" clip-rule="evenodd" d="M1927.48 785.457V879.437L1846 926.426V832.446L1927.48 785.457ZM1847.22 833.851L1925.65 879.085L1847.22 924.319V833.851ZM1926.26 878.032L1847.83 832.798L1926.26 787.564V878.032Z" fill="#D7D7D7"/>
<path fill-rule="evenodd" clip-rule="evenodd" d="M1766.96 785.457V879.437L1685.48 926.426V832.446L1766.96 785.457ZM1686.7 833.851L1765.13 879.085L1686.7 924.319V833.851ZM1765.74 878.032L1687.31 832.798L1765.74 787.564V878.032Z" fill="#D7D7D7"/>
<path fill-rule="evenodd" clip-rule="evenodd" d="M1606.43 785.457V879.437L1524.96 926.426V832.446L1606.43 785.457ZM1526.17 833.851L1604.61 879.085L1526.17 924.319V833.851ZM1605.22 878.032L1526.78 832.798L1605.22 787.564V878.032Z" fill="#D7D7D7"/>
<path fill-rule="evenodd" clip-rule="evenodd" d="M1445.91 785.457V879.437L1364.44 926.426V832.446L1445.91 785.457ZM1365.65 833.851L1444.09 879.085L1365.65 924.319V833.851ZM1444.7 878.032L1366.26 832.798L1444.7 787.564V878.032Z" fill="#D7D7D7"/>
<path fill-rule="evenodd" clip-rule="evenodd" d="M1285.39 785.457V879.437L1203.91 926.426V832.446L1285.39 785.457ZM1205.13 833.851L1283.56 879.085L1205.13 924.319V833.851ZM1284.17 878.032L1205.74 832.798L1284.17 787.564V878.032Z" fill="#D7D7D7"/>
<path fill-rule="evenodd" clip-rule="evenodd" d="M1124.87 785.457V879.437L1043.39 926.426V832.446L1124.87 785.457ZM1044.61 833.851L1123.04 879.085L1044.61 924.319V833.851ZM1123.65 878.032L1045.22 832.798L1123.65 787.564V878.032Z" fill="#D7D7D7"/>
<path fill-rule="evenodd" clip-rule="evenodd" d="M964.347 785.457V879.437L882.87 926.426V832.446L964.347 785.457ZM884.086 833.851L962.52 879.085L884.086 924.319V833.851ZM963.131 878.032L884.697 832.798L963.131 787.564V878.032Z" fill="#D7D7D7"/>
<path fill-rule="evenodd" clip-rule="evenodd" d="M803.825 785.457V879.437L722.348 926.426V832.446L803.825 785.457ZM723.564 833.851L801.999 879.085L723.564 924.319V833.851ZM802.609 878.032L724.175 832.798L802.609 787.564V878.032Z" fill="#D7D7D7"/>
<path fill-rule="evenodd" clip-rule="evenodd" d="M643.303 785.457V879.437L561.826 926.426V832.446L643.303 785.457ZM563.043 833.851L641.477 879.085L563.043 924.319V833.851ZM642.087 878.032L563.653 832.798L642.087 787.564V878.032Z" fill="#D7D7D7"/>
<path fill-rule="evenodd" clip-rule="evenodd" d="M482.782 785.457V879.437L401.305 926.426V832.446L482.782 785.457ZM402.521 833.851L480.955 879.085L402.521 924.319V833.851ZM481.566 878.032L403.131 832.798L481.566 787.564V878.032Z" fill="#D7D7D7"/>
<path fill-rule="evenodd" clip-rule="evenodd" d="M322.26 785.457V879.437L240.783 926.426V832.446L322.26 785.457ZM241.999 833.851L320.433 879.085L241.999 924.319V833.851ZM321.044 878.032L242.609 832.798L321.044 787.564V878.032Z" fill="#D7D7D7"/>
<path fill-rule="evenodd" clip-rule="evenodd" d="M161.738 785.457V879.437L80.2609 926.426V832.446L161.738 785.457ZM81.477 833.851L159.911 879.085L81.477 924.319V833.851ZM160.522 878.032L82.0876 832.798L160.522 787.564V878.032Z" fill="#D7D7D7"/>
<path fill-rule="evenodd" clip-rule="evenodd" d="M2088 878.032V972.012L2006.52 1019V925.02L2088 878.032ZM2007.74 926.426L2086.17 971.659L2007.74 1016.89V926.426ZM2086.78 970.606L2008.35 925.372L2086.78 880.139V970.606Z" fill="#D7D7D7"/>
<path fill-rule="evenodd" clip-rule="evenodd" d="M1927.48 878.032V972.012L1846 1019V925.02L1927.48 878.032ZM1847.22 926.426L1925.65 971.659L1847.22 1016.89V926.426ZM1926.26 970.606L1847.83 925.372L1926.26 880.139V970.606Z" fill="#D7D7D7"/>
<path fill-rule="evenodd" clip-rule="evenodd" d="M1766.96 878.032V972.012L1685.48 1019V925.02L1766.96 878.032ZM1686.7 926.426L1765.13 971.659L1686.7 1016.89V926.426ZM1765.74 970.606L1687.31 925.372L1765.74 880.139V970.606Z" fill="#D7D7D7"/>
<path fill-rule="evenodd" clip-rule="evenodd" d="M1606.43 878.032V972.012L1524.96 1019V925.02L1606.43 878.032ZM1526.17 926.426L1604.61 971.659L1526.17 1016.89V926.426ZM1605.22 970.606L1526.78 925.372L1605.22 880.139V970.606Z" fill="#D7D7D7"/>
<path fill-rule="evenodd" clip-rule="evenodd" d="M1445.91 878.032V972.012L1364.44 1019V925.02L1445.91 878.032ZM1365.65 926.426L1444.09 971.659L1365.65 1016.89V926.426ZM1444.7 970.606L1366.26 925.372L1444.7 880.139V970.606Z" fill="#D7D7D7"/>
<path fill-rule="evenodd" clip-rule="evenodd" d="M1285.39 878.032V972.012L1203.91 1019V925.02L1285.39 878.032ZM1205.13 926.426L1283.56 971.659L1205.13 1016.89V926.426ZM1284.17 970.606L1205.74 925.372L1284.17 880.139V970.606Z" fill="#D7D7D7"/>
<path fill-rule="evenodd" clip-rule="evenodd" d="M1124.87 878.032V972.012L1043.39 1019V925.02L1124.87 878.032ZM1044.61 926.426L1123.04 971.659L1044.61 1016.89V926.426ZM1123.65 970.606L1045.22 925.372L1123.65 880.139V970.606Z" fill="#D7D7D7"/>
<path fill-rule="evenodd" clip-rule="evenodd" d="M964.347 878.032V972.012L882.87 1019V925.02L964.347 878.032ZM884.086 926.426L962.52 971.659L884.086 1016.89V926.426ZM963.131 970.606L884.697 925.372L963.131 880.139V970.606Z" fill="#D7D7D7"/>
<path fill-rule="evenodd" clip-rule="evenodd" d="M803.825 878.032V972.012L722.348 1019V925.02L803.825 878.032ZM723.564 926.426L801.999 971.659L723.564 1016.89V926.426ZM802.609 970.606L724.175 925.372L802.609 880.139V970.606Z" fill="#D7D7D7"/>
<path fill-rule="evenodd" clip-rule="evenodd" d="M643.303 878.032V972.012L561.826 1019V925.02L643.303 878.032ZM563.043 926.426L641.477 971.659L563.043 1016.89V926.426ZM642.087 970.606L563.653 925.372L642.087 880.139V970.606Z" fill="#D7D7D7"/>
<path fill-rule="evenodd" clip-rule="evenodd" d="M482.782 878.032V972.012L401.305 1019V925.02L482.782 878.032ZM402.521 926.426L480.955 971.659L402.521 1016.89V926.426ZM481.566 970.606L403.131 925.372L481.566 880.139V970.606Z" fill="#D7D7D7"/>
<path fill-rule="evenodd" clip-rule="evenodd" d="M322.26 878.032V972.012L240.783 1019V925.02L322.26 878.032ZM241.999 926.426L320.433 971.659L241.999 1016.89V926.426ZM321.044 970.606L242.609 925.372L321.044 880.139V970.606Z" fill="#D7D7D7"/>
<path fill-rule="evenodd" clip-rule="evenodd" d="M161.738 878.032V972.012L80.2609 1019V925.02L161.738 878.032ZM81.477 926.426L159.911 971.659L81.477 1016.89V926.426ZM160.522 970.606L82.0876 925.372L160.522 880.139V970.606Z" fill="#D7D7D7"/>
<path fill-rule="evenodd" clip-rule="evenodd" d="M2007.74 368.872V462.852L1926.26 509.841V415.861L2007.74 368.872ZM1927.48 417.266L2005.91 462.5L1927.48 507.734V417.266ZM2006.52 461.447L1928.09 416.213L2006.52 370.979V461.447Z" fill="#D7D7D7"/>
<path fill-rule="evenodd" clip-rule="evenodd" d="M1847.22 368.872V462.852L1765.74 509.841V415.861L1847.22 368.872ZM1766.96 417.266L1845.39 462.5L1766.96 507.734V417.266ZM1846 461.447L1767.57 416.213L1846 370.979V461.447Z" fill="#D7D7D7"/>
<path fill-rule="evenodd" clip-rule="evenodd" d="M1686.7 368.872V462.852L1605.22 509.841V415.861L1686.7 368.872ZM1606.43 417.266L1684.87 462.5L1606.43 507.734V417.266ZM1685.48 461.447L1607.05 416.213L1685.48 370.979V461.447Z" fill="#D7D7D7"/>
<path fill-rule="evenodd" clip-rule="evenodd" d="M1526.17 368.872V462.852L1444.7 509.841V415.861L1526.17 368.872ZM1445.91 417.266L1524.35 462.5L1445.91 507.734V417.266ZM1524.96 461.447L1446.52 416.213L1524.96 370.979V461.447Z" fill="#D7D7D7"/>
<path fill-rule="evenodd" clip-rule="evenodd" d="M1365.65 368.872V462.852L1284.17 509.841V415.861L1365.65 368.872ZM1285.39 417.266L1363.83 462.5L1285.39 507.734V417.266ZM1364.44 461.447L1286 416.213L1364.44 370.979V461.447Z" fill="#D7D7D7"/>
<path fill-rule="evenodd" clip-rule="evenodd" d="M1205.13 368.872V462.852L1123.65 509.841V415.861L1205.13 368.872ZM1124.87 417.266L1203.3 462.5L1124.87 507.734V417.266ZM1203.91 461.447L1125.48 416.213L1203.91 370.979V461.447Z" fill="#D7D7D7"/>
<path fill-rule="evenodd" clip-rule="evenodd" d="M1044.61 368.872V462.852L963.131 509.841V415.861L1044.61 368.872ZM964.347 417.266L1042.78 462.5L964.347 507.734V417.266ZM1043.39 461.447L964.958 416.213L1043.39 370.979V461.447Z" fill="#D7D7D7"/>
<path fill-rule="evenodd" clip-rule="evenodd" d="M884.086 368.872V462.852L802.609 509.841V415.861L884.086 368.872ZM803.825 417.266L882.26 462.5L803.825 507.734V417.266ZM882.87 461.447L804.436 416.213L882.87 370.979V461.447Z" fill="#D7D7D7"/>
<path fill-rule="evenodd" clip-rule="evenodd" d="M723.564 368.872V462.852L642.087 509.841V415.861L723.564 368.872ZM643.303 417.266L721.738 462.5L643.303 507.734V417.266ZM722.348 461.447L643.914 416.213L722.348 370.979V461.447Z" fill="#D7D7D7"/>
<path fill-rule="evenodd" clip-rule="evenodd" d="M563.043 368.872V462.852L481.566 509.841V415.861L563.043 368.872ZM482.782 417.266L561.216 462.5L482.782 507.734V417.266ZM561.826 461.447L483.392 416.213L561.826 370.979V461.447Z" fill="#D7D7D7"/>
<path fill-rule="evenodd" clip-rule="evenodd" d="M402.521 368.872V462.852L321.044 509.841V415.861L402.521 368.872ZM322.26 417.266L400.694 462.5L322.26 507.734V417.266ZM401.305 461.447L322.87 416.213L401.305 370.979V461.447Z" fill="#D7D7D7"/>
<path fill-rule="evenodd" clip-rule="evenodd" d="M241.999 368.872V462.852L160.522 509.841V415.861L241.999 368.872ZM161.738 417.266L240.172 462.5L161.738 507.734V417.266ZM240.783 461.447L162.349 416.213L240.783 370.979V461.447Z" fill="#D7D7D7"/>
<path fill-rule="evenodd" clip-rule="evenodd" d="M81.477 368.872V462.852L0 509.841V415.861L81.477 368.872ZM1.2161 417.266L79.6504 462.5L1.2161 507.734V417.266ZM80.2609 461.447L1.82665 416.213L80.2609 370.979V461.447Z" fill="#D7D7D7"/>
<path fill-rule="evenodd" clip-rule="evenodd" d="M2007.74 461.447V555.427L1926.26 602.415V508.435L2007.74 461.447ZM1927.48 509.841L2005.91 555.074L1927.48 600.308V509.841ZM2006.52 554.021L1928.09 508.787L2006.52 463.554V554.021Z" fill="#D7D7D7"/>
<path fill-rule="evenodd" clip-rule="evenodd" d="M1847.22 461.447V555.427L1765.74 602.415V508.435L1847.22 461.447ZM1766.96 509.841L1845.39 555.074L1766.96 600.308V509.841ZM1846 554.021L1767.57 508.787L1846 463.554V554.021Z" fill="#D7D7D7"/>
<path fill-rule="evenodd" clip-rule="evenodd" d="M1686.7 461.447V555.427L1605.22 602.415V508.435L1686.7 461.447ZM1606.43 509.841L1684.87 555.074L1606.43 600.308V509.841ZM1685.48 554.021L1607.05 508.787L1685.48 463.554V554.021Z" fill="#D7D7D7"/>
<path fill-rule="evenodd" clip-rule="evenodd" d="M1526.17 461.447V555.427L1444.7 602.415V508.435L1526.17 461.447ZM1445.91 509.841L1524.35 555.074L1445.91 600.308V509.841ZM1524.96 554.021L1446.52 508.787L1524.96 463.554V554.021Z" fill="#D7D7D7"/>
<path fill-rule="evenodd" clip-rule="evenodd" d="M1365.65 461.447V555.427L1284.17 602.415V508.435L1365.65 461.447ZM1285.39 509.841L1363.83 555.074L1285.39 600.308V509.841ZM1364.44 554.021L1286 508.787L1364.44 463.554V554.021Z" fill="#D7D7D7"/>
<path fill-rule="evenodd" clip-rule="evenodd" d="M1205.13 461.447V555.427L1123.65 602.415V508.435L1205.13 461.447ZM1124.87 509.841L1203.3 555.074L1124.87 600.308V509.841ZM1203.91 554.021L1125.48 508.787L1203.91 463.554V554.021Z" fill="#D7D7D7"/>
<path fill-rule="evenodd" clip-rule="evenodd" d="M1044.61 461.447V555.427L963.131 602.415V508.435L1044.61 461.447ZM964.347 509.841L1042.78 555.074L964.347 600.308V509.841ZM1043.39 554.021L964.958 508.787L1043.39 463.554V554.021Z" fill="#D7D7D7"/>
<path fill-rule="evenodd" clip-rule="evenodd" d="M884.086 461.447V555.427L802.609 602.415V508.435L884.086 461.447ZM803.825 509.841L882.26 555.074L803.825 600.308V509.841ZM882.87 554.021L804.436 508.787L882.87 463.554V554.021Z" fill="#D7D7D7"/>
<path fill-rule="evenodd" clip-rule="evenodd" d="M723.564 461.447V555.427L642.087 602.415V508.435L723.564 461.447ZM643.303 509.841L721.738 555.074L643.303 600.308V509.841ZM722.348 554.021L643.914 508.787L722.348 463.554V554.021Z" fill="#D7D7D7"/>
<path fill-rule="evenodd" clip-rule="evenodd" d="M563.043 461.447V555.427L481.566 602.415V508.435L563.043 461.447ZM482.782 509.841L561.216 555.074L482.782 600.308V509.841ZM561.826 554.021L483.392 508.787L561.826 463.554V554.021Z" fill="#D7D7D7"/>
<path fill-rule="evenodd" clip-rule="evenodd" d="M402.521 461.447V555.427L321.044 602.415V508.435L402.521 461.447ZM322.26 509.841L400.694 555.074L322.26 600.308V509.841ZM401.305 554.021L322.87 508.787L401.305 463.554V554.021Z" fill="#D7D7D7"/>
<path fill-rule="evenodd" clip-rule="evenodd" d="M241.999 461.447V555.427L160.522 602.415V508.435L241.999 461.447ZM161.738 509.841L240.172 555.074L161.738 600.308V509.841ZM240.783 554.021L162.349 508.787L240.783 463.554V554.021Z" fill="#D7D7D7"/>
<path fill-rule="evenodd" clip-rule="evenodd" d="M81.477 461.447V555.427L0 602.415V508.435L81.477 461.447ZM1.2161 509.841L79.6504 555.074L1.2161 600.308V509.841ZM80.2609 554.021L1.82665 508.787L80.2609 463.554V554.021Z" fill="#D7D7D7"/>
<path fill-rule="evenodd" clip-rule="evenodd" d="M2007.74 554.021V648.001L1926.26 694.99V601.01L2007.74 554.021ZM1927.48 602.415L2005.91 647.649L1927.48 692.883V602.415ZM2006.52 646.596L1928.09 601.362L2006.52 556.128V646.596Z" fill="#D7D7D7"/>
<path fill-rule="evenodd" clip-rule="evenodd" d="M1847.22 554.021V648.001L1765.74 694.99V601.01L1847.22 554.021ZM1766.96 602.415L1845.39 647.649L1766.96 692.883V602.415ZM1846 646.596L1767.57 601.362L1846 556.128V646.596Z" fill="#D7D7D7"/>
<path fill-rule="evenodd" clip-rule="evenodd" d="M1686.7 554.021V648.001L1605.22 694.99V601.01L1686.7 554.021ZM1606.43 602.415L1684.87 647.649L1606.43 692.883V602.415ZM1685.48 646.596L1607.05 601.362L1685.48 556.128V646.596Z" fill="#D7D7D7"/>
<path fill-rule="evenodd" clip-rule="evenodd" d="M1526.17 554.021V648.001L1444.7 694.99V601.01L1526.17 554.021ZM1445.91 602.415L1524.35 647.649L1445.91 692.883V602.415ZM1524.96 646.596L1446.52 601.362L1524.96 556.128V646.596Z" fill="#D7D7D7"/>
<path fill-rule="evenodd" clip-rule="evenodd" d="M1365.65 554.021V648.001L1284.17 694.99V601.01L1365.65 554.021ZM1285.39 602.415L1363.83 647.649L1285.39 692.883V602.415ZM1364.44 646.596L1286 601.362L1364.44 556.128V646.596Z" fill="#D7D7D7"/>
<path fill-rule="evenodd" clip-rule="evenodd" d="M1205.13 554.021V648.001L1123.65 694.99V601.01L1205.13 554.021ZM1124.87 602.415L1203.3 647.649L1124.87 692.883V602.415ZM1203.91 646.596L1125.48 601.362L1203.91 556.128V646.596Z" fill="#D7D7D7"/>
<path fill-rule="evenodd" clip-rule="evenodd" d="M1044.61 554.021V648.001L963.131 694.99V601.01L1044.61 554.021ZM964.347 602.415L1042.78 647.649L964.347 692.883V602.415ZM1043.39 646.596L964.958 601.362L1043.39 556.128V646.596Z" fill="#D7D7D7"/>
<path fill-rule="evenodd" clip-rule="evenodd" d="M884.086 554.021V648.001L802.609 694.99V601.01L884.086 554.021ZM803.825 602.415L882.26 647.649L803.825 692.883V602.415ZM882.87 646.596L804.436 601.362L882.87 556.128V646.596Z" fill="#D7D7D7"/>
<path fill-rule="evenodd" clip-rule="evenodd" d="M723.564 554.021V648.001L642.087 694.99V601.01L723.564 554.021ZM643.303 602.415L721.738 647.649L643.303 692.883V602.415ZM722.348 646.596L643.914 601.362L722.348 556.128V646.596Z" fill="#D7D7D7"/>
<path fill-rule="evenodd" clip-rule="evenodd" d="M563.043 554.021V648.001L481.566 694.99V601.01L563.043 554.021ZM482.782 602.415L561.216 647.649L482.782 692.883V602.415ZM561.826 646.596L483.392 601.362L561.826 556.128V646.596Z" fill="#D7D7D7"/>
<path fill-rule="evenodd" clip-rule="evenodd" d="M402.521 554.021V648.001L321.044 694.99V601.01L402.521 554.021ZM322.26 602.415L400.694 647.649L322.26 692.883V602.415ZM401.305 646.596L322.87 601.362L401.305 556.128V646.596Z" fill="#D7D7D7"/>
<path fill-rule="evenodd" clip-rule="evenodd" d="M241.999 554.021V648.001L160.522 694.99V601.01L241.999 554.021ZM161.738 602.415L240.172 647.649L161.738 692.883V602.415ZM240.783 646.596L162.349 601.362L240.783 556.128V646.596Z" fill="#D7D7D7"/>
<path fill-rule="evenodd" clip-rule="evenodd" d="M81.477 554.021V648.001L0 694.99V601.01L81.477 554.021ZM1.2161 602.415L79.6504 647.649L1.2161 692.883V602.415ZM80.2609 646.596L1.82665 601.362L80.2609 556.128V646.596Z" fill="#D7D7D7"/>
<path fill-rule="evenodd" clip-rule="evenodd" d="M2007.74 646.596V740.576L1926.26 787.564V693.584L2007.74 646.596ZM1927.48 694.99L2005.91 740.223L1927.48 785.457V694.99ZM2006.52 739.17L1928.09 693.936L2006.52 648.702V739.17Z" fill="#D7D7D7"/>
<path fill-rule="evenodd" clip-rule="evenodd" d="M1847.22 646.596V740.576L1765.74 787.564V693.584L1847.22 646.596ZM1766.96 694.99L1845.39 740.223L1766.96 785.457V694.99ZM1846 739.17L1767.57 693.936L1846 648.702V739.17Z" fill="#D7D7D7"/>
<path fill-rule="evenodd" clip-rule="evenodd" d="M1686.7 646.596V740.576L1605.22 787.564V693.584L1686.7 646.596ZM1606.43 694.99L1684.87 740.223L1606.43 785.457V694.99ZM1685.48 739.17L1607.05 693.936L1685.48 648.702V739.17Z" fill="#D7D7D7"/>
<path fill-rule="evenodd" clip-rule="evenodd" d="M1526.17 646.596V740.576L1444.7 787.564V693.584L1526.17 646.596ZM1445.91 694.99L1524.35 740.223L1445.91 785.457V694.99ZM1524.96 739.17L1446.52 693.936L1524.96 648.702V739.17Z" fill="#D7D7D7"/>
<path fill-rule="evenodd" clip-rule="evenodd" d="M1365.65 646.596V740.576L1284.17 787.564V693.584L1365.65 646.596ZM1285.39 694.99L1363.83 740.223L1285.39 785.457V694.99ZM1364.44 739.17L1286 693.936L1364.44 648.702V739.17Z" fill="#D7D7D7"/>
<path fill-rule="evenodd" clip-rule="evenodd" d="M1205.13 646.596V740.576L1123.65 787.564V693.584L1205.13 646.596ZM1124.87 694.99L1203.3 740.223L1124.87 785.457V694.99ZM1203.91 739.17L1125.48 693.936L1203.91 648.702V739.17Z" fill="#D7D7D7"/>
<path fill-rule="evenodd" clip-rule="evenodd" d="M1044.61 646.596V740.576L963.131 787.564V693.584L1044.61 646.596ZM964.347 694.99L1042.78 740.223L964.347 785.457V694.99ZM1043.39 739.17L964.958 693.936L1043.39 648.702V739.17Z" fill="#D7D7D7"/>
<path fill-rule="evenodd" clip-rule="evenodd" d="M884.086 646.596V740.576L802.609 787.564V693.584L884.086 646.596ZM803.825 694.99L882.26 740.223L803.825 785.457V694.99ZM882.87 739.17L804.436 693.936L882.87 648.702V739.17Z" fill="#D7D7D7"/>
<path fill-rule="evenodd" clip-rule="evenodd" d="M723.564 646.596V740.576L642.087 787.564V693.584L723.564 646.596ZM643.303 694.99L721.738 740.223L643.303 785.457V694.99ZM722.348 739.17L643.914 693.936L722.348 648.702V739.17Z" fill="#D7D7D7"/>
<path fill-rule="evenodd" clip-rule="evenodd" d="M563.043 646.596V740.576L481.566 787.564V693.584L563.043 646.596ZM482.782 694.99L561.216 740.223L482.782 785.457V694.99ZM561.826 739.17L483.392 693.936L561.826 648.702V739.17Z" fill="#D7D7D7"/>
<path fill-rule="evenodd" clip-rule="evenodd" d="M402.521 646.596V740.576L321.044 787.564V693.584L402.521 646.596ZM322.26 694.99L400.694 740.223L322.26 785.457V694.99ZM401.305 739.17L322.87 693.936L401.305 648.702V739.17Z" fill="#D7D7D7"/>
<path fill-rule="evenodd" clip-rule="evenodd" d="M241.999 646.596V740.576L160.522 787.564V693.584L241.999 646.596ZM161.738 694.99L240.172 740.223L161.738 785.457V694.99ZM240.783 739.17L162.349 693.936L240.783 648.702V739.17Z" fill="#D7D7D7"/>
<path fill-rule="evenodd" clip-rule="evenodd" d="M81.477 646.596V740.576L0 787.564V693.584L81.477 646.596ZM1.2161 694.99L79.6504 740.223L1.2161 785.457V694.99ZM80.2609 739.17L1.82665 693.936L80.2609 648.702V739.17Z" fill="#D7D7D7"/>
<path fill-rule="evenodd" clip-rule="evenodd" d="M2007.74 739.17V833.15L1926.26 880.139V786.158L2007.74 739.17ZM1927.48 787.564L2005.91 832.798L1927.48 878.032V787.564ZM2006.52 831.744L1928.09 786.511L2006.52 741.277V831.744Z" fill="#D7D7D7"/>
<path fill-rule="evenodd" clip-rule="evenodd" d="M1847.22 739.17V833.15L1765.74 880.139V786.158L1847.22 739.17ZM1766.96 787.564L1845.39 832.798L1766.96 878.032V787.564ZM1846 831.744L1767.57 786.511L1846 741.277V831.744Z" fill="#D7D7D7"/>
<path fill-rule="evenodd" clip-rule="evenodd" d="M1686.7 739.17V833.15L1605.22 880.139V786.158L1686.7 739.17ZM1606.43 787.564L1684.87 832.798L1606.43 878.032V787.564ZM1685.48 831.744L1607.05 786.511L1685.48 741.277V831.744Z" fill="#D7D7D7"/>
<path fill-rule="evenodd" clip-rule="evenodd" d="M1526.17 739.17V833.15L1444.7 880.139V786.158L1526.17 739.17ZM1445.91 787.564L1524.35 832.798L1445.91 878.032V787.564ZM1524.96 831.744L1446.52 786.511L1524.96 741.277V831.744Z" fill="#D7D7D7"/>
<path fill-rule="evenodd" clip-rule="evenodd" d="M1365.65 739.17V833.15L1284.17 880.139V786.158L1365.65 739.17ZM1285.39 787.564L1363.83 832.798L1285.39 878.032V787.564ZM1364.44 831.744L1286 786.511L1364.44 741.277V831.744Z" fill="#D7D7D7"/>
<path fill-rule="evenodd" clip-rule="evenodd" d="M1205.13 739.17V833.15L1123.65 880.139V786.158L1205.13 739.17ZM1124.87 787.564L1203.3 832.798L1124.87 878.032V787.564ZM1203.91 831.744L1125.48 786.511L1203.91 741.277V831.744Z" fill="#D7D7D7"/>
<path fill-rule="evenodd" clip-rule="evenodd" d="M1044.61 739.17V833.15L963.131 880.139V786.158L1044.61 739.17ZM964.347 787.564L1042.78 832.798L964.347 878.032V787.564ZM1043.39 831.744L964.958 786.511L1043.39 741.277V831.744Z" fill="#D7D7D7"/>
<path fill-rule="evenodd" clip-rule="evenodd" d="M884.086 739.17V833.15L802.609 880.139V786.158L884.086 739.17ZM803.825 787.564L882.26 832.798L803.825 878.032V787.564ZM882.87 831.744L804.436 786.511L882.87 741.277V831.744Z" fill="#D7D7D7"/>
<path fill-rule="evenodd" clip-rule="evenodd" d="M723.564 739.17V833.15L642.087 880.139V786.158L723.564 739.17ZM643.303 787.564L721.738 832.798L643.303 878.032V787.564ZM722.348 831.744L643.914 786.511L722.348 741.277V831.744Z" fill="#D7D7D7"/>
<path fill-rule="evenodd" clip-rule="evenodd" d="M563.043 739.17V833.15L481.566 880.139V786.158L563.043 739.17ZM482.782 787.564L561.216 832.798L482.782 878.032V787.564ZM561.826 831.744L483.392 786.511L561.826 741.277V831.744Z" fill="#D7D7D7"/>
<path fill-rule="evenodd" clip-rule="evenodd" d="M402.521 739.17V833.15L321.044 880.139V786.158L402.521 739.17ZM322.26 787.564L400.694 832.798L322.26 878.032V787.564ZM401.305 831.744L322.87 786.511L401.305 741.277V831.744Z" fill="#D7D7D7"/>
<path fill-rule="evenodd" clip-rule="evenodd" d="M241.999 739.17V833.15L160.522 880.139V786.158L241.999 739.17ZM161.738 787.564L240.172 832.798L161.738 878.032V787.564ZM240.783 831.744L162.349 786.511L240.783 741.277V831.744Z" fill="#D7D7D7"/>
<path fill-rule="evenodd" clip-rule="evenodd" d="M81.477 739.17V833.15L0 880.139V786.158L81.477 739.17ZM1.2161 787.564L79.6504 832.798L1.2161 878.032V787.564ZM80.2609 831.744L1.82665 786.511L80.2609 741.277V831.744Z" fill="#D7D7D7"/>
<path fill-rule="evenodd" clip-rule="evenodd" d="M2007.74 831.744V925.724L1926.26 972.713V878.733L2007.74 831.744ZM1927.48 880.139L2005.91 925.372L1927.48 970.606V880.139ZM2006.52 924.319L1928.09 879.085L2006.52 833.851V924.319Z" fill="#D7D7D7"/>
<path fill-rule="evenodd" clip-rule="evenodd" d="M1847.22 831.744V925.724L1765.74 972.713V878.733L1847.22 831.744ZM1766.96 880.139L1845.39 925.372L1766.96 970.606V880.139ZM1846 924.319L1767.57 879.085L1846 833.851V924.319Z" fill="#D7D7D7"/>
<path fill-rule="evenodd" clip-rule="evenodd" d="M1686.7 831.744V925.724L1605.22 972.713V878.733L1686.7 831.744ZM1606.43 880.139L1684.87 925.372L1606.43 970.606V880.139ZM1685.48 924.319L1607.05 879.085L1685.48 833.851V924.319Z" fill="#D7D7D7"/>
<path fill-rule="evenodd" clip-rule="evenodd" d="M1526.17 831.744V925.724L1444.7 972.713V878.733L1526.17 831.744ZM1445.91 880.139L1524.35 925.372L1445.91 970.606V880.139ZM1524.96 924.319L1446.52 879.085L1524.96 833.851V924.319Z" fill="#D7D7D7"/>
<path fill-rule="evenodd" clip-rule="evenodd" d="M1365.65 831.744V925.724L1284.17 972.713V878.733L1365.65 831.744ZM1285.39 880.139L1363.83 925.372L1285.39 970.606V880.139ZM1364.44 924.319L1286 879.085L1364.44 833.851V924.319Z" fill="#D7D7D7"/>
<path fill-rule="evenodd" clip-rule="evenodd" d="M1205.13 831.744V925.724L1123.65 972.713V878.733L1205.13 831.744ZM1124.87 880.139L1203.3 925.372L1124.87 970.606V880.139ZM1203.91 924.319L1125.48 879.085L1203.91 833.851V924.319Z" fill="#D7D7D7"/>
<path fill-rule="evenodd" clip-rule="evenodd" d="M1044.61 831.744V925.724L963.131 972.713V878.733L1044.61 831.744ZM964.347 880.139L1042.78 925.372L964.347 970.606V880.139ZM1043.39 924.319L964.958 879.085L1043.39 833.851V924.319Z" fill="#D7D7D7"/>
<path fill-rule="evenodd" clip-rule="evenodd" d="M884.086 831.744V925.724L802.609 972.713V878.733L884.086 831.744ZM803.825 880.139L882.26 925.372L803.825 970.606V880.139ZM882.87 924.319L804.436 879.085L882.87 833.851V924.319Z" fill="#D7D7D7"/>
<path fill-rule="evenodd" clip-rule="evenodd" d="M723.564 831.744V925.724L642.087 972.713V878.733L723.564 831.744ZM643.303 880.139L721.738 925.372L643.303 970.606V880.139ZM722.348 924.319L643.914 879.085L722.348 833.851V924.319Z" fill="#D7D7D7"/>
<path fill-rule="evenodd" clip-rule="evenodd" d="M563.043 831.744V925.724L481.566 972.713V878.733L563.043 831.744ZM482.782 880.139L561.216 925.372L482.782 970.606V880.139ZM561.826 924.319L483.392 879.085L561.826 833.851V924.319Z" fill="#D7D7D7"/>
<path fill-rule="evenodd" clip-rule="evenodd" d="M402.521 831.744V925.724L321.044 972.713V878.733L402.521 831.744ZM322.26 880.139L400.694 925.372L322.26 970.606V880.139ZM401.305 924.319L322.87 879.085L401.305 833.851V924.319Z" fill="#D7D7D7"/>
<path fill-rule="evenodd" clip-rule="evenodd" d="M241.999 831.744V925.724L160.522 972.713V878.733L241.999 831.744ZM161.738 880.139L240.172 925.372L161.738 970.606V880.139ZM240.783 924.319L162.349 879.085L240.783 833.851V924.319Z" fill="#D7D7D7"/>
<path fill-rule="evenodd" clip-rule="evenodd" d="M81.477 831.744V925.724L0 972.713V878.733L81.477 831.744ZM1.2161 880.139L79.6504 925.372L1.2161 970.606V880.139ZM80.2609 924.319L1.82665 879.085L80.2609 833.851V924.319Z" fill="#D7D7D7"/>
<path fill-rule="evenodd" clip-rule="evenodd" d="M2006.52 1016.89L1928.09 971.659L2006.52 926.426V1016.89Z" fill="#D7D7D7"/>
<path fill-rule="evenodd" clip-rule="evenodd" d="M1846 1016.89L1767.57 971.659L1846 926.426V1016.89Z" fill="#D7D7D7"/>
<path fill-rule="evenodd" clip-rule="evenodd" d="M1685.48 1016.89L1607.05 971.659L1685.48 926.426V1016.89Z" fill="#D7D7D7"/>
<path fill-rule="evenodd" clip-rule="evenodd" d="M1524.96 1016.89L1446.52 971.659L1524.96 926.426V1016.89Z" fill="#D7D7D7"/>
<path fill-rule="evenodd" clip-rule="evenodd" d="M1364.44 1016.89L1286 971.659L1364.44 926.426V1016.89Z" fill="#D7D7D7"/>
<path fill-rule="evenodd" clip-rule="evenodd" d="M1203.91 1016.89L1125.48 971.659L1203.91 926.426V1016.89Z" fill="#D7D7D7"/>
<path fill-rule="evenodd" clip-rule="evenodd" d="M1043.39 1016.89L964.958 971.659L1043.39 926.426V1016.89Z" fill="#D7D7D7"/>
<path fill-rule="evenodd" clip-rule="evenodd" d="M882.87 1016.89L804.436 971.659L882.87 926.426V1016.89Z" fill="#D7D7D7"/>
<path fill-rule="evenodd" clip-rule="evenodd" d="M722.348 1016.89L643.914 971.659L722.348 926.426V1016.89Z" fill="#D7D7D7"/>
<path fill-rule="evenodd" clip-rule="evenodd" d="M561.826 1016.89L483.392 971.659L561.826 926.426V1016.89Z" fill="#D7D7D7"/>
<path fill-rule="evenodd" clip-rule="evenodd" d="M401.305 1016.89L322.87 971.659L401.305 926.426V1016.89Z" fill="#D7D7D7"/>
<path fill-rule="evenodd" clip-rule="evenodd" d="M240.783 1016.89L162.349 971.659L240.783 926.426V1016.89Z" fill="#D7D7D7"/>
<path fill-rule="evenodd" clip-rule="evenodd" d="M80.2609 1016.89L1.82665 971.659L80.2609 926.426V1016.89Z" fill="#D7D7D7"/>
</g>
</g>
<defs>
<clipPath id="clip0_502_619">
<rect width="2088" height="925" fill="white"/>
</clipPath>
</defs>
</svg>
