<svg width="893" height="632" viewBox="0 0 893 632" fill="none" xmlns="http://www.w3.org/2000/svg">
<g clip-path="url(#clip0_301_413)">
<g opacity="0.8">
<path fill-rule="evenodd" clip-rule="evenodd" d="M1739.81 -1052.04L1830.35 -1052.09L1785.04 -973.698L1739.81 -1052.04Z" fill="#D7D7D7"/>
<path fill-rule="evenodd" clip-rule="evenodd" d="M1600.79 -971.784L1691.33 -971.828L1646.02 -893.437L1600.79 -971.784Z" fill="#D7D7D7"/>
<path fill-rule="evenodd" clip-rule="evenodd" d="M1461.77 -891.523L1552.32 -891.567L1507.01 -813.176L1461.77 -891.523Z" fill="#D7D7D7"/>
<path fill-rule="evenodd" clip-rule="evenodd" d="M1322.76 -811.262L1413.3 -811.306L1367.99 -732.915L1322.76 -811.262Z" fill="#D7D7D7"/>
<path fill-rule="evenodd" clip-rule="evenodd" d="M1183.74 -731.001L1274.29 -731.045L1228.98 -652.654L1183.74 -731.001Z" fill="#D7D7D7"/>
<path fill-rule="evenodd" clip-rule="evenodd" d="M1044.73 -650.74L1135.27 -650.784L1089.96 -572.393L1044.73 -650.74Z" fill="#D7D7D7"/>
<path fill-rule="evenodd" clip-rule="evenodd" d="M905.711 -570.479L996.254 -570.523L950.944 -492.132L905.711 -570.479Z" fill="#D7D7D7"/>
<path fill-rule="evenodd" clip-rule="evenodd" d="M766.695 -490.219L857.238 -490.262L811.928 -411.871L766.695 -490.219Z" fill="#D7D7D7"/>
<path fill-rule="evenodd" clip-rule="evenodd" d="M627.679 -409.958L718.222 -410.001L672.912 -331.61L627.679 -409.958Z" fill="#D7D7D7"/>
<path fill-rule="evenodd" clip-rule="evenodd" d="M488.663 -329.697L579.206 -329.74L533.896 -251.349L488.663 -329.697Z" fill="#D7D7D7"/>
<path fill-rule="evenodd" clip-rule="evenodd" d="M349.647 -249.436L440.19 -249.479L394.88 -171.089L349.647 -249.436Z" fill="#D7D7D7"/>
<path fill-rule="evenodd" clip-rule="evenodd" d="M210.631 -169.175L301.174 -169.218L255.864 -90.8276L210.631 -169.175Z" fill="#D7D7D7"/>
<path fill-rule="evenodd" clip-rule="evenodd" d="M71.6146 -88.9139L162.158 -88.9574L116.848 -10.5667L71.6146 -88.9139Z" fill="#D7D7D7"/>
<path fill-rule="evenodd" clip-rule="evenodd" d="M1738.75 -1053.87L1785.74 -972.481L1738.68 -891.049L1691.69 -972.438L1738.75 -1053.87ZM1693.44 -971.829L1783.99 -971.872L1738.68 -893.481L1693.44 -971.829ZM1783.99 -973.09L1693.44 -973.046L1738.75 -1051.44L1783.99 -973.09Z" fill="#D7D7D7"/>
<path fill-rule="evenodd" clip-rule="evenodd" d="M1599.74 -973.609L1646.73 -892.22L1599.66 -810.788L1552.67 -892.177L1599.74 -973.609ZM1554.43 -891.568L1644.97 -891.611L1599.66 -813.22L1554.43 -891.568ZM1644.97 -892.829L1554.43 -892.785L1599.74 -971.176L1644.97 -892.829Z" fill="#D7D7D7"/>
<path fill-rule="evenodd" clip-rule="evenodd" d="M1460.72 -893.348L1507.71 -811.959L1460.64 -730.527L1413.65 -811.916L1460.72 -893.348ZM1415.41 -811.307L1505.95 -811.35L1460.64 -732.959L1415.41 -811.307ZM1505.96 -812.568L1415.41 -812.524L1460.72 -890.915L1505.96 -812.568Z" fill="#D7D7D7"/>
<path fill-rule="evenodd" clip-rule="evenodd" d="M1321.71 -813.087L1368.7 -731.698L1321.63 -650.266L1274.64 -731.655L1321.71 -813.087ZM1276.39 -731.046L1366.94 -731.089L1321.63 -652.699L1276.39 -731.046ZM1366.94 -732.307L1276.4 -732.263L1321.71 -810.654L1366.94 -732.307Z" fill="#D7D7D7"/>
<path fill-rule="evenodd" clip-rule="evenodd" d="M1182.69 -732.826L1229.68 -651.437L1182.61 -570.005L1135.62 -651.394L1182.69 -732.826ZM1137.38 -650.785L1227.92 -650.828L1182.61 -572.438L1137.38 -650.785ZM1227.92 -652.046L1137.38 -652.002L1182.69 -730.393L1227.92 -652.046Z" fill="#D7D7D7"/>
<path fill-rule="evenodd" clip-rule="evenodd" d="M1043.67 -652.565L1090.66 -571.176L1043.6 -489.744L996.606 -571.133L1043.67 -652.565ZM998.362 -570.524L1088.91 -570.568L1043.6 -492.177L998.362 -570.524ZM1088.91 -571.785L998.364 -571.742L1043.67 -650.132L1088.91 -571.785Z" fill="#D7D7D7"/>
<path fill-rule="evenodd" clip-rule="evenodd" d="M904.657 -572.304L951.647 -490.915L904.58 -409.483L857.59 -490.872L904.657 -572.304ZM859.346 -490.263L949.889 -490.307L904.58 -411.916L859.346 -490.263ZM949.891 -491.524L859.348 -491.481L904.657 -569.871L949.891 -491.524Z" fill="#D7D7D7"/>
<path fill-rule="evenodd" clip-rule="evenodd" d="M765.641 -492.043L812.631 -410.654L765.564 -329.222L718.574 -410.611L765.641 -492.043ZM720.33 -410.002L810.873 -410.046L765.564 -331.655L720.33 -410.002ZM810.875 -411.263L720.332 -411.22L765.641 -489.61L810.875 -411.263Z" fill="#D7D7D7"/>
<path fill-rule="evenodd" clip-rule="evenodd" d="M626.625 -411.782L673.615 -330.393L626.548 -248.961L579.558 -330.35L626.625 -411.782ZM581.314 -329.741L671.857 -329.785L626.548 -251.394L581.314 -329.741ZM671.859 -331.002L581.316 -330.959L626.625 -409.35L671.859 -331.002Z" fill="#D7D7D7"/>
<path fill-rule="evenodd" clip-rule="evenodd" d="M487.609 -331.521L534.599 -250.132L487.532 -168.7L440.542 -250.09L487.609 -331.521ZM442.298 -249.48L532.841 -249.524L487.532 -171.133L442.298 -249.48ZM532.843 -250.741L442.3 -250.698L487.609 -329.089L532.843 -250.741Z" fill="#D7D7D7"/>
<path fill-rule="evenodd" clip-rule="evenodd" d="M348.593 -251.26L395.583 -169.871L348.516 -88.4395L301.526 -169.829L348.593 -251.26ZM303.282 -169.219L393.825 -169.263L348.516 -90.8722L303.282 -169.219ZM393.827 -170.481L303.284 -170.437L348.593 -248.828L393.827 -170.481Z" fill="#D7D7D7"/>
<path fill-rule="evenodd" clip-rule="evenodd" d="M209.577 -170.999L256.567 -89.6104L209.5 -8.1786L162.51 -89.5677L209.577 -170.999ZM164.266 -88.9585L254.809 -89.002L209.5 -10.6113L164.266 -88.9585ZM254.811 -90.2196L164.268 -90.176L209.577 -168.567L254.811 -90.2196Z" fill="#D7D7D7"/>
<path fill-rule="evenodd" clip-rule="evenodd" d="M70.5612 -90.7385L117.551 -9.34946L70.4843 72.0823L23.4943 -9.30673L70.5612 -90.7385ZM25.2502 -8.69753L115.793 -8.74106L70.484 69.6497L25.2502 -8.69753ZM115.795 -9.95864L25.2523 -9.91511L70.5614 -88.3059L115.795 -9.95864Z" fill="#D7D7D7"/>
<path fill-rule="evenodd" clip-rule="evenodd" d="M1831.4 -1053.91L1878.39 -972.525L1831.33 -891.093L1784.34 -972.482L1831.4 -1053.91ZM1786.09 -971.873L1876.64 -971.917L1831.33 -893.526L1786.09 -971.873ZM1876.64 -973.134L1786.1 -973.091L1831.4 -1051.48L1876.64 -973.134Z" fill="#D7D7D7"/>
<path fill-rule="evenodd" clip-rule="evenodd" d="M1692.39 -973.653L1739.38 -892.264L1692.31 -810.832L1645.32 -892.221L1692.39 -973.653ZM1647.08 -891.612L1737.62 -891.656L1692.31 -813.265L1647.08 -891.612ZM1737.62 -892.873L1647.08 -892.83L1692.39 -971.221L1737.62 -892.873Z" fill="#D7D7D7"/>
<path fill-rule="evenodd" clip-rule="evenodd" d="M1553.37 -893.392L1600.36 -812.003L1553.3 -730.571L1506.31 -811.96L1553.37 -893.392ZM1508.06 -811.351L1598.6 -811.395L1553.3 -733.004L1508.06 -811.351ZM1598.61 -812.612L1508.06 -812.569L1553.37 -890.96L1598.61 -812.612Z" fill="#D7D7D7"/>
<path fill-rule="evenodd" clip-rule="evenodd" d="M1414.36 -813.131L1461.35 -731.742L1414.28 -650.311L1367.29 -731.7L1414.36 -813.131ZM1369.05 -731.09L1459.59 -731.134L1414.28 -652.743L1369.05 -731.09ZM1459.59 -732.352L1369.05 -732.308L1414.36 -810.699L1459.59 -732.352Z" fill="#D7D7D7"/>
<path fill-rule="evenodd" clip-rule="evenodd" d="M1275.34 -732.87L1322.33 -651.481L1275.26 -570.05L1228.27 -651.439L1275.34 -732.87ZM1230.03 -650.829L1320.57 -650.873L1275.26 -572.482L1230.03 -650.829ZM1320.57 -652.091L1230.03 -652.047L1275.34 -730.438L1320.57 -652.091Z" fill="#D7D7D7"/>
<path fill-rule="evenodd" clip-rule="evenodd" d="M1136.32 -652.61L1183.31 -571.221L1136.25 -489.789L1089.26 -571.178L1136.32 -652.61ZM1091.01 -570.569L1181.56 -570.612L1136.25 -492.221L1091.01 -570.569ZM1181.56 -571.83L1091.02 -571.786L1136.33 -650.177L1181.56 -571.83Z" fill="#D7D7D7"/>
<path fill-rule="evenodd" clip-rule="evenodd" d="M997.309 -572.349L1044.3 -490.96L997.232 -409.528L950.242 -490.917L997.309 -572.349ZM951.998 -490.308L1042.54 -490.351L997.232 -411.96L951.998 -490.308ZM1042.54 -491.569L952 -491.525L997.309 -569.916L1042.54 -491.569Z" fill="#D7D7D7"/>
<path fill-rule="evenodd" clip-rule="evenodd" d="M858.293 -492.088L905.283 -410.699L858.216 -329.267L811.226 -410.656L858.293 -492.088ZM812.982 -410.047L903.525 -410.09L858.216 -331.7L812.982 -410.047ZM903.527 -411.308L812.984 -411.264L858.293 -489.655L903.527 -411.308Z" fill="#D7D7D7"/>
<path fill-rule="evenodd" clip-rule="evenodd" d="M719.277 -411.827L766.267 -330.438L719.2 -249.006L672.21 -330.395L719.277 -411.827ZM673.966 -329.786L764.509 -329.829L719.2 -251.439L673.966 -329.786ZM764.511 -331.047L673.968 -331.003L719.277 -409.394L764.511 -331.047Z" fill="#D7D7D7"/>
<path fill-rule="evenodd" clip-rule="evenodd" d="M580.261 -331.566L627.251 -250.177L580.184 -168.745L533.194 -250.134L580.261 -331.566ZM534.95 -249.525L625.493 -249.568L580.184 -171.178L534.95 -249.525ZM625.495 -250.786L534.952 -250.742L580.261 -329.133L625.495 -250.786Z" fill="#D7D7D7"/>
<path fill-rule="evenodd" clip-rule="evenodd" d="M441.245 -251.305L488.235 -169.916L441.168 -88.4841L394.178 -169.873L441.245 -251.305ZM395.934 -169.264L486.477 -169.307L441.168 -90.9167L395.934 -169.264ZM486.479 -170.525L395.936 -170.481L441.245 -248.872L486.479 -170.525Z" fill="#D7D7D7"/>
<path fill-rule="evenodd" clip-rule="evenodd" d="M302.229 -171.044L349.219 -89.6549L302.152 -8.22312L255.162 -89.6122L302.229 -171.044ZM256.918 -89.003L347.461 -89.0466L302.152 -10.6558L256.918 -89.003ZM347.463 -90.2641L256.92 -90.2206L302.229 -168.611L347.463 -90.2641Z" fill="#D7D7D7"/>
<path fill-rule="evenodd" clip-rule="evenodd" d="M163.213 -90.7831L210.203 -9.39401L163.136 72.0378L116.146 -9.35128L163.213 -90.7831ZM117.902 -8.74209L208.445 -8.78562L163.136 69.6051L117.902 -8.74209ZM208.447 -10.0032L117.904 -9.95966L163.213 -88.3504L208.447 -10.0032Z" fill="#D7D7D7"/>
<path fill-rule="evenodd" clip-rule="evenodd" d="M1785.04 -973.698L1832.03 -892.309L1784.96 -810.877L1737.97 -892.266L1785.04 -973.698ZM1739.73 -891.657L1830.27 -891.7L1784.96 -813.31L1739.73 -891.657ZM1830.27 -892.918L1739.73 -892.874L1785.04 -971.265L1830.27 -892.918Z" fill="#D7D7D7"/>
<path fill-rule="evenodd" clip-rule="evenodd" d="M1646.02 -893.437L1693.01 -812.048L1645.95 -730.616L1598.96 -812.005L1646.02 -893.437ZM1600.71 -811.396L1691.26 -811.439L1645.95 -733.049L1600.71 -811.396ZM1691.26 -812.657L1600.72 -812.613L1646.02 -891.004L1691.26 -812.657Z" fill="#D7D7D7"/>
<path fill-rule="evenodd" clip-rule="evenodd" d="M1507.01 -813.176L1554 -731.787L1506.93 -650.355L1459.94 -731.744L1507.01 -813.176ZM1461.7 -731.135L1552.24 -731.178L1506.93 -652.788L1461.7 -731.135ZM1552.24 -732.396L1461.7 -732.352L1507.01 -810.743L1552.24 -732.396Z" fill="#D7D7D7"/>
<path fill-rule="evenodd" clip-rule="evenodd" d="M1367.99 -732.915L1414.98 -651.526L1367.92 -570.094L1320.93 -651.483L1367.99 -732.915ZM1322.68 -650.874L1413.22 -650.918L1367.92 -572.527L1322.68 -650.874ZM1413.23 -652.135L1322.68 -652.092L1367.99 -730.482L1413.23 -652.135Z" fill="#D7D7D7"/>
<path fill-rule="evenodd" clip-rule="evenodd" d="M1228.98 -652.654L1275.97 -571.265L1228.9 -489.833L1181.91 -571.222L1228.98 -652.654ZM1183.67 -570.613L1274.21 -570.657L1228.9 -492.266L1183.67 -570.613ZM1274.21 -571.874L1183.67 -571.831L1228.98 -650.221L1274.21 -571.874Z" fill="#D7D7D7"/>
<path fill-rule="evenodd" clip-rule="evenodd" d="M1089.96 -572.393L1136.95 -491.004L1089.88 -409.572L1042.89 -490.961L1089.96 -572.393ZM1044.65 -490.352L1135.19 -490.396L1089.88 -412.005L1044.65 -490.352ZM1135.19 -491.613L1044.65 -491.57L1089.96 -569.961L1135.19 -491.613Z" fill="#D7D7D7"/>
<path fill-rule="evenodd" clip-rule="evenodd" d="M950.944 -492.132L997.934 -410.743L950.867 -329.311L903.877 -410.7L950.944 -492.132ZM905.633 -410.091L996.176 -410.135L950.867 -331.744L905.633 -410.091ZM996.178 -411.352L905.635 -411.309L950.945 -489.7L996.178 -411.352Z" fill="#D7D7D7"/>
<path fill-rule="evenodd" clip-rule="evenodd" d="M811.928 -411.871L858.918 -330.482L811.851 -249.05L764.861 -330.44L811.928 -411.871ZM766.617 -329.83L857.16 -329.874L811.851 -251.483L766.617 -329.83ZM857.162 -331.091L766.619 -331.048L811.929 -409.439L857.162 -331.091Z" fill="#D7D7D7"/>
<path fill-rule="evenodd" clip-rule="evenodd" d="M672.912 -331.61L719.902 -250.221L672.835 -168.79L625.845 -250.179L672.912 -331.61ZM627.601 -249.569L718.144 -249.613L672.835 -171.222L627.601 -249.569ZM718.146 -250.831L627.604 -250.787L672.913 -329.178L718.146 -250.831Z" fill="#D7D7D7"/>
<path fill-rule="evenodd" clip-rule="evenodd" d="M533.896 -251.349L580.886 -169.96L533.82 -88.5286L486.83 -169.918L533.896 -251.349ZM488.585 -169.308L579.128 -169.352L533.819 -90.9613L488.585 -169.308ZM579.13 -170.57L488.587 -170.526L533.897 -248.917L579.13 -170.57Z" fill="#D7D7D7"/>
<path fill-rule="evenodd" clip-rule="evenodd" d="M394.88 -171.089L441.87 -89.6995L394.804 -8.26771L347.814 -89.6568L394.88 -171.089ZM349.569 -89.0476L440.112 -89.0911L394.803 -10.7003L349.569 -89.0476ZM440.114 -90.3087L349.571 -90.2651L394.881 -168.656L440.114 -90.3087Z" fill="#D7D7D7"/>
<path fill-rule="evenodd" clip-rule="evenodd" d="M255.864 -90.8276L302.854 -9.43853L255.788 71.9932L208.798 -9.39584L255.864 -90.8276ZM210.553 -8.78665L301.096 -8.83017L255.787 69.5606L210.553 -8.78665ZM301.098 -10.0478L210.555 -10.0042L255.865 -88.395L301.098 -10.0478Z" fill="#D7D7D7"/>
<path fill-rule="evenodd" clip-rule="evenodd" d="M116.848 -10.5667L163.838 70.8224L116.771 152.254L69.7815 70.8651L116.848 -10.5667ZM71.5374 71.4743L162.08 71.4308L116.771 149.821L71.5374 71.4743ZM162.082 70.2132L71.5395 70.2567L116.849 -8.13405L162.082 70.2132Z" fill="#D7D7D7"/>
<path fill-rule="evenodd" clip-rule="evenodd" d="M1877.69 -973.742L1924.68 -892.353L1877.62 -810.921L1830.63 -892.311L1877.69 -973.742ZM1832.38 -891.701L1922.92 -891.745L1877.61 -813.354L1832.38 -891.701ZM1922.93 -892.962L1832.38 -892.919L1877.69 -971.31L1922.93 -892.962Z" fill="#D7D7D7"/>
<path fill-rule="evenodd" clip-rule="evenodd" d="M1738.68 -893.481L1785.67 -812.092L1738.6 -730.66L1691.61 -812.05L1738.68 -893.481ZM1693.36 -811.44L1783.91 -811.484L1738.6 -733.093L1693.36 -811.44ZM1783.91 -812.701L1693.37 -812.658L1738.68 -891.049L1783.91 -812.701Z" fill="#D7D7D7"/>
<path fill-rule="evenodd" clip-rule="evenodd" d="M1599.66 -813.22L1646.65 -731.831L1599.58 -650.4L1552.59 -731.789L1599.66 -813.22ZM1554.35 -731.179L1644.89 -731.223L1599.58 -652.832L1554.35 -731.179ZM1644.89 -732.441L1554.35 -732.397L1599.66 -810.788L1644.89 -732.441Z" fill="#D7D7D7"/>
<path fill-rule="evenodd" clip-rule="evenodd" d="M1460.64 -732.959L1507.63 -651.57L1460.57 -570.139L1413.58 -651.528L1460.64 -732.959ZM1415.33 -650.919L1505.88 -650.962L1460.57 -572.571L1415.33 -650.919ZM1505.88 -652.18L1415.34 -652.136L1460.64 -730.527L1505.88 -652.18Z" fill="#D7D7D7"/>
<path fill-rule="evenodd" clip-rule="evenodd" d="M1321.63 -652.699L1368.62 -571.31L1321.55 -489.878L1274.56 -571.267L1321.63 -652.699ZM1276.32 -570.658L1366.86 -570.701L1321.55 -492.31L1276.32 -570.658ZM1366.86 -571.919L1276.32 -571.875L1321.63 -650.266L1366.86 -571.919Z" fill="#D7D7D7"/>
<path fill-rule="evenodd" clip-rule="evenodd" d="M1182.61 -572.438L1229.6 -491.049L1182.54 -409.617L1135.55 -491.006L1182.61 -572.438ZM1137.3 -490.397L1227.84 -490.44L1182.53 -412.05L1137.3 -490.397ZM1227.85 -491.658L1137.3 -491.614L1182.61 -570.005L1227.85 -491.658Z" fill="#D7D7D7"/>
<path fill-rule="evenodd" clip-rule="evenodd" d="M1043.6 -492.177L1090.59 -410.788L1043.52 -329.356L996.529 -410.745L1043.6 -492.177ZM998.285 -410.136L1088.83 -410.179L1043.52 -331.789L998.285 -410.136ZM1088.83 -411.397L998.287 -411.353L1043.6 -489.744L1088.83 -411.397Z" fill="#D7D7D7"/>
<path fill-rule="evenodd" clip-rule="evenodd" d="M904.58 -411.916L951.57 -330.527L904.503 -249.095L857.513 -330.484L904.58 -411.916ZM859.269 -329.875L949.812 -329.918L904.503 -251.528L859.269 -329.875ZM949.814 -331.136L859.271 -331.092L904.58 -409.483L949.814 -331.136Z" fill="#D7D7D7"/>
<path fill-rule="evenodd" clip-rule="evenodd" d="M765.564 -331.655L812.554 -250.266L765.487 -168.834L718.497 -250.223L765.564 -331.655ZM720.253 -249.614L810.796 -249.658L765.487 -171.267L720.253 -249.614ZM810.798 -250.875L720.255 -250.832L765.564 -329.222L810.798 -250.875Z" fill="#D7D7D7"/>
<path fill-rule="evenodd" clip-rule="evenodd" d="M626.548 -251.394L673.538 -170.005L626.471 -88.5732L579.481 -169.962L626.548 -251.394ZM581.237 -169.353L671.78 -169.397L626.471 -91.0058L581.237 -169.353ZM671.782 -170.614L581.239 -170.571L626.548 -248.961L671.782 -170.614Z" fill="#D7D7D7"/>
<path fill-rule="evenodd" clip-rule="evenodd" d="M487.532 -171.133L534.522 -89.744L487.455 -8.31224L440.465 -89.7013L487.532 -171.133ZM442.221 -89.0921L532.764 -89.1356L487.455 -10.7449L442.221 -89.0921ZM532.766 -90.3532L442.223 -90.3097L487.532 -168.7L532.766 -90.3532Z" fill="#D7D7D7"/>
<path fill-rule="evenodd" clip-rule="evenodd" d="M348.516 -90.8722L395.506 -9.48309L348.439 71.9487L301.449 -9.4404L348.516 -90.8722ZM303.205 -8.83114L393.748 -8.87472L348.439 69.516L303.205 -8.83114ZM393.75 -10.0923L303.207 -10.0488L348.516 -88.4395L393.75 -10.0923Z" fill="#D7D7D7"/>
<path fill-rule="evenodd" clip-rule="evenodd" d="M209.5 -10.6113L256.49 70.7778L209.423 152.21L162.433 70.8205L209.5 -10.6113ZM164.189 71.4298L254.732 71.3862L209.423 149.777L164.189 71.4298ZM254.734 70.1686L164.191 70.2122L209.5 -8.1786L254.734 70.1686Z" fill="#D7D7D7"/>
<path fill-rule="evenodd" clip-rule="evenodd" d="M1831.33 -893.526L1878.32 -812.137L1831.25 -730.705L1784.26 -812.094L1831.33 -893.526ZM1786.02 -811.485L1876.56 -811.529L1831.25 -733.138L1786.02 -811.485ZM1876.56 -812.746L1786.02 -812.703L1831.33 -891.093L1876.56 -812.746Z" fill="#D7D7D7"/>
<path fill-rule="evenodd" clip-rule="evenodd" d="M1692.31 -813.265L1739.3 -731.876L1692.23 -650.444L1645.24 -731.833L1692.31 -813.265ZM1647 -731.224L1737.54 -731.267L1692.23 -652.877L1647 -731.224ZM1737.55 -732.485L1647 -732.442L1692.31 -810.832L1737.55 -732.485Z" fill="#D7D7D7"/>
<path fill-rule="evenodd" clip-rule="evenodd" d="M1553.3 -733.004L1600.29 -651.615L1553.22 -570.183L1506.23 -651.572L1553.3 -733.004ZM1507.98 -650.963L1598.53 -651.007L1553.22 -572.616L1507.98 -650.963ZM1598.53 -652.224L1507.99 -652.181L1553.3 -730.571L1598.53 -652.224Z" fill="#D7D7D7"/>
<path fill-rule="evenodd" clip-rule="evenodd" d="M1414.28 -652.743L1461.27 -571.354L1414.2 -489.922L1367.21 -571.311L1414.28 -652.743ZM1368.97 -570.702L1459.51 -570.746L1414.2 -492.355L1368.97 -570.702ZM1459.51 -571.963L1368.97 -571.92L1414.28 -650.311L1459.51 -571.963Z" fill="#D7D7D7"/>
<path fill-rule="evenodd" clip-rule="evenodd" d="M1275.26 -572.482L1322.25 -491.093L1275.19 -409.661L1228.2 -491.051L1275.26 -572.482ZM1229.95 -490.441L1320.5 -490.485L1275.19 -412.094L1229.95 -490.441ZM1320.5 -491.702L1229.95 -491.659L1275.26 -570.05L1320.5 -491.702Z" fill="#D7D7D7"/>
<path fill-rule="evenodd" clip-rule="evenodd" d="M1136.25 -492.221L1183.24 -410.832L1136.17 -329.401L1089.18 -410.79L1136.25 -492.221ZM1090.94 -410.18L1181.48 -410.224L1136.17 -331.833L1090.94 -410.18ZM1181.48 -411.442L1090.94 -411.398L1136.25 -489.789L1181.48 -411.442Z" fill="#D7D7D7"/>
<path fill-rule="evenodd" clip-rule="evenodd" d="M997.232 -411.96L1044.22 -330.571L997.155 -249.14L950.165 -330.529L997.232 -411.96ZM951.921 -329.919L1042.46 -329.963L997.154 -251.572L951.921 -329.919ZM1042.47 -331.181L951.923 -331.137L997.232 -409.528L1042.47 -331.181Z" fill="#D7D7D7"/>
<path fill-rule="evenodd" clip-rule="evenodd" d="M858.216 -331.7L905.206 -250.31L858.139 -168.879L811.149 -250.268L858.216 -331.7ZM812.905 -249.659L903.448 -249.702L858.138 -171.311L812.905 -249.659ZM903.45 -250.92L812.907 -250.876L858.216 -329.267L903.45 -250.92Z" fill="#D7D7D7"/>
<path fill-rule="evenodd" clip-rule="evenodd" d="M719.2 -251.439L766.19 -170.049L719.123 -88.6177L672.133 -170.007L719.2 -251.439ZM673.889 -169.398L764.432 -169.441L719.122 -91.0504L673.889 -169.398ZM764.434 -170.659L673.891 -170.615L719.2 -249.006L764.434 -170.659Z" fill="#D7D7D7"/>
<path fill-rule="evenodd" clip-rule="evenodd" d="M580.184 -171.178L627.174 -89.7886L580.107 -8.35682L533.117 -89.7459L580.184 -171.178ZM534.873 -89.1367L625.416 -89.1802L580.106 -10.7894L534.873 -89.1367ZM625.418 -90.3978L534.875 -90.3542L580.184 -168.745L625.418 -90.3978Z" fill="#D7D7D7"/>
<path fill-rule="evenodd" clip-rule="evenodd" d="M441.168 -90.9167L488.158 -9.52763L441.091 71.9041L394.101 -9.48495L441.168 -90.9167ZM395.857 -8.87573L486.4 -8.91926L441.09 69.4715L395.857 -8.87573ZM486.402 -10.1369L395.859 -10.0933L441.168 -88.4841L486.402 -10.1369Z" fill="#D7D7D7"/>
<path fill-rule="evenodd" clip-rule="evenodd" d="M302.152 -10.6558L349.142 70.7333L302.075 152.165L255.085 70.776L302.152 -10.6558ZM256.841 71.3852L347.384 71.3417L302.074 149.732L256.841 71.3852ZM347.386 70.1241L256.843 70.1676L302.152 -8.22312L347.386 70.1241Z" fill="#D7D7D7"/>
<path fill-rule="evenodd" clip-rule="evenodd" d="M163.136 69.6051L210.126 150.994L163.059 232.426L116.069 151.037L163.136 69.6051ZM117.825 151.646L208.368 151.603L163.058 229.993L117.825 151.646ZM208.37 150.385L117.827 150.429L163.136 72.0378L208.37 150.385Z" fill="#D7D7D7"/>
<path fill-rule="evenodd" clip-rule="evenodd" d="M1923.98 -893.57L1970.97 -812.181L1923.9 -730.75L1876.91 -812.139L1923.98 -893.57ZM1878.67 -811.529L1969.21 -811.573L1923.9 -733.182L1878.67 -811.529ZM1969.21 -812.791L1878.67 -812.747L1923.98 -891.138L1969.21 -812.791Z" fill="#D7D7D7"/>
<path fill-rule="evenodd" clip-rule="evenodd" d="M1784.96 -813.31L1831.95 -731.92L1784.89 -650.489L1737.9 -731.878L1784.96 -813.31ZM1739.65 -731.269L1830.2 -731.312L1784.89 -652.921L1739.65 -731.269ZM1830.2 -732.53L1739.65 -732.486L1784.96 -810.877L1830.2 -732.53Z" fill="#D7D7D7"/>
<path fill-rule="evenodd" clip-rule="evenodd" d="M1645.95 -733.049L1692.94 -651.66L1645.87 -570.228L1598.88 -651.617L1645.95 -733.049ZM1600.64 -651.008L1691.18 -651.051L1645.87 -572.66L1600.64 -651.008ZM1691.18 -652.269L1600.64 -652.225L1645.95 -730.616L1691.18 -652.269Z" fill="#D7D7D7"/>
<path fill-rule="evenodd" clip-rule="evenodd" d="M1506.93 -652.788L1553.92 -571.399L1506.85 -489.967L1459.86 -571.356L1506.93 -652.788ZM1461.62 -570.747L1552.16 -570.79L1506.85 -492.4L1461.62 -570.747ZM1552.17 -572.008L1461.62 -571.964L1506.93 -650.355L1552.17 -572.008Z" fill="#D7D7D7"/>
<path fill-rule="evenodd" clip-rule="evenodd" d="M1367.92 -572.527L1414.91 -491.138L1367.84 -409.706L1320.85 -491.095L1367.92 -572.527ZM1322.6 -490.486L1413.15 -490.529L1367.84 -412.139L1322.6 -490.486ZM1413.15 -491.747L1322.61 -491.703L1367.92 -570.094L1413.15 -491.747Z" fill="#D7D7D7"/>
<path fill-rule="evenodd" clip-rule="evenodd" d="M1228.9 -492.266L1275.89 -410.877L1228.82 -329.445L1181.83 -410.834L1228.9 -492.266ZM1183.59 -410.225L1274.13 -410.268L1228.82 -331.878L1183.59 -410.225ZM1274.13 -411.486L1183.59 -411.442L1228.9 -489.833L1274.13 -411.486Z" fill="#D7D7D7"/>
<path fill-rule="evenodd" clip-rule="evenodd" d="M1089.88 -412.005L1136.87 -330.616L1089.81 -249.184L1042.82 -330.573L1089.88 -412.005ZM1044.57 -329.964L1135.12 -330.008L1089.81 -251.617L1044.57 -329.964ZM1135.12 -331.225L1044.57 -331.182L1089.88 -409.572L1135.12 -331.225Z" fill="#D7D7D7"/>
<path fill-rule="evenodd" clip-rule="evenodd" d="M950.867 -331.744L997.857 -250.355L950.79 -168.923L903.8 -250.312L950.867 -331.744ZM905.556 -249.703L996.099 -249.747L950.79 -171.356L905.556 -249.703ZM996.101 -250.964L905.558 -250.921L950.867 -329.311L996.101 -250.964Z" fill="#D7D7D7"/>
<path fill-rule="evenodd" clip-rule="evenodd" d="M811.851 -251.483L858.841 -170.094L811.774 -88.6623L764.784 -170.051L811.851 -251.483ZM766.54 -169.442L857.083 -169.486L811.774 -91.0949L766.54 -169.442ZM857.085 -170.703L766.542 -170.66L811.851 -249.05L857.085 -170.703Z" fill="#D7D7D7"/>
<path fill-rule="evenodd" clip-rule="evenodd" d="M672.835 -171.222L719.825 -89.8331L672.758 -8.40135L625.768 -89.7904L672.835 -171.222ZM627.524 -89.1812L718.067 -89.2248L672.758 -10.834L627.524 -89.1812ZM718.069 -90.4423L627.526 -90.3988L672.835 -168.79L718.069 -90.4423Z" fill="#D7D7D7"/>
<path fill-rule="evenodd" clip-rule="evenodd" d="M533.819 -90.9613L580.809 -9.57222L533.742 71.8596L486.752 -9.52954L533.819 -90.9613ZM488.508 -8.92026L579.051 -8.96381L533.742 69.4269L488.508 -8.92026ZM579.053 -10.1814L488.51 -10.1378L533.82 -88.5286L579.053 -10.1814Z" fill="#D7D7D7"/>
<path fill-rule="evenodd" clip-rule="evenodd" d="M394.803 -10.7003L441.793 70.6887L394.726 152.12L347.736 70.7314L394.803 -10.7003ZM349.492 71.3407L440.035 71.2971L394.726 149.688L349.492 71.3407ZM440.037 70.0795L349.494 70.1231L394.804 -8.26771L440.037 70.0795Z" fill="#D7D7D7"/>
<path fill-rule="evenodd" clip-rule="evenodd" d="M255.787 69.5606L302.777 150.95L255.71 232.381L208.72 150.992L255.787 69.5606ZM210.476 151.602L301.019 151.558L255.71 229.949L210.476 151.602ZM301.021 150.34L210.478 150.384L255.788 71.9932L301.021 150.34Z" fill="#D7D7D7"/>
<path fill-rule="evenodd" clip-rule="evenodd" d="M1877.61 -813.354L1924.6 -731.965L1877.54 -650.533L1830.55 -731.922L1877.61 -813.354ZM1832.3 -731.313L1922.85 -731.357L1877.54 -652.966L1832.3 -731.313ZM1922.85 -732.574L1832.31 -732.531L1877.62 -810.921L1922.85 -732.574Z" fill="#D7D7D7"/>
<path fill-rule="evenodd" clip-rule="evenodd" d="M1738.6 -733.093L1785.59 -651.704L1738.52 -570.272L1691.53 -651.661L1738.6 -733.093ZM1693.29 -651.052L1783.83 -651.096L1738.52 -572.705L1693.29 -651.052ZM1783.83 -652.313L1693.29 -652.27L1738.6 -730.66L1783.83 -652.313Z" fill="#D7D7D7"/>
<path fill-rule="evenodd" clip-rule="evenodd" d="M1599.58 -652.832L1646.57 -571.443L1599.51 -490.012L1552.52 -571.401L1599.58 -652.832ZM1554.27 -570.791L1644.81 -570.835L1599.51 -492.444L1554.27 -570.791ZM1644.82 -572.052L1554.27 -572.009L1599.58 -650.4L1644.82 -572.052Z" fill="#D7D7D7"/>
<path fill-rule="evenodd" clip-rule="evenodd" d="M1460.57 -572.571L1507.56 -491.182L1460.49 -409.751L1413.5 -491.14L1460.57 -572.571ZM1415.26 -490.53L1505.8 -490.574L1460.49 -412.183L1415.26 -490.53ZM1505.8 -491.792L1415.26 -491.748L1460.57 -570.139L1505.8 -491.792Z" fill="#D7D7D7"/>
<path fill-rule="evenodd" clip-rule="evenodd" d="M1321.55 -492.31L1368.54 -410.921L1321.47 -329.49L1274.48 -410.879L1321.55 -492.31ZM1276.24 -410.27L1366.78 -410.313L1321.47 -331.922L1276.24 -410.27ZM1366.78 -411.531L1276.24 -411.487L1321.55 -489.878L1366.78 -411.531Z" fill="#D7D7D7"/>
<path fill-rule="evenodd" clip-rule="evenodd" d="M1182.53 -412.05L1229.52 -330.661L1182.46 -249.229L1135.47 -330.618L1182.53 -412.05ZM1137.22 -330.009L1227.77 -330.052L1182.46 -251.661L1137.22 -330.009ZM1227.77 -331.27L1137.23 -331.226L1182.54 -409.617L1227.77 -331.27Z" fill="#D7D7D7"/>
<path fill-rule="evenodd" clip-rule="evenodd" d="M1043.52 -331.789L1090.51 -250.4L1043.44 -168.968L996.452 -250.357L1043.52 -331.789ZM998.208 -249.748L1088.75 -249.791L1043.44 -171.4L998.208 -249.748ZM1088.75 -251.009L998.21 -250.965L1043.52 -329.356L1088.75 -251.009Z" fill="#D7D7D7"/>
<path fill-rule="evenodd" clip-rule="evenodd" d="M904.503 -251.528L951.493 -170.139L904.426 -88.7068L857.436 -170.096L904.503 -251.528ZM859.192 -169.487L949.735 -169.53L904.426 -91.1395L859.192 -169.487ZM949.737 -170.748L859.194 -170.704L904.503 -249.095L949.737 -170.748Z" fill="#D7D7D7"/>
<path fill-rule="evenodd" clip-rule="evenodd" d="M765.487 -171.267L812.477 -89.8777L765.41 -8.44592L718.42 -89.835L765.487 -171.267ZM720.176 -89.2258L810.719 -89.2693L765.41 -10.8786L720.176 -89.2258ZM810.721 -90.4869L720.178 -90.4434L765.487 -168.834L810.721 -90.4869Z" fill="#D7D7D7"/>
<path fill-rule="evenodd" clip-rule="evenodd" d="M626.471 -91.0058L673.461 -9.61677L626.394 71.815L579.404 -9.57408L626.471 -91.0058ZM581.16 -8.96483L671.703 -9.00838L626.394 69.3824L581.16 -8.96483ZM671.705 -10.226L581.162 -10.1824L626.471 -88.5732L671.705 -10.226Z" fill="#D7D7D7"/>
<path fill-rule="evenodd" clip-rule="evenodd" d="M487.455 -10.7449L534.445 70.6442L487.378 152.076L440.388 70.6868L487.455 -10.7449ZM442.144 71.2961L532.687 71.2525L487.378 149.643L442.144 71.2961ZM532.689 70.0349L442.146 70.0785L487.455 -8.31224L532.689 70.0349Z" fill="#D7D7D7"/>
<path fill-rule="evenodd" clip-rule="evenodd" d="M348.439 69.516L395.429 150.905L348.362 232.337L301.372 150.948L348.439 69.516ZM303.128 151.557L393.671 151.513L348.362 229.904L303.128 151.557ZM393.673 150.296L303.13 150.339L348.439 71.9487L393.673 150.296Z" fill="#D7D7D7"/>
<path fill-rule="evenodd" clip-rule="evenodd" d="M209.423 149.777L256.413 231.166L209.346 312.598L162.356 231.209L209.423 149.777ZM164.112 231.818L254.655 231.774L209.346 310.165L164.112 231.818ZM254.657 230.557L164.114 230.6L209.423 152.21L254.657 230.557Z" fill="#D7D7D7"/>
<path fill-rule="evenodd" clip-rule="evenodd" d="M1970.27 -813.399L2017.26 -732.01L1970.19 -650.578L1923.2 -731.967L1970.27 -813.399ZM1924.96 -731.358L2015.5 -731.401L1970.19 -653.01L1924.96 -731.358ZM2015.5 -732.619L1924.96 -732.575L1970.27 -810.966L2015.5 -732.619Z" fill="#D7D7D7"/>
<path fill-rule="evenodd" clip-rule="evenodd" d="M1831.25 -733.138L1878.24 -651.749L1831.17 -570.317L1784.18 -651.706L1831.25 -733.138ZM1785.94 -651.097L1876.48 -651.14L1831.17 -572.75L1785.94 -651.097ZM1876.48 -652.358L1785.94 -652.314L1831.25 -730.705L1876.48 -652.358Z" fill="#D7D7D7"/>
<path fill-rule="evenodd" clip-rule="evenodd" d="M1692.23 -652.877L1739.22 -571.488L1692.16 -490.056L1645.17 -571.445L1692.23 -652.877ZM1646.92 -570.836L1737.47 -570.879L1692.16 -492.489L1646.92 -570.836ZM1737.47 -572.097L1646.93 -572.053L1692.23 -650.444L1737.47 -572.097Z" fill="#D7D7D7"/>
<path fill-rule="evenodd" clip-rule="evenodd" d="M1553.22 -572.616L1600.21 -491.227L1553.14 -409.795L1506.15 -491.184L1553.22 -572.616ZM1507.91 -490.575L1598.45 -490.619L1553.14 -412.228L1507.91 -490.575ZM1598.45 -491.836L1507.91 -491.792L1553.22 -570.183L1598.45 -491.836Z" fill="#D7D7D7"/>
<path fill-rule="evenodd" clip-rule="evenodd" d="M1414.2 -492.355L1461.19 -410.966L1414.13 -329.534L1367.14 -410.923L1414.2 -492.355ZM1368.89 -410.314L1459.43 -410.358L1414.13 -331.967L1368.89 -410.314ZM1459.44 -411.575L1368.89 -411.532L1414.2 -489.922L1459.44 -411.575Z" fill="#D7D7D7"/>
<path fill-rule="evenodd" clip-rule="evenodd" d="M1275.19 -412.094L1322.18 -330.705L1275.11 -249.273L1228.12 -330.662L1275.19 -412.094ZM1229.88 -330.053L1320.42 -330.097L1275.11 -251.706L1229.88 -330.053ZM1320.42 -331.314L1229.88 -331.271L1275.19 -409.661L1320.42 -331.314Z" fill="#D7D7D7"/>
<path fill-rule="evenodd" clip-rule="evenodd" d="M1136.17 -331.833L1183.16 -250.444L1136.09 -169.012L1089.1 -250.401L1136.17 -331.833ZM1090.86 -249.792L1181.4 -249.836L1136.09 -171.445L1090.86 -249.792ZM1181.4 -251.053L1090.86 -251.01L1136.17 -329.401L1181.4 -251.053Z" fill="#D7D7D7"/>
<path fill-rule="evenodd" clip-rule="evenodd" d="M997.154 -251.572L1044.14 -170.183L997.078 -88.7514L950.088 -170.14L997.154 -251.572ZM951.844 -169.531L1042.39 -169.575L997.077 -91.1841L951.844 -169.531ZM1042.39 -170.792L951.845 -170.749L997.155 -249.14L1042.39 -170.792Z" fill="#D7D7D7"/>
<path fill-rule="evenodd" clip-rule="evenodd" d="M858.138 -171.311L905.128 -89.9222L858.062 -8.49046L811.072 -89.8795L858.138 -171.311ZM812.827 -89.2703L903.371 -89.3139L858.061 -10.9231L812.827 -89.2703ZM903.372 -90.5314L812.829 -90.4879L858.139 -168.879L903.372 -90.5314Z" fill="#D7D7D7"/>
<path fill-rule="evenodd" clip-rule="evenodd" d="M719.122 -91.0504L766.112 -9.66131L719.046 71.7705L672.056 -9.61861L719.122 -91.0504ZM673.811 -9.00938L764.354 -9.05293L719.045 69.3378L673.811 -9.00938ZM764.356 -10.2705L673.814 -10.227L719.123 -88.6177L764.356 -10.2705Z" fill="#D7D7D7"/>
<path fill-rule="evenodd" clip-rule="evenodd" d="M580.106 -10.7894L627.096 70.5996L580.03 152.031L533.04 70.6423L580.106 -10.7894ZM534.795 71.2515L625.338 71.208L580.029 149.599L534.795 71.2515ZM625.341 69.9904L534.798 70.034L580.107 -8.35682L625.341 69.9904Z" fill="#D7D7D7"/>
<path fill-rule="evenodd" clip-rule="evenodd" d="M441.09 69.4715L488.08 150.861L441.014 232.292L394.024 150.903L441.09 69.4715ZM395.779 151.512L486.322 151.469L441.013 229.86L395.779 151.512ZM486.325 150.251L395.782 150.295L441.091 71.9041L486.325 150.251Z" fill="#D7D7D7"/>
<path fill-rule="evenodd" clip-rule="evenodd" d="M302.074 149.732L349.064 231.121L301.998 312.553L255.008 231.164L302.074 149.732ZM256.764 231.773L347.306 231.73L301.997 310.121L256.764 231.773ZM347.309 230.512L256.766 230.556L302.075 152.165L347.309 230.512Z" fill="#D7D7D7"/>
<path fill-rule="evenodd" clip-rule="evenodd" d="M1923.9 -733.182L1970.89 -651.793L1923.83 -570.361L1876.84 -651.75L1923.9 -733.182ZM1878.59 -651.141L1969.13 -651.185L1923.82 -572.794L1878.59 -651.141ZM1969.14 -652.402L1878.59 -652.359L1923.9 -730.75L1969.14 -652.402Z" fill="#D7D7D7"/>
<path fill-rule="evenodd" clip-rule="evenodd" d="M1784.89 -652.921L1831.88 -571.532L1784.81 -490.1L1737.82 -571.49L1784.89 -652.921ZM1739.57 -570.88L1830.12 -570.924L1784.81 -492.533L1739.57 -570.88ZM1830.12 -572.141L1739.58 -572.098L1784.89 -650.489L1830.12 -572.141Z" fill="#D7D7D7"/>
<path fill-rule="evenodd" clip-rule="evenodd" d="M1645.87 -572.66L1692.86 -491.271L1645.79 -409.84L1598.8 -491.229L1645.87 -572.66ZM1600.56 -490.619L1691.1 -490.663L1645.79 -412.272L1600.56 -490.619ZM1691.1 -491.881L1600.56 -491.837L1645.87 -570.228L1691.1 -491.881Z" fill="#D7D7D7"/>
<path fill-rule="evenodd" clip-rule="evenodd" d="M1506.85 -492.4L1553.84 -411.01L1506.78 -329.579L1459.79 -410.968L1506.85 -492.4ZM1461.54 -410.359L1552.09 -410.402L1506.78 -332.011L1461.54 -410.359ZM1552.09 -411.62L1461.55 -411.576L1506.85 -489.967L1552.09 -411.62Z" fill="#D7D7D7"/>
<path fill-rule="evenodd" clip-rule="evenodd" d="M1367.84 -412.139L1414.83 -330.749L1367.76 -249.318L1320.77 -330.707L1367.84 -412.139ZM1322.53 -330.098L1413.07 -330.141L1367.76 -251.751L1322.53 -330.098ZM1413.07 -331.359L1322.53 -331.315L1367.84 -409.706L1413.07 -331.359Z" fill="#D7D7D7"/>
<path fill-rule="evenodd" clip-rule="evenodd" d="M1228.82 -331.878L1275.81 -250.489L1228.75 -169.057L1181.76 -250.446L1228.82 -331.878ZM1183.51 -249.837L1274.05 -249.88L1228.74 -171.49L1183.51 -249.837ZM1274.06 -251.098L1183.51 -251.054L1228.82 -329.445L1274.06 -251.098Z" fill="#D7D7D7"/>
<path fill-rule="evenodd" clip-rule="evenodd" d="M1089.81 -251.617L1136.8 -170.228L1089.73 -88.7959L1042.74 -170.185L1089.81 -251.617ZM1044.5 -169.576L1135.04 -169.619L1089.73 -91.2286L1044.5 -169.576ZM1135.04 -170.837L1044.5 -170.793L1089.81 -249.184L1135.04 -170.837Z" fill="#D7D7D7"/>
<path fill-rule="evenodd" clip-rule="evenodd" d="M950.79 -171.356L997.78 -89.9668L950.713 -8.53501L903.723 -89.9241L950.79 -171.356ZM905.479 -89.3149L996.022 -89.3584L950.713 -10.9677L905.479 -89.3149ZM996.024 -90.576L905.481 -90.5324L950.79 -168.923L996.024 -90.576Z" fill="#D7D7D7"/>
<path fill-rule="evenodd" clip-rule="evenodd" d="M811.774 -91.0949L858.764 -9.70589L811.697 71.7259L764.707 -9.66316L811.774 -91.0949ZM766.463 -9.05395L857.006 -9.09753L811.697 69.2933L766.463 -9.05395ZM857.008 -10.3151L766.465 -10.2716L811.774 -88.6623L857.008 -10.3151Z" fill="#D7D7D7"/>
<path fill-rule="evenodd" clip-rule="evenodd" d="M672.758 -10.834L719.748 70.555L672.681 151.987L625.691 70.5978L672.758 -10.834ZM627.447 71.207L717.99 71.1634L672.681 149.554L627.447 71.207ZM717.992 69.9458L627.449 69.9894L672.758 -8.40135L717.992 69.9458Z" fill="#D7D7D7"/>
<path fill-rule="evenodd" clip-rule="evenodd" d="M533.742 69.4269L580.732 150.816L533.665 232.248L486.675 150.859L533.742 69.4269ZM488.431 151.468L578.974 151.424L533.665 229.815L488.431 151.468ZM578.976 150.207L488.433 150.25L533.742 71.8596L578.976 150.207Z" fill="#D7D7D7"/>
<path fill-rule="evenodd" clip-rule="evenodd" d="M394.726 149.688L441.716 231.077L394.649 312.509L347.659 231.12L394.726 149.688ZM349.415 231.729L439.958 231.685L394.649 310.076L349.415 231.729ZM439.96 230.468L349.417 230.511L394.726 152.12L439.96 230.468Z" fill="#D7D7D7"/>
<path fill-rule="evenodd" clip-rule="evenodd" d="M255.71 229.949L302.7 311.338L255.633 392.77L208.643 311.381L255.71 229.949ZM210.399 311.99L300.942 311.946L255.633 390.337L210.399 311.99ZM300.944 310.729L210.401 310.772L255.71 232.381L300.944 310.729Z" fill="#D7D7D7"/>
<path fill-rule="evenodd" clip-rule="evenodd" d="M2016.55 -733.227L2063.54 -651.838L2016.48 -570.406L1969.49 -651.795L2016.55 -733.227ZM1971.24 -651.186L2061.79 -651.23L2016.48 -572.839L1971.24 -651.186ZM2061.79 -652.447L1971.24 -652.403L2016.55 -730.794L2061.79 -652.447Z" fill="#D7D7D7"/>
<path fill-rule="evenodd" clip-rule="evenodd" d="M1877.54 -652.966L1924.53 -571.577L1877.46 -490.145L1830.47 -571.534L1877.54 -652.966ZM1832.23 -570.925L1922.77 -570.969L1877.46 -492.578L1832.23 -570.925ZM1922.77 -572.186L1832.23 -572.143L1877.54 -650.533L1922.77 -572.186Z" fill="#D7D7D7"/>
<path fill-rule="evenodd" clip-rule="evenodd" d="M1738.52 -572.705L1785.51 -491.316L1738.44 -409.884L1691.45 -491.273L1738.52 -572.705ZM1693.21 -490.664L1783.75 -490.708L1738.44 -412.317L1693.21 -490.664ZM1783.76 -491.925L1693.21 -491.882L1738.52 -570.272L1783.76 -491.925Z" fill="#D7D7D7"/>
<path fill-rule="evenodd" clip-rule="evenodd" d="M1599.51 -492.444L1646.5 -411.055L1599.43 -329.623L1552.44 -411.012L1599.51 -492.444ZM1554.19 -410.403L1644.74 -410.447L1599.43 -332.056L1554.19 -410.403ZM1644.74 -411.664L1554.2 -411.621L1599.51 -490.012L1644.74 -411.664Z" fill="#D7D7D7"/>
<path fill-rule="evenodd" clip-rule="evenodd" d="M1460.49 -412.183L1507.48 -330.794L1460.41 -249.362L1413.42 -330.751L1460.49 -412.183ZM1415.18 -330.142L1505.72 -330.186L1460.41 -251.795L1415.18 -330.142ZM1505.72 -331.403L1415.18 -331.36L1460.49 -409.751L1505.72 -331.403Z" fill="#D7D7D7"/>
<path fill-rule="evenodd" clip-rule="evenodd" d="M1321.47 -331.922L1368.46 -250.533L1321.4 -169.101L1274.41 -250.491L1321.47 -331.922ZM1276.16 -249.881L1366.71 -249.925L1321.4 -171.534L1276.16 -249.881ZM1366.71 -251.142L1276.16 -251.099L1321.47 -329.49L1366.71 -251.142Z" fill="#D7D7D7"/>
<path fill-rule="evenodd" clip-rule="evenodd" d="M1182.46 -251.661L1229.45 -170.272L1182.38 -88.8405L1135.39 -170.23L1182.46 -251.661ZM1137.15 -169.62L1227.69 -169.664L1182.38 -91.2732L1137.15 -169.62ZM1227.69 -170.881L1137.15 -170.838L1182.46 -249.229L1227.69 -170.881Z" fill="#D7D7D7"/>
<path fill-rule="evenodd" clip-rule="evenodd" d="M1043.44 -171.4L1090.43 -90.0113L1043.36 -8.57958L996.375 -89.9686L1043.44 -171.4ZM998.131 -89.3595L1088.67 -89.403L1043.36 -11.0122L998.131 -89.3595ZM1088.68 -90.6206L998.133 -90.577L1043.44 -168.968L1088.68 -90.6206Z" fill="#D7D7D7"/>
<path fill-rule="evenodd" clip-rule="evenodd" d="M904.426 -91.1395L951.416 -9.75038L904.349 71.6813L857.359 -9.7077L904.426 -91.1395ZM859.115 -9.09849L949.658 -9.14213L904.348 69.2487L859.115 -9.09849ZM949.66 -10.3596L859.117 -10.3161L904.426 -88.7068L949.66 -10.3596Z" fill="#D7D7D7"/>
<path fill-rule="evenodd" clip-rule="evenodd" d="M765.41 -10.8786L812.4 70.5105L765.333 151.942L718.343 70.5532L765.41 -10.8786ZM720.099 71.1624L810.642 71.1188L765.332 149.51L720.099 71.1624ZM810.644 69.9013L720.101 69.9448L765.41 -8.44592L810.644 69.9013Z" fill="#D7D7D7"/>
<path fill-rule="evenodd" clip-rule="evenodd" d="M626.394 69.3824L673.384 150.771L626.317 232.203L579.327 150.814L626.394 69.3824ZM581.083 151.423L671.626 151.38L626.316 229.771L581.083 151.423ZM671.628 150.162L581.085 150.206L626.394 71.815L671.628 150.162Z" fill="#D7D7D7"/>
<path fill-rule="evenodd" clip-rule="evenodd" d="M487.378 149.643L534.368 231.032L487.301 312.464L440.311 231.075L487.378 149.643ZM442.067 231.684L532.61 231.641L487.3 310.031L442.067 231.684ZM532.612 230.423L442.069 230.467L487.378 152.076L532.612 230.423Z" fill="#D7D7D7"/>
<path fill-rule="evenodd" clip-rule="evenodd" d="M348.362 229.904L395.352 311.293L348.285 392.725L301.295 311.336L348.362 229.904ZM303.051 311.945L393.594 311.902L348.285 390.292L303.051 311.945ZM393.596 310.684L303.053 310.728L348.362 232.337L393.596 310.684Z" fill="#D7D7D7"/>
<path fill-rule="evenodd" clip-rule="evenodd" d="M2062.84 -653.055L2109.83 -571.666L2062.76 -490.234L2015.77 -571.623L2062.84 -653.055ZM2017.53 -571.014L2108.07 -571.058L2062.76 -492.667L2017.53 -571.014ZM2108.07 -572.275L2017.53 -572.232L2062.84 -650.622L2108.07 -572.275Z" fill="#D7D7D7"/>
<path fill-rule="evenodd" clip-rule="evenodd" d="M1923.82 -572.794L1970.81 -491.405L1923.75 -409.973L1876.76 -491.362L1923.82 -572.794ZM1878.51 -490.753L1969.06 -490.797L1923.75 -412.406L1878.51 -490.753ZM1969.06 -492.014L1878.52 -491.971L1923.83 -570.361L1969.06 -492.014Z" fill="#D7D7D7"/>
<path fill-rule="evenodd" clip-rule="evenodd" d="M1784.81 -492.533L1831.8 -411.144L1784.73 -329.712L1737.74 -411.101L1784.81 -492.533ZM1739.5 -410.492L1830.04 -410.536L1784.73 -332.145L1739.5 -410.492ZM1830.04 -411.753L1739.5 -411.71L1784.81 -490.1L1830.04 -411.753Z" fill="#D7D7D7"/>
<path fill-rule="evenodd" clip-rule="evenodd" d="M1645.79 -412.272L1692.78 -330.883L1645.72 -249.451L1598.73 -330.841L1645.79 -412.272ZM1600.48 -330.231L1691.02 -330.275L1645.72 -251.884L1600.48 -330.231ZM1691.03 -331.493L1600.48 -331.449L1645.79 -409.84L1691.03 -331.493Z" fill="#D7D7D7"/>
<path fill-rule="evenodd" clip-rule="evenodd" d="M1506.78 -332.011L1553.77 -250.622L1506.7 -169.191L1459.71 -250.58L1506.78 -332.011ZM1461.47 -249.97L1552.01 -250.014L1506.7 -171.623L1461.47 -249.97ZM1552.01 -251.232L1461.47 -251.188L1506.78 -329.579L1552.01 -251.232Z" fill="#D7D7D7"/>
<path fill-rule="evenodd" clip-rule="evenodd" d="M1367.76 -251.751L1414.75 -170.361L1367.68 -88.9296L1320.69 -170.319L1367.76 -251.751ZM1322.45 -169.71L1412.99 -169.753L1367.68 -91.3624L1322.45 -169.71ZM1413 -170.971L1322.45 -170.927L1367.76 -249.318L1413 -170.971Z" fill="#D7D7D7"/>
<path fill-rule="evenodd" clip-rule="evenodd" d="M1228.74 -171.49L1275.73 -90.1005L1228.67 -8.6687L1181.68 -90.0578L1228.74 -171.49ZM1183.43 -89.4486L1273.98 -89.4921L1228.67 -11.1014L1183.43 -89.4486ZM1273.98 -90.7097L1183.44 -90.6661L1228.75 -169.057L1273.98 -90.7097Z" fill="#D7D7D7"/>
<path fill-rule="evenodd" clip-rule="evenodd" d="M1089.73 -91.2286L1136.72 -9.83958L1089.65 71.5923L1042.66 -9.79685L1089.73 -91.2286ZM1044.42 -9.18764L1134.96 -9.23121L1089.65 69.1595L1044.42 -9.18764ZM1134.96 -10.4488L1044.42 -10.4052L1089.73 -88.7959L1134.96 -10.4488Z" fill="#D7D7D7"/>
<path fill-rule="evenodd" clip-rule="evenodd" d="M950.713 -10.9677L997.703 70.4214L950.636 151.853L903.646 70.4641L950.713 -10.9677ZM905.402 71.0733L995.945 71.0297L950.636 149.42L905.402 71.0733ZM995.947 69.8121L905.404 69.8557L950.713 -8.53501L995.947 69.8121Z" fill="#D7D7D7"/>
<path fill-rule="evenodd" clip-rule="evenodd" d="M811.697 69.2933L858.687 150.682L811.62 232.114L764.63 150.725L811.697 69.2933ZM766.386 151.334L856.929 151.291L811.62 229.681L766.386 151.334ZM856.931 150.073L766.388 150.117L811.697 71.7259L856.931 150.073Z" fill="#D7D7D7"/>
<path fill-rule="evenodd" clip-rule="evenodd" d="M672.681 149.554L719.671 230.943L672.604 312.375L625.614 230.986L672.681 149.554ZM627.37 231.595L717.913 231.552L672.604 309.942L627.37 231.595ZM717.915 230.334L627.372 230.378L672.681 151.987L717.915 230.334Z" fill="#D7D7D7"/>
<path fill-rule="evenodd" clip-rule="evenodd" d="M533.665 229.815L580.655 311.204L533.588 392.636L486.598 311.247L533.665 229.815ZM488.354 311.856L578.897 311.812L533.588 390.203L488.354 311.856ZM578.899 310.595L488.356 310.638L533.665 232.248L578.899 310.595Z" fill="#D7D7D7"/>
<path fill-rule="evenodd" clip-rule="evenodd" d="M394.649 310.076L441.639 391.465L394.572 472.897L347.582 391.508L394.649 310.076ZM349.338 392.117L439.881 392.073L394.572 470.464L349.338 392.117ZM439.883 390.856L349.34 390.899L394.649 312.509L439.883 390.856Z" fill="#D7D7D7"/>
<path fill-rule="evenodd" clip-rule="evenodd" d="M2109.13 -572.883L2156.12 -491.494L2109.05 -410.062L2062.06 -491.452L2109.13 -572.883ZM2063.82 -490.842L2154.36 -490.886L2109.05 -412.495L2063.82 -490.842ZM2154.36 -492.103L2063.82 -492.06L2109.13 -570.451L2154.36 -492.103Z" fill="#D7D7D7"/>
<path fill-rule="evenodd" clip-rule="evenodd" d="M1970.11 -492.622L2017.1 -411.233L1970.04 -329.801L1923.04 -411.191L1970.11 -492.622ZM1924.8 -410.581L2015.34 -410.625L1970.03 -332.234L1924.8 -410.581ZM2015.35 -411.842L1924.8 -411.799L1970.11 -490.19L2015.35 -411.842Z" fill="#D7D7D7"/>
<path fill-rule="evenodd" clip-rule="evenodd" d="M1831.1 -412.361L1878.09 -330.972L1831.02 -249.54L1784.03 -330.93L1831.1 -412.361ZM1785.79 -330.32L1876.33 -330.364L1831.02 -251.973L1785.79 -330.32ZM1876.33 -331.582L1785.79 -331.538L1831.1 -409.929L1876.33 -331.582Z" fill="#D7D7D7"/>
<path fill-rule="evenodd" clip-rule="evenodd" d="M1692.08 -332.1L1739.07 -250.711L1692 -169.28L1645.01 -250.669L1692.08 -332.1ZM1646.77 -250.059L1737.31 -250.103L1692 -171.712L1646.77 -250.059ZM1737.31 -251.321L1646.77 -251.277L1692.08 -329.668L1737.31 -251.321Z" fill="#D7D7D7"/>
<path fill-rule="evenodd" clip-rule="evenodd" d="M1553.06 -251.84L1600.05 -170.45L1552.99 -89.0188L1506 -170.408L1553.06 -251.84ZM1507.75 -169.798L1598.3 -169.842L1552.99 -91.4513L1507.75 -169.798ZM1598.3 -171.06L1507.76 -171.016L1553.06 -249.407L1598.3 -171.06Z" fill="#D7D7D7"/>
<path fill-rule="evenodd" clip-rule="evenodd" d="M1414.05 -171.579L1461.04 -90.1896L1413.97 -8.75784L1366.98 -90.1469L1414.05 -171.579ZM1368.74 -89.5377L1459.28 -89.5813L1413.97 -11.1905L1368.74 -89.5377ZM1459.28 -90.7989L1368.74 -90.7553L1414.05 -169.146L1459.28 -90.7989Z" fill="#D7D7D7"/>
<path fill-rule="evenodd" clip-rule="evenodd" d="M1275.03 -91.3177L1322.02 -9.92864L1274.96 71.5031L1227.97 -9.88602L1275.03 -91.3177ZM1229.72 -9.27673L1320.26 -9.3203L1274.95 69.0704L1229.72 -9.27673ZM1320.27 -10.5379L1229.72 -10.4944L1275.03 -88.885L1320.27 -10.5379Z" fill="#D7D7D7"/>
<path fill-rule="evenodd" clip-rule="evenodd" d="M1136.02 -11.0568L1183.01 70.3323L1135.94 151.764L1088.95 70.3749L1136.02 -11.0568ZM1090.71 70.9842L1181.25 70.9406L1135.94 149.331L1090.71 70.9842ZM1181.25 69.7231L1090.71 69.7666L1136.02 -8.62412L1181.25 69.7231Z" fill="#D7D7D7"/>
<path fill-rule="evenodd" clip-rule="evenodd" d="M997 69.2041L1043.99 150.593L996.923 232.025L949.933 150.636L997 69.2041ZM951.689 151.245L1042.23 151.201L996.923 229.592L951.689 151.245ZM1042.23 149.984L951.691 150.028L997 71.6368L1042.23 149.984Z" fill="#D7D7D7"/>
<path fill-rule="evenodd" clip-rule="evenodd" d="M857.984 149.465L904.974 230.854L857.907 312.286L810.917 230.897L857.984 149.465ZM812.673 231.506L903.216 231.462L857.907 309.853L812.673 231.506ZM903.218 230.245L812.675 230.288L857.984 151.898L903.218 230.245Z" fill="#D7D7D7"/>
<path fill-rule="evenodd" clip-rule="evenodd" d="M718.968 229.726L765.958 311.115L718.891 392.547L671.901 311.158L718.968 229.726ZM673.657 311.767L764.2 311.723L718.891 390.114L673.657 311.767ZM764.202 310.506L673.659 310.549L718.968 232.159L764.202 310.506Z" fill="#D7D7D7"/>
<path fill-rule="evenodd" clip-rule="evenodd" d="M579.952 309.987L626.942 391.376L579.875 472.808L532.885 391.419L579.952 309.987ZM534.641 392.028L625.184 391.984L579.875 470.375L534.641 392.028ZM625.186 390.767L534.643 390.81L579.952 312.42L625.186 390.767Z" fill="#D7D7D7"/>
<path fill-rule="evenodd" clip-rule="evenodd" d="M440.936 390.248L487.926 471.637L440.859 553.069L393.869 471.68L440.936 390.248ZM395.625 472.289L486.168 472.245L440.859 550.636L395.625 472.289ZM486.17 471.028L395.627 471.071L440.936 392.68L486.17 471.028Z" fill="#D7D7D7"/>
<path fill-rule="evenodd" clip-rule="evenodd" d="M2155.42 -492.711L2202.41 -411.322L2155.34 -329.891L2108.35 -411.28L2155.42 -492.711ZM2110.1 -410.67L2200.65 -410.714L2155.34 -332.323L2110.1 -410.67ZM2200.65 -411.932L2110.11 -411.888L2155.42 -490.279L2200.65 -411.932Z" fill="#D7D7D7"/>
<path fill-rule="evenodd" clip-rule="evenodd" d="M2016.4 -412.45L2063.39 -331.061L2016.32 -249.63L1969.33 -331.019L2016.4 -412.45ZM1971.09 -330.41L2061.63 -330.453L2016.32 -252.062L1971.09 -330.41ZM2061.63 -331.671L1971.09 -331.627L2016.4 -410.018L2061.63 -331.671Z" fill="#D7D7D7"/>
<path fill-rule="evenodd" clip-rule="evenodd" d="M1877.38 -332.19L1924.37 -250.8L1877.31 -169.369L1830.32 -250.758L1877.38 -332.19ZM1832.07 -250.149L1922.62 -250.192L1877.31 -171.801L1832.07 -250.149ZM1922.62 -251.41L1832.07 -251.366L1877.38 -329.757L1922.62 -251.41Z" fill="#D7D7D7"/>
<path fill-rule="evenodd" clip-rule="evenodd" d="M1738.37 -251.929L1785.36 -170.54L1738.29 -89.1079L1691.3 -170.497L1738.37 -251.929ZM1693.06 -169.888L1783.6 -169.931L1738.29 -91.5405L1693.06 -169.888ZM1783.6 -171.149L1693.06 -171.105L1738.37 -249.496L1783.6 -171.149Z" fill="#D7D7D7"/>
<path fill-rule="evenodd" clip-rule="evenodd" d="M1599.35 -171.668L1646.34 -90.2786L1599.27 -8.84699L1552.28 -90.236L1599.35 -171.668ZM1554.04 -89.6267L1644.58 -89.6704L1599.27 -11.2795L1554.04 -89.6267ZM1644.59 -90.8879L1554.04 -90.8444L1599.35 -169.235L1644.59 -90.8879Z" fill="#D7D7D7"/>
<path fill-rule="evenodd" clip-rule="evenodd" d="M1460.34 -91.4069L1507.33 -10.0178L1460.26 71.4139L1413.27 -9.97511L1460.34 -91.4069ZM1415.02 -9.36594L1505.57 -9.4095L1460.26 68.9812L1415.02 -9.36594ZM1505.57 -10.627L1415.03 -10.5835L1460.34 -88.9742L1505.57 -10.627Z" fill="#D7D7D7"/>
<path fill-rule="evenodd" clip-rule="evenodd" d="M1321.32 -11.1459L1368.31 70.2432L1321.24 151.675L1274.25 70.2858L1321.32 -11.1459ZM1276.01 70.8951L1366.55 70.8515L1321.24 149.242L1276.01 70.8951ZM1366.55 69.634L1276.01 69.6774L1321.32 -8.71321L1366.55 69.634Z" fill="#D7D7D7"/>
<path fill-rule="evenodd" clip-rule="evenodd" d="M1182.3 69.115L1229.29 150.504L1182.23 231.936L1135.24 150.547L1182.3 69.115ZM1136.99 151.156L1227.54 151.112L1182.23 229.503L1136.99 151.156ZM1227.54 149.895L1136.99 149.938L1182.3 71.5477L1227.54 149.895Z" fill="#D7D7D7"/>
<path fill-rule="evenodd" clip-rule="evenodd" d="M1043.29 149.376L1090.28 230.765L1043.21 312.197L996.22 230.808L1043.29 149.376ZM997.976 231.417L1088.52 231.373L1043.21 309.764L997.976 231.417ZM1088.52 230.156L997.978 230.199L1043.29 151.809L1088.52 230.156Z" fill="#D7D7D7"/>
<path fill-rule="evenodd" clip-rule="evenodd" d="M904.271 229.637L951.261 311.026L904.194 392.458L857.204 311.069L904.271 229.637ZM858.96 311.678L949.503 311.634L904.194 390.025L858.96 311.678ZM949.505 310.417L858.962 310.46L904.272 232.07L949.505 310.417Z" fill="#D7D7D7"/>
<path fill-rule="evenodd" clip-rule="evenodd" d="M765.255 309.898L812.245 391.287L765.178 472.719L718.188 391.33L765.255 309.898ZM719.944 391.939L810.487 391.895L765.178 470.286L719.944 391.939ZM810.489 390.678L719.946 390.721L765.256 312.33L810.489 390.678Z" fill="#D7D7D7"/>
<path fill-rule="evenodd" clip-rule="evenodd" d="M626.239 390.159L673.229 471.548L626.162 552.98L579.172 471.59L626.239 390.159ZM580.928 472.2L671.471 472.156L626.162 550.547L580.928 472.2ZM671.473 470.939L580.93 470.982L626.24 392.591L671.473 470.939Z" fill="#D7D7D7"/>
<path fill-rule="evenodd" clip-rule="evenodd" d="M487.223 470.42L534.213 551.809L487.146 633.24L440.156 551.851L487.223 470.42ZM441.912 552.461L532.455 552.417L487.146 630.808L441.912 552.461ZM532.457 551.2L441.914 551.243L487.224 472.852L532.457 551.2Z" fill="#D7D7D7"/>
<path fill-rule="evenodd" clip-rule="evenodd" d="M2201.7 -412.54L2248.69 -331.15L2201.63 -249.719L2154.64 -331.108L2201.7 -412.54ZM2156.39 -330.499L2246.93 -330.542L2201.63 -252.151L2156.39 -330.499ZM2246.94 -331.76L2156.39 -331.716L2201.7 -410.107L2246.94 -331.76Z" fill="#D7D7D7"/>
<path fill-rule="evenodd" clip-rule="evenodd" d="M2062.69 -332.279L2109.68 -250.89L2062.61 -169.458L2015.62 -250.847L2062.69 -332.279ZM2017.38 -250.238L2107.92 -250.281L2062.61 -171.891L2017.38 -250.238ZM2107.92 -251.499L2017.38 -251.455L2062.69 -329.846L2107.92 -251.499Z" fill="#D7D7D7"/>
<path fill-rule="evenodd" clip-rule="evenodd" d="M1923.67 -252.018L1970.66 -170.629L1923.59 -89.1969L1876.6 -170.586L1923.67 -252.018ZM1878.36 -169.977L1968.9 -170.02L1923.59 -91.6296L1878.36 -169.977ZM1968.9 -171.238L1878.36 -171.194L1923.67 -249.585L1968.9 -171.238Z" fill="#D7D7D7"/>
<path fill-rule="evenodd" clip-rule="evenodd" d="M1784.65 -171.757L1831.64 -90.3677L1784.58 -8.93608L1737.59 -90.3251L1784.65 -171.757ZM1739.34 -89.7159L1829.89 -89.7595L1784.58 -11.3687L1739.34 -89.7159ZM1829.89 -90.9771L1739.35 -90.9335L1784.65 -169.324L1829.89 -90.9771Z" fill="#D7D7D7"/>
<path fill-rule="evenodd" clip-rule="evenodd" d="M1645.64 -91.4959L1692.63 -10.1068L1645.56 71.3248L1598.57 -10.0642L1645.64 -91.4959ZM1600.33 -9.4549L1690.87 -9.49859L1645.56 68.8923L1600.33 -9.4549ZM1690.87 -10.7162L1600.33 -10.6726L1645.64 -89.0633L1690.87 -10.7162Z" fill="#D7D7D7"/>
<path fill-rule="evenodd" clip-rule="evenodd" d="M1506.62 -11.2351L1553.61 70.154L1506.55 151.586L1459.56 70.1967L1506.62 -11.2351ZM1461.31 70.8058L1551.85 70.7623L1506.55 149.153L1461.31 70.8058ZM1551.86 69.5448L1461.31 69.5883L1506.62 -8.80242L1551.86 69.5448Z" fill="#D7D7D7"/>
<path fill-rule="evenodd" clip-rule="evenodd" d="M1367.61 69.0259L1414.6 150.415L1367.53 231.847L1320.54 150.458L1367.61 69.0259ZM1322.3 151.067L1412.84 151.023L1367.53 229.414L1322.3 151.067ZM1412.84 149.806L1322.3 149.849L1367.61 71.4586L1412.84 149.806Z" fill="#D7D7D7"/>
<path fill-rule="evenodd" clip-rule="evenodd" d="M1228.59 149.287L1275.58 230.676L1228.51 312.108L1181.52 230.719L1228.59 149.287ZM1183.28 231.328L1273.82 231.284L1228.51 309.675L1183.28 231.328ZM1273.82 230.067L1183.28 230.11L1228.59 151.719L1273.82 230.067Z" fill="#D7D7D7"/>
<path fill-rule="evenodd" clip-rule="evenodd" d="M1089.57 229.548L1136.56 310.937L1089.5 392.369L1042.51 310.98L1089.57 229.548ZM1044.26 311.589L1134.81 311.545L1089.5 389.936L1044.26 311.589ZM1134.81 310.328L1044.27 310.371L1089.57 231.98L1134.81 310.328Z" fill="#D7D7D7"/>
<path fill-rule="evenodd" clip-rule="evenodd" d="M950.559 309.809L997.549 391.198L950.482 472.63L903.492 391.24L950.559 309.809ZM905.248 391.85L995.791 391.806L950.481 470.197L905.248 391.85ZM995.793 390.589L905.25 390.632L950.559 312.241L995.793 390.589Z" fill="#D7D7D7"/>
<path fill-rule="evenodd" clip-rule="evenodd" d="M811.543 390.07L858.533 471.459L811.466 552.89L764.476 471.501L811.543 390.07ZM766.232 472.111L856.774 472.067L811.465 550.458L766.232 472.111ZM856.777 470.849L766.234 470.893L811.543 392.502L856.777 470.849Z" fill="#D7D7D7"/>
<path fill-rule="evenodd" clip-rule="evenodd" d="M672.527 470.331L719.517 551.72L672.45 633.151L625.46 551.762L672.527 470.331ZM627.216 552.371L717.759 552.328L672.449 630.719L627.216 552.371ZM717.761 551.11L627.218 551.154L672.527 472.763L717.761 551.11Z" fill="#D7D7D7"/>
<path fill-rule="evenodd" clip-rule="evenodd" d="M533.511 550.591L580.501 631.981L533.434 713.412L486.444 632.023L533.511 550.591ZM488.2 632.632L578.743 632.589L533.433 710.98L488.2 632.632ZM578.745 631.371L488.202 631.415L533.511 553.024L578.745 631.371Z" fill="#D7D7D7"/>
<path fill-rule="evenodd" clip-rule="evenodd" d="M2247.99 -332.368L2294.98 -250.979L2247.91 -169.547L2200.92 -250.936L2247.99 -332.368ZM2202.68 -250.327L2293.22 -250.37L2247.91 -171.98L2202.68 -250.327ZM2293.22 -251.588L2202.68 -251.544L2247.99 -329.935L2293.22 -251.588Z" fill="#D7D7D7"/>
<path fill-rule="evenodd" clip-rule="evenodd" d="M2108.97 -252.107L2155.96 -170.718L2108.9 -89.286L2061.91 -170.675L2108.97 -252.107ZM2063.66 -170.066L2154.21 -170.11L2108.9 -91.7187L2063.66 -170.066ZM2154.21 -171.327L2063.66 -171.284L2108.97 -249.674L2154.21 -171.327Z" fill="#D7D7D7"/>
<path fill-rule="evenodd" clip-rule="evenodd" d="M1969.96 -171.846L2016.95 -90.4569L1969.88 -9.02504L1922.89 -90.4141L1969.96 -171.846ZM1924.65 -89.805L2015.19 -89.8485L1969.88 -11.4578L1924.65 -89.805ZM2015.19 -91.0661L1924.65 -91.0226L1969.96 -169.413L2015.19 -91.0661Z" fill="#D7D7D7"/>
<path fill-rule="evenodd" clip-rule="evenodd" d="M1830.94 -91.585L1877.93 -10.196L1830.86 71.2358L1783.87 -10.1533L1830.94 -91.585ZM1785.63 -9.54405L1876.17 -9.58768L1830.86 68.8031L1785.63 -9.54405ZM1876.18 -10.8053L1785.63 -10.7617L1830.94 -89.1525L1876.18 -10.8053Z" fill="#D7D7D7"/>
<path fill-rule="evenodd" clip-rule="evenodd" d="M1691.93 -11.3241L1738.92 70.065L1691.85 151.497L1644.86 70.1076L1691.93 -11.3241ZM1646.61 70.7169L1737.16 70.6732L1691.85 149.064L1646.61 70.7169ZM1737.16 69.4557L1646.62 69.4993L1691.93 -8.89156L1737.16 69.4557Z" fill="#D7D7D7"/>
<path fill-rule="evenodd" clip-rule="evenodd" d="M1552.91 68.9367L1599.9 150.326L1552.83 231.758L1505.84 150.369L1552.91 68.9367ZM1507.6 150.978L1598.14 150.934L1552.83 229.325L1507.6 150.978ZM1598.14 149.717L1507.6 149.76L1552.91 71.3694L1598.14 149.717Z" fill="#D7D7D7"/>
<path fill-rule="evenodd" clip-rule="evenodd" d="M1413.89 149.198L1460.88 230.587L1413.82 312.019L1366.83 230.629L1413.89 149.198ZM1368.58 231.239L1459.13 231.195L1413.82 309.586L1368.58 231.239ZM1459.13 229.978L1368.58 230.021L1413.89 151.63L1459.13 229.978Z" fill="#D7D7D7"/>
<path fill-rule="evenodd" clip-rule="evenodd" d="M1274.88 229.459L1321.87 310.848L1274.8 392.279L1227.81 310.89L1274.88 229.459ZM1229.57 311.5L1320.11 311.456L1274.8 389.847L1229.57 311.5ZM1320.11 310.239L1229.57 310.282L1274.88 231.891L1320.11 310.239Z" fill="#D7D7D7"/>
<path fill-rule="evenodd" clip-rule="evenodd" d="M1135.86 309.72L1182.85 391.109L1135.78 472.54L1088.79 391.151L1135.86 309.72ZM1090.55 391.761L1181.09 391.717L1135.78 470.108L1090.55 391.761ZM1181.1 390.499L1090.55 390.543L1135.86 312.152L1181.1 390.499Z" fill="#D7D7D7"/>
<path fill-rule="evenodd" clip-rule="evenodd" d="M996.846 389.98L1043.84 471.37L996.769 552.801L949.779 471.412L996.846 389.98ZM951.535 472.021L1042.08 471.978L996.769 550.369L951.535 472.021ZM1042.08 470.76L951.537 470.804L996.846 392.413L1042.08 470.76Z" fill="#D7D7D7"/>
<path fill-rule="evenodd" clip-rule="evenodd" d="M857.83 470.241L904.82 551.63L857.753 633.062L810.763 551.673L857.83 470.241ZM812.519 552.282L903.062 552.239L857.753 630.63L812.519 552.282ZM903.064 551.021L812.521 551.065L857.83 472.674L903.064 551.021Z" fill="#D7D7D7"/>
<path fill-rule="evenodd" clip-rule="evenodd" d="M718.814 550.502L765.804 631.891L718.737 713.323L671.747 631.934L718.814 550.502ZM673.503 632.543L764.046 632.5L718.737 710.891L673.503 632.543ZM764.048 631.282L673.505 631.326L718.814 552.935L764.048 631.282Z" fill="#D7D7D7"/>
<path fill-rule="evenodd" clip-rule="evenodd" d="M579.798 630.763L626.788 712.152L579.721 793.584L532.731 712.195L579.798 630.763ZM534.487 712.804L625.03 712.761L579.721 791.151L534.487 712.804ZM625.032 711.543L534.489 711.587L579.798 633.196L625.032 711.543Z" fill="#D7D7D7"/>
<path fill-rule="evenodd" clip-rule="evenodd" d="M2294.28 -252.196L2341.27 -170.807L2294.2 -89.3753L2247.21 -170.764L2294.28 -252.196ZM2248.97 -170.155L2339.51 -170.199L2294.2 -91.8079L2248.97 -170.155ZM2339.51 -171.416L2248.97 -171.373L2294.28 -249.763L2339.51 -171.416Z" fill="#D7D7D7"/>
<path fill-rule="evenodd" clip-rule="evenodd" d="M2155.26 -171.935L2202.25 -90.5459L2155.18 -9.11429L2108.19 -90.5032L2155.26 -171.935ZM2109.95 -89.8941L2200.49 -89.9378L2155.18 -11.5469L2109.95 -89.8941ZM2200.49 -91.1553L2109.95 -91.1117L2155.26 -169.502L2200.49 -91.1553Z" fill="#D7D7D7"/>
<path fill-rule="evenodd" clip-rule="evenodd" d="M2016.24 -91.6741L2063.23 -10.2849L2016.17 71.1466L1969.18 -10.2423L2016.24 -91.6741ZM1970.93 -9.63314L2061.48 -9.6767L2016.17 68.714L1970.93 -9.63314ZM2061.48 -10.8943L1970.94 -10.8508L2016.25 -89.2415L2061.48 -10.8943Z" fill="#D7D7D7"/>
<path fill-rule="evenodd" clip-rule="evenodd" d="M1877.23 -11.4132L1924.22 69.976L1877.15 151.407L1830.16 70.0185L1877.23 -11.4132ZM1831.92 70.6278L1922.46 70.5841L1877.15 148.975L1831.92 70.6278ZM1922.46 69.3665L1831.92 69.4102L1877.23 -8.98065L1922.46 69.3665Z" fill="#D7D7D7"/>
<path fill-rule="evenodd" clip-rule="evenodd" d="M1738.21 68.8478L1785.2 150.237L1738.14 231.668L1691.15 150.279L1738.21 68.8478ZM1692.9 150.889L1783.45 150.845L1738.14 229.236L1692.9 150.889ZM1783.45 149.627L1692.9 149.671L1738.21 71.2803L1783.45 149.627Z" fill="#D7D7D7"/>
<path fill-rule="evenodd" clip-rule="evenodd" d="M1599.2 149.109L1646.19 230.498L1599.12 311.929L1552.13 230.54L1599.2 149.109ZM1553.89 231.15L1644.43 231.106L1599.12 309.497L1553.89 231.15ZM1644.43 229.888L1553.89 229.932L1599.2 151.541L1644.43 229.888Z" fill="#D7D7D7"/>
<path fill-rule="evenodd" clip-rule="evenodd" d="M1460.18 229.37L1507.17 310.759L1460.1 392.19L1413.11 310.801L1460.18 229.37ZM1414.87 311.411L1505.41 311.367L1460.1 389.758L1414.87 311.411ZM1505.41 310.149L1414.87 310.193L1460.18 231.802L1505.41 310.149Z" fill="#D7D7D7"/>
<path fill-rule="evenodd" clip-rule="evenodd" d="M1321.16 309.63L1368.16 391.02L1321.09 472.451L1274.1 391.062L1321.16 309.63ZM1275.85 391.671L1366.4 391.628L1321.09 470.019L1275.85 391.671ZM1366.4 390.41L1275.86 390.454L1321.17 312.063L1366.4 390.41Z" fill="#D7D7D7"/>
<path fill-rule="evenodd" clip-rule="evenodd" d="M1182.15 389.891L1229.14 471.281L1182.07 552.712L1135.08 471.323L1182.15 389.891ZM1136.84 471.932L1227.38 471.889L1182.07 550.28L1136.84 471.932ZM1227.38 470.671L1136.84 470.715L1182.15 392.324L1227.38 470.671Z" fill="#D7D7D7"/>
<path fill-rule="evenodd" clip-rule="evenodd" d="M1043.13 470.152L1090.12 551.541L1043.06 632.973L996.066 551.584L1043.13 470.152ZM997.822 552.193L1088.36 552.15L1043.06 630.54L997.822 552.193ZM1088.37 550.932L997.824 550.976L1043.13 472.585L1088.37 550.932Z" fill="#D7D7D7"/>
<path fill-rule="evenodd" clip-rule="evenodd" d="M904.117 550.413L951.107 631.802L904.04 713.234L857.05 631.845L904.117 550.413ZM858.806 632.454L949.349 632.411L904.04 710.801L858.806 632.454ZM949.351 631.193L858.808 631.237L904.117 552.846L949.351 631.193Z" fill="#D7D7D7"/>
<path fill-rule="evenodd" clip-rule="evenodd" d="M765.101 630.674L812.091 712.063L765.024 793.495L718.034 712.106L765.101 630.674ZM719.79 712.715L810.333 712.672L765.024 791.062L719.79 712.715ZM810.335 711.454L719.792 711.498L765.101 633.107L810.335 711.454Z" fill="#D7D7D7"/>
<path fill-rule="evenodd" clip-rule="evenodd" d="M626.085 710.935L673.075 792.324L626.008 873.756L579.018 792.367L626.085 710.935ZM580.774 792.976L671.317 792.932L626.008 871.323L580.774 792.976ZM671.319 791.715L580.776 791.758L626.085 713.368L671.319 791.715Z" fill="#D7D7D7"/>
<path fill-rule="evenodd" clip-rule="evenodd" d="M1970.19 -653.01L2017.18 -571.621L1970.11 -490.19L1923.12 -571.579L1970.19 -653.01ZM1924.88 -570.969L2015.42 -571.013L1970.11 -492.622L1924.88 -570.969ZM2015.42 -572.231L1924.88 -572.187L1970.19 -650.578L2015.42 -572.231Z" fill="#D7D7D7"/>
<path fill-rule="evenodd" clip-rule="evenodd" d="M1831.17 -572.75L1878.16 -491.36L1831.1 -409.929L1784.11 -491.318L1831.17 -572.75ZM1785.86 -490.709L1876.41 -490.752L1831.1 -412.361L1785.86 -490.709ZM1876.41 -491.97L1785.86 -491.926L1831.17 -570.317L1876.41 -491.97Z" fill="#D7D7D7"/>
<path fill-rule="evenodd" clip-rule="evenodd" d="M1692.16 -492.489L1739.15 -411.099L1692.08 -329.668L1645.09 -411.057L1692.16 -492.489ZM1646.85 -410.448L1737.39 -410.491L1692.08 -332.1L1646.85 -410.448ZM1737.39 -411.709L1646.85 -411.665L1692.16 -490.056L1737.39 -411.709Z" fill="#D7D7D7"/>
<path fill-rule="evenodd" clip-rule="evenodd" d="M1553.14 -412.228L1600.13 -330.839L1553.06 -249.407L1506.07 -330.796L1553.14 -412.228ZM1507.83 -330.187L1598.37 -330.23L1553.06 -251.84L1507.83 -330.187ZM1598.38 -331.448L1507.83 -331.404L1553.14 -409.795L1598.38 -331.448Z" fill="#D7D7D7"/>
<path fill-rule="evenodd" clip-rule="evenodd" d="M1414.13 -331.967L1461.12 -250.578L1414.05 -169.146L1367.06 -250.535L1414.13 -331.967ZM1368.81 -249.926L1459.36 -249.969L1414.05 -171.579L1368.81 -249.926ZM1459.36 -251.187L1368.82 -251.143L1414.13 -329.534L1459.36 -251.187Z" fill="#D7D7D7"/>
<path fill-rule="evenodd" clip-rule="evenodd" d="M1275.11 -251.706L1322.1 -170.317L1275.03 -88.885L1228.04 -170.274L1275.11 -251.706ZM1229.8 -169.665L1320.34 -169.708L1275.03 -91.3177L1229.8 -169.665ZM1320.34 -170.926L1229.8 -170.883L1275.11 -249.273L1320.34 -170.926Z" fill="#D7D7D7"/>
<path fill-rule="evenodd" clip-rule="evenodd" d="M1136.09 -171.445L1183.08 -90.0559L1136.02 -8.62412L1089.03 -90.0132L1136.09 -171.445ZM1090.78 -89.404L1181.33 -89.4475L1136.02 -11.0568L1090.78 -89.404ZM1181.33 -90.6651L1090.78 -90.6216L1136.09 -169.012L1181.33 -90.6651Z" fill="#D7D7D7"/>
<path fill-rule="evenodd" clip-rule="evenodd" d="M997.077 -91.1841L1044.07 -9.79493L997 71.6368L950.01 -9.75225L997.077 -91.1841ZM951.766 -9.14304L1042.31 -9.18661L997 69.2041L951.766 -9.14304ZM1042.31 -10.4042L951.768 -10.3607L997.078 -88.7514L1042.31 -10.4042Z" fill="#D7D7D7"/>
<path fill-rule="evenodd" clip-rule="evenodd" d="M858.061 -10.9231L905.051 70.466L857.984 151.898L810.994 70.5087L858.061 -10.9231ZM812.75 71.1179L903.293 71.0743L857.984 149.465L812.75 71.1179ZM903.295 69.8567L812.752 69.9002L858.062 -8.49046L903.295 69.8567Z" fill="#D7D7D7"/>
<path fill-rule="evenodd" clip-rule="evenodd" d="M719.045 69.3378L766.035 150.727L718.968 232.159L671.978 150.77L719.045 69.3378ZM673.734 151.379L764.277 151.335L718.968 229.726L673.734 151.379ZM764.279 150.118L673.736 150.161L719.046 71.7705L764.279 150.118Z" fill="#D7D7D7"/>
<path fill-rule="evenodd" clip-rule="evenodd" d="M580.029 149.599L627.019 230.988L579.952 312.42L532.962 231.031L580.029 149.599ZM534.718 231.64L625.261 231.596L579.952 309.987L534.718 231.64ZM625.263 230.379L534.72 230.422L580.03 152.031L625.263 230.379Z" fill="#D7D7D7"/>
<path fill-rule="evenodd" clip-rule="evenodd" d="M441.013 229.86L488.003 311.249L440.936 392.68L393.946 311.291L441.013 229.86ZM395.702 311.901L486.245 311.857L440.936 390.248L395.702 311.901ZM486.247 310.64L395.704 310.683L441.014 232.292L486.247 310.64Z" fill="#D7D7D7"/>
<path fill-rule="evenodd" clip-rule="evenodd" d="M301.997 310.121L348.987 391.51L301.92 472.941L254.93 391.552L301.997 310.121ZM256.686 392.162L347.229 392.118L301.92 470.509L256.686 392.162ZM347.231 390.9L256.688 390.944L301.998 312.553L347.231 390.9Z" fill="#D7D7D7"/>
<path fill-rule="evenodd" clip-rule="evenodd" d="M2016.48 -572.839L2063.47 -491.45L2016.4 -410.018L1969.41 -491.407L2016.48 -572.839ZM1971.17 -490.798L2061.71 -490.841L2016.4 -412.45L1971.17 -490.798ZM2061.71 -492.059L1971.17 -492.015L2016.48 -570.406L2061.71 -492.059Z" fill="#D7D7D7"/>
<path fill-rule="evenodd" clip-rule="evenodd" d="M1877.46 -492.578L1924.45 -411.189L1877.38 -329.757L1830.39 -411.146L1877.46 -492.578ZM1832.15 -410.537L1922.69 -410.58L1877.38 -332.19L1832.15 -410.537ZM1922.69 -411.798L1832.15 -411.754L1877.46 -490.145L1922.69 -411.798Z" fill="#D7D7D7"/>
<path fill-rule="evenodd" clip-rule="evenodd" d="M1738.44 -412.317L1785.43 -330.928L1738.37 -249.496L1691.38 -330.885L1738.44 -412.317ZM1693.13 -330.276L1783.68 -330.319L1738.37 -251.929L1693.13 -330.276ZM1783.68 -331.537L1693.14 -331.493L1738.44 -409.884L1783.68 -331.537Z" fill="#D7D7D7"/>
<path fill-rule="evenodd" clip-rule="evenodd" d="M1599.43 -332.056L1646.42 -250.667L1599.35 -169.235L1552.36 -250.624L1599.43 -332.056ZM1554.12 -250.015L1644.66 -250.059L1599.35 -171.668L1554.12 -250.015ZM1644.66 -251.276L1554.12 -251.233L1599.43 -329.623L1644.66 -251.276Z" fill="#D7D7D7"/>
<path fill-rule="evenodd" clip-rule="evenodd" d="M1460.41 -251.795L1507.4 -170.406L1460.34 -88.9742L1413.35 -170.363L1460.41 -251.795ZM1415.1 -169.754L1505.64 -169.798L1460.34 -91.4069L1415.1 -169.754ZM1505.65 -171.015L1415.1 -170.972L1460.41 -249.362L1505.65 -171.015Z" fill="#D7D7D7"/>
<path fill-rule="evenodd" clip-rule="evenodd" d="M1321.4 -171.534L1368.39 -90.1451L1321.32 -8.71321L1274.33 -90.1024L1321.4 -171.534ZM1276.09 -89.4931L1366.63 -89.5367L1321.32 -11.1459L1276.09 -89.4931ZM1366.63 -90.7543L1276.09 -90.7108L1321.4 -169.101L1366.63 -90.7543Z" fill="#D7D7D7"/>
<path fill-rule="evenodd" clip-rule="evenodd" d="M1182.38 -91.2732L1229.37 -9.88412L1182.3 71.5477L1135.31 -9.84144L1182.38 -91.2732ZM1137.07 -9.23219L1227.61 -9.27572L1182.3 69.115L1137.07 -9.23219ZM1227.61 -10.4934L1137.07 -10.4498L1182.38 -88.8405L1227.61 -10.4934Z" fill="#D7D7D7"/>
<path fill-rule="evenodd" clip-rule="evenodd" d="M1043.36 -11.0122L1090.35 70.3768L1043.29 151.809L996.298 70.4195L1043.36 -11.0122ZM998.054 71.0288L1088.6 70.9852L1043.29 149.376L998.054 71.0288ZM1088.6 69.7676L998.055 69.8111L1043.36 -8.57958L1088.6 69.7676Z" fill="#D7D7D7"/>
<path fill-rule="evenodd" clip-rule="evenodd" d="M904.348 69.2487L951.338 150.638L904.272 232.07L857.282 150.68L904.348 69.2487ZM859.038 151.29L949.581 151.246L904.271 229.637L859.038 151.29ZM949.583 150.029L859.04 150.072L904.349 71.6813L949.583 150.029Z" fill="#D7D7D7"/>
<path fill-rule="evenodd" clip-rule="evenodd" d="M765.332 149.51L812.322 230.899L765.256 312.33L718.266 230.941L765.332 149.51ZM720.022 231.551L810.564 231.507L765.255 309.898L720.022 231.551ZM810.567 230.289L720.024 230.333L765.333 151.942L810.567 230.289Z" fill="#D7D7D7"/>
<path fill-rule="evenodd" clip-rule="evenodd" d="M626.316 229.771L673.306 311.16L626.24 392.591L579.25 311.202L626.316 229.771ZM581.006 311.812L671.548 311.768L626.239 390.159L581.006 311.812ZM671.551 310.55L581.007 310.594L626.317 232.203L671.551 310.55Z" fill="#D7D7D7"/>
<path fill-rule="evenodd" clip-rule="evenodd" d="M487.3 310.031L534.29 391.421L487.224 472.852L440.234 391.463L487.3 310.031ZM441.99 392.072L532.532 392.029L487.223 470.42L441.99 392.072ZM532.535 390.811L441.992 390.855L487.301 312.464L532.535 390.811Z" fill="#D7D7D7"/>
<path fill-rule="evenodd" clip-rule="evenodd" d="M348.285 390.292L395.274 471.681L348.208 553.113L301.218 471.724L348.285 390.292ZM302.974 472.333L393.516 472.29L348.207 550.681L302.974 472.333ZM393.519 471.072L302.976 471.116L348.285 392.725L393.519 471.072Z" fill="#D7D7D7"/>
<path fill-rule="evenodd" clip-rule="evenodd" d="M2062.76 -492.667L2109.75 -411.278L2062.69 -329.846L2015.7 -411.235L2062.76 -492.667ZM2017.45 -410.626L2108 -410.67L2062.69 -332.279L2017.45 -410.626ZM2108 -411.887L2017.45 -411.844L2062.76 -490.234L2108 -411.887Z" fill="#D7D7D7"/>
<path fill-rule="evenodd" clip-rule="evenodd" d="M1923.75 -412.406L1970.74 -331.017L1923.67 -249.585L1876.68 -330.974L1923.75 -412.406ZM1878.44 -330.365L1968.98 -330.409L1923.67 -252.018L1878.44 -330.365ZM1968.98 -331.626L1878.44 -331.583L1923.75 -409.973L1968.98 -331.626Z" fill="#D7D7D7"/>
<path fill-rule="evenodd" clip-rule="evenodd" d="M1784.73 -332.145L1831.72 -250.756L1784.65 -169.324L1737.66 -250.713L1784.73 -332.145ZM1739.42 -250.104L1829.96 -250.148L1784.65 -171.757L1739.42 -250.104ZM1829.97 -251.365L1739.42 -251.322L1784.73 -329.712L1829.97 -251.365Z" fill="#D7D7D7"/>
<path fill-rule="evenodd" clip-rule="evenodd" d="M1645.72 -251.884L1692.71 -170.495L1645.64 -89.0633L1598.65 -170.452L1645.72 -251.884ZM1600.4 -169.843L1690.95 -169.887L1645.64 -91.4959L1600.4 -169.843ZM1690.95 -171.104L1600.41 -171.061L1645.72 -249.451L1690.95 -171.104Z" fill="#D7D7D7"/>
<path fill-rule="evenodd" clip-rule="evenodd" d="M1506.7 -171.623L1553.69 -90.234L1506.62 -8.80242L1459.63 -90.1915L1506.7 -171.623ZM1461.39 -89.5822L1551.93 -89.6259L1506.62 -11.2351L1461.39 -89.5822ZM1551.93 -90.8434L1461.39 -90.7998L1506.7 -169.191L1551.93 -90.8434Z" fill="#D7D7D7"/>
<path fill-rule="evenodd" clip-rule="evenodd" d="M1367.68 -91.3624L1414.67 -9.97327L1367.61 71.4586L1320.62 -9.93053L1367.68 -91.3624ZM1322.37 -9.32125L1412.92 -9.36493L1367.61 69.0259L1322.37 -9.32125ZM1412.92 -10.5824L1322.37 -10.5389L1367.68 -88.9296L1412.92 -10.5824Z" fill="#D7D7D7"/>
<path fill-rule="evenodd" clip-rule="evenodd" d="M1228.67 -11.1014L1275.66 70.2877L1228.59 151.719L1181.6 70.3304L1228.67 -11.1014ZM1183.36 70.9396L1273.9 70.8961L1228.59 149.287L1183.36 70.9396ZM1273.9 69.6785L1183.36 69.722L1228.67 -8.6687L1273.9 69.6785Z" fill="#D7D7D7"/>
<path fill-rule="evenodd" clip-rule="evenodd" d="M1089.65 69.1595L1136.64 150.549L1089.57 231.98L1042.58 150.591L1089.65 69.1595ZM1044.34 151.201L1134.88 151.157L1089.57 229.548L1044.34 151.201ZM1134.89 149.939L1044.34 149.983L1089.65 71.5923L1134.89 149.939Z" fill="#D7D7D7"/>
<path fill-rule="evenodd" clip-rule="evenodd" d="M950.636 149.42L997.626 230.81L950.559 312.241L903.569 230.852L950.636 149.42ZM905.325 231.462L995.868 231.418L950.559 309.809L905.325 231.462ZM995.87 230.2L905.327 230.244L950.636 151.853L995.87 230.2Z" fill="#D7D7D7"/>
<path fill-rule="evenodd" clip-rule="evenodd" d="M811.62 229.681L858.61 311.071L811.543 392.502L764.553 311.113L811.62 229.681ZM766.309 311.722L856.852 311.679L811.543 390.07L766.309 311.722ZM856.854 310.461L766.311 310.505L811.62 232.114L856.854 310.461Z" fill="#D7D7D7"/>
<path fill-rule="evenodd" clip-rule="evenodd" d="M672.604 309.942L719.594 391.331L672.527 472.763L625.537 391.374L672.604 309.942ZM627.293 391.983L717.836 391.94L672.527 470.331L627.293 391.983ZM717.838 390.722L627.295 390.766L672.604 312.375L717.838 390.722Z" fill="#D7D7D7"/>
<path fill-rule="evenodd" clip-rule="evenodd" d="M533.588 390.203L580.578 471.592L533.511 553.024L486.521 471.635L533.588 390.203ZM488.277 472.244L578.82 472.201L533.511 550.591L488.277 472.244ZM578.822 470.983L488.279 471.027L533.588 392.636L578.822 470.983Z" fill="#D7D7D7"/>
<path fill-rule="evenodd" clip-rule="evenodd" d="M394.572 470.464L441.562 551.853L394.495 633.285L347.505 551.896L394.572 470.464ZM349.261 552.505L439.804 552.462L394.495 630.852L349.261 552.505ZM439.806 551.244L349.263 551.288L394.572 472.897L439.806 551.244Z" fill="#D7D7D7"/>
<path fill-rule="evenodd" clip-rule="evenodd" d="M2109.05 -412.495L2156.04 -331.106L2108.97 -249.674L2061.98 -331.063L2109.05 -412.495ZM2063.74 -330.454L2154.28 -330.498L2108.97 -252.107L2063.74 -330.454ZM2154.28 -331.715L2063.74 -331.672L2109.05 -410.062L2154.28 -331.715Z" fill="#D7D7D7"/>
<path fill-rule="evenodd" clip-rule="evenodd" d="M1970.03 -332.234L2017.02 -250.845L1969.96 -169.413L1922.97 -250.802L1970.03 -332.234ZM1924.72 -250.193L2015.27 -250.237L1969.96 -171.846L1924.72 -250.193ZM2015.27 -251.454L1924.73 -251.411L1970.04 -329.801L2015.27 -251.454Z" fill="#D7D7D7"/>
<path fill-rule="evenodd" clip-rule="evenodd" d="M1831.02 -251.973L1878.01 -170.584L1830.94 -89.1525L1783.95 -170.542L1831.02 -251.973ZM1785.71 -169.932L1876.25 -169.976L1830.94 -91.585L1785.71 -169.932ZM1876.25 -171.193L1785.71 -171.15L1831.02 -249.54L1876.25 -171.193Z" fill="#D7D7D7"/>
<path fill-rule="evenodd" clip-rule="evenodd" d="M1692 -171.712L1738.99 -90.3232L1691.93 -8.89156L1644.94 -90.2806L1692 -171.712ZM1646.69 -89.6713L1737.23 -89.7149L1691.93 -11.3241L1646.69 -89.6713ZM1737.24 -90.9325L1646.69 -90.8889L1692 -169.28L1737.24 -90.9325Z" fill="#D7D7D7"/>
<path fill-rule="evenodd" clip-rule="evenodd" d="M1552.99 -91.4513L1599.98 -10.0622L1552.91 71.3694L1505.92 -10.0197L1552.99 -91.4513ZM1507.68 -9.41045L1598.22 -9.45402L1552.91 68.9367L1507.68 -9.41045ZM1598.22 -10.6716L1507.68 -10.628L1552.99 -89.0188L1598.22 -10.6716Z" fill="#D7D7D7"/>
<path fill-rule="evenodd" clip-rule="evenodd" d="M1413.97 -11.1905L1460.96 70.1986L1413.89 151.63L1366.9 70.2413L1413.97 -11.1905ZM1368.66 70.8505L1459.2 70.8069L1413.89 149.198L1368.66 70.8505ZM1459.2 69.5893L1368.66 69.6329L1413.97 -8.75784L1459.2 69.5893Z" fill="#D7D7D7"/>
<path fill-rule="evenodd" clip-rule="evenodd" d="M1274.95 69.0704L1321.94 150.46L1274.88 231.891L1227.89 150.502L1274.95 69.0704ZM1229.64 151.111L1320.19 151.068L1274.88 229.459L1229.64 151.111ZM1320.19 149.85L1229.65 149.894L1274.96 71.5031L1320.19 149.85Z" fill="#D7D7D7"/>
<path fill-rule="evenodd" clip-rule="evenodd" d="M1135.94 149.331L1182.93 230.72L1135.86 312.152L1088.87 230.763L1135.94 149.331ZM1090.63 231.372L1181.17 231.329L1135.86 309.72L1090.63 231.372ZM1181.17 230.111L1090.63 230.155L1135.94 151.764L1181.17 230.111Z" fill="#D7D7D7"/>
<path fill-rule="evenodd" clip-rule="evenodd" d="M996.923 229.592L1043.91 310.981L996.846 392.413L949.856 311.024L996.923 229.592ZM951.612 311.633L1042.15 311.59L996.846 389.98L951.612 311.633ZM1042.16 310.372L951.614 310.416L996.923 232.025L1042.16 310.372Z" fill="#D7D7D7"/>
<path fill-rule="evenodd" clip-rule="evenodd" d="M857.907 309.853L904.897 391.242L857.83 472.674L810.84 391.285L857.907 309.853ZM812.596 391.894L903.139 391.851L857.83 470.241L812.596 391.894ZM903.141 390.633L812.598 390.677L857.907 312.286L903.141 390.633Z" fill="#D7D7D7"/>
<path fill-rule="evenodd" clip-rule="evenodd" d="M718.891 390.114L765.881 471.503L718.814 552.935L671.824 471.546L718.891 390.114ZM673.58 472.155L764.123 472.112L718.814 550.502L673.58 472.155ZM764.125 470.894L673.582 470.938L718.891 392.547L764.125 470.894Z" fill="#D7D7D7"/>
<path fill-rule="evenodd" clip-rule="evenodd" d="M579.875 470.375L626.865 551.764L579.798 633.196L532.808 551.807L579.875 470.375ZM534.564 552.416L625.107 552.372L579.798 630.763L534.564 552.416ZM625.109 551.155L534.566 551.198L579.875 472.808L625.109 551.155Z" fill="#D7D7D7"/>
<path fill-rule="evenodd" clip-rule="evenodd" d="M440.859 550.636L487.849 632.025L440.782 713.457L393.792 632.068L440.859 550.636ZM395.548 632.677L486.091 632.633L440.782 711.024L395.548 632.677ZM486.093 631.416L395.55 631.459L440.859 553.069L486.093 631.416Z" fill="#D7D7D7"/>
<path fill-rule="evenodd" clip-rule="evenodd" d="M2155.34 -332.323L2202.33 -250.934L2155.26 -169.502L2108.27 -250.891L2155.34 -332.323ZM2110.03 -250.282L2200.57 -250.326L2155.26 -171.935L2110.03 -250.282ZM2200.57 -251.543L2110.03 -251.5L2155.34 -329.891L2200.57 -251.543Z" fill="#D7D7D7"/>
<path fill-rule="evenodd" clip-rule="evenodd" d="M2016.32 -252.062L2063.31 -170.673L2016.25 -89.2415L1969.26 -170.631L2016.32 -252.062ZM1971.01 -170.021L2061.55 -170.065L2016.24 -91.6741L1971.01 -170.021ZM2061.56 -171.282L1971.01 -171.239L2016.32 -249.63L2061.56 -171.282Z" fill="#D7D7D7"/>
<path fill-rule="evenodd" clip-rule="evenodd" d="M1877.31 -171.801L1924.3 -90.4123L1877.23 -8.98065L1830.24 -90.3697L1877.31 -171.801ZM1832 -89.7604L1922.54 -89.8039L1877.23 -11.4132L1832 -89.7604ZM1922.54 -91.0215L1832 -90.978L1877.31 -169.369L1922.54 -91.0215Z" fill="#D7D7D7"/>
<path fill-rule="evenodd" clip-rule="evenodd" d="M1738.29 -91.5405L1785.28 -10.1514L1738.21 71.2803L1691.22 -10.1088L1738.29 -91.5405ZM1692.98 -9.49947L1783.52 -9.54311L1738.21 68.8478L1692.98 -9.49947ZM1783.52 -10.7607L1692.98 -10.7171L1738.29 -89.1079L1783.52 -10.7607Z" fill="#D7D7D7"/>
<path fill-rule="evenodd" clip-rule="evenodd" d="M1599.27 -11.2795L1646.26 70.1096L1599.2 151.541L1552.21 70.1522L1599.27 -11.2795ZM1553.96 70.7613L1644.51 70.7178L1599.2 149.109L1553.96 70.7613ZM1644.51 69.5002L1553.97 69.5438L1599.27 -8.84699L1644.51 69.5002Z" fill="#D7D7D7"/>
<path fill-rule="evenodd" clip-rule="evenodd" d="M1460.26 68.9812L1507.25 150.37L1460.18 231.802L1413.19 150.413L1460.26 68.9812ZM1414.95 151.022L1505.49 150.979L1460.18 229.37L1414.95 151.022ZM1505.49 149.761L1414.95 149.805L1460.26 71.4139L1505.49 149.761Z" fill="#D7D7D7"/>
<path fill-rule="evenodd" clip-rule="evenodd" d="M1321.24 149.242L1368.23 230.631L1321.17 312.063L1274.18 230.674L1321.24 149.242ZM1275.93 231.283L1366.47 231.24L1321.16 309.63L1275.93 231.283ZM1366.48 230.022L1275.93 230.066L1321.24 151.675L1366.48 230.022Z" fill="#D7D7D7"/>
<path fill-rule="evenodd" clip-rule="evenodd" d="M1182.23 229.503L1229.22 310.892L1182.15 392.324L1135.16 310.935L1182.23 229.503ZM1136.92 311.544L1227.46 311.501L1182.15 389.891L1136.92 311.544ZM1227.46 310.283L1136.92 310.327L1182.23 231.936L1227.46 310.283Z" fill="#D7D7D7"/>
<path fill-rule="evenodd" clip-rule="evenodd" d="M1043.21 309.764L1090.2 391.153L1043.13 472.585L996.143 391.196L1043.21 309.764ZM997.899 391.805L1088.44 391.761L1043.13 470.152L997.899 391.805ZM1088.44 390.544L997.901 390.587L1043.21 312.197L1088.44 390.544Z" fill="#D7D7D7"/>
<path fill-rule="evenodd" clip-rule="evenodd" d="M904.194 390.025L951.184 471.414L904.117 552.846L857.127 471.457L904.194 390.025ZM858.883 472.066L949.426 472.022L904.117 550.413L858.883 472.066ZM949.428 470.805L858.885 470.848L904.194 392.458L949.428 470.805Z" fill="#D7D7D7"/>
<path fill-rule="evenodd" clip-rule="evenodd" d="M765.178 470.286L812.168 551.675L765.101 633.107L718.111 551.718L765.178 470.286ZM719.867 552.327L810.41 552.283L765.101 630.674L719.867 552.327ZM810.412 551.066L719.869 551.109L765.178 472.719L810.412 551.066Z" fill="#D7D7D7"/>
<path fill-rule="evenodd" clip-rule="evenodd" d="M626.162 550.547L673.152 631.936L626.085 713.368L579.095 631.979L626.162 550.547ZM580.851 632.588L671.394 632.544L626.085 710.935L580.851 632.588ZM671.396 631.327L580.853 631.37L626.162 552.98L671.396 631.327Z" fill="#D7D7D7"/>
<path fill-rule="evenodd" clip-rule="evenodd" d="M487.146 630.808L534.136 712.197L487.069 793.629L440.079 712.24L487.146 630.808ZM441.835 712.849L532.378 712.805L487.069 791.196L441.835 712.849ZM532.38 711.588L441.837 711.631L487.146 633.24L532.38 711.588Z" fill="#D7D7D7"/>
<path fill-rule="evenodd" clip-rule="evenodd" d="M2201.63 -252.151L2248.62 -170.762L2201.55 -89.3305L2154.56 -170.72L2201.63 -252.151ZM2156.31 -170.11L2246.86 -170.154L2201.55 -91.7633L2156.31 -170.11ZM2246.86 -171.372L2156.32 -171.328L2201.63 -249.719L2246.86 -171.372Z" fill="#D7D7D7"/>
<path fill-rule="evenodd" clip-rule="evenodd" d="M2062.61 -171.891L2109.6 -90.5014L2062.53 -9.06957L2015.54 -90.4587L2062.61 -171.891ZM2017.3 -89.8495L2107.84 -89.893L2062.53 -11.5024L2017.3 -89.8495ZM2107.84 -91.1106L2017.3 -91.0671L2062.61 -169.458L2107.84 -91.1106Z" fill="#D7D7D7"/>
<path fill-rule="evenodd" clip-rule="evenodd" d="M1923.59 -91.6296L1970.58 -10.2405L1923.52 71.1912L1876.53 -10.1979L1923.59 -91.6296ZM1878.28 -9.58856L1968.83 -9.63207L1923.52 68.7586L1878.28 -9.58856ZM1968.83 -10.8497L1878.28 -10.8062L1923.59 -89.1969L1968.83 -10.8497Z" fill="#D7D7D7"/>
<path fill-rule="evenodd" clip-rule="evenodd" d="M1784.58 -11.3687L1831.57 70.0205L1784.5 151.452L1737.51 70.063L1784.58 -11.3687ZM1739.27 70.6724L1829.81 70.6287L1784.5 149.019L1739.27 70.6724ZM1829.81 69.4111L1739.27 69.4547L1784.58 -8.93608L1829.81 69.4111Z" fill="#D7D7D7"/>
<path fill-rule="evenodd" clip-rule="evenodd" d="M1645.56 68.8923L1692.55 150.281L1645.48 231.713L1598.49 150.324L1645.56 68.8923ZM1600.25 150.933L1690.79 150.89L1645.48 229.28L1600.25 150.933ZM1690.8 149.672L1600.25 149.716L1645.56 71.3248L1690.8 149.672Z" fill="#D7D7D7"/>
<path fill-rule="evenodd" clip-rule="evenodd" d="M1506.55 149.153L1553.54 230.542L1506.47 311.974L1459.48 230.585L1506.55 149.153ZM1461.23 231.194L1551.78 231.151L1506.47 309.541L1461.23 231.194ZM1551.78 229.933L1461.24 229.977L1506.55 151.586L1551.78 229.933Z" fill="#D7D7D7"/>
<path fill-rule="evenodd" clip-rule="evenodd" d="M1367.53 229.414L1414.52 310.803L1367.45 392.235L1320.46 310.846L1367.53 229.414ZM1322.22 311.455L1412.76 311.412L1367.45 389.802L1322.22 311.455ZM1412.76 310.194L1322.22 310.237L1367.53 231.847L1412.76 310.194Z" fill="#D7D7D7"/>
<path fill-rule="evenodd" clip-rule="evenodd" d="M1228.51 309.675L1275.5 391.064L1228.44 472.496L1181.45 391.107L1228.51 309.675ZM1183.2 391.716L1273.75 391.672L1228.44 470.063L1183.2 391.716ZM1273.75 390.455L1183.2 390.498L1228.51 312.108L1273.75 390.455Z" fill="#D7D7D7"/>
<path fill-rule="evenodd" clip-rule="evenodd" d="M1089.5 389.936L1136.49 471.325L1089.42 552.757L1042.43 471.368L1089.5 389.936ZM1044.19 471.977L1134.73 471.933L1089.42 550.324L1044.19 471.977ZM1134.73 470.716L1044.19 470.759L1089.5 392.369L1134.73 470.716Z" fill="#D7D7D7"/>
<path fill-rule="evenodd" clip-rule="evenodd" d="M950.481 470.197L997.471 551.586L950.405 633.018L903.414 551.629L950.481 470.197ZM905.17 552.238L995.713 552.194L950.404 630.585L905.17 552.238ZM995.715 550.977L905.172 551.02L950.482 472.63L995.715 550.977Z" fill="#D7D7D7"/>
<path fill-rule="evenodd" clip-rule="evenodd" d="M811.465 550.458L858.455 631.847L811.389 713.279L764.398 631.89L811.465 550.458ZM766.154 632.499L856.697 632.455L811.388 710.846L766.154 632.499ZM856.699 631.238L766.156 631.281L811.466 552.89L856.699 631.238Z" fill="#D7D7D7"/>
<path fill-rule="evenodd" clip-rule="evenodd" d="M672.449 630.719L719.439 712.108L672.373 793.54L625.382 712.15L672.449 630.719ZM627.138 712.76L717.681 712.716L672.372 791.107L627.138 712.76ZM717.683 711.499L627.14 711.542L672.45 633.151L717.683 711.499Z" fill="#D7D7D7"/>
<path fill-rule="evenodd" clip-rule="evenodd" d="M533.433 710.98L580.423 792.369L533.357 873.801L486.366 792.411L533.433 710.98ZM488.122 793.021L578.665 792.977L533.356 871.368L488.122 793.021ZM578.667 791.759L488.124 791.803L533.434 713.412L578.667 791.759Z" fill="#D7D7D7"/>
<path fill-rule="evenodd" clip-rule="evenodd" d="M2293.15 -91.1998L2202.6 -91.1563L2247.91 -169.547L2293.15 -91.1998Z" fill="#D7D7D7"/>
<path fill-rule="evenodd" clip-rule="evenodd" d="M2154.13 -10.9388L2063.59 -10.8953L2108.9 -89.286L2154.13 -10.9388Z" fill="#D7D7D7"/>
<path fill-rule="evenodd" clip-rule="evenodd" d="M2015.11 69.3221L1924.57 69.3656L1969.88 -9.02504L2015.11 69.3221Z" fill="#D7D7D7"/>
<path fill-rule="evenodd" clip-rule="evenodd" d="M1876.1 149.583L1785.56 149.627L1830.86 71.2358L1876.1 149.583Z" fill="#D7D7D7"/>
<path fill-rule="evenodd" clip-rule="evenodd" d="M1737.08 229.844L1646.54 229.887L1691.85 151.497L1737.08 229.844Z" fill="#D7D7D7"/>
<path fill-rule="evenodd" clip-rule="evenodd" d="M1598.07 310.105L1507.52 310.148L1552.83 231.758L1598.07 310.105Z" fill="#D7D7D7"/>
<path fill-rule="evenodd" clip-rule="evenodd" d="M1459.05 390.366L1368.51 390.409L1413.82 312.019L1459.05 390.366Z" fill="#D7D7D7"/>
<path fill-rule="evenodd" clip-rule="evenodd" d="M1320.03 470.627L1229.49 470.67L1274.8 392.279L1320.03 470.627Z" fill="#D7D7D7"/>
<path fill-rule="evenodd" clip-rule="evenodd" d="M1181.02 550.888L1090.48 550.931L1135.78 472.54L1181.02 550.888Z" fill="#D7D7D7"/>
<path fill-rule="evenodd" clip-rule="evenodd" d="M1042 631.148L951.46 631.192L996.769 552.801L1042 631.148Z" fill="#D7D7D7"/>
<path fill-rule="evenodd" clip-rule="evenodd" d="M902.987 711.409L812.444 711.453L857.753 633.062L902.987 711.409Z" fill="#D7D7D7"/>
<path fill-rule="evenodd" clip-rule="evenodd" d="M763.971 791.67L673.428 791.714L718.737 713.323L763.971 791.67Z" fill="#D7D7D7"/>
<path fill-rule="evenodd" clip-rule="evenodd" d="M624.955 871.931L534.412 871.975L579.721 793.584L624.955 871.931Z" fill="#D7D7D7"/>
</g>
</g>
<defs>
<clipPath id="clip0_301_413">
<rect width="893" height="632" fill="white"/>
</clipPath>
</defs>
</svg>
