<svg width="3374" height="1799" viewBox="0 0 3374 1799" fill="none" xmlns="http://www.w3.org/2000/svg">
<g opacity="0.08">
<path fill-rule="evenodd" clip-rule="evenodd" d="M3244.31 3.40544L3371.05 76.5192L3244.31 149.633V3.40544Z" fill="#D7D7D7"/>
<path fill-rule="evenodd" clip-rule="evenodd" d="M2984.92 3.40544L3111.66 76.5192L2984.92 149.633V3.40544Z" fill="#D7D7D7"/>
<path fill-rule="evenodd" clip-rule="evenodd" d="M2725.53 3.40544L2852.27 76.5192L2725.53 149.633V3.40544Z" fill="#D7D7D7"/>
<path fill-rule="evenodd" clip-rule="evenodd" d="M2466.14 3.40544L2592.89 76.5192L2466.14 149.633V3.40544Z" fill="#D7D7D7"/>
<path fill-rule="evenodd" clip-rule="evenodd" d="M2206.76 3.40544L2333.5 76.5192L2206.76 149.633V3.40544Z" fill="#D7D7D7"/>
<path fill-rule="evenodd" clip-rule="evenodd" d="M1947.37 3.40544L2074.11 76.5192L1947.37 149.633V3.40544Z" fill="#D7D7D7"/>
<path fill-rule="evenodd" clip-rule="evenodd" d="M1687.98 3.40544L1814.72 76.5192L1687.98 149.633V3.40544Z" fill="#D7D7D7"/>
<path fill-rule="evenodd" clip-rule="evenodd" d="M1428.6 3.40544L1555.34 76.5192L1428.6 149.633V3.40544Z" fill="#D7D7D7"/>
<path fill-rule="evenodd" clip-rule="evenodd" d="M1169.21 3.40544L1295.95 76.5192L1169.21 149.633V3.40544Z" fill="#D7D7D7"/>
<path fill-rule="evenodd" clip-rule="evenodd" d="M909.821 3.40544L1036.56 76.5192L909.821 149.633V3.40544Z" fill="#D7D7D7"/>
<path fill-rule="evenodd" clip-rule="evenodd" d="M650.433 3.40544L777.175 76.5192L650.433 149.633V3.40544Z" fill="#D7D7D7"/>
<path fill-rule="evenodd" clip-rule="evenodd" d="M391.046 3.40544L517.788 76.5192L391.046 149.633V3.40544Z" fill="#D7D7D7"/>
<path fill-rule="evenodd" clip-rule="evenodd" d="M131.659 3.40544L258.401 76.5192L131.659 149.633V3.40544Z" fill="#D7D7D7"/>
<path fill-rule="evenodd" clip-rule="evenodd" d="M3244.31 0V151.905L3112.65 227.855V75.95L3244.31 0ZM3114.61 78.2219L3241.35 151.336L3114.61 224.449V78.2219ZM3242.34 149.633L3115.6 76.5192L3242.34 3.40544V149.633Z" fill="#D7D7D7"/>
<path fill-rule="evenodd" clip-rule="evenodd" d="M2984.92 0V151.905L2853.26 227.855V75.95L2984.92 0ZM2855.23 78.2219L2981.97 151.336L2855.23 224.449V78.2219ZM2982.95 149.633L2856.21 76.5192L2982.95 3.40544V149.633Z" fill="#D7D7D7"/>
<path fill-rule="evenodd" clip-rule="evenodd" d="M2725.53 0V151.905L2593.87 227.855V75.95L2725.53 0ZM2595.84 78.2219L2722.58 151.336L2595.84 224.449V78.2219ZM2723.57 149.633L2596.82 76.5192L2723.57 3.40544V149.633Z" fill="#D7D7D7"/>
<path fill-rule="evenodd" clip-rule="evenodd" d="M2466.14 0V151.905L2334.49 227.855V75.95L2466.14 0ZM2336.45 78.2219L2463.19 151.336L2336.45 224.449V78.2219ZM2464.18 149.633L2337.44 76.5192L2464.18 3.40544V149.633Z" fill="#D7D7D7"/>
<path fill-rule="evenodd" clip-rule="evenodd" d="M2206.76 0V151.905L2075.1 227.855V75.95L2206.76 0ZM2077.06 78.2219L2203.81 151.336L2077.06 224.449V78.2219ZM2204.79 149.633L2078.05 76.5192L2204.79 3.40544V149.633Z" fill="#D7D7D7"/>
<path fill-rule="evenodd" clip-rule="evenodd" d="M1947.37 0V151.905L1815.71 227.855V75.95L1947.37 0ZM1817.68 78.2219L1944.42 151.336L1817.68 224.449V78.2219ZM1945.41 149.633L1818.66 76.5192L1945.41 3.40544V149.633Z" fill="#D7D7D7"/>
<path fill-rule="evenodd" clip-rule="evenodd" d="M1687.98 0V151.905L1556.32 227.855V75.95L1687.98 0ZM1558.29 78.2219L1685.03 151.336L1558.29 224.449V78.2219ZM1686.02 149.633L1559.28 76.5192L1686.02 3.40544V149.633Z" fill="#D7D7D7"/>
<path fill-rule="evenodd" clip-rule="evenodd" d="M1428.6 0V151.905L1296.94 227.855V75.95L1428.6 0ZM1298.9 78.2219L1425.64 151.336L1298.9 224.449V78.2219ZM1426.63 149.633L1299.89 76.5192L1426.63 3.40544V149.633Z" fill="#D7D7D7"/>
<path fill-rule="evenodd" clip-rule="evenodd" d="M1169.21 0V151.905L1037.55 227.855V75.95L1169.21 0ZM1039.51 78.2219L1166.26 151.336L1039.51 224.449V78.2219ZM1167.24 149.633L1040.5 76.5192L1167.24 3.40544V149.633Z" fill="#D7D7D7"/>
<path fill-rule="evenodd" clip-rule="evenodd" d="M909.821 0V151.905L778.162 227.855V75.95L909.821 0ZM780.127 78.2219L906.869 151.336L780.127 224.449V78.2219ZM907.856 149.633L781.114 76.5192L907.856 3.40544V149.633Z" fill="#D7D7D7"/>
<path fill-rule="evenodd" clip-rule="evenodd" d="M650.433 0V151.905L518.775 227.855V75.95L650.433 0ZM520.74 78.2219L647.482 151.336L520.74 224.449V78.2219ZM648.468 149.633L521.726 76.5192L648.468 3.40544V149.633Z" fill="#D7D7D7"/>
<path fill-rule="evenodd" clip-rule="evenodd" d="M391.046 0V151.905L259.387 227.855V75.95L391.046 0ZM261.352 78.2219L388.094 151.336L261.352 224.449V78.2219ZM389.081 149.633L262.339 76.5192L389.081 3.40544V149.633Z" fill="#D7D7D7"/>
<path fill-rule="evenodd" clip-rule="evenodd" d="M131.659 0V151.905L0 227.855V75.95L131.659 0ZM1.9651 78.2219L128.707 151.336L1.9651 224.449V78.2219ZM129.694 149.633L2.95169 76.5192L129.694 3.40544V149.633Z" fill="#D7D7D7"/>
<path fill-rule="evenodd" clip-rule="evenodd" d="M3374 74.8164V226.721L3242.34 302.671V150.766L3374 74.8164ZM3244.31 153.038L3371.05 226.152L3244.31 299.266V153.038ZM3372.03 224.449L3245.29 151.336L3372.03 78.2219V224.449Z" fill="#D7D7D7"/>
<path fill-rule="evenodd" clip-rule="evenodd" d="M3114.61 74.8164V226.721L2982.95 302.671V150.766L3114.61 74.8164ZM2984.92 153.038L3111.66 226.152L2984.92 299.266V153.038ZM3112.65 224.449L2985.91 151.336L3112.65 78.2219V224.449Z" fill="#D7D7D7"/>
<path fill-rule="evenodd" clip-rule="evenodd" d="M2855.23 74.8164V226.721L2723.57 302.671V150.766L2855.23 74.8164ZM2725.53 153.038L2852.27 226.152L2725.53 299.266V153.038ZM2853.26 224.449L2726.52 151.336L2853.26 78.2219V224.449Z" fill="#D7D7D7"/>
<path fill-rule="evenodd" clip-rule="evenodd" d="M2595.84 74.8164V226.721L2464.18 302.671V150.766L2595.84 74.8164ZM2466.14 153.038L2592.89 226.152L2466.14 299.266V153.038ZM2593.87 224.449L2467.13 151.336L2593.87 78.2219V224.449Z" fill="#D7D7D7"/>
<path fill-rule="evenodd" clip-rule="evenodd" d="M2336.45 74.8164V226.721L2204.79 302.671V150.766L2336.45 74.8164ZM2206.76 153.038L2333.5 226.152L2206.76 299.266V153.038ZM2334.49 224.449L2207.74 151.336L2334.49 78.2219V224.449Z" fill="#D7D7D7"/>
<path fill-rule="evenodd" clip-rule="evenodd" d="M2077.06 74.8164V226.721L1945.41 302.671V150.766L2077.06 74.8164ZM1947.37 153.038L2074.11 226.152L1947.37 299.266V153.038ZM2075.1 224.449L1948.36 151.336L2075.1 78.2219V224.449Z" fill="#D7D7D7"/>
<path fill-rule="evenodd" clip-rule="evenodd" d="M1817.68 74.8164V226.721L1686.02 302.671V150.766L1817.68 74.8164ZM1687.98 153.038L1814.72 226.152L1687.98 299.266V153.038ZM1815.71 224.449L1688.97 151.336L1815.71 78.2219V224.449Z" fill="#D7D7D7"/>
<path fill-rule="evenodd" clip-rule="evenodd" d="M1558.29 74.8164V226.721L1426.63 302.671V150.766L1558.29 74.8164ZM1428.6 153.038L1555.34 226.152L1428.6 299.266V153.038ZM1556.32 224.449L1429.58 151.336L1556.32 78.2219V224.449Z" fill="#D7D7D7"/>
<path fill-rule="evenodd" clip-rule="evenodd" d="M1298.9 74.8164V226.721L1167.24 302.671V150.766L1298.9 74.8164ZM1169.21 153.038L1295.95 226.152L1169.21 299.266V153.038ZM1296.94 224.449L1170.19 151.336L1296.94 78.2219V224.449Z" fill="#D7D7D7"/>
<path fill-rule="evenodd" clip-rule="evenodd" d="M1039.51 74.8164V226.721L907.856 302.671V150.766L1039.51 74.8164ZM909.821 153.038L1036.56 226.152L909.821 299.266V153.038ZM1037.55 224.449L910.807 151.336L1037.55 78.2219V224.449Z" fill="#D7D7D7"/>
<path fill-rule="evenodd" clip-rule="evenodd" d="M780.127 74.8164V226.721L648.468 302.671V150.766L780.127 74.8164ZM650.433 153.038L777.175 226.152L650.433 299.266V153.038ZM778.162 224.449L651.42 151.336L778.162 78.2219V224.449Z" fill="#D7D7D7"/>
<path fill-rule="evenodd" clip-rule="evenodd" d="M520.74 74.8164V226.721L389.081 302.671V150.766L520.74 74.8164ZM391.046 153.038L517.788 226.152L391.046 299.266V153.038ZM518.775 224.449L392.033 151.336L518.775 78.2219V224.449Z" fill="#D7D7D7"/>
<path fill-rule="evenodd" clip-rule="evenodd" d="M261.352 74.8164V226.721L129.694 302.671V150.766L261.352 74.8164ZM131.659 153.038L258.401 226.152L131.659 299.266V153.038ZM259.387 224.449L132.645 151.336L259.387 78.2219V224.449Z" fill="#D7D7D7"/>
<path fill-rule="evenodd" clip-rule="evenodd" d="M3244.31 149.633V301.538L3112.65 377.488V225.583L3244.31 149.633ZM3114.61 227.855L3241.35 300.969L3114.61 374.082V227.855ZM3242.34 299.266L3115.6 226.152L3242.34 153.038V299.266Z" fill="#D7D7D7"/>
<path fill-rule="evenodd" clip-rule="evenodd" d="M2984.92 149.633V301.538L2853.26 377.488V225.583L2984.92 149.633ZM2855.23 227.855L2981.97 300.969L2855.23 374.082V227.855ZM2982.95 299.266L2856.21 226.152L2982.95 153.038V299.266Z" fill="#D7D7D7"/>
<path fill-rule="evenodd" clip-rule="evenodd" d="M2725.53 149.633V301.538L2593.87 377.488V225.583L2725.53 149.633ZM2595.84 227.855L2722.58 300.969L2595.84 374.082V227.855ZM2723.57 299.266L2596.82 226.152L2723.57 153.038V299.266Z" fill="#D7D7D7"/>
<path fill-rule="evenodd" clip-rule="evenodd" d="M2466.14 149.633V301.538L2334.49 377.488V225.583L2466.14 149.633ZM2336.45 227.855L2463.19 300.969L2336.45 374.082V227.855ZM2464.18 299.266L2337.44 226.152L2464.18 153.038V299.266Z" fill="#D7D7D7"/>
<path fill-rule="evenodd" clip-rule="evenodd" d="M2206.76 149.633V301.538L2075.1 377.488V225.583L2206.76 149.633ZM2077.06 227.855L2203.81 300.969L2077.06 374.082V227.855ZM2204.79 299.266L2078.05 226.152L2204.79 153.038V299.266Z" fill="#D7D7D7"/>
<path fill-rule="evenodd" clip-rule="evenodd" d="M1947.37 149.633V301.538L1815.71 377.488V225.583L1947.37 149.633ZM1817.68 227.855L1944.42 300.969L1817.68 374.082V227.855ZM1945.41 299.266L1818.66 226.152L1945.41 153.038V299.266Z" fill="#D7D7D7"/>
<path fill-rule="evenodd" clip-rule="evenodd" d="M1687.98 149.633V301.538L1556.32 377.488V225.583L1687.98 149.633ZM1558.29 227.855L1685.03 300.969L1558.29 374.082V227.855ZM1686.02 299.266L1559.28 226.152L1686.02 153.038V299.266Z" fill="#D7D7D7"/>
<path fill-rule="evenodd" clip-rule="evenodd" d="M1428.6 149.633V301.538L1296.94 377.488V225.583L1428.6 149.633ZM1298.9 227.855L1425.64 300.969L1298.9 374.082V227.855ZM1426.63 299.266L1299.89 226.152L1426.63 153.038V299.266Z" fill="#D7D7D7"/>
<path fill-rule="evenodd" clip-rule="evenodd" d="M1169.21 149.633V301.538L1037.55 377.488V225.583L1169.21 149.633ZM1039.51 227.855L1166.26 300.969L1039.51 374.082V227.855ZM1167.24 299.266L1040.5 226.152L1167.24 153.038V299.266Z" fill="#D7D7D7"/>
<path fill-rule="evenodd" clip-rule="evenodd" d="M909.821 149.633V301.538L778.162 377.488V225.583L909.821 149.633ZM780.127 227.855L906.869 300.969L780.127 374.082V227.855ZM907.856 299.266L781.114 226.152L907.856 153.038V299.266Z" fill="#D7D7D7"/>
<path fill-rule="evenodd" clip-rule="evenodd" d="M650.433 149.633V301.538L518.775 377.488V225.583L650.433 149.633ZM520.74 227.855L647.482 300.969L520.74 374.082V227.855ZM648.468 299.266L521.726 226.152L648.468 153.038V299.266Z" fill="#D7D7D7"/>
<path fill-rule="evenodd" clip-rule="evenodd" d="M391.046 149.633V301.538L259.387 377.488V225.583L391.046 149.633ZM261.352 227.855L388.094 300.969L261.352 374.082V227.855ZM389.081 299.266L262.339 226.152L389.081 153.038V299.266Z" fill="#D7D7D7"/>
<path fill-rule="evenodd" clip-rule="evenodd" d="M131.659 149.633V301.538L0 377.488V225.583L131.659 149.633ZM1.9651 227.855L128.707 300.969L1.9651 374.082V227.855ZM129.694 299.266L2.95169 226.152L129.694 153.038V299.266Z" fill="#D7D7D7"/>
<path fill-rule="evenodd" clip-rule="evenodd" d="M3374 224.449V376.354L3242.34 452.304V300.399L3374 224.449ZM3244.31 302.671L3371.05 375.785L3244.31 448.899V302.671ZM3372.03 374.082L3245.29 300.969L3372.03 227.855V374.082Z" fill="#D7D7D7"/>
<path fill-rule="evenodd" clip-rule="evenodd" d="M3114.61 224.449V376.354L2982.95 452.304V300.399L3114.61 224.449ZM2984.92 302.671L3111.66 375.785L2984.92 448.899V302.671ZM3112.65 374.082L2985.91 300.969L3112.65 227.855V374.082Z" fill="#D7D7D7"/>
<path fill-rule="evenodd" clip-rule="evenodd" d="M2855.23 224.449V376.354L2723.57 452.304V300.399L2855.23 224.449ZM2725.53 302.671L2852.27 375.785L2725.53 448.899V302.671ZM2853.26 374.082L2726.52 300.969L2853.26 227.855V374.082Z" fill="#D7D7D7"/>
<path fill-rule="evenodd" clip-rule="evenodd" d="M2595.84 224.449V376.354L2464.18 452.304V300.399L2595.84 224.449ZM2466.14 302.671L2592.89 375.785L2466.14 448.899V302.671ZM2593.87 374.082L2467.13 300.969L2593.87 227.855V374.082Z" fill="#D7D7D7"/>
<path fill-rule="evenodd" clip-rule="evenodd" d="M2336.45 224.449V376.354L2204.79 452.304V300.399L2336.45 224.449ZM2206.76 302.671L2333.5 375.785L2206.76 448.899V302.671ZM2334.49 374.082L2207.74 300.969L2334.49 227.855V374.082Z" fill="#D7D7D7"/>
<path fill-rule="evenodd" clip-rule="evenodd" d="M2077.06 224.449V376.354L1945.41 452.304V300.399L2077.06 224.449ZM1947.37 302.671L2074.11 375.785L1947.37 448.899V302.671ZM2075.1 374.082L1948.36 300.969L2075.1 227.855V374.082Z" fill="#D7D7D7"/>
<path fill-rule="evenodd" clip-rule="evenodd" d="M1817.68 224.449V376.354L1686.02 452.304V300.399L1817.68 224.449ZM1687.98 302.671L1814.72 375.785L1687.98 448.899V302.671ZM1815.71 374.082L1688.97 300.969L1815.71 227.855V374.082Z" fill="#D7D7D7"/>
<path fill-rule="evenodd" clip-rule="evenodd" d="M1558.29 224.449V376.354L1426.63 452.304V300.399L1558.29 224.449ZM1428.6 302.671L1555.34 375.785L1428.6 448.899V302.671ZM1556.32 374.082L1429.58 300.969L1556.32 227.855V374.082Z" fill="#D7D7D7"/>
<path fill-rule="evenodd" clip-rule="evenodd" d="M1298.9 224.449V376.354L1167.24 452.304V300.399L1298.9 224.449ZM1169.21 302.671L1295.95 375.785L1169.21 448.899V302.671ZM1296.94 374.082L1170.19 300.969L1296.94 227.855V374.082Z" fill="#D7D7D7"/>
<path fill-rule="evenodd" clip-rule="evenodd" d="M1039.51 224.449V376.354L907.856 452.304V300.399L1039.51 224.449ZM909.821 302.671L1036.56 375.785L909.821 448.899V302.671ZM1037.55 374.082L910.807 300.969L1037.55 227.855V374.082Z" fill="#D7D7D7"/>
<path fill-rule="evenodd" clip-rule="evenodd" d="M780.127 224.449V376.354L648.468 452.304V300.399L780.127 224.449ZM650.433 302.671L777.175 375.785L650.433 448.899V302.671ZM778.162 374.082L651.42 300.969L778.162 227.855V374.082Z" fill="#D7D7D7"/>
<path fill-rule="evenodd" clip-rule="evenodd" d="M520.74 224.449V376.354L389.081 452.304V300.399L520.74 224.449ZM391.046 302.671L517.788 375.785L391.046 448.899V302.671ZM518.775 374.082L392.033 300.969L518.775 227.855V374.082Z" fill="#D7D7D7"/>
<path fill-rule="evenodd" clip-rule="evenodd" d="M261.352 224.449V376.354L129.694 452.304V300.399L261.352 224.449ZM131.659 302.671L258.401 375.785L131.659 448.899V302.671ZM259.387 374.082L132.645 300.969L259.387 227.855V374.082Z" fill="#D7D7D7"/>
<path fill-rule="evenodd" clip-rule="evenodd" d="M3244.31 299.266V451.171L3112.65 527.121V375.216L3244.31 299.266ZM3114.61 377.488L3241.35 450.601L3114.61 523.715V377.488ZM3242.34 448.899L3115.6 375.785L3242.34 302.671V448.899Z" fill="#D7D7D7"/>
<path fill-rule="evenodd" clip-rule="evenodd" d="M2984.92 299.266V451.171L2853.26 527.121V375.216L2984.92 299.266ZM2855.23 377.488L2981.97 450.601L2855.23 523.715V377.488ZM2982.95 448.899L2856.21 375.785L2982.95 302.671V448.899Z" fill="#D7D7D7"/>
<path fill-rule="evenodd" clip-rule="evenodd" d="M2725.53 299.266V451.171L2593.87 527.121V375.216L2725.53 299.266ZM2595.84 377.488L2722.58 450.601L2595.84 523.715V377.488ZM2723.57 448.899L2596.82 375.785L2723.57 302.671V448.899Z" fill="#D7D7D7"/>
<path fill-rule="evenodd" clip-rule="evenodd" d="M2466.14 299.266V451.171L2334.49 527.121V375.216L2466.14 299.266ZM2336.45 377.488L2463.19 450.601L2336.45 523.715V377.488ZM2464.18 448.899L2337.44 375.785L2464.18 302.671V448.899Z" fill="#D7D7D7"/>
<path fill-rule="evenodd" clip-rule="evenodd" d="M2206.76 299.266V451.171L2075.1 527.121V375.216L2206.76 299.266ZM2077.06 377.488L2203.81 450.601L2077.06 523.715V377.488ZM2204.79 448.899L2078.05 375.785L2204.79 302.671V448.899Z" fill="#D7D7D7"/>
<path fill-rule="evenodd" clip-rule="evenodd" d="M1947.37 299.266V451.171L1815.71 527.121V375.216L1947.37 299.266ZM1817.68 377.488L1944.42 450.601L1817.68 523.715V377.488ZM1945.41 448.899L1818.66 375.785L1945.41 302.671V448.899Z" fill="#D7D7D7"/>
<path fill-rule="evenodd" clip-rule="evenodd" d="M1687.98 299.266V451.171L1556.32 527.121V375.216L1687.98 299.266ZM1558.29 377.488L1685.03 450.601L1558.29 523.715V377.488ZM1686.02 448.899L1559.28 375.785L1686.02 302.671V448.899Z" fill="#D7D7D7"/>
<path fill-rule="evenodd" clip-rule="evenodd" d="M1428.6 299.266V451.171L1296.94 527.121V375.216L1428.6 299.266ZM1298.9 377.488L1425.64 450.601L1298.9 523.715V377.488ZM1426.63 448.899L1299.89 375.785L1426.63 302.671V448.899Z" fill="#D7D7D7"/>
<path fill-rule="evenodd" clip-rule="evenodd" d="M1169.21 299.266V451.171L1037.55 527.121V375.216L1169.21 299.266ZM1039.51 377.488L1166.26 450.601L1039.51 523.715V377.488ZM1167.24 448.899L1040.5 375.785L1167.24 302.671V448.899Z" fill="#D7D7D7"/>
<path fill-rule="evenodd" clip-rule="evenodd" d="M909.821 299.266V451.171L778.162 527.121V375.216L909.821 299.266ZM780.127 377.488L906.869 450.601L780.127 523.715V377.488ZM907.856 448.899L781.114 375.785L907.856 302.671V448.899Z" fill="#D7D7D7"/>
<path fill-rule="evenodd" clip-rule="evenodd" d="M650.433 299.266V451.171L518.775 527.121V375.216L650.433 299.266ZM520.74 377.488L647.482 450.601L520.74 523.715V377.488ZM648.468 448.899L521.726 375.785L648.468 302.671V448.899Z" fill="#D7D7D7"/>
<path fill-rule="evenodd" clip-rule="evenodd" d="M391.046 299.266V451.171L259.387 527.121V375.216L391.046 299.266ZM261.352 377.488L388.094 450.601L261.352 523.715V377.488ZM389.081 448.899L262.339 375.785L389.081 302.671V448.899Z" fill="#D7D7D7"/>
<path fill-rule="evenodd" clip-rule="evenodd" d="M131.659 299.266V451.171L0 527.121V375.216L131.659 299.266ZM1.9651 377.488L128.707 450.601L1.9651 523.715V377.488ZM129.694 448.899L2.95169 375.785L129.694 302.671V448.899Z" fill="#D7D7D7"/>
<path fill-rule="evenodd" clip-rule="evenodd" d="M3374 374.082V525.987L3242.34 601.937V450.032L3374 374.082ZM3244.31 452.304L3371.05 525.418L3244.31 598.532V452.304ZM3372.03 523.715L3245.29 450.601L3372.03 377.488V523.715Z" fill="#D7D7D7"/>
<path fill-rule="evenodd" clip-rule="evenodd" d="M3114.61 374.082V525.987L2982.95 601.937V450.032L3114.61 374.082ZM2984.92 452.304L3111.66 525.418L2984.92 598.532V452.304ZM3112.65 523.715L2985.91 450.601L3112.65 377.488V523.715Z" fill="#D7D7D7"/>
<path fill-rule="evenodd" clip-rule="evenodd" d="M2855.23 374.082V525.987L2723.57 601.937V450.032L2855.23 374.082ZM2725.53 452.304L2852.27 525.418L2725.53 598.532V452.304ZM2853.26 523.715L2726.52 450.601L2853.26 377.488V523.715Z" fill="#D7D7D7"/>
<path fill-rule="evenodd" clip-rule="evenodd" d="M2595.84 374.082V525.987L2464.18 601.937V450.032L2595.84 374.082ZM2466.14 452.304L2592.89 525.418L2466.14 598.532V452.304ZM2593.87 523.715L2467.13 450.601L2593.87 377.488V523.715Z" fill="#D7D7D7"/>
<path fill-rule="evenodd" clip-rule="evenodd" d="M2336.45 374.082V525.987L2204.79 601.937V450.032L2336.45 374.082ZM2206.76 452.304L2333.5 525.418L2206.76 598.532V452.304ZM2334.49 523.715L2207.74 450.601L2334.49 377.488V523.715Z" fill="#D7D7D7"/>
<path fill-rule="evenodd" clip-rule="evenodd" d="M2077.06 374.082V525.987L1945.41 601.937V450.032L2077.06 374.082ZM1947.37 452.304L2074.11 525.418L1947.37 598.532V452.304ZM2075.1 523.715L1948.36 450.601L2075.1 377.488V523.715Z" fill="#D7D7D7"/>
<path fill-rule="evenodd" clip-rule="evenodd" d="M1817.68 374.082V525.987L1686.02 601.937V450.032L1817.68 374.082ZM1687.98 452.304L1814.72 525.418L1687.98 598.532V452.304ZM1815.71 523.715L1688.97 450.601L1815.71 377.488V523.715Z" fill="#D7D7D7"/>
<path fill-rule="evenodd" clip-rule="evenodd" d="M1558.29 374.082V525.987L1426.63 601.937V450.032L1558.29 374.082ZM1428.6 452.304L1555.34 525.418L1428.6 598.532V452.304ZM1556.32 523.715L1429.58 450.601L1556.32 377.488V523.715Z" fill="#D7D7D7"/>
<path fill-rule="evenodd" clip-rule="evenodd" d="M1298.9 374.082V525.987L1167.24 601.937V450.032L1298.9 374.082ZM1169.21 452.304L1295.95 525.418L1169.21 598.532V452.304ZM1296.94 523.715L1170.19 450.601L1296.94 377.488V523.715Z" fill="#D7D7D7"/>
<path fill-rule="evenodd" clip-rule="evenodd" d="M1039.51 374.082V525.987L907.856 601.937V450.032L1039.51 374.082ZM909.821 452.304L1036.56 525.418L909.821 598.532V452.304ZM1037.55 523.715L910.807 450.601L1037.55 377.488V523.715Z" fill="#D7D7D7"/>
<path fill-rule="evenodd" clip-rule="evenodd" d="M780.127 374.082V525.987L648.468 601.937V450.032L780.127 374.082ZM650.433 452.304L777.175 525.418L650.433 598.532V452.304ZM778.162 523.715L651.42 450.601L778.162 377.488V523.715Z" fill="#D7D7D7"/>
<path fill-rule="evenodd" clip-rule="evenodd" d="M520.74 374.082V525.987L389.081 601.937V450.032L520.74 374.082ZM391.046 452.304L517.788 525.418L391.046 598.532V452.304ZM518.775 523.715L392.033 450.601L518.775 377.488V523.715Z" fill="#D7D7D7"/>
<path fill-rule="evenodd" clip-rule="evenodd" d="M261.352 374.082V525.987L129.694 601.937V450.032L261.352 374.082ZM131.659 452.304L258.401 525.418L131.659 598.532V452.304ZM259.387 523.715L132.645 450.601L259.387 377.488V523.715Z" fill="#D7D7D7"/>
<path fill-rule="evenodd" clip-rule="evenodd" d="M3244.31 448.899V600.803L3112.65 676.753V524.849L3244.31 448.899ZM3114.61 527.121L3241.35 600.234L3114.61 673.348V527.121ZM3242.34 598.532L3115.6 525.418L3242.34 452.304V598.532Z" fill="#D7D7D7"/>
<path fill-rule="evenodd" clip-rule="evenodd" d="M2984.92 448.899V600.803L2853.26 676.753V524.849L2984.92 448.899ZM2855.23 527.121L2981.97 600.234L2855.23 673.348V527.121ZM2982.95 598.532L2856.21 525.418L2982.95 452.304V598.532Z" fill="#D7D7D7"/>
<path fill-rule="evenodd" clip-rule="evenodd" d="M2725.53 448.899V600.803L2593.87 676.753V524.849L2725.53 448.899ZM2595.84 527.121L2722.58 600.234L2595.84 673.348V527.121ZM2723.57 598.532L2596.82 525.418L2723.57 452.304V598.532Z" fill="#D7D7D7"/>
<path fill-rule="evenodd" clip-rule="evenodd" d="M2466.14 448.899V600.803L2334.49 676.753V524.849L2466.14 448.899ZM2336.45 527.121L2463.19 600.234L2336.45 673.348V527.121ZM2464.18 598.532L2337.44 525.418L2464.18 452.304V598.532Z" fill="#D7D7D7"/>
<path fill-rule="evenodd" clip-rule="evenodd" d="M2206.76 448.899V600.803L2075.1 676.753V524.849L2206.76 448.899ZM2077.06 527.121L2203.81 600.234L2077.06 673.348V527.121ZM2204.79 598.532L2078.05 525.418L2204.79 452.304V598.532Z" fill="#D7D7D7"/>
<path fill-rule="evenodd" clip-rule="evenodd" d="M1947.37 448.899V600.803L1815.71 676.753V524.849L1947.37 448.899ZM1817.68 527.121L1944.42 600.234L1817.68 673.348V527.121ZM1945.41 598.532L1818.66 525.418L1945.41 452.304V598.532Z" fill="#D7D7D7"/>
<path fill-rule="evenodd" clip-rule="evenodd" d="M1687.98 448.899V600.803L1556.32 676.753V524.849L1687.98 448.899ZM1558.29 527.121L1685.03 600.234L1558.29 673.348V527.121ZM1686.02 598.532L1559.28 525.418L1686.02 452.304V598.532Z" fill="#D7D7D7"/>
<path fill-rule="evenodd" clip-rule="evenodd" d="M1428.6 448.899V600.803L1296.94 676.753V524.849L1428.6 448.899ZM1298.9 527.121L1425.64 600.234L1298.9 673.348V527.121ZM1426.63 598.532L1299.89 525.418L1426.63 452.304V598.532Z" fill="#D7D7D7"/>
<path fill-rule="evenodd" clip-rule="evenodd" d="M1169.21 448.899V600.803L1037.55 676.753V524.849L1169.21 448.899ZM1039.51 527.121L1166.26 600.234L1039.51 673.348V527.121ZM1167.24 598.532L1040.5 525.418L1167.24 452.304V598.532Z" fill="#D7D7D7"/>
<path fill-rule="evenodd" clip-rule="evenodd" d="M909.821 448.899V600.803L778.162 676.753V524.849L909.821 448.899ZM780.127 527.121L906.869 600.234L780.127 673.348V527.121ZM907.856 598.532L781.114 525.418L907.856 452.304V598.532Z" fill="#D7D7D7"/>
<path fill-rule="evenodd" clip-rule="evenodd" d="M650.433 448.899V600.803L518.775 676.753V524.849L650.433 448.899ZM520.74 527.121L647.482 600.234L520.74 673.348V527.121ZM648.468 598.532L521.726 525.418L648.468 452.304V598.532Z" fill="#D7D7D7"/>
<path fill-rule="evenodd" clip-rule="evenodd" d="M391.046 448.899V600.803L259.387 676.753V524.849L391.046 448.899ZM261.352 527.121L388.094 600.234L261.352 673.348V527.121ZM389.081 598.532L262.339 525.418L389.081 452.304V598.532Z" fill="#D7D7D7"/>
<path fill-rule="evenodd" clip-rule="evenodd" d="M131.659 448.899V600.803L0 676.753V524.849L131.659 448.899ZM1.9651 527.121L128.707 600.234L1.9651 673.348V527.121ZM129.694 598.532L2.95169 525.418L129.694 452.304V598.532Z" fill="#D7D7D7"/>
<path fill-rule="evenodd" clip-rule="evenodd" d="M3374 523.715V675.62L3242.34 751.57V599.665L3374 523.715ZM3244.31 601.937L3371.05 675.051L3244.31 748.164V601.937ZM3372.03 673.348L3245.29 600.234L3372.03 527.121V673.348Z" fill="#D7D7D7"/>
<path fill-rule="evenodd" clip-rule="evenodd" d="M3114.61 523.715V675.62L2982.95 751.57V599.665L3114.61 523.715ZM2984.92 601.937L3111.66 675.051L2984.92 748.164V601.937ZM3112.65 673.348L2985.91 600.234L3112.65 527.121V673.348Z" fill="#D7D7D7"/>
<path fill-rule="evenodd" clip-rule="evenodd" d="M2855.23 523.715V675.62L2723.57 751.57V599.665L2855.23 523.715ZM2725.53 601.937L2852.27 675.051L2725.53 748.164V601.937ZM2853.26 673.348L2726.52 600.234L2853.26 527.121V673.348Z" fill="#D7D7D7"/>
<path fill-rule="evenodd" clip-rule="evenodd" d="M2595.84 523.715V675.62L2464.18 751.57V599.665L2595.84 523.715ZM2466.14 601.937L2592.89 675.051L2466.14 748.164V601.937ZM2593.87 673.348L2467.13 600.234L2593.87 527.121V673.348Z" fill="#D7D7D7"/>
<path fill-rule="evenodd" clip-rule="evenodd" d="M2336.45 523.715V675.62L2204.79 751.57V599.665L2336.45 523.715ZM2206.76 601.937L2333.5 675.051L2206.76 748.164V601.937ZM2334.49 673.348L2207.74 600.234L2334.49 527.121V673.348Z" fill="#D7D7D7"/>
<path fill-rule="evenodd" clip-rule="evenodd" d="M2077.06 523.715V675.62L1945.41 751.57V599.665L2077.06 523.715ZM1947.37 601.937L2074.11 675.051L1947.37 748.164V601.937ZM2075.1 673.348L1948.36 600.234L2075.1 527.121V673.348Z" fill="#D7D7D7"/>
<path fill-rule="evenodd" clip-rule="evenodd" d="M1817.68 523.715V675.62L1686.02 751.57V599.665L1817.68 523.715ZM1687.98 601.937L1814.72 675.051L1687.98 748.164V601.937ZM1815.71 673.348L1688.97 600.234L1815.71 527.121V673.348Z" fill="#D7D7D7"/>
<path fill-rule="evenodd" clip-rule="evenodd" d="M1558.29 523.715V675.62L1426.63 751.57V599.665L1558.29 523.715ZM1428.6 601.937L1555.34 675.051L1428.6 748.164V601.937ZM1556.32 673.348L1429.58 600.234L1556.32 527.121V673.348Z" fill="#D7D7D7"/>
<path fill-rule="evenodd" clip-rule="evenodd" d="M1298.9 523.715V675.62L1167.24 751.57V599.665L1298.9 523.715ZM1169.21 601.937L1295.95 675.051L1169.21 748.164V601.937ZM1296.94 673.348L1170.19 600.234L1296.94 527.121V673.348Z" fill="#D7D7D7"/>
<path fill-rule="evenodd" clip-rule="evenodd" d="M1039.51 523.715V675.62L907.856 751.57V599.665L1039.51 523.715ZM909.821 601.937L1036.56 675.051L909.821 748.164V601.937ZM1037.55 673.348L910.807 600.234L1037.55 527.121V673.348Z" fill="#D7D7D7"/>
<path fill-rule="evenodd" clip-rule="evenodd" d="M780.127 523.715V675.62L648.468 751.57V599.665L780.127 523.715ZM650.433 601.937L777.175 675.051L650.433 748.164V601.937ZM778.162 673.348L651.42 600.234L778.162 527.121V673.348Z" fill="#D7D7D7"/>
<path fill-rule="evenodd" clip-rule="evenodd" d="M520.74 523.715V675.62L389.081 751.57V599.665L520.74 523.715ZM391.046 601.937L517.788 675.051L391.046 748.164V601.937ZM518.775 673.348L392.033 600.234L518.775 527.121V673.348Z" fill="#D7D7D7"/>
<path fill-rule="evenodd" clip-rule="evenodd" d="M261.352 523.715V675.62L129.694 751.57V599.665L261.352 523.715ZM131.659 601.937L258.401 675.051L131.659 748.164V601.937ZM259.387 673.348L132.645 600.234L259.387 527.121V673.348Z" fill="#D7D7D7"/>
<path fill-rule="evenodd" clip-rule="evenodd" d="M3244.31 598.532V750.436L3112.65 826.386V674.482L3244.31 598.532ZM3114.61 676.753L3241.35 749.867L3114.61 822.981V676.753ZM3242.34 748.164L3115.6 675.051L3242.34 601.937V748.164Z" fill="#D7D7D7"/>
<path fill-rule="evenodd" clip-rule="evenodd" d="M2984.92 598.532V750.436L2853.26 826.386V674.482L2984.92 598.532ZM2855.23 676.753L2981.97 749.867L2855.23 822.981V676.753ZM2982.95 748.164L2856.21 675.051L2982.95 601.937V748.164Z" fill="#D7D7D7"/>
<path fill-rule="evenodd" clip-rule="evenodd" d="M2725.53 598.532V750.436L2593.87 826.386V674.482L2725.53 598.532ZM2595.84 676.753L2722.58 749.867L2595.84 822.981V676.753ZM2723.57 748.164L2596.82 675.051L2723.57 601.937V748.164Z" fill="#D7D7D7"/>
<path fill-rule="evenodd" clip-rule="evenodd" d="M2466.14 598.532V750.436L2334.49 826.386V674.482L2466.14 598.532ZM2336.45 676.753L2463.19 749.867L2336.45 822.981V676.753ZM2464.18 748.164L2337.44 675.051L2464.18 601.937V748.164Z" fill="#D7D7D7"/>
<path fill-rule="evenodd" clip-rule="evenodd" d="M2206.76 598.532V750.436L2075.1 826.386V674.482L2206.76 598.532ZM2077.06 676.753L2203.81 749.867L2077.06 822.981V676.753ZM2204.79 748.164L2078.05 675.051L2204.79 601.937V748.164Z" fill="#D7D7D7"/>
<path fill-rule="evenodd" clip-rule="evenodd" d="M1947.37 598.532V750.436L1815.71 826.386V674.482L1947.37 598.532ZM1817.68 676.753L1944.42 749.867L1817.68 822.981V676.753ZM1945.41 748.164L1818.66 675.051L1945.41 601.937V748.164Z" fill="#D7D7D7"/>
<path fill-rule="evenodd" clip-rule="evenodd" d="M1687.98 598.532V750.436L1556.32 826.386V674.482L1687.98 598.532ZM1558.29 676.753L1685.03 749.867L1558.29 822.981V676.753ZM1686.02 748.164L1559.28 675.051L1686.02 601.937V748.164Z" fill="#D7D7D7"/>
<path fill-rule="evenodd" clip-rule="evenodd" d="M1428.6 598.532V750.436L1296.94 826.386V674.482L1428.6 598.532ZM1298.9 676.753L1425.64 749.867L1298.9 822.981V676.753ZM1426.63 748.164L1299.89 675.051L1426.63 601.937V748.164Z" fill="#D7D7D7"/>
<path fill-rule="evenodd" clip-rule="evenodd" d="M1169.21 598.532V750.436L1037.55 826.386V674.482L1169.21 598.532ZM1039.51 676.753L1166.26 749.867L1039.51 822.981V676.753ZM1167.24 748.164L1040.5 675.051L1167.24 601.937V748.164Z" fill="#D7D7D7"/>
<path fill-rule="evenodd" clip-rule="evenodd" d="M909.821 598.532V750.436L778.162 826.386V674.482L909.821 598.532ZM780.127 676.753L906.869 749.867L780.127 822.981V676.753ZM907.856 748.164L781.114 675.051L907.856 601.937V748.164Z" fill="#D7D7D7"/>
<path fill-rule="evenodd" clip-rule="evenodd" d="M650.433 598.532V750.436L518.775 826.386V674.482L650.433 598.532ZM520.74 676.753L647.482 749.867L520.74 822.981V676.753ZM648.468 748.164L521.726 675.051L648.468 601.937V748.164Z" fill="#D7D7D7"/>
<path fill-rule="evenodd" clip-rule="evenodd" d="M391.046 598.532V750.436L259.387 826.386V674.482L391.046 598.532ZM261.352 676.753L388.094 749.867L261.352 822.981V676.753ZM389.081 748.164L262.339 675.051L389.081 601.937V748.164Z" fill="#D7D7D7"/>
<path fill-rule="evenodd" clip-rule="evenodd" d="M131.659 598.532V750.436L0 826.386V674.482L131.659 598.532ZM1.9651 676.753L128.707 749.867L1.9651 822.981V676.753ZM129.694 748.164L2.95169 675.051L129.694 601.937V748.164Z" fill="#D7D7D7"/>
<path fill-rule="evenodd" clip-rule="evenodd" d="M3374 673.348V825.253L3242.34 901.203V749.298L3374 673.348ZM3244.31 751.57L3371.05 824.684L3244.31 897.797V751.57ZM3372.03 822.981L3245.29 749.867L3372.03 676.753V822.981Z" fill="#D7D7D7"/>
<path fill-rule="evenodd" clip-rule="evenodd" d="M3114.61 673.348V825.253L2982.95 901.203V749.298L3114.61 673.348ZM2984.92 751.57L3111.66 824.684L2984.92 897.797V751.57ZM3112.65 822.981L2985.91 749.867L3112.65 676.753V822.981Z" fill="#D7D7D7"/>
<path fill-rule="evenodd" clip-rule="evenodd" d="M2855.23 673.348V825.253L2723.57 901.203V749.298L2855.23 673.348ZM2725.53 751.57L2852.27 824.684L2725.53 897.797V751.57ZM2853.26 822.981L2726.52 749.867L2853.26 676.753V822.981Z" fill="#D7D7D7"/>
<path fill-rule="evenodd" clip-rule="evenodd" d="M2595.84 673.348V825.253L2464.18 901.203V749.298L2595.84 673.348ZM2466.14 751.57L2592.89 824.684L2466.14 897.797V751.57ZM2593.87 822.981L2467.13 749.867L2593.87 676.753V822.981Z" fill="#D7D7D7"/>
<path fill-rule="evenodd" clip-rule="evenodd" d="M2336.45 673.348V825.253L2204.79 901.203V749.298L2336.45 673.348ZM2206.76 751.57L2333.5 824.684L2206.76 897.797V751.57ZM2334.49 822.981L2207.74 749.867L2334.49 676.753V822.981Z" fill="#D7D7D7"/>
<path fill-rule="evenodd" clip-rule="evenodd" d="M2077.06 673.348V825.253L1945.41 901.203V749.298L2077.06 673.348ZM1947.37 751.57L2074.11 824.684L1947.37 897.797V751.57ZM2075.1 822.981L1948.36 749.867L2075.1 676.753V822.981Z" fill="#D7D7D7"/>
<path fill-rule="evenodd" clip-rule="evenodd" d="M1817.68 673.348V825.253L1686.02 901.203V749.298L1817.68 673.348ZM1687.98 751.57L1814.72 824.684L1687.98 897.797V751.57ZM1815.71 822.981L1688.97 749.867L1815.71 676.753V822.981Z" fill="#D7D7D7"/>
<path fill-rule="evenodd" clip-rule="evenodd" d="M1558.29 673.348V825.253L1426.63 901.203V749.298L1558.29 673.348ZM1428.6 751.57L1555.34 824.684L1428.6 897.797V751.57ZM1556.32 822.981L1429.58 749.867L1556.32 676.753V822.981Z" fill="#D7D7D7"/>
<path fill-rule="evenodd" clip-rule="evenodd" d="M1298.9 673.348V825.253L1167.24 901.203V749.298L1298.9 673.348ZM1169.21 751.57L1295.95 824.684L1169.21 897.797V751.57ZM1296.94 822.981L1170.19 749.867L1296.94 676.753V822.981Z" fill="#D7D7D7"/>
<path fill-rule="evenodd" clip-rule="evenodd" d="M1039.51 673.348V825.253L907.856 901.203V749.298L1039.51 673.348ZM909.821 751.57L1036.56 824.684L909.821 897.797V751.57ZM1037.55 822.981L910.807 749.867L1037.55 676.753V822.981Z" fill="#D7D7D7"/>
<path fill-rule="evenodd" clip-rule="evenodd" d="M780.127 673.348V825.253L648.468 901.203V749.298L780.127 673.348ZM650.433 751.57L777.175 824.684L650.433 897.797V751.57ZM778.162 822.981L651.42 749.867L778.162 676.753V822.981Z" fill="#D7D7D7"/>
<path fill-rule="evenodd" clip-rule="evenodd" d="M520.74 673.348V825.253L389.081 901.203V749.298L520.74 673.348ZM391.046 751.57L517.788 824.684L391.046 897.797V751.57ZM518.775 822.981L392.033 749.867L518.775 676.753V822.981Z" fill="#D7D7D7"/>
<path fill-rule="evenodd" clip-rule="evenodd" d="M261.352 673.348V825.253L129.694 901.203V749.298L261.352 673.348ZM131.659 751.57L258.401 824.684L131.659 897.797V751.57ZM259.387 822.981L132.645 749.867L259.387 676.753V822.981Z" fill="#D7D7D7"/>
<path fill-rule="evenodd" clip-rule="evenodd" d="M3374 822.981V974.886L3242.34 1050.84V898.931L3374 822.981ZM3244.31 901.203L3371.05 974.316L3244.31 1047.43V901.203ZM3372.03 972.614L3245.29 899.5L3372.03 826.386V972.614Z" fill="#D7D7D7"/>
<path fill-rule="evenodd" clip-rule="evenodd" d="M3114.61 822.981V974.886L2982.95 1050.84V898.931L3114.61 822.981ZM2984.92 901.203L3111.66 974.316L2984.92 1047.43V901.203ZM3112.65 972.614L2985.91 899.5L3112.65 826.386V972.614Z" fill="#D7D7D7"/>
<path fill-rule="evenodd" clip-rule="evenodd" d="M2855.23 822.981V974.886L2723.57 1050.84V898.931L2855.23 822.981ZM2725.53 901.203L2852.27 974.316L2725.53 1047.43V901.203ZM2853.26 972.614L2726.52 899.5L2853.26 826.386V972.614Z" fill="#D7D7D7"/>
<path fill-rule="evenodd" clip-rule="evenodd" d="M2595.84 822.981V974.886L2464.18 1050.84V898.931L2595.84 822.981ZM2466.14 901.203L2592.89 974.316L2466.14 1047.43V901.203ZM2593.87 972.614L2467.13 899.5L2593.87 826.386V972.614Z" fill="#D7D7D7"/>
<path fill-rule="evenodd" clip-rule="evenodd" d="M2336.45 822.981V974.886L2204.79 1050.84V898.931L2336.45 822.981ZM2206.76 901.203L2333.5 974.316L2206.76 1047.43V901.203ZM2334.49 972.614L2207.74 899.5L2334.49 826.386V972.614Z" fill="#D7D7D7"/>
<path fill-rule="evenodd" clip-rule="evenodd" d="M2077.06 822.981V974.886L1945.41 1050.84V898.931L2077.06 822.981ZM1947.37 901.203L2074.11 974.316L1947.37 1047.43V901.203ZM2075.1 972.614L1948.36 899.5L2075.1 826.386V972.614Z" fill="#D7D7D7"/>
<path fill-rule="evenodd" clip-rule="evenodd" d="M1817.68 822.981V974.886L1686.02 1050.84V898.931L1817.68 822.981ZM1687.98 901.203L1814.72 974.316L1687.98 1047.43V901.203ZM1815.71 972.614L1688.97 899.5L1815.71 826.386V972.614Z" fill="#D7D7D7"/>
<path fill-rule="evenodd" clip-rule="evenodd" d="M1558.29 822.981V974.886L1426.63 1050.84V898.931L1558.29 822.981ZM1428.6 901.203L1555.34 974.316L1428.6 1047.43V901.203ZM1556.32 972.614L1429.58 899.5L1556.32 826.386V972.614Z" fill="#D7D7D7"/>
<path fill-rule="evenodd" clip-rule="evenodd" d="M1298.9 822.981V974.886L1167.24 1050.84V898.931L1298.9 822.981ZM1169.21 901.203L1295.95 974.316L1169.21 1047.43V901.203ZM1296.94 972.614L1170.19 899.5L1296.94 826.386V972.614Z" fill="#D7D7D7"/>
<path fill-rule="evenodd" clip-rule="evenodd" d="M1039.51 822.981V974.886L907.856 1050.84V898.931L1039.51 822.981ZM909.821 901.203L1036.56 974.316L909.821 1047.43V901.203ZM1037.55 972.614L910.807 899.5L1037.55 826.386V972.614Z" fill="#D7D7D7"/>
<path fill-rule="evenodd" clip-rule="evenodd" d="M780.127 822.981V974.886L648.468 1050.84V898.931L780.127 822.981ZM650.433 901.203L777.175 974.316L650.433 1047.43V901.203ZM778.162 972.614L651.42 899.5L778.162 826.386V972.614Z" fill="#D7D7D7"/>
<path fill-rule="evenodd" clip-rule="evenodd" d="M520.74 822.981V974.886L389.081 1050.84V898.931L520.74 822.981ZM391.046 901.203L517.788 974.316L391.046 1047.43V901.203ZM518.775 972.614L392.033 899.5L518.775 826.386V972.614Z" fill="#D7D7D7"/>
<path fill-rule="evenodd" clip-rule="evenodd" d="M261.352 822.981V974.886L129.694 1050.84V898.931L261.352 822.981ZM131.659 901.203L258.401 974.316L131.659 1047.43V901.203ZM259.387 972.614L132.645 899.5L259.387 826.386V972.614Z" fill="#D7D7D7"/>
<path fill-rule="evenodd" clip-rule="evenodd" d="M3374 972.614V1124.52L3242.34 1200.47V1048.56L3374 972.614ZM3244.31 1050.84L3371.05 1123.95L3244.31 1197.06V1050.84ZM3372.03 1122.25L3245.29 1049.13L3372.03 976.019V1122.25Z" fill="#D7D7D7"/>
<path fill-rule="evenodd" clip-rule="evenodd" d="M3114.61 972.614V1124.52L2982.95 1200.47V1048.56L3114.61 972.614ZM2984.92 1050.84L3111.66 1123.95L2984.92 1197.06V1050.84ZM3112.65 1122.25L2985.91 1049.13L3112.65 976.019V1122.25Z" fill="#D7D7D7"/>
<path fill-rule="evenodd" clip-rule="evenodd" d="M2855.23 972.614V1124.52L2723.57 1200.47V1048.56L2855.23 972.614ZM2725.53 1050.84L2852.27 1123.95L2725.53 1197.06V1050.84ZM2853.26 1122.25L2726.52 1049.13L2853.26 976.019V1122.25Z" fill="#D7D7D7"/>
<path fill-rule="evenodd" clip-rule="evenodd" d="M2595.84 972.614V1124.52L2464.18 1200.47V1048.56L2595.84 972.614ZM2466.14 1050.84L2592.89 1123.95L2466.14 1197.06V1050.84ZM2593.87 1122.25L2467.13 1049.13L2593.87 976.019V1122.25Z" fill="#D7D7D7"/>
<path fill-rule="evenodd" clip-rule="evenodd" d="M2336.45 972.614V1124.52L2204.79 1200.47V1048.56L2336.45 972.614ZM2206.76 1050.84L2333.5 1123.95L2206.76 1197.06V1050.84ZM2334.49 1122.25L2207.74 1049.13L2334.49 976.019V1122.25Z" fill="#D7D7D7"/>
<path fill-rule="evenodd" clip-rule="evenodd" d="M2077.06 972.614V1124.52L1945.41 1200.47V1048.56L2077.06 972.614ZM1947.37 1050.84L2074.11 1123.95L1947.37 1197.06V1050.84ZM2075.1 1122.25L1948.36 1049.13L2075.1 976.019V1122.25Z" fill="#D7D7D7"/>
<path fill-rule="evenodd" clip-rule="evenodd" d="M1817.68 972.614V1124.52L1686.02 1200.47V1048.56L1817.68 972.614ZM1687.98 1050.84L1814.72 1123.95L1687.98 1197.06V1050.84ZM1815.71 1122.25L1688.97 1049.13L1815.71 976.019V1122.25Z" fill="#D7D7D7"/>
<path fill-rule="evenodd" clip-rule="evenodd" d="M1558.29 972.614V1124.52L1426.63 1200.47V1048.56L1558.29 972.614ZM1428.6 1050.84L1555.34 1123.95L1428.6 1197.06V1050.84ZM1556.32 1122.25L1429.58 1049.13L1556.32 976.019V1122.25Z" fill="#D7D7D7"/>
<path fill-rule="evenodd" clip-rule="evenodd" d="M1298.9 972.614V1124.52L1167.24 1200.47V1048.56L1298.9 972.614ZM1169.21 1050.84L1295.95 1123.95L1169.21 1197.06V1050.84ZM1296.94 1122.25L1170.19 1049.13L1296.94 976.019V1122.25Z" fill="#D7D7D7"/>
<path fill-rule="evenodd" clip-rule="evenodd" d="M1039.51 972.614V1124.52L907.856 1200.47V1048.56L1039.51 972.614ZM909.821 1050.84L1036.56 1123.95L909.821 1197.06V1050.84ZM1037.55 1122.25L910.807 1049.13L1037.55 976.019V1122.25Z" fill="#D7D7D7"/>
<path fill-rule="evenodd" clip-rule="evenodd" d="M780.127 972.614V1124.52L648.468 1200.47V1048.56L780.127 972.614ZM650.433 1050.84L777.175 1123.95L650.433 1197.06V1050.84ZM778.162 1122.25L651.42 1049.13L778.162 976.019V1122.25Z" fill="#D7D7D7"/>
<path fill-rule="evenodd" clip-rule="evenodd" d="M520.74 972.614V1124.52L389.081 1200.47V1048.56L520.74 972.614ZM391.046 1050.84L517.788 1123.95L391.046 1197.06V1050.84ZM518.775 1122.25L392.033 1049.13L518.775 976.019V1122.25Z" fill="#D7D7D7"/>
<path fill-rule="evenodd" clip-rule="evenodd" d="M261.352 972.614V1124.52L129.694 1200.47V1048.56L261.352 972.614ZM131.659 1050.84L258.401 1123.95L131.659 1197.06V1050.84ZM259.387 1122.25L132.645 1049.13L259.387 976.019V1122.25Z" fill="#D7D7D7"/>
<path fill-rule="evenodd" clip-rule="evenodd" d="M3374 1122.25V1274.15L3242.34 1350.1V1198.2L3374 1122.25ZM3244.31 1200.47L3371.05 1273.58L3244.31 1346.7V1200.47ZM3372.03 1271.88L3245.29 1198.77L3372.03 1125.65V1271.88Z" fill="#D7D7D7"/>
<path fill-rule="evenodd" clip-rule="evenodd" d="M3114.61 1122.25V1274.15L2982.95 1350.1V1198.2L3114.61 1122.25ZM2984.92 1200.47L3111.66 1273.58L2984.92 1346.7V1200.47ZM3112.65 1271.88L2985.91 1198.77L3112.65 1125.65V1271.88Z" fill="#D7D7D7"/>
<path fill-rule="evenodd" clip-rule="evenodd" d="M2855.23 1122.25V1274.15L2723.57 1350.1V1198.2L2855.23 1122.25ZM2725.53 1200.47L2852.27 1273.58L2725.53 1346.7V1200.47ZM2853.26 1271.88L2726.52 1198.77L2853.26 1125.65V1271.88Z" fill="#D7D7D7"/>
<path fill-rule="evenodd" clip-rule="evenodd" d="M2595.84 1122.25V1274.15L2464.18 1350.1V1198.2L2595.84 1122.25ZM2466.14 1200.47L2592.89 1273.58L2466.14 1346.7V1200.47ZM2593.87 1271.88L2467.13 1198.77L2593.87 1125.65V1271.88Z" fill="#D7D7D7"/>
<path fill-rule="evenodd" clip-rule="evenodd" d="M2336.45 1122.25V1274.15L2204.79 1350.1V1198.2L2336.45 1122.25ZM2206.76 1200.47L2333.5 1273.58L2206.76 1346.7V1200.47ZM2334.49 1271.88L2207.74 1198.77L2334.49 1125.65V1271.88Z" fill="#D7D7D7"/>
<path fill-rule="evenodd" clip-rule="evenodd" d="M2077.06 1122.25V1274.15L1945.41 1350.1V1198.2L2077.06 1122.25ZM1947.37 1200.47L2074.11 1273.58L1947.37 1346.7V1200.47ZM2075.1 1271.88L1948.36 1198.77L2075.1 1125.65V1271.88Z" fill="#D7D7D7"/>
<path fill-rule="evenodd" clip-rule="evenodd" d="M1817.68 1122.25V1274.15L1686.02 1350.1V1198.2L1817.68 1122.25ZM1687.98 1200.47L1814.72 1273.58L1687.98 1346.7V1200.47ZM1815.71 1271.88L1688.97 1198.77L1815.71 1125.65V1271.88Z" fill="#D7D7D7"/>
<path fill-rule="evenodd" clip-rule="evenodd" d="M1558.29 1122.25V1274.15L1426.63 1350.1V1198.2L1558.29 1122.25ZM1428.6 1200.47L1555.34 1273.58L1428.6 1346.7V1200.47ZM1556.32 1271.88L1429.58 1198.77L1556.32 1125.65V1271.88Z" fill="#D7D7D7"/>
<path fill-rule="evenodd" clip-rule="evenodd" d="M1298.9 1122.25V1274.15L1167.24 1350.1V1198.2L1298.9 1122.25ZM1169.21 1200.47L1295.95 1273.58L1169.21 1346.7V1200.47ZM1296.94 1271.88L1170.19 1198.77L1296.94 1125.65V1271.88Z" fill="#D7D7D7"/>
<path fill-rule="evenodd" clip-rule="evenodd" d="M1039.51 1122.25V1274.15L907.856 1350.1V1198.2L1039.51 1122.25ZM909.821 1200.47L1036.56 1273.58L909.821 1346.7V1200.47ZM1037.55 1271.88L910.807 1198.77L1037.55 1125.65V1271.88Z" fill="#D7D7D7"/>
<path fill-rule="evenodd" clip-rule="evenodd" d="M780.127 1122.25V1274.15L648.468 1350.1V1198.2L780.127 1122.25ZM650.433 1200.47L777.175 1273.58L650.433 1346.7V1200.47ZM778.162 1271.88L651.42 1198.77L778.162 1125.65V1271.88Z" fill="#D7D7D7"/>
<path fill-rule="evenodd" clip-rule="evenodd" d="M520.74 1122.25V1274.15L389.081 1350.1V1198.2L520.74 1122.25ZM391.046 1200.47L517.788 1273.58L391.046 1346.7V1200.47ZM518.775 1271.88L392.033 1198.77L518.775 1125.65V1271.88Z" fill="#D7D7D7"/>
<path fill-rule="evenodd" clip-rule="evenodd" d="M261.352 1122.25V1274.15L129.694 1350.1V1198.2L261.352 1122.25ZM131.659 1200.47L258.401 1273.58L131.659 1346.7V1200.47ZM259.387 1271.88L132.645 1198.77L259.387 1125.65V1271.88Z" fill="#D7D7D7"/>
<path fill-rule="evenodd" clip-rule="evenodd" d="M3374 1271.88V1423.78L3242.34 1499.73V1347.83L3374 1271.88ZM3244.31 1350.1L3371.05 1423.22L3244.31 1496.33V1350.1ZM3372.03 1421.51L3245.29 1348.4L3372.03 1275.29V1421.51Z" fill="#D7D7D7"/>
<path fill-rule="evenodd" clip-rule="evenodd" d="M3114.61 1271.88V1423.78L2982.95 1499.73V1347.83L3114.61 1271.88ZM2984.92 1350.1L3111.66 1423.22L2984.92 1496.33V1350.1ZM3112.65 1421.51L2985.91 1348.4L3112.65 1275.29V1421.51Z" fill="#D7D7D7"/>
<path fill-rule="evenodd" clip-rule="evenodd" d="M2855.23 1271.88V1423.78L2723.57 1499.73V1347.83L2855.23 1271.88ZM2725.53 1350.1L2852.27 1423.22L2725.53 1496.33V1350.1ZM2853.26 1421.51L2726.52 1348.4L2853.26 1275.29V1421.51Z" fill="#D7D7D7"/>
<path fill-rule="evenodd" clip-rule="evenodd" d="M2595.84 1271.88V1423.78L2464.18 1499.73V1347.83L2595.84 1271.88ZM2466.14 1350.1L2592.89 1423.22L2466.14 1496.33V1350.1ZM2593.87 1421.51L2467.13 1348.4L2593.87 1275.29V1421.51Z" fill="#D7D7D7"/>
<path fill-rule="evenodd" clip-rule="evenodd" d="M2336.45 1271.88V1423.78L2204.79 1499.73V1347.83L2336.45 1271.88ZM2206.76 1350.1L2333.5 1423.22L2206.76 1496.33V1350.1ZM2334.49 1421.51L2207.74 1348.4L2334.49 1275.29V1421.51Z" fill="#D7D7D7"/>
<path fill-rule="evenodd" clip-rule="evenodd" d="M2077.06 1271.88V1423.78L1945.41 1499.73V1347.83L2077.06 1271.88ZM1947.37 1350.1L2074.11 1423.22L1947.37 1496.33V1350.1ZM2075.1 1421.51L1948.36 1348.4L2075.1 1275.29V1421.51Z" fill="#D7D7D7"/>
<path fill-rule="evenodd" clip-rule="evenodd" d="M1817.68 1271.88V1423.78L1686.02 1499.73V1347.83L1817.68 1271.88ZM1687.98 1350.1L1814.72 1423.22L1687.98 1496.33V1350.1ZM1815.71 1421.51L1688.97 1348.4L1815.71 1275.29V1421.51Z" fill="#D7D7D7"/>
<path fill-rule="evenodd" clip-rule="evenodd" d="M1558.29 1271.88V1423.78L1426.63 1499.73V1347.83L1558.29 1271.88ZM1428.6 1350.1L1555.34 1423.22L1428.6 1496.33V1350.1ZM1556.32 1421.51L1429.58 1348.4L1556.32 1275.29V1421.51Z" fill="#D7D7D7"/>
<path fill-rule="evenodd" clip-rule="evenodd" d="M1298.9 1271.88V1423.78L1167.24 1499.73V1347.83L1298.9 1271.88ZM1169.21 1350.1L1295.95 1423.22L1169.21 1496.33V1350.1ZM1296.94 1421.51L1170.19 1348.4L1296.94 1275.29V1421.51Z" fill="#D7D7D7"/>
<path fill-rule="evenodd" clip-rule="evenodd" d="M1039.51 1271.88V1423.78L907.856 1499.73V1347.83L1039.51 1271.88ZM909.821 1350.1L1036.56 1423.22L909.821 1496.33V1350.1ZM1037.55 1421.51L910.807 1348.4L1037.55 1275.29V1421.51Z" fill="#D7D7D7"/>
<path fill-rule="evenodd" clip-rule="evenodd" d="M780.127 1271.88V1423.78L648.468 1499.73V1347.83L780.127 1271.88ZM650.433 1350.1L777.175 1423.22L650.433 1496.33V1350.1ZM778.162 1421.51L651.42 1348.4L778.162 1275.29V1421.51Z" fill="#D7D7D7"/>
<path fill-rule="evenodd" clip-rule="evenodd" d="M520.74 1271.88V1423.78L389.081 1499.73V1347.83L520.74 1271.88ZM391.046 1350.1L517.788 1423.22L391.046 1496.33V1350.1ZM518.775 1421.51L392.033 1348.4L518.775 1275.29V1421.51Z" fill="#D7D7D7"/>
<path fill-rule="evenodd" clip-rule="evenodd" d="M261.352 1271.88V1423.78L129.694 1499.73V1347.83L261.352 1271.88ZM131.659 1350.1L258.401 1423.22L131.659 1496.33V1350.1ZM259.387 1421.51L132.645 1348.4L259.387 1275.29V1421.51Z" fill="#D7D7D7"/>
<path fill-rule="evenodd" clip-rule="evenodd" d="M3374 1421.51V1573.42L3242.34 1649.37V1497.46L3374 1421.51ZM3244.31 1499.73L3371.05 1572.85L3244.31 1645.96V1499.73ZM3372.03 1571.15L3245.29 1498.03L3372.03 1424.92V1571.15Z" fill="#D7D7D7"/>
<path fill-rule="evenodd" clip-rule="evenodd" d="M3114.61 1421.51V1573.42L2982.95 1649.37V1497.46L3114.61 1421.51ZM2984.92 1499.73L3111.66 1572.85L2984.92 1645.96V1499.73ZM3112.65 1571.15L2985.91 1498.03L3112.65 1424.92V1571.15Z" fill="#D7D7D7"/>
<path fill-rule="evenodd" clip-rule="evenodd" d="M2855.23 1421.51V1573.42L2723.57 1649.37V1497.46L2855.23 1421.51ZM2725.53 1499.73L2852.27 1572.85L2725.53 1645.96V1499.73ZM2853.26 1571.15L2726.52 1498.03L2853.26 1424.92V1571.15Z" fill="#D7D7D7"/>
<path fill-rule="evenodd" clip-rule="evenodd" d="M2595.84 1421.51V1573.42L2464.18 1649.37V1497.46L2595.84 1421.51ZM2466.14 1499.73L2592.89 1572.85L2466.14 1645.96V1499.73ZM2593.87 1571.15L2467.13 1498.03L2593.87 1424.92V1571.15Z" fill="#D7D7D7"/>
<path fill-rule="evenodd" clip-rule="evenodd" d="M2336.45 1421.51V1573.42L2204.79 1649.37V1497.46L2336.45 1421.51ZM2206.76 1499.73L2333.5 1572.85L2206.76 1645.96V1499.73ZM2334.49 1571.15L2207.74 1498.03L2334.49 1424.92V1571.15Z" fill="#D7D7D7"/>
<path fill-rule="evenodd" clip-rule="evenodd" d="M2077.06 1421.51V1573.42L1945.41 1649.37V1497.46L2077.06 1421.51ZM1947.37 1499.73L2074.11 1572.85L1947.37 1645.96V1499.73ZM2075.1 1571.15L1948.36 1498.03L2075.1 1424.92V1571.15Z" fill="#D7D7D7"/>
<path fill-rule="evenodd" clip-rule="evenodd" d="M1817.68 1421.51V1573.42L1686.02 1649.37V1497.46L1817.68 1421.51ZM1687.98 1499.73L1814.72 1572.85L1687.98 1645.96V1499.73ZM1815.71 1571.15L1688.97 1498.03L1815.71 1424.92V1571.15Z" fill="#D7D7D7"/>
<path fill-rule="evenodd" clip-rule="evenodd" d="M1558.29 1421.51V1573.42L1426.63 1649.37V1497.46L1558.29 1421.51ZM1428.6 1499.73L1555.34 1572.85L1428.6 1645.96V1499.73ZM1556.32 1571.15L1429.58 1498.03L1556.32 1424.92V1571.15Z" fill="#D7D7D7"/>
<path fill-rule="evenodd" clip-rule="evenodd" d="M1298.9 1421.51V1573.42L1167.24 1649.37V1497.46L1298.9 1421.51ZM1169.21 1499.73L1295.95 1572.85L1169.21 1645.96V1499.73ZM1296.94 1571.15L1170.19 1498.03L1296.94 1424.92V1571.15Z" fill="#D7D7D7"/>
<path fill-rule="evenodd" clip-rule="evenodd" d="M1039.51 1421.51V1573.42L907.856 1649.37V1497.46L1039.51 1421.51ZM909.821 1499.73L1036.56 1572.85L909.821 1645.96V1499.73ZM1037.55 1571.15L910.807 1498.03L1037.55 1424.92V1571.15Z" fill="#D7D7D7"/>
<path fill-rule="evenodd" clip-rule="evenodd" d="M780.127 1421.51V1573.42L648.468 1649.37V1497.46L780.127 1421.51ZM650.433 1499.73L777.175 1572.85L650.433 1645.96V1499.73ZM778.162 1571.15L651.42 1498.03L778.162 1424.92V1571.15Z" fill="#D7D7D7"/>
<path fill-rule="evenodd" clip-rule="evenodd" d="M520.74 1421.51V1573.42L389.081 1649.37V1497.46L520.74 1421.51ZM391.046 1499.73L517.788 1572.85L391.046 1645.96V1499.73ZM518.775 1571.15L392.033 1498.03L518.775 1424.92V1571.15Z" fill="#D7D7D7"/>
<path fill-rule="evenodd" clip-rule="evenodd" d="M261.352 1421.51V1573.42L129.694 1649.37V1497.46L261.352 1421.51ZM131.659 1499.73L258.401 1572.85L131.659 1645.96V1499.73ZM259.387 1571.15L132.645 1498.03L259.387 1424.92V1571.15Z" fill="#D7D7D7"/>
<path fill-rule="evenodd" clip-rule="evenodd" d="M3374 1571.15V1723.05L3242.34 1799V1647.1L3374 1571.15ZM3244.31 1649.37L3371.05 1722.48L3244.31 1795.59V1649.37ZM3372.03 1720.78L3245.29 1647.66L3372.03 1574.55V1720.78Z" fill="#D7D7D7"/>
<path fill-rule="evenodd" clip-rule="evenodd" d="M3114.61 1571.15V1723.05L2982.95 1799V1647.1L3114.61 1571.15ZM2984.92 1649.37L3111.66 1722.48L2984.92 1795.59V1649.37ZM3112.65 1720.78L2985.91 1647.66L3112.65 1574.55V1720.78Z" fill="#D7D7D7"/>
<path fill-rule="evenodd" clip-rule="evenodd" d="M2855.23 1571.15V1723.05L2723.57 1799V1647.1L2855.23 1571.15ZM2725.53 1649.37L2852.27 1722.48L2725.53 1795.59V1649.37ZM2853.26 1720.78L2726.52 1647.66L2853.26 1574.55V1720.78Z" fill="#D7D7D7"/>
<path fill-rule="evenodd" clip-rule="evenodd" d="M2595.84 1571.15V1723.05L2464.18 1799V1647.1L2595.84 1571.15ZM2466.14 1649.37L2592.89 1722.48L2466.14 1795.59V1649.37ZM2593.87 1720.78L2467.13 1647.66L2593.87 1574.55V1720.78Z" fill="#D7D7D7"/>
<path fill-rule="evenodd" clip-rule="evenodd" d="M2336.45 1571.15V1723.05L2204.79 1799V1647.1L2336.45 1571.15ZM2206.76 1649.37L2333.5 1722.48L2206.76 1795.59V1649.37ZM2334.49 1720.78L2207.74 1647.66L2334.49 1574.55V1720.78Z" fill="#D7D7D7"/>
<path fill-rule="evenodd" clip-rule="evenodd" d="M2077.06 1571.15V1723.05L1945.41 1799V1647.1L2077.06 1571.15ZM1947.37 1649.37L2074.11 1722.48L1947.37 1795.59V1649.37ZM2075.1 1720.78L1948.36 1647.66L2075.1 1574.55V1720.78Z" fill="#D7D7D7"/>
<path fill-rule="evenodd" clip-rule="evenodd" d="M1817.68 1571.15V1723.05L1686.02 1799V1647.1L1817.68 1571.15ZM1687.98 1649.37L1814.72 1722.48L1687.98 1795.59V1649.37ZM1815.71 1720.78L1688.97 1647.66L1815.71 1574.55V1720.78Z" fill="#D7D7D7"/>
<path fill-rule="evenodd" clip-rule="evenodd" d="M1558.29 1571.15V1723.05L1426.63 1799V1647.1L1558.29 1571.15ZM1428.6 1649.37L1555.34 1722.48L1428.6 1795.59V1649.37ZM1556.32 1720.78L1429.58 1647.66L1556.32 1574.55V1720.78Z" fill="#D7D7D7"/>
<path fill-rule="evenodd" clip-rule="evenodd" d="M1298.9 1571.15V1723.05L1167.24 1799V1647.1L1298.9 1571.15ZM1169.21 1649.37L1295.95 1722.48L1169.21 1795.59V1649.37ZM1296.94 1720.78L1170.19 1647.66L1296.94 1574.55V1720.78Z" fill="#D7D7D7"/>
<path fill-rule="evenodd" clip-rule="evenodd" d="M1039.51 1571.15V1723.05L907.856 1799V1647.1L1039.51 1571.15ZM909.821 1649.37L1036.56 1722.48L909.821 1795.59V1649.37ZM1037.55 1720.78L910.807 1647.66L1037.55 1574.55V1720.78Z" fill="#D7D7D7"/>
<path fill-rule="evenodd" clip-rule="evenodd" d="M780.127 1571.15V1723.05L648.468 1799V1647.1L780.127 1571.15ZM650.433 1649.37L777.175 1722.48L650.433 1795.59V1649.37ZM778.162 1720.78L651.42 1647.66L778.162 1574.55V1720.78Z" fill="#D7D7D7"/>
<path fill-rule="evenodd" clip-rule="evenodd" d="M520.74 1571.15V1723.05L389.081 1799V1647.1L520.74 1571.15ZM391.046 1649.37L517.788 1722.48L391.046 1795.59V1649.37ZM518.775 1720.78L392.033 1647.66L518.775 1574.55V1720.78Z" fill="#D7D7D7"/>
<path fill-rule="evenodd" clip-rule="evenodd" d="M261.352 1571.15V1723.05L129.694 1799V1647.1L261.352 1571.15ZM131.659 1649.37L258.401 1722.48L131.659 1795.59V1649.37ZM259.387 1720.78L132.645 1647.66L259.387 1574.55V1720.78Z" fill="#D7D7D7"/>
<path fill-rule="evenodd" clip-rule="evenodd" d="M3244.31 748.164V900.069L3112.65 976.019V824.115L3244.31 748.164ZM3114.61 826.386L3241.35 899.5L3114.61 972.614V826.386ZM3242.34 897.797L3115.6 824.684L3242.34 751.57V897.797Z" fill="#D7D7D7"/>
<path fill-rule="evenodd" clip-rule="evenodd" d="M2984.92 748.164V900.069L2853.26 976.019V824.115L2984.92 748.164ZM2855.23 826.386L2981.97 899.5L2855.23 972.614V826.386ZM2982.95 897.797L2856.21 824.684L2982.95 751.57V897.797Z" fill="#D7D7D7"/>
<path fill-rule="evenodd" clip-rule="evenodd" d="M2725.53 748.164V900.069L2593.87 976.019V824.115L2725.53 748.164ZM2595.84 826.386L2722.58 899.5L2595.84 972.614V826.386ZM2723.57 897.797L2596.82 824.684L2723.57 751.57V897.797Z" fill="#D7D7D7"/>
<path fill-rule="evenodd" clip-rule="evenodd" d="M2466.14 748.164V900.069L2334.49 976.019V824.115L2466.14 748.164ZM2336.45 826.386L2463.19 899.5L2336.45 972.614V826.386ZM2464.18 897.797L2337.44 824.684L2464.18 751.57V897.797Z" fill="#D7D7D7"/>
<path fill-rule="evenodd" clip-rule="evenodd" d="M2206.76 748.164V900.069L2075.1 976.019V824.115L2206.76 748.164ZM2077.06 826.386L2203.81 899.5L2077.06 972.614V826.386ZM2204.79 897.797L2078.05 824.684L2204.79 751.57V897.797Z" fill="#D7D7D7"/>
<path fill-rule="evenodd" clip-rule="evenodd" d="M1947.37 748.164V900.069L1815.71 976.019V824.115L1947.37 748.164ZM1817.68 826.386L1944.42 899.5L1817.68 972.614V826.386ZM1945.41 897.797L1818.66 824.684L1945.41 751.57V897.797Z" fill="#D7D7D7"/>
<path fill-rule="evenodd" clip-rule="evenodd" d="M1687.98 748.164V900.069L1556.32 976.019V824.115L1687.98 748.164ZM1558.29 826.386L1685.03 899.5L1558.29 972.614V826.386ZM1686.02 897.797L1559.28 824.684L1686.02 751.57V897.797Z" fill="#D7D7D7"/>
<path fill-rule="evenodd" clip-rule="evenodd" d="M1428.6 748.164V900.069L1296.94 976.019V824.115L1428.6 748.164ZM1298.9 826.386L1425.64 899.5L1298.9 972.614V826.386ZM1426.63 897.797L1299.89 824.684L1426.63 751.57V897.797Z" fill="#D7D7D7"/>
<path fill-rule="evenodd" clip-rule="evenodd" d="M1169.21 748.164V900.069L1037.55 976.019V824.115L1169.21 748.164ZM1039.51 826.386L1166.26 899.5L1039.51 972.614V826.386ZM1167.24 897.797L1040.5 824.684L1167.24 751.57V897.797Z" fill="#D7D7D7"/>
<path fill-rule="evenodd" clip-rule="evenodd" d="M909.821 748.164V900.069L778.162 976.019V824.115L909.821 748.164ZM780.127 826.386L906.869 899.5L780.127 972.614V826.386ZM907.856 897.797L781.114 824.684L907.856 751.57V897.797Z" fill="#D7D7D7"/>
<path fill-rule="evenodd" clip-rule="evenodd" d="M650.433 748.164V900.069L518.775 976.019V824.115L650.433 748.164ZM520.74 826.386L647.482 899.5L520.74 972.614V826.386ZM648.468 897.797L521.726 824.684L648.468 751.57V897.797Z" fill="#D7D7D7"/>
<path fill-rule="evenodd" clip-rule="evenodd" d="M391.046 748.164V900.069L259.387 976.019V824.115L391.046 748.164ZM261.352 826.386L388.094 899.5L261.352 972.614V826.386ZM389.081 897.797L262.339 824.684L389.081 751.57V897.797Z" fill="#D7D7D7"/>
<path fill-rule="evenodd" clip-rule="evenodd" d="M131.659 748.164V900.069L0 976.019V824.115L131.659 748.164ZM1.9651 826.386L128.707 899.5L1.9651 972.614V826.386ZM129.694 897.797L2.95169 824.684L129.694 751.57V897.797Z" fill="#D7D7D7"/>
<path fill-rule="evenodd" clip-rule="evenodd" d="M3244.31 897.797V1049.7L3112.65 1125.65V973.747L3244.31 897.797ZM3114.61 976.019L3241.35 1049.13L3114.61 1122.25V976.019ZM3242.34 1047.43L3115.6 974.316L3242.34 901.203V1047.43Z" fill="#D7D7D7"/>
<path fill-rule="evenodd" clip-rule="evenodd" d="M2984.92 897.797V1049.7L2853.26 1125.65V973.747L2984.92 897.797ZM2855.23 976.019L2981.97 1049.13L2855.23 1122.25V976.019ZM2982.95 1047.43L2856.21 974.316L2982.95 901.203V1047.43Z" fill="#D7D7D7"/>
<path fill-rule="evenodd" clip-rule="evenodd" d="M2725.53 897.797V1049.7L2593.87 1125.65V973.747L2725.53 897.797ZM2595.84 976.019L2722.58 1049.13L2595.84 1122.25V976.019ZM2723.57 1047.43L2596.82 974.316L2723.57 901.203V1047.43Z" fill="#D7D7D7"/>
<path fill-rule="evenodd" clip-rule="evenodd" d="M2466.14 897.797V1049.7L2334.49 1125.65V973.747L2466.14 897.797ZM2336.45 976.019L2463.19 1049.13L2336.45 1122.25V976.019ZM2464.18 1047.43L2337.44 974.316L2464.18 901.203V1047.43Z" fill="#D7D7D7"/>
<path fill-rule="evenodd" clip-rule="evenodd" d="M2206.76 897.797V1049.7L2075.1 1125.65V973.747L2206.76 897.797ZM2077.06 976.019L2203.81 1049.13L2077.06 1122.25V976.019ZM2204.79 1047.43L2078.05 974.316L2204.79 901.203V1047.43Z" fill="#D7D7D7"/>
<path fill-rule="evenodd" clip-rule="evenodd" d="M1947.37 897.797V1049.7L1815.71 1125.65V973.747L1947.37 897.797ZM1817.68 976.019L1944.42 1049.13L1817.68 1122.25V976.019ZM1945.41 1047.43L1818.66 974.316L1945.41 901.203V1047.43Z" fill="#D7D7D7"/>
<path fill-rule="evenodd" clip-rule="evenodd" d="M1687.98 897.797V1049.7L1556.32 1125.65V973.747L1687.98 897.797ZM1558.29 976.019L1685.03 1049.13L1558.29 1122.25V976.019ZM1686.02 1047.43L1559.28 974.316L1686.02 901.203V1047.43Z" fill="#D7D7D7"/>
<path fill-rule="evenodd" clip-rule="evenodd" d="M1428.6 897.797V1049.7L1296.94 1125.65V973.747L1428.6 897.797ZM1298.9 976.019L1425.64 1049.13L1298.9 1122.25V976.019ZM1426.63 1047.43L1299.89 974.316L1426.63 901.203V1047.43Z" fill="#D7D7D7"/>
<path fill-rule="evenodd" clip-rule="evenodd" d="M1169.21 897.797V1049.7L1037.55 1125.65V973.747L1169.21 897.797ZM1039.51 976.019L1166.26 1049.13L1039.51 1122.25V976.019ZM1167.24 1047.43L1040.5 974.316L1167.24 901.203V1047.43Z" fill="#D7D7D7"/>
<path fill-rule="evenodd" clip-rule="evenodd" d="M909.821 897.797V1049.7L778.162 1125.65V973.747L909.821 897.797ZM780.127 976.019L906.869 1049.13L780.127 1122.25V976.019ZM907.856 1047.43L781.114 974.316L907.856 901.203V1047.43Z" fill="#D7D7D7"/>
<path fill-rule="evenodd" clip-rule="evenodd" d="M650.433 897.797V1049.7L518.775 1125.65V973.747L650.433 897.797ZM520.74 976.019L647.482 1049.13L520.74 1122.25V976.019ZM648.468 1047.43L521.726 974.316L648.468 901.203V1047.43Z" fill="#D7D7D7"/>
<path fill-rule="evenodd" clip-rule="evenodd" d="M391.046 897.797V1049.7L259.387 1125.65V973.747L391.046 897.797ZM261.352 976.019L388.094 1049.13L261.352 1122.25V976.019ZM389.081 1047.43L262.339 974.316L389.081 901.203V1047.43Z" fill="#D7D7D7"/>
<path fill-rule="evenodd" clip-rule="evenodd" d="M131.659 897.797V1049.7L0 1125.65V973.747L131.659 897.797ZM1.9651 976.019L128.707 1049.13L1.9651 1122.25V976.019ZM129.694 1047.43L2.95169 974.316L129.694 901.203V1047.43Z" fill="#D7D7D7"/>
<path fill-rule="evenodd" clip-rule="evenodd" d="M3244.31 1047.43V1199.34L3112.65 1275.29V1123.38L3244.31 1047.43ZM3114.61 1125.65L3241.35 1198.77L3114.61 1271.88V1125.65ZM3242.34 1197.06L3115.6 1123.95L3242.34 1050.84V1197.06Z" fill="#D7D7D7"/>
<path fill-rule="evenodd" clip-rule="evenodd" d="M2984.92 1047.43V1199.34L2853.26 1275.29V1123.38L2984.92 1047.43ZM2855.23 1125.65L2981.97 1198.77L2855.23 1271.88V1125.65ZM2982.95 1197.06L2856.21 1123.95L2982.95 1050.84V1197.06Z" fill="#D7D7D7"/>
<path fill-rule="evenodd" clip-rule="evenodd" d="M2725.53 1047.43V1199.34L2593.87 1275.29V1123.38L2725.53 1047.43ZM2595.84 1125.65L2722.58 1198.77L2595.84 1271.88V1125.65ZM2723.57 1197.06L2596.82 1123.95L2723.57 1050.84V1197.06Z" fill="#D7D7D7"/>
<path fill-rule="evenodd" clip-rule="evenodd" d="M2466.14 1047.43V1199.34L2334.49 1275.29V1123.38L2466.14 1047.43ZM2336.45 1125.65L2463.19 1198.77L2336.45 1271.88V1125.65ZM2464.18 1197.06L2337.44 1123.95L2464.18 1050.84V1197.06Z" fill="#D7D7D7"/>
<path fill-rule="evenodd" clip-rule="evenodd" d="M2206.76 1047.43V1199.34L2075.1 1275.29V1123.38L2206.76 1047.43ZM2077.06 1125.65L2203.81 1198.77L2077.06 1271.88V1125.65ZM2204.79 1197.06L2078.05 1123.95L2204.79 1050.84V1197.06Z" fill="#D7D7D7"/>
<path fill-rule="evenodd" clip-rule="evenodd" d="M1947.37 1047.43V1199.34L1815.71 1275.29V1123.38L1947.37 1047.43ZM1817.68 1125.65L1944.42 1198.77L1817.68 1271.88V1125.65ZM1945.41 1197.06L1818.66 1123.95L1945.41 1050.84V1197.06Z" fill="#D7D7D7"/>
<path fill-rule="evenodd" clip-rule="evenodd" d="M1687.98 1047.43V1199.34L1556.32 1275.29V1123.38L1687.98 1047.43ZM1558.29 1125.65L1685.03 1198.77L1558.29 1271.88V1125.65ZM1686.02 1197.06L1559.28 1123.95L1686.02 1050.84V1197.06Z" fill="#D7D7D7"/>
<path fill-rule="evenodd" clip-rule="evenodd" d="M1428.6 1047.43V1199.34L1296.94 1275.29V1123.38L1428.6 1047.43ZM1298.9 1125.65L1425.64 1198.77L1298.9 1271.88V1125.65ZM1426.63 1197.06L1299.89 1123.95L1426.63 1050.84V1197.06Z" fill="#D7D7D7"/>
<path fill-rule="evenodd" clip-rule="evenodd" d="M1169.21 1047.43V1199.34L1037.55 1275.29V1123.38L1169.21 1047.43ZM1039.51 1125.65L1166.26 1198.77L1039.51 1271.88V1125.65ZM1167.24 1197.06L1040.5 1123.95L1167.24 1050.84V1197.06Z" fill="#D7D7D7"/>
<path fill-rule="evenodd" clip-rule="evenodd" d="M909.821 1047.43V1199.34L778.162 1275.29V1123.38L909.821 1047.43ZM780.127 1125.65L906.869 1198.77L780.127 1271.88V1125.65ZM907.856 1197.06L781.114 1123.95L907.856 1050.84V1197.06Z" fill="#D7D7D7"/>
<path fill-rule="evenodd" clip-rule="evenodd" d="M650.433 1047.43V1199.34L518.775 1275.29V1123.38L650.433 1047.43ZM520.74 1125.65L647.482 1198.77L520.74 1271.88V1125.65ZM648.468 1197.06L521.726 1123.95L648.468 1050.84V1197.06Z" fill="#D7D7D7"/>
<path fill-rule="evenodd" clip-rule="evenodd" d="M391.046 1047.43V1199.34L259.387 1275.29V1123.38L391.046 1047.43ZM261.352 1125.65L388.094 1198.77L261.352 1271.88V1125.65ZM389.081 1197.06L262.339 1123.95L389.081 1050.84V1197.06Z" fill="#D7D7D7"/>
<path fill-rule="evenodd" clip-rule="evenodd" d="M131.659 1047.43V1199.34L0 1275.29V1123.38L131.659 1047.43ZM1.9651 1125.65L128.707 1198.77L1.9651 1271.88V1125.65ZM129.694 1197.06L2.95169 1123.95L129.694 1050.84V1197.06Z" fill="#D7D7D7"/>
<path fill-rule="evenodd" clip-rule="evenodd" d="M3244.31 1197.06V1348.97L3112.65 1424.92V1273.01L3244.31 1197.06ZM3114.61 1275.29L3241.35 1348.4L3114.61 1421.51V1275.29ZM3242.34 1346.7L3115.6 1273.58L3242.34 1200.47V1346.7Z" fill="#D7D7D7"/>
<path fill-rule="evenodd" clip-rule="evenodd" d="M2984.92 1197.06V1348.97L2853.26 1424.92V1273.01L2984.92 1197.06ZM2855.23 1275.29L2981.97 1348.4L2855.23 1421.51V1275.29ZM2982.95 1346.7L2856.21 1273.58L2982.95 1200.47V1346.7Z" fill="#D7D7D7"/>
<path fill-rule="evenodd" clip-rule="evenodd" d="M2725.53 1197.06V1348.97L2593.87 1424.92V1273.01L2725.53 1197.06ZM2595.84 1275.29L2722.58 1348.4L2595.84 1421.51V1275.29ZM2723.57 1346.7L2596.82 1273.58L2723.57 1200.47V1346.7Z" fill="#D7D7D7"/>
<path fill-rule="evenodd" clip-rule="evenodd" d="M2466.14 1197.06V1348.97L2334.49 1424.92V1273.01L2466.14 1197.06ZM2336.45 1275.29L2463.19 1348.4L2336.45 1421.51V1275.29ZM2464.18 1346.7L2337.44 1273.58L2464.18 1200.47V1346.7Z" fill="#D7D7D7"/>
<path fill-rule="evenodd" clip-rule="evenodd" d="M2206.76 1197.06V1348.97L2075.1 1424.92V1273.01L2206.76 1197.06ZM2077.06 1275.29L2203.81 1348.4L2077.06 1421.51V1275.29ZM2204.79 1346.7L2078.05 1273.58L2204.79 1200.47V1346.7Z" fill="#D7D7D7"/>
<path fill-rule="evenodd" clip-rule="evenodd" d="M1947.37 1197.06V1348.97L1815.71 1424.92V1273.01L1947.37 1197.06ZM1817.68 1275.29L1944.42 1348.4L1817.68 1421.51V1275.29ZM1945.41 1346.7L1818.66 1273.58L1945.41 1200.47V1346.7Z" fill="#D7D7D7"/>
<path fill-rule="evenodd" clip-rule="evenodd" d="M1687.98 1197.06V1348.97L1556.32 1424.92V1273.01L1687.98 1197.06ZM1558.29 1275.29L1685.03 1348.4L1558.29 1421.51V1275.29ZM1686.02 1346.7L1559.28 1273.58L1686.02 1200.47V1346.7Z" fill="#D7D7D7"/>
<path fill-rule="evenodd" clip-rule="evenodd" d="M1428.6 1197.06V1348.97L1296.94 1424.92V1273.01L1428.6 1197.06ZM1298.9 1275.29L1425.64 1348.4L1298.9 1421.51V1275.29ZM1426.63 1346.7L1299.89 1273.58L1426.63 1200.47V1346.7Z" fill="#D7D7D7"/>
<path fill-rule="evenodd" clip-rule="evenodd" d="M1169.21 1197.06V1348.97L1037.55 1424.92V1273.01L1169.21 1197.06ZM1039.51 1275.29L1166.26 1348.4L1039.51 1421.51V1275.29ZM1167.24 1346.7L1040.5 1273.58L1167.24 1200.47V1346.7Z" fill="#D7D7D7"/>
<path fill-rule="evenodd" clip-rule="evenodd" d="M909.821 1197.06V1348.97L778.162 1424.92V1273.01L909.821 1197.06ZM780.127 1275.29L906.869 1348.4L780.127 1421.51V1275.29ZM907.856 1346.7L781.114 1273.58L907.856 1200.47V1346.7Z" fill="#D7D7D7"/>
<path fill-rule="evenodd" clip-rule="evenodd" d="M650.433 1197.06V1348.97L518.775 1424.92V1273.01L650.433 1197.06ZM520.74 1275.29L647.482 1348.4L520.74 1421.51V1275.29ZM648.468 1346.7L521.726 1273.58L648.468 1200.47V1346.7Z" fill="#D7D7D7"/>
<path fill-rule="evenodd" clip-rule="evenodd" d="M391.046 1197.06V1348.97L259.387 1424.92V1273.01L391.046 1197.06ZM261.352 1275.29L388.094 1348.4L261.352 1421.51V1275.29ZM389.081 1346.7L262.339 1273.58L389.081 1200.47V1346.7Z" fill="#D7D7D7"/>
<path fill-rule="evenodd" clip-rule="evenodd" d="M131.659 1197.06V1348.97L0 1424.92V1273.01L131.659 1197.06ZM1.9651 1275.29L128.707 1348.4L1.9651 1421.51V1275.29ZM129.694 1346.7L2.95169 1273.58L129.694 1200.47V1346.7Z" fill="#D7D7D7"/>
<path fill-rule="evenodd" clip-rule="evenodd" d="M3244.31 1346.7V1498.6L3112.65 1574.55V1422.65L3244.31 1346.7ZM3114.61 1424.92L3241.35 1498.03L3114.61 1571.15V1424.92ZM3242.34 1496.33L3115.6 1423.22L3242.34 1350.1V1496.33Z" fill="#D7D7D7"/>
<path fill-rule="evenodd" clip-rule="evenodd" d="M2984.92 1346.7V1498.6L2853.26 1574.55V1422.65L2984.92 1346.7ZM2855.23 1424.92L2981.97 1498.03L2855.23 1571.15V1424.92ZM2982.95 1496.33L2856.21 1423.22L2982.95 1350.1V1496.33Z" fill="#D7D7D7"/>
<path fill-rule="evenodd" clip-rule="evenodd" d="M2725.53 1346.7V1498.6L2593.87 1574.55V1422.65L2725.53 1346.7ZM2595.84 1424.92L2722.58 1498.03L2595.84 1571.15V1424.92ZM2723.57 1496.33L2596.82 1423.22L2723.57 1350.1V1496.33Z" fill="#D7D7D7"/>
<path fill-rule="evenodd" clip-rule="evenodd" d="M2466.14 1346.7V1498.6L2334.49 1574.55V1422.65L2466.14 1346.7ZM2336.45 1424.92L2463.19 1498.03L2336.45 1571.15V1424.92ZM2464.18 1496.33L2337.44 1423.22L2464.18 1350.1V1496.33Z" fill="#D7D7D7"/>
<path fill-rule="evenodd" clip-rule="evenodd" d="M2206.76 1346.7V1498.6L2075.1 1574.55V1422.65L2206.76 1346.7ZM2077.06 1424.92L2203.81 1498.03L2077.06 1571.15V1424.92ZM2204.79 1496.33L2078.05 1423.22L2204.79 1350.1V1496.33Z" fill="#D7D7D7"/>
<path fill-rule="evenodd" clip-rule="evenodd" d="M1947.37 1346.7V1498.6L1815.71 1574.55V1422.65L1947.37 1346.7ZM1817.68 1424.92L1944.42 1498.03L1817.68 1571.15V1424.92ZM1945.41 1496.33L1818.66 1423.22L1945.41 1350.1V1496.33Z" fill="#D7D7D7"/>
<path fill-rule="evenodd" clip-rule="evenodd" d="M1687.98 1346.7V1498.6L1556.32 1574.55V1422.65L1687.98 1346.7ZM1558.29 1424.92L1685.03 1498.03L1558.29 1571.15V1424.92ZM1686.02 1496.33L1559.28 1423.22L1686.02 1350.1V1496.33Z" fill="#D7D7D7"/>
<path fill-rule="evenodd" clip-rule="evenodd" d="M1428.6 1346.7V1498.6L1296.94 1574.55V1422.65L1428.6 1346.7ZM1298.9 1424.92L1425.64 1498.03L1298.9 1571.15V1424.92ZM1426.63 1496.33L1299.89 1423.22L1426.63 1350.1V1496.33Z" fill="#D7D7D7"/>
<path fill-rule="evenodd" clip-rule="evenodd" d="M1169.21 1346.7V1498.6L1037.55 1574.55V1422.65L1169.21 1346.7ZM1039.51 1424.92L1166.26 1498.03L1039.51 1571.15V1424.92ZM1167.24 1496.33L1040.5 1423.22L1167.24 1350.1V1496.33Z" fill="#D7D7D7"/>
<path fill-rule="evenodd" clip-rule="evenodd" d="M909.821 1346.7V1498.6L778.162 1574.55V1422.65L909.821 1346.7ZM780.127 1424.92L906.869 1498.03L780.127 1571.15V1424.92ZM907.856 1496.33L781.114 1423.22L907.856 1350.1V1496.33Z" fill="#D7D7D7"/>
<path fill-rule="evenodd" clip-rule="evenodd" d="M650.433 1346.7V1498.6L518.775 1574.55V1422.65L650.433 1346.7ZM520.74 1424.92L647.482 1498.03L520.74 1571.15V1424.92ZM648.468 1496.33L521.726 1423.22L648.468 1350.1V1496.33Z" fill="#D7D7D7"/>
<path fill-rule="evenodd" clip-rule="evenodd" d="M391.046 1346.7V1498.6L259.387 1574.55V1422.65L391.046 1346.7ZM261.352 1424.92L388.094 1498.03L261.352 1571.15V1424.92ZM389.081 1496.33L262.339 1423.22L389.081 1350.1V1496.33Z" fill="#D7D7D7"/>
<path fill-rule="evenodd" clip-rule="evenodd" d="M131.659 1346.7V1498.6L0 1574.55V1422.65L131.659 1346.7ZM1.9651 1424.92L128.707 1498.03L1.9651 1571.15V1424.92ZM129.694 1496.33L2.95169 1423.22L129.694 1350.1V1496.33Z" fill="#D7D7D7"/>
<path fill-rule="evenodd" clip-rule="evenodd" d="M3244.31 1496.33V1648.23L3112.65 1724.18V1572.28L3244.31 1496.33ZM3114.61 1574.55L3241.35 1647.66L3114.61 1720.78V1574.55ZM3242.34 1645.96L3115.6 1572.85L3242.34 1499.73V1645.96Z" fill="#D7D7D7"/>
<path fill-rule="evenodd" clip-rule="evenodd" d="M2984.92 1496.33V1648.23L2853.26 1724.18V1572.28L2984.92 1496.33ZM2855.23 1574.55L2981.97 1647.66L2855.23 1720.78V1574.55ZM2982.95 1645.96L2856.21 1572.85L2982.95 1499.73V1645.96Z" fill="#D7D7D7"/>
<path fill-rule="evenodd" clip-rule="evenodd" d="M2725.53 1496.33V1648.23L2593.87 1724.18V1572.28L2725.53 1496.33ZM2595.84 1574.55L2722.58 1647.66L2595.84 1720.78V1574.55ZM2723.57 1645.96L2596.82 1572.85L2723.57 1499.73V1645.96Z" fill="#D7D7D7"/>
<path fill-rule="evenodd" clip-rule="evenodd" d="M2466.14 1496.33V1648.23L2334.49 1724.18V1572.28L2466.14 1496.33ZM2336.45 1574.55L2463.19 1647.66L2336.45 1720.78V1574.55ZM2464.18 1645.96L2337.44 1572.85L2464.18 1499.73V1645.96Z" fill="#D7D7D7"/>
<path fill-rule="evenodd" clip-rule="evenodd" d="M2206.76 1496.33V1648.23L2075.1 1724.18V1572.28L2206.76 1496.33ZM2077.06 1574.55L2203.81 1647.66L2077.06 1720.78V1574.55ZM2204.79 1645.96L2078.05 1572.85L2204.79 1499.73V1645.96Z" fill="#D7D7D7"/>
<path fill-rule="evenodd" clip-rule="evenodd" d="M1947.37 1496.33V1648.23L1815.71 1724.18V1572.28L1947.37 1496.33ZM1817.68 1574.55L1944.42 1647.66L1817.68 1720.78V1574.55ZM1945.41 1645.96L1818.66 1572.85L1945.41 1499.73V1645.96Z" fill="#D7D7D7"/>
<path fill-rule="evenodd" clip-rule="evenodd" d="M1687.98 1496.33V1648.23L1556.32 1724.18V1572.28L1687.98 1496.33ZM1558.29 1574.55L1685.03 1647.66L1558.29 1720.78V1574.55ZM1686.02 1645.96L1559.28 1572.85L1686.02 1499.73V1645.96Z" fill="#D7D7D7"/>
<path fill-rule="evenodd" clip-rule="evenodd" d="M1428.6 1496.33V1648.23L1296.94 1724.18V1572.28L1428.6 1496.33ZM1298.9 1574.55L1425.64 1647.66L1298.9 1720.78V1574.55ZM1426.63 1645.96L1299.89 1572.85L1426.63 1499.73V1645.96Z" fill="#D7D7D7"/>
<path fill-rule="evenodd" clip-rule="evenodd" d="M1169.21 1496.33V1648.23L1037.55 1724.18V1572.28L1169.21 1496.33ZM1039.51 1574.55L1166.26 1647.66L1039.51 1720.78V1574.55ZM1167.24 1645.96L1040.5 1572.85L1167.24 1499.73V1645.96Z" fill="#D7D7D7"/>
<path fill-rule="evenodd" clip-rule="evenodd" d="M909.821 1496.33V1648.23L778.162 1724.18V1572.28L909.821 1496.33ZM780.127 1574.55L906.869 1647.66L780.127 1720.78V1574.55ZM907.856 1645.96L781.114 1572.85L907.856 1499.73V1645.96Z" fill="#D7D7D7"/>
<path fill-rule="evenodd" clip-rule="evenodd" d="M650.433 1496.33V1648.23L518.775 1724.18V1572.28L650.433 1496.33ZM520.74 1574.55L647.482 1647.66L520.74 1720.78V1574.55ZM648.468 1645.96L521.726 1572.85L648.468 1499.73V1645.96Z" fill="#D7D7D7"/>
<path fill-rule="evenodd" clip-rule="evenodd" d="M391.046 1496.33V1648.23L259.387 1724.18V1572.28L391.046 1496.33ZM261.352 1574.55L388.094 1647.66L261.352 1720.78V1574.55ZM389.081 1645.96L262.339 1572.85L389.081 1499.73V1645.96Z" fill="#D7D7D7"/>
<path fill-rule="evenodd" clip-rule="evenodd" d="M131.659 1496.33V1648.23L0 1724.18V1572.28L131.659 1496.33ZM1.9651 1574.55L128.707 1647.66L1.9651 1720.78V1574.55ZM129.694 1645.96L2.95169 1572.85L129.694 1499.73V1645.96Z" fill="#D7D7D7"/>
<path fill-rule="evenodd" clip-rule="evenodd" d="M3242.34 1795.59L3115.6 1722.48L3242.34 1649.37V1795.59Z" fill="#D7D7D7"/>
<path fill-rule="evenodd" clip-rule="evenodd" d="M2982.95 1795.59L2856.21 1722.48L2982.95 1649.37V1795.59Z" fill="#D7D7D7"/>
<path fill-rule="evenodd" clip-rule="evenodd" d="M2723.57 1795.59L2596.82 1722.48L2723.57 1649.37V1795.59Z" fill="#D7D7D7"/>
<path fill-rule="evenodd" clip-rule="evenodd" d="M2464.18 1795.59L2337.44 1722.48L2464.18 1649.37V1795.59Z" fill="#D7D7D7"/>
<path fill-rule="evenodd" clip-rule="evenodd" d="M2204.79 1795.59L2078.05 1722.48L2204.79 1649.37V1795.59Z" fill="#D7D7D7"/>
<path fill-rule="evenodd" clip-rule="evenodd" d="M1945.41 1795.59L1818.66 1722.48L1945.41 1649.37V1795.59Z" fill="#D7D7D7"/>
<path fill-rule="evenodd" clip-rule="evenodd" d="M1686.02 1795.59L1559.28 1722.48L1686.02 1649.37V1795.59Z" fill="#D7D7D7"/>
<path fill-rule="evenodd" clip-rule="evenodd" d="M1426.63 1795.59L1299.89 1722.48L1426.63 1649.37V1795.59Z" fill="#D7D7D7"/>
<path fill-rule="evenodd" clip-rule="evenodd" d="M1167.24 1795.59L1040.5 1722.48L1167.24 1649.37V1795.59Z" fill="#D7D7D7"/>
<path fill-rule="evenodd" clip-rule="evenodd" d="M907.856 1795.59L781.114 1722.48L907.856 1649.37V1795.59Z" fill="#D7D7D7"/>
<path fill-rule="evenodd" clip-rule="evenodd" d="M648.468 1795.59L521.726 1722.48L648.468 1649.37V1795.59Z" fill="#D7D7D7"/>
<path fill-rule="evenodd" clip-rule="evenodd" d="M389.081 1795.59L262.339 1722.48L389.081 1649.37V1795.59Z" fill="#D7D7D7"/>
<path fill-rule="evenodd" clip-rule="evenodd" d="M129.694 1795.59L2.95169 1722.48L129.694 1649.37V1795.59Z" fill="#D7D7D7"/>
</g>
</svg>
