<svg width="2088" height="1113" viewBox="0 0 2088 1113" fill="none" xmlns="http://www.w3.org/2000/svg">
<g opacity="0.7">
<path fill-rule="evenodd" clip-rule="evenodd" d="M2007.74 2.10687L2086.17 47.3407L2007.74 92.5744V2.10687Z" fill="#D7D7D7"/>
<path fill-rule="evenodd" clip-rule="evenodd" d="M1847.22 2.10687L1925.65 47.3407L1847.22 92.5744V2.10687Z" fill="#D7D7D7"/>
<path fill-rule="evenodd" clip-rule="evenodd" d="M1686.7 2.10687L1765.13 47.3407L1686.7 92.5744V2.10687Z" fill="#D7D7D7"/>
<path fill-rule="evenodd" clip-rule="evenodd" d="M1526.17 2.10687L1604.61 47.3407L1526.17 92.5744V2.10687Z" fill="#D7D7D7"/>
<path fill-rule="evenodd" clip-rule="evenodd" d="M1365.65 2.10687L1444.09 47.3407L1365.65 92.5744V2.10687Z" fill="#D7D7D7"/>
<path fill-rule="evenodd" clip-rule="evenodd" d="M1205.13 2.10687L1283.56 47.3407L1205.13 92.5744V2.10687Z" fill="#D7D7D7"/>
<path fill-rule="evenodd" clip-rule="evenodd" d="M1044.61 2.10687L1123.04 47.3407L1044.61 92.5744V2.10687Z" fill="#D7D7D7"/>
<path fill-rule="evenodd" clip-rule="evenodd" d="M884.086 2.10687L962.52 47.3407L884.086 92.5744V2.10687Z" fill="#D7D7D7"/>
<path fill-rule="evenodd" clip-rule="evenodd" d="M723.564 2.10687L801.999 47.3407L723.564 92.5744V2.10687Z" fill="#D7D7D7"/>
<path fill-rule="evenodd" clip-rule="evenodd" d="M563.043 2.10687L641.477 47.3407L563.043 92.5744V2.10687Z" fill="#D7D7D7"/>
<path fill-rule="evenodd" clip-rule="evenodd" d="M402.521 2.10687L480.955 47.3407L402.521 92.5744V2.10687Z" fill="#D7D7D7"/>
<path fill-rule="evenodd" clip-rule="evenodd" d="M241.999 2.10687L320.433 47.3407L241.999 92.5744V2.10687Z" fill="#D7D7D7"/>
<path fill-rule="evenodd" clip-rule="evenodd" d="M81.477 2.10687L159.911 47.3407L81.477 92.5744V2.10687Z" fill="#D7D7D7"/>
<path fill-rule="evenodd" clip-rule="evenodd" d="M2007.74 0V93.98L1926.26 140.969V46.9885L2007.74 0ZM1927.48 48.3941L2005.91 93.6279L1927.48 138.862V48.3941ZM2006.52 92.5744L1928.09 47.3407L2006.52 2.10687V92.5744Z" fill="#D7D7D7"/>
<path fill-rule="evenodd" clip-rule="evenodd" d="M1847.22 0V93.98L1765.74 140.969V46.9885L1847.22 0ZM1766.96 48.3941L1845.39 93.6279L1766.96 138.862V48.3941ZM1846 92.5744L1767.57 47.3407L1846 2.10687V92.5744Z" fill="#D7D7D7"/>
<path fill-rule="evenodd" clip-rule="evenodd" d="M1686.7 0V93.98L1605.22 140.969V46.9885L1686.7 0ZM1606.43 48.3941L1684.87 93.6279L1606.43 138.862V48.3941ZM1685.48 92.5744L1607.05 47.3407L1685.48 2.10687V92.5744Z" fill="#D7D7D7"/>
<path fill-rule="evenodd" clip-rule="evenodd" d="M1526.17 0V93.98L1444.7 140.969V46.9885L1526.17 0ZM1445.91 48.3941L1524.35 93.6279L1445.91 138.862V48.3941ZM1524.96 92.5744L1446.52 47.3407L1524.96 2.10687V92.5744Z" fill="#D7D7D7"/>
<path fill-rule="evenodd" clip-rule="evenodd" d="M1365.65 0V93.98L1284.17 140.969V46.9885L1365.65 0ZM1285.39 48.3941L1363.83 93.6279L1285.39 138.862V48.3941ZM1364.44 92.5744L1286 47.3407L1364.44 2.10687V92.5744Z" fill="#D7D7D7"/>
<path fill-rule="evenodd" clip-rule="evenodd" d="M1205.13 0V93.98L1123.65 140.969V46.9885L1205.13 0ZM1124.87 48.3941L1203.3 93.6279L1124.87 138.862V48.3941ZM1203.91 92.5744L1125.48 47.3407L1203.91 2.10687V92.5744Z" fill="#D7D7D7"/>
<path fill-rule="evenodd" clip-rule="evenodd" d="M1044.61 0V93.98L963.131 140.969V46.9885L1044.61 0ZM964.347 48.3941L1042.78 93.6279L964.347 138.862V48.3941ZM1043.39 92.5744L964.958 47.3407L1043.39 2.10687V92.5744Z" fill="#D7D7D7"/>
<path fill-rule="evenodd" clip-rule="evenodd" d="M884.086 0V93.98L802.609 140.969V46.9885L884.086 0ZM803.825 48.3941L882.26 93.6279L803.825 138.862V48.3941ZM882.87 92.5744L804.436 47.3407L882.87 2.10687V92.5744Z" fill="#D7D7D7"/>
<path fill-rule="evenodd" clip-rule="evenodd" d="M723.564 0V93.98L642.087 140.969V46.9885L723.564 0ZM643.303 48.3941L721.738 93.6279L643.303 138.862V48.3941ZM722.348 92.5744L643.914 47.3407L722.348 2.10687V92.5744Z" fill="#D7D7D7"/>
<path fill-rule="evenodd" clip-rule="evenodd" d="M563.043 0V93.98L481.566 140.969V46.9885L563.043 0ZM482.782 48.3941L561.216 93.6279L482.782 138.862V48.3941ZM561.826 92.5744L483.392 47.3407L561.826 2.10687V92.5744Z" fill="#D7D7D7"/>
<path fill-rule="evenodd" clip-rule="evenodd" d="M402.521 0V93.98L321.044 140.969V46.9885L402.521 0ZM322.26 48.3941L400.694 93.6279L322.26 138.862V48.3941ZM401.305 92.5744L322.87 47.3407L401.305 2.10687V92.5744Z" fill="#D7D7D7"/>
<path fill-rule="evenodd" clip-rule="evenodd" d="M241.999 0V93.98L160.522 140.969V46.9885L241.999 0ZM161.738 48.3941L240.172 93.6279L161.738 138.862V48.3941ZM240.783 92.5744L162.349 47.3407L240.783 2.10687V92.5744Z" fill="#D7D7D7"/>
<path fill-rule="evenodd" clip-rule="evenodd" d="M81.477 0V93.98L0 140.969V46.9885L81.477 0ZM1.2161 48.3941L79.6504 93.6279L1.2161 138.862V48.3941ZM80.2609 92.5744L1.82665 47.3407L80.2609 2.10687V92.5744Z" fill="#D7D7D7"/>
<path fill-rule="evenodd" clip-rule="evenodd" d="M2088 46.2872V140.267L2006.52 187.256V93.2758L2088 46.2872ZM2007.74 94.6813L2086.17 139.915L2007.74 185.149V94.6813ZM2086.78 138.862L2008.35 93.6279L2086.78 48.3941V138.862Z" fill="#D7D7D7"/>
<path fill-rule="evenodd" clip-rule="evenodd" d="M1927.48 46.2872V140.267L1846 187.256V93.2758L1927.48 46.2872ZM1847.22 94.6813L1925.65 139.915L1847.22 185.149V94.6813ZM1926.26 138.862L1847.83 93.6279L1926.26 48.3941V138.862Z" fill="#D7D7D7"/>
<path fill-rule="evenodd" clip-rule="evenodd" d="M1766.96 46.2872V140.267L1685.48 187.256V93.2758L1766.96 46.2872ZM1686.7 94.6813L1765.13 139.915L1686.7 185.149V94.6813ZM1765.74 138.862L1687.31 93.6279L1765.74 48.3941V138.862Z" fill="#D7D7D7"/>
<path fill-rule="evenodd" clip-rule="evenodd" d="M1606.43 46.2872V140.267L1524.96 187.256V93.2758L1606.43 46.2872ZM1526.17 94.6813L1604.61 139.915L1526.17 185.149V94.6813ZM1605.22 138.862L1526.78 93.6279L1605.22 48.3941V138.862Z" fill="#D7D7D7"/>
<path fill-rule="evenodd" clip-rule="evenodd" d="M1445.91 46.2872V140.267L1364.44 187.256V93.2758L1445.91 46.2872ZM1365.65 94.6813L1444.09 139.915L1365.65 185.149V94.6813ZM1444.7 138.862L1366.26 93.6279L1444.7 48.3941V138.862Z" fill="#D7D7D7"/>
<path fill-rule="evenodd" clip-rule="evenodd" d="M1285.39 46.2872V140.267L1203.91 187.256V93.2758L1285.39 46.2872ZM1205.13 94.6813L1283.56 139.915L1205.13 185.149V94.6813ZM1284.17 138.862L1205.74 93.6279L1284.17 48.3941V138.862Z" fill="#D7D7D7"/>
<path fill-rule="evenodd" clip-rule="evenodd" d="M1124.87 46.2872V140.267L1043.39 187.256V93.2758L1124.87 46.2872ZM1044.61 94.6813L1123.04 139.915L1044.61 185.149V94.6813ZM1123.65 138.862L1045.22 93.6279L1123.65 48.3941V138.862Z" fill="#D7D7D7"/>
<path fill-rule="evenodd" clip-rule="evenodd" d="M964.347 46.2872V140.267L882.87 187.256V93.2758L964.347 46.2872ZM884.086 94.6813L962.52 139.915L884.086 185.149V94.6813ZM963.131 138.862L884.697 93.6279L963.131 48.3941V138.862Z" fill="#D7D7D7"/>
<path fill-rule="evenodd" clip-rule="evenodd" d="M803.825 46.2872V140.267L722.348 187.256V93.2758L803.825 46.2872ZM723.564 94.6813L801.999 139.915L723.564 185.149V94.6813ZM802.609 138.862L724.175 93.6279L802.609 48.3941V138.862Z" fill="#D7D7D7"/>
<path fill-rule="evenodd" clip-rule="evenodd" d="M643.303 46.2872V140.267L561.826 187.256V93.2758L643.303 46.2872ZM563.043 94.6813L641.477 139.915L563.043 185.149V94.6813ZM642.087 138.862L563.653 93.6279L642.087 48.3941V138.862Z" fill="#D7D7D7"/>
<path fill-rule="evenodd" clip-rule="evenodd" d="M482.782 46.2872V140.267L401.305 187.256V93.2758L482.782 46.2872ZM402.521 94.6813L480.955 139.915L402.521 185.149V94.6813ZM481.566 138.862L403.131 93.6279L481.566 48.3941V138.862Z" fill="#D7D7D7"/>
<path fill-rule="evenodd" clip-rule="evenodd" d="M322.26 46.2872V140.267L240.783 187.256V93.2758L322.26 46.2872ZM241.999 94.6813L320.433 139.915L241.999 185.149V94.6813ZM321.044 138.862L242.609 93.6279L321.044 48.3941V138.862Z" fill="#D7D7D7"/>
<path fill-rule="evenodd" clip-rule="evenodd" d="M161.738 46.2872V140.267L80.2609 187.256V93.2758L161.738 46.2872ZM81.477 94.6813L159.911 139.915L81.477 185.149V94.6813ZM160.522 138.862L82.0876 93.6279L160.522 48.3941V138.862Z" fill="#D7D7D7"/>
<path fill-rule="evenodd" clip-rule="evenodd" d="M2007.74 92.5744V186.554L1926.26 233.543V139.563L2007.74 92.5744ZM1927.48 140.969L2005.91 186.202L1927.48 231.436V140.969ZM2006.52 185.149L1928.09 139.915L2006.52 94.6813V185.149Z" fill="#D7D7D7"/>
<path fill-rule="evenodd" clip-rule="evenodd" d="M1847.22 92.5744V186.554L1765.74 233.543V139.563L1847.22 92.5744ZM1766.96 140.969L1845.39 186.202L1766.96 231.436V140.969ZM1846 185.149L1767.57 139.915L1846 94.6813V185.149Z" fill="#D7D7D7"/>
<path fill-rule="evenodd" clip-rule="evenodd" d="M1686.7 92.5744V186.554L1605.22 233.543V139.563L1686.7 92.5744ZM1606.43 140.969L1684.87 186.202L1606.43 231.436V140.969ZM1685.48 185.149L1607.05 139.915L1685.48 94.6813V185.149Z" fill="#D7D7D7"/>
<path fill-rule="evenodd" clip-rule="evenodd" d="M1526.17 92.5744V186.554L1444.7 233.543V139.563L1526.17 92.5744ZM1445.91 140.969L1524.35 186.202L1445.91 231.436V140.969ZM1524.96 185.149L1446.52 139.915L1524.96 94.6813V185.149Z" fill="#D7D7D7"/>
<path fill-rule="evenodd" clip-rule="evenodd" d="M1365.65 92.5744V186.554L1284.17 233.543V139.563L1365.65 92.5744ZM1285.39 140.969L1363.83 186.202L1285.39 231.436V140.969ZM1364.44 185.149L1286 139.915L1364.44 94.6813V185.149Z" fill="#D7D7D7"/>
<path fill-rule="evenodd" clip-rule="evenodd" d="M1205.13 92.5744V186.554L1123.65 233.543V139.563L1205.13 92.5744ZM1124.87 140.969L1203.3 186.202L1124.87 231.436V140.969ZM1203.91 185.149L1125.48 139.915L1203.91 94.6813V185.149Z" fill="#D7D7D7"/>
<path fill-rule="evenodd" clip-rule="evenodd" d="M1044.61 92.5744V186.554L963.131 233.543V139.563L1044.61 92.5744ZM964.347 140.969L1042.78 186.202L964.347 231.436V140.969ZM1043.39 185.149L964.958 139.915L1043.39 94.6813V185.149Z" fill="#D7D7D7"/>
<path fill-rule="evenodd" clip-rule="evenodd" d="M884.086 92.5744V186.554L802.609 233.543V139.563L884.086 92.5744ZM803.825 140.969L882.26 186.202L803.825 231.436V140.969ZM882.87 185.149L804.436 139.915L882.87 94.6813V185.149Z" fill="#D7D7D7"/>
<path fill-rule="evenodd" clip-rule="evenodd" d="M723.564 92.5744V186.554L642.087 233.543V139.563L723.564 92.5744ZM643.303 140.969L721.738 186.202L643.303 231.436V140.969ZM722.348 185.149L643.914 139.915L722.348 94.6813V185.149Z" fill="#D7D7D7"/>
<path fill-rule="evenodd" clip-rule="evenodd" d="M563.043 92.5744V186.554L481.566 233.543V139.563L563.043 92.5744ZM482.782 140.969L561.216 186.202L482.782 231.436V140.969ZM561.826 185.149L483.392 139.915L561.826 94.6813V185.149Z" fill="#D7D7D7"/>
<path fill-rule="evenodd" clip-rule="evenodd" d="M402.521 92.5744V186.554L321.044 233.543V139.563L402.521 92.5744ZM322.26 140.969L400.694 186.202L322.26 231.436V140.969ZM401.305 185.149L322.87 139.915L401.305 94.6813V185.149Z" fill="#D7D7D7"/>
<path fill-rule="evenodd" clip-rule="evenodd" d="M241.999 92.5744V186.554L160.522 233.543V139.563L241.999 92.5744ZM161.738 140.969L240.172 186.202L161.738 231.436V140.969ZM240.783 185.149L162.349 139.915L240.783 94.6813V185.149Z" fill="#D7D7D7"/>
<path fill-rule="evenodd" clip-rule="evenodd" d="M81.477 92.5744V186.554L0 233.543V139.563L81.477 92.5744ZM1.2161 140.969L79.6504 186.202L1.2161 231.436V140.969ZM80.2609 185.149L1.82665 139.915L80.2609 94.6813V185.149Z" fill="#D7D7D7"/>
<path fill-rule="evenodd" clip-rule="evenodd" d="M2088 138.862V232.842L2006.52 279.83V185.85L2088 138.862ZM2007.74 187.256L2086.17 232.49L2007.74 277.723V187.256ZM2086.78 231.436L2008.35 186.202L2086.78 140.969V231.436Z" fill="#D7D7D7"/>
<path fill-rule="evenodd" clip-rule="evenodd" d="M1927.48 138.862V232.842L1846 279.83V185.85L1927.48 138.862ZM1847.22 187.256L1925.65 232.49L1847.22 277.723V187.256ZM1926.26 231.436L1847.83 186.202L1926.26 140.969V231.436Z" fill="#D7D7D7"/>
<path fill-rule="evenodd" clip-rule="evenodd" d="M1766.96 138.862V232.842L1685.48 279.83V185.85L1766.96 138.862ZM1686.7 187.256L1765.13 232.49L1686.7 277.723V187.256ZM1765.74 231.436L1687.31 186.202L1765.74 140.969V231.436Z" fill="#D7D7D7"/>
<path fill-rule="evenodd" clip-rule="evenodd" d="M1606.43 138.862V232.842L1524.96 279.83V185.85L1606.43 138.862ZM1526.17 187.256L1604.61 232.49L1526.17 277.723V187.256ZM1605.22 231.436L1526.78 186.202L1605.22 140.969V231.436Z" fill="#D7D7D7"/>
<path fill-rule="evenodd" clip-rule="evenodd" d="M1445.91 138.862V232.842L1364.44 279.83V185.85L1445.91 138.862ZM1365.65 187.256L1444.09 232.49L1365.65 277.723V187.256ZM1444.7 231.436L1366.26 186.202L1444.7 140.969V231.436Z" fill="#D7D7D7"/>
<path fill-rule="evenodd" clip-rule="evenodd" d="M1285.39 138.862V232.842L1203.91 279.83V185.85L1285.39 138.862ZM1205.13 187.256L1283.56 232.49L1205.13 277.723V187.256ZM1284.17 231.436L1205.74 186.202L1284.17 140.969V231.436Z" fill="#D7D7D7"/>
<path fill-rule="evenodd" clip-rule="evenodd" d="M1124.87 138.862V232.842L1043.39 279.83V185.85L1124.87 138.862ZM1044.61 187.256L1123.04 232.49L1044.61 277.723V187.256ZM1123.65 231.436L1045.22 186.202L1123.65 140.969V231.436Z" fill="#D7D7D7"/>
<path fill-rule="evenodd" clip-rule="evenodd" d="M964.347 138.862V232.842L882.87 279.83V185.85L964.347 138.862ZM884.086 187.256L962.52 232.49L884.086 277.723V187.256ZM963.131 231.436L884.697 186.202L963.131 140.969V231.436Z" fill="#D7D7D7"/>
<path fill-rule="evenodd" clip-rule="evenodd" d="M803.825 138.862V232.842L722.348 279.83V185.85L803.825 138.862ZM723.564 187.256L801.999 232.49L723.564 277.723V187.256ZM802.609 231.436L724.175 186.202L802.609 140.969V231.436Z" fill="#D7D7D7"/>
<path fill-rule="evenodd" clip-rule="evenodd" d="M643.303 138.862V232.842L561.826 279.83V185.85L643.303 138.862ZM563.043 187.256L641.477 232.49L563.043 277.723V187.256ZM642.087 231.436L563.653 186.202L642.087 140.969V231.436Z" fill="#D7D7D7"/>
<path fill-rule="evenodd" clip-rule="evenodd" d="M482.782 138.862V232.842L401.305 279.83V185.85L482.782 138.862ZM402.521 187.256L480.955 232.49L402.521 277.723V187.256ZM481.566 231.436L403.131 186.202L481.566 140.969V231.436Z" fill="#D7D7D7"/>
<path fill-rule="evenodd" clip-rule="evenodd" d="M322.26 138.862V232.842L240.783 279.83V185.85L322.26 138.862ZM241.999 187.256L320.433 232.49L241.999 277.723V187.256ZM321.044 231.436L242.609 186.202L321.044 140.969V231.436Z" fill="#D7D7D7"/>
<path fill-rule="evenodd" clip-rule="evenodd" d="M161.738 138.862V232.842L80.2609 279.83V185.85L161.738 138.862ZM81.477 187.256L159.911 232.49L81.477 277.723V187.256ZM160.522 231.436L82.0876 186.202L160.522 140.969V231.436Z" fill="#D7D7D7"/>
<path fill-rule="evenodd" clip-rule="evenodd" d="M2007.74 185.149V279.129L1926.26 326.117V232.137L2007.74 185.149ZM1927.48 233.543L2005.91 278.777L1927.48 324.011V233.543ZM2006.52 277.723L1928.09 232.49L2006.52 187.256V277.723Z" fill="#D7D7D7"/>
<path fill-rule="evenodd" clip-rule="evenodd" d="M1847.22 185.149V279.129L1765.74 326.117V232.137L1847.22 185.149ZM1766.96 233.543L1845.39 278.777L1766.96 324.011V233.543ZM1846 277.723L1767.57 232.49L1846 187.256V277.723Z" fill="#D7D7D7"/>
<path fill-rule="evenodd" clip-rule="evenodd" d="M1686.7 185.149V279.129L1605.22 326.117V232.137L1686.7 185.149ZM1606.43 233.543L1684.87 278.777L1606.43 324.011V233.543ZM1685.48 277.723L1607.05 232.49L1685.48 187.256V277.723Z" fill="#D7D7D7"/>
<path fill-rule="evenodd" clip-rule="evenodd" d="M1526.17 185.149V279.129L1444.7 326.117V232.137L1526.17 185.149ZM1445.91 233.543L1524.35 278.777L1445.91 324.011V233.543ZM1524.96 277.723L1446.52 232.49L1524.96 187.256V277.723Z" fill="#D7D7D7"/>
<path fill-rule="evenodd" clip-rule="evenodd" d="M1365.65 185.149V279.129L1284.17 326.117V232.137L1365.65 185.149ZM1285.39 233.543L1363.83 278.777L1285.39 324.011V233.543ZM1364.44 277.723L1286 232.49L1364.44 187.256V277.723Z" fill="#D7D7D7"/>
<path fill-rule="evenodd" clip-rule="evenodd" d="M1205.13 185.149V279.129L1123.65 326.117V232.137L1205.13 185.149ZM1124.87 233.543L1203.3 278.777L1124.87 324.011V233.543ZM1203.91 277.723L1125.48 232.49L1203.91 187.256V277.723Z" fill="#D7D7D7"/>
<path fill-rule="evenodd" clip-rule="evenodd" d="M1044.61 185.149V279.129L963.131 326.117V232.137L1044.61 185.149ZM964.347 233.543L1042.78 278.777L964.347 324.011V233.543ZM1043.39 277.723L964.958 232.49L1043.39 187.256V277.723Z" fill="#D7D7D7"/>
<path fill-rule="evenodd" clip-rule="evenodd" d="M884.086 185.149V279.129L802.609 326.117V232.137L884.086 185.149ZM803.825 233.543L882.26 278.777L803.825 324.011V233.543ZM882.87 277.723L804.436 232.49L882.87 187.256V277.723Z" fill="#D7D7D7"/>
<path fill-rule="evenodd" clip-rule="evenodd" d="M723.564 185.149V279.129L642.087 326.117V232.137L723.564 185.149ZM643.303 233.543L721.738 278.777L643.303 324.011V233.543ZM722.348 277.723L643.914 232.49L722.348 187.256V277.723Z" fill="#D7D7D7"/>
<path fill-rule="evenodd" clip-rule="evenodd" d="M563.043 185.149V279.129L481.566 326.117V232.137L563.043 185.149ZM482.782 233.543L561.216 278.777L482.782 324.011V233.543ZM561.826 277.723L483.392 232.49L561.826 187.256V277.723Z" fill="#D7D7D7"/>
<path fill-rule="evenodd" clip-rule="evenodd" d="M402.521 185.149V279.129L321.044 326.117V232.137L402.521 185.149ZM322.26 233.543L400.694 278.777L322.26 324.011V233.543ZM401.305 277.723L322.87 232.49L401.305 187.256V277.723Z" fill="#D7D7D7"/>
<path fill-rule="evenodd" clip-rule="evenodd" d="M241.999 185.149V279.129L160.522 326.117V232.137L241.999 185.149ZM161.738 233.543L240.172 278.777L161.738 324.011V233.543ZM240.783 277.723L162.349 232.49L240.783 187.256V277.723Z" fill="#D7D7D7"/>
<path fill-rule="evenodd" clip-rule="evenodd" d="M81.477 185.149V279.129L0 326.117V232.137L81.477 185.149ZM1.2161 233.543L79.6504 278.777L1.2161 324.011V233.543ZM80.2609 277.723L1.82665 232.49L80.2609 187.256V277.723Z" fill="#D7D7D7"/>
<path fill-rule="evenodd" clip-rule="evenodd" d="M2088 231.436V325.416L2006.52 372.405V278.425L2088 231.436ZM2007.74 279.83L2086.17 325.064L2007.74 370.298V279.83ZM2086.78 324.011L2008.35 278.777L2086.78 233.543V324.011Z" fill="#D7D7D7"/>
<path fill-rule="evenodd" clip-rule="evenodd" d="M1927.48 231.436V325.416L1846 372.405V278.425L1927.48 231.436ZM1847.22 279.83L1925.65 325.064L1847.22 370.298V279.83ZM1926.26 324.011L1847.83 278.777L1926.26 233.543V324.011Z" fill="#D7D7D7"/>
<path fill-rule="evenodd" clip-rule="evenodd" d="M1766.96 231.436V325.416L1685.48 372.405V278.425L1766.96 231.436ZM1686.7 279.83L1765.13 325.064L1686.7 370.298V279.83ZM1765.74 324.011L1687.31 278.777L1765.74 233.543V324.011Z" fill="#D7D7D7"/>
<path fill-rule="evenodd" clip-rule="evenodd" d="M1606.43 231.436V325.416L1524.96 372.405V278.425L1606.43 231.436ZM1526.17 279.83L1604.61 325.064L1526.17 370.298V279.83ZM1605.22 324.011L1526.78 278.777L1605.22 233.543V324.011Z" fill="#D7D7D7"/>
<path fill-rule="evenodd" clip-rule="evenodd" d="M1445.91 231.436V325.416L1364.44 372.405V278.425L1445.91 231.436ZM1365.65 279.83L1444.09 325.064L1365.65 370.298V279.83ZM1444.7 324.011L1366.26 278.777L1444.7 233.543V324.011Z" fill="#D7D7D7"/>
<path fill-rule="evenodd" clip-rule="evenodd" d="M1285.39 231.436V325.416L1203.91 372.405V278.425L1285.39 231.436ZM1205.13 279.83L1283.56 325.064L1205.13 370.298V279.83ZM1284.17 324.011L1205.74 278.777L1284.17 233.543V324.011Z" fill="#D7D7D7"/>
<path fill-rule="evenodd" clip-rule="evenodd" d="M1124.87 231.436V325.416L1043.39 372.405V278.425L1124.87 231.436ZM1044.61 279.83L1123.04 325.064L1044.61 370.298V279.83ZM1123.65 324.011L1045.22 278.777L1123.65 233.543V324.011Z" fill="#D7D7D7"/>
<path fill-rule="evenodd" clip-rule="evenodd" d="M964.347 231.436V325.416L882.87 372.405V278.425L964.347 231.436ZM884.086 279.83L962.52 325.064L884.086 370.298V279.83ZM963.131 324.011L884.697 278.777L963.131 233.543V324.011Z" fill="#D7D7D7"/>
<path fill-rule="evenodd" clip-rule="evenodd" d="M803.825 231.436V325.416L722.348 372.405V278.425L803.825 231.436ZM723.564 279.83L801.999 325.064L723.564 370.298V279.83ZM802.609 324.011L724.175 278.777L802.609 233.543V324.011Z" fill="#D7D7D7"/>
<path fill-rule="evenodd" clip-rule="evenodd" d="M643.303 231.436V325.416L561.826 372.405V278.425L643.303 231.436ZM563.043 279.83L641.477 325.064L563.043 370.298V279.83ZM642.087 324.011L563.653 278.777L642.087 233.543V324.011Z" fill="#D7D7D7"/>
<path fill-rule="evenodd" clip-rule="evenodd" d="M482.782 231.436V325.416L401.305 372.405V278.425L482.782 231.436ZM402.521 279.83L480.955 325.064L402.521 370.298V279.83ZM481.566 324.011L403.131 278.777L481.566 233.543V324.011Z" fill="#D7D7D7"/>
<path fill-rule="evenodd" clip-rule="evenodd" d="M322.26 231.436V325.416L240.783 372.405V278.425L322.26 231.436ZM241.999 279.83L320.433 325.064L241.999 370.298V279.83ZM321.044 324.011L242.609 278.777L321.044 233.543V324.011Z" fill="#D7D7D7"/>
<path fill-rule="evenodd" clip-rule="evenodd" d="M161.738 231.436V325.416L80.2609 372.405V278.425L161.738 231.436ZM81.477 279.83L159.911 325.064L81.477 370.298V279.83ZM160.522 324.011L82.0876 278.777L160.522 233.543V324.011Z" fill="#D7D7D7"/>
<path fill-rule="evenodd" clip-rule="evenodd" d="M2007.74 277.723V371.703L1926.26 418.692V324.712L2007.74 277.723ZM1927.48 326.117L2005.91 371.351L1927.48 416.585V326.117ZM2006.52 370.298L1928.09 325.064L2006.52 279.83V370.298Z" fill="#D7D7D7"/>
<path fill-rule="evenodd" clip-rule="evenodd" d="M1847.22 277.723V371.703L1765.74 418.692V324.712L1847.22 277.723ZM1766.96 326.117L1845.39 371.351L1766.96 416.585V326.117ZM1846 370.298L1767.57 325.064L1846 279.83V370.298Z" fill="#D7D7D7"/>
<path fill-rule="evenodd" clip-rule="evenodd" d="M1686.7 277.723V371.703L1605.22 418.692V324.712L1686.7 277.723ZM1606.43 326.117L1684.87 371.351L1606.43 416.585V326.117ZM1685.48 370.298L1607.05 325.064L1685.48 279.83V370.298Z" fill="#D7D7D7"/>
<path fill-rule="evenodd" clip-rule="evenodd" d="M1526.17 277.723V371.703L1444.7 418.692V324.712L1526.17 277.723ZM1445.91 326.117L1524.35 371.351L1445.91 416.585V326.117ZM1524.96 370.298L1446.52 325.064L1524.96 279.83V370.298Z" fill="#D7D7D7"/>
<path fill-rule="evenodd" clip-rule="evenodd" d="M1365.65 277.723V371.703L1284.17 418.692V324.712L1365.65 277.723ZM1285.39 326.117L1363.83 371.351L1285.39 416.585V326.117ZM1364.44 370.298L1286 325.064L1364.44 279.83V370.298Z" fill="#D7D7D7"/>
<path fill-rule="evenodd" clip-rule="evenodd" d="M1205.13 277.723V371.703L1123.65 418.692V324.712L1205.13 277.723ZM1124.87 326.117L1203.3 371.351L1124.87 416.585V326.117ZM1203.91 370.298L1125.48 325.064L1203.91 279.83V370.298Z" fill="#D7D7D7"/>
<path fill-rule="evenodd" clip-rule="evenodd" d="M1044.61 277.723V371.703L963.131 418.692V324.712L1044.61 277.723ZM964.347 326.117L1042.78 371.351L964.347 416.585V326.117ZM1043.39 370.298L964.958 325.064L1043.39 279.83V370.298Z" fill="#D7D7D7"/>
<path fill-rule="evenodd" clip-rule="evenodd" d="M884.086 277.723V371.703L802.609 418.692V324.712L884.086 277.723ZM803.825 326.117L882.26 371.351L803.825 416.585V326.117ZM882.87 370.298L804.436 325.064L882.87 279.83V370.298Z" fill="#D7D7D7"/>
<path fill-rule="evenodd" clip-rule="evenodd" d="M723.564 277.723V371.703L642.087 418.692V324.712L723.564 277.723ZM643.303 326.117L721.738 371.351L643.303 416.585V326.117ZM722.348 370.298L643.914 325.064L722.348 279.83V370.298Z" fill="#D7D7D7"/>
<path fill-rule="evenodd" clip-rule="evenodd" d="M563.043 277.723V371.703L481.566 418.692V324.712L563.043 277.723ZM482.782 326.117L561.216 371.351L482.782 416.585V326.117ZM561.826 370.298L483.392 325.064L561.826 279.83V370.298Z" fill="#D7D7D7"/>
<path fill-rule="evenodd" clip-rule="evenodd" d="M402.521 277.723V371.703L321.044 418.692V324.712L402.521 277.723ZM322.26 326.117L400.694 371.351L322.26 416.585V326.117ZM401.305 370.298L322.87 325.064L401.305 279.83V370.298Z" fill="#D7D7D7"/>
<path fill-rule="evenodd" clip-rule="evenodd" d="M241.999 277.723V371.703L160.522 418.692V324.712L241.999 277.723ZM161.738 326.117L240.172 371.351L161.738 416.585V326.117ZM240.783 370.298L162.349 325.064L240.783 279.83V370.298Z" fill="#D7D7D7"/>
<path fill-rule="evenodd" clip-rule="evenodd" d="M81.477 277.723V371.703L0 418.692V324.712L81.477 277.723ZM1.2161 326.117L79.6504 371.351L1.2161 416.585V326.117ZM80.2609 370.298L1.82665 325.064L80.2609 279.83V370.298Z" fill="#D7D7D7"/>
<path fill-rule="evenodd" clip-rule="evenodd" d="M2088 324.011V417.991L2006.52 464.979V370.999L2088 324.011ZM2007.74 372.405L2086.17 417.638L2007.74 462.872V372.405ZM2086.78 416.585L2008.35 371.351L2086.78 326.117V416.585Z" fill="#D7D7D7"/>
<path fill-rule="evenodd" clip-rule="evenodd" d="M1927.48 324.011V417.991L1846 464.979V370.999L1927.48 324.011ZM1847.22 372.405L1925.65 417.638L1847.22 462.872V372.405ZM1926.26 416.585L1847.83 371.351L1926.26 326.117V416.585Z" fill="#D7D7D7"/>
<path fill-rule="evenodd" clip-rule="evenodd" d="M1766.96 324.011V417.991L1685.48 464.979V370.999L1766.96 324.011ZM1686.7 372.405L1765.13 417.638L1686.7 462.872V372.405ZM1765.74 416.585L1687.31 371.351L1765.74 326.117V416.585Z" fill="#D7D7D7"/>
<path fill-rule="evenodd" clip-rule="evenodd" d="M1606.43 324.011V417.991L1524.96 464.979V370.999L1606.43 324.011ZM1526.17 372.405L1604.61 417.638L1526.17 462.872V372.405ZM1605.22 416.585L1526.78 371.351L1605.22 326.117V416.585Z" fill="#D7D7D7"/>
<path fill-rule="evenodd" clip-rule="evenodd" d="M1445.91 324.011V417.991L1364.44 464.979V370.999L1445.91 324.011ZM1365.65 372.405L1444.09 417.638L1365.65 462.872V372.405ZM1444.7 416.585L1366.26 371.351L1444.7 326.117V416.585Z" fill="#D7D7D7"/>
<path fill-rule="evenodd" clip-rule="evenodd" d="M1285.39 324.011V417.991L1203.91 464.979V370.999L1285.39 324.011ZM1205.13 372.405L1283.56 417.638L1205.13 462.872V372.405ZM1284.17 416.585L1205.74 371.351L1284.17 326.117V416.585Z" fill="#D7D7D7"/>
<path fill-rule="evenodd" clip-rule="evenodd" d="M1124.87 324.011V417.991L1043.39 464.979V370.999L1124.87 324.011ZM1044.61 372.405L1123.04 417.638L1044.61 462.872V372.405ZM1123.65 416.585L1045.22 371.351L1123.65 326.117V416.585Z" fill="#D7D7D7"/>
<path fill-rule="evenodd" clip-rule="evenodd" d="M964.347 324.011V417.991L882.87 464.979V370.999L964.347 324.011ZM884.086 372.405L962.52 417.638L884.086 462.872V372.405ZM963.131 416.585L884.697 371.351L963.131 326.117V416.585Z" fill="#D7D7D7"/>
<path fill-rule="evenodd" clip-rule="evenodd" d="M803.825 324.011V417.991L722.348 464.979V370.999L803.825 324.011ZM723.564 372.405L801.999 417.638L723.564 462.872V372.405ZM802.609 416.585L724.175 371.351L802.609 326.117V416.585Z" fill="#D7D7D7"/>
<path fill-rule="evenodd" clip-rule="evenodd" d="M643.303 324.011V417.991L561.826 464.979V370.999L643.303 324.011ZM563.043 372.405L641.477 417.638L563.043 462.872V372.405ZM642.087 416.585L563.653 371.351L642.087 326.117V416.585Z" fill="#D7D7D7"/>
<path fill-rule="evenodd" clip-rule="evenodd" d="M482.782 324.011V417.991L401.305 464.979V370.999L482.782 324.011ZM402.521 372.405L480.955 417.638L402.521 462.872V372.405ZM481.566 416.585L403.131 371.351L481.566 326.117V416.585Z" fill="#D7D7D7"/>
<path fill-rule="evenodd" clip-rule="evenodd" d="M322.26 324.011V417.991L240.783 464.979V370.999L322.26 324.011ZM241.999 372.405L320.433 417.638L241.999 462.872V372.405ZM321.044 416.585L242.609 371.351L321.044 326.117V416.585Z" fill="#D7D7D7"/>
<path fill-rule="evenodd" clip-rule="evenodd" d="M161.738 324.011V417.991L80.2609 464.979V370.999L161.738 324.011ZM81.477 372.405L159.911 417.638L81.477 462.872V372.405ZM160.522 416.585L82.0876 371.351L160.522 326.117V416.585Z" fill="#D7D7D7"/>
<path fill-rule="evenodd" clip-rule="evenodd" d="M2007.74 370.298V464.278L1926.26 511.266V417.286L2007.74 370.298ZM1927.48 418.692L2005.91 463.926L1927.48 509.159V418.692ZM2006.52 462.872L1928.09 417.638L2006.52 372.405V462.872Z" fill="#D7D7D7"/>
<path fill-rule="evenodd" clip-rule="evenodd" d="M1847.22 370.298V464.278L1765.74 511.266V417.286L1847.22 370.298ZM1766.96 418.692L1845.39 463.926L1766.96 509.159V418.692ZM1846 462.872L1767.57 417.638L1846 372.405V462.872Z" fill="#D7D7D7"/>
<path fill-rule="evenodd" clip-rule="evenodd" d="M1686.7 370.298V464.278L1605.22 511.266V417.286L1686.7 370.298ZM1606.43 418.692L1684.87 463.926L1606.43 509.159V418.692ZM1685.48 462.872L1607.05 417.638L1685.48 372.405V462.872Z" fill="#D7D7D7"/>
<path fill-rule="evenodd" clip-rule="evenodd" d="M1526.17 370.298V464.278L1444.7 511.266V417.286L1526.17 370.298ZM1445.91 418.692L1524.35 463.926L1445.91 509.159V418.692ZM1524.96 462.872L1446.52 417.638L1524.96 372.405V462.872Z" fill="#D7D7D7"/>
<path fill-rule="evenodd" clip-rule="evenodd" d="M1365.65 370.298V464.278L1284.17 511.266V417.286L1365.65 370.298ZM1285.39 418.692L1363.83 463.926L1285.39 509.159V418.692ZM1364.44 462.872L1286 417.638L1364.44 372.405V462.872Z" fill="#D7D7D7"/>
<path fill-rule="evenodd" clip-rule="evenodd" d="M1205.13 370.298V464.278L1123.65 511.266V417.286L1205.13 370.298ZM1124.87 418.692L1203.3 463.926L1124.87 509.159V418.692ZM1203.91 462.872L1125.48 417.638L1203.91 372.405V462.872Z" fill="#D7D7D7"/>
<path fill-rule="evenodd" clip-rule="evenodd" d="M1044.61 370.298V464.278L963.131 511.266V417.286L1044.61 370.298ZM964.347 418.692L1042.78 463.926L964.347 509.159V418.692ZM1043.39 462.872L964.958 417.638L1043.39 372.405V462.872Z" fill="#D7D7D7"/>
<path fill-rule="evenodd" clip-rule="evenodd" d="M884.086 370.298V464.278L802.609 511.266V417.286L884.086 370.298ZM803.825 418.692L882.26 463.926L803.825 509.159V418.692ZM882.87 462.872L804.436 417.638L882.87 372.405V462.872Z" fill="#D7D7D7"/>
<path fill-rule="evenodd" clip-rule="evenodd" d="M723.564 370.298V464.278L642.087 511.266V417.286L723.564 370.298ZM643.303 418.692L721.738 463.926L643.303 509.159V418.692ZM722.348 462.872L643.914 417.638L722.348 372.405V462.872Z" fill="#D7D7D7"/>
<path fill-rule="evenodd" clip-rule="evenodd" d="M563.043 370.298V464.278L481.566 511.266V417.286L563.043 370.298ZM482.782 418.692L561.216 463.926L482.782 509.159V418.692ZM561.826 462.872L483.392 417.638L561.826 372.405V462.872Z" fill="#D7D7D7"/>
<path fill-rule="evenodd" clip-rule="evenodd" d="M402.521 370.298V464.278L321.044 511.266V417.286L402.521 370.298ZM322.26 418.692L400.694 463.926L322.26 509.159V418.692ZM401.305 462.872L322.87 417.638L401.305 372.405V462.872Z" fill="#D7D7D7"/>
<path fill-rule="evenodd" clip-rule="evenodd" d="M241.999 370.298V464.278L160.522 511.266V417.286L241.999 370.298ZM161.738 418.692L240.172 463.926L161.738 509.159V418.692ZM240.783 462.872L162.349 417.638L240.783 372.405V462.872Z" fill="#D7D7D7"/>
<path fill-rule="evenodd" clip-rule="evenodd" d="M81.477 370.298V464.278L0 511.266V417.286L81.477 370.298ZM1.2161 418.692L79.6504 463.926L1.2161 509.159V418.692ZM80.2609 462.872L1.82665 417.638L80.2609 372.405V462.872Z" fill="#D7D7D7"/>
<path fill-rule="evenodd" clip-rule="evenodd" d="M2088 416.585V510.565L2006.52 557.554V463.574L2088 416.585ZM2007.74 464.979L2086.17 510.213L2007.74 555.447V464.979ZM2086.78 509.159L2008.35 463.926L2086.78 418.692V509.159Z" fill="#D7D7D7"/>
<path fill-rule="evenodd" clip-rule="evenodd" d="M1927.48 416.585V510.565L1846 557.554V463.574L1927.48 416.585ZM1847.22 464.979L1925.65 510.213L1847.22 555.447V464.979ZM1926.26 509.159L1847.83 463.926L1926.26 418.692V509.159Z" fill="#D7D7D7"/>
<path fill-rule="evenodd" clip-rule="evenodd" d="M1766.96 416.585V510.565L1685.48 557.554V463.574L1766.96 416.585ZM1686.7 464.979L1765.13 510.213L1686.7 555.447V464.979ZM1765.74 509.159L1687.31 463.926L1765.74 418.692V509.159Z" fill="#D7D7D7"/>
<path fill-rule="evenodd" clip-rule="evenodd" d="M1606.43 416.585V510.565L1524.96 557.554V463.574L1606.43 416.585ZM1526.17 464.979L1604.61 510.213L1526.17 555.447V464.979ZM1605.22 509.159L1526.78 463.926L1605.22 418.692V509.159Z" fill="#D7D7D7"/>
<path fill-rule="evenodd" clip-rule="evenodd" d="M1445.91 416.585V510.565L1364.44 557.554V463.574L1445.91 416.585ZM1365.65 464.979L1444.09 510.213L1365.65 555.447V464.979ZM1444.7 509.159L1366.26 463.926L1444.7 418.692V509.159Z" fill="#D7D7D7"/>
<path fill-rule="evenodd" clip-rule="evenodd" d="M1285.39 416.585V510.565L1203.91 557.554V463.574L1285.39 416.585ZM1205.13 464.979L1283.56 510.213L1205.13 555.447V464.979ZM1284.17 509.159L1205.74 463.926L1284.17 418.692V509.159Z" fill="#D7D7D7"/>
<path fill-rule="evenodd" clip-rule="evenodd" d="M1124.87 416.585V510.565L1043.39 557.554V463.574L1124.87 416.585ZM1044.61 464.979L1123.04 510.213L1044.61 555.447V464.979ZM1123.65 509.159L1045.22 463.926L1123.65 418.692V509.159Z" fill="#D7D7D7"/>
<path fill-rule="evenodd" clip-rule="evenodd" d="M964.347 416.585V510.565L882.87 557.554V463.574L964.347 416.585ZM884.086 464.979L962.52 510.213L884.086 555.447V464.979ZM963.131 509.159L884.697 463.926L963.131 418.692V509.159Z" fill="#D7D7D7"/>
<path fill-rule="evenodd" clip-rule="evenodd" d="M803.825 416.585V510.565L722.348 557.554V463.574L803.825 416.585ZM723.564 464.979L801.999 510.213L723.564 555.447V464.979ZM802.609 509.159L724.175 463.926L802.609 418.692V509.159Z" fill="#D7D7D7"/>
<path fill-rule="evenodd" clip-rule="evenodd" d="M643.303 416.585V510.565L561.826 557.554V463.574L643.303 416.585ZM563.043 464.979L641.477 510.213L563.043 555.447V464.979ZM642.087 509.159L563.653 463.926L642.087 418.692V509.159Z" fill="#D7D7D7"/>
<path fill-rule="evenodd" clip-rule="evenodd" d="M482.782 416.585V510.565L401.305 557.554V463.574L482.782 416.585ZM402.521 464.979L480.955 510.213L402.521 555.447V464.979ZM481.566 509.159L403.131 463.926L481.566 418.692V509.159Z" fill="#D7D7D7"/>
<path fill-rule="evenodd" clip-rule="evenodd" d="M322.26 416.585V510.565L240.783 557.554V463.574L322.26 416.585ZM241.999 464.979L320.433 510.213L241.999 555.447V464.979ZM321.044 509.159L242.609 463.926L321.044 418.692V509.159Z" fill="#D7D7D7"/>
<path fill-rule="evenodd" clip-rule="evenodd" d="M161.738 416.585V510.565L80.2609 557.554V463.574L161.738 416.585ZM81.477 464.979L159.911 510.213L81.477 555.447V464.979ZM160.522 509.159L82.0876 463.926L160.522 418.692V509.159Z" fill="#D7D7D7"/>
<path fill-rule="evenodd" clip-rule="evenodd" d="M2088 509.159V603.139L2006.52 650.128V556.148L2088 509.159ZM2007.74 557.554L2086.17 602.787L2007.74 648.021V557.554ZM2086.78 601.734L2008.35 556.5L2086.78 511.266V601.734Z" fill="#D7D7D7"/>
<path fill-rule="evenodd" clip-rule="evenodd" d="M1927.48 509.159V603.139L1846 650.128V556.148L1927.48 509.159ZM1847.22 557.554L1925.65 602.787L1847.22 648.021V557.554ZM1926.26 601.734L1847.83 556.5L1926.26 511.266V601.734Z" fill="#D7D7D7"/>
<path fill-rule="evenodd" clip-rule="evenodd" d="M1766.96 509.159V603.139L1685.48 650.128V556.148L1766.96 509.159ZM1686.7 557.554L1765.13 602.787L1686.7 648.021V557.554ZM1765.74 601.734L1687.31 556.5L1765.74 511.266V601.734Z" fill="#D7D7D7"/>
<path fill-rule="evenodd" clip-rule="evenodd" d="M1606.43 509.159V603.139L1524.96 650.128V556.148L1606.43 509.159ZM1526.17 557.554L1604.61 602.787L1526.17 648.021V557.554ZM1605.22 601.734L1526.78 556.5L1605.22 511.266V601.734Z" fill="#D7D7D7"/>
<path fill-rule="evenodd" clip-rule="evenodd" d="M1445.91 509.159V603.139L1364.44 650.128V556.148L1445.91 509.159ZM1365.65 557.554L1444.09 602.787L1365.65 648.021V557.554ZM1444.7 601.734L1366.26 556.5L1444.7 511.266V601.734Z" fill="#D7D7D7"/>
<path fill-rule="evenodd" clip-rule="evenodd" d="M1285.39 509.159V603.139L1203.91 650.128V556.148L1285.39 509.159ZM1205.13 557.554L1283.56 602.787L1205.13 648.021V557.554ZM1284.17 601.734L1205.74 556.5L1284.17 511.266V601.734Z" fill="#D7D7D7"/>
<path fill-rule="evenodd" clip-rule="evenodd" d="M1124.87 509.159V603.139L1043.39 650.128V556.148L1124.87 509.159ZM1044.61 557.554L1123.04 602.787L1044.61 648.021V557.554ZM1123.65 601.734L1045.22 556.5L1123.65 511.266V601.734Z" fill="#D7D7D7"/>
<path fill-rule="evenodd" clip-rule="evenodd" d="M964.347 509.159V603.139L882.87 650.128V556.148L964.347 509.159ZM884.086 557.554L962.52 602.787L884.086 648.021V557.554ZM963.131 601.734L884.697 556.5L963.131 511.266V601.734Z" fill="#D7D7D7"/>
<path fill-rule="evenodd" clip-rule="evenodd" d="M803.825 509.159V603.139L722.348 650.128V556.148L803.825 509.159ZM723.564 557.554L801.999 602.787L723.564 648.021V557.554ZM802.609 601.734L724.175 556.5L802.609 511.266V601.734Z" fill="#D7D7D7"/>
<path fill-rule="evenodd" clip-rule="evenodd" d="M643.303 509.159V603.139L561.826 650.128V556.148L643.303 509.159ZM563.043 557.554L641.477 602.787L563.043 648.021V557.554ZM642.087 601.734L563.653 556.5L642.087 511.266V601.734Z" fill="#D7D7D7"/>
<path fill-rule="evenodd" clip-rule="evenodd" d="M482.782 509.159V603.139L401.305 650.128V556.148L482.782 509.159ZM402.521 557.554L480.955 602.787L402.521 648.021V557.554ZM481.566 601.734L403.131 556.5L481.566 511.266V601.734Z" fill="#D7D7D7"/>
<path fill-rule="evenodd" clip-rule="evenodd" d="M322.26 509.159V603.139L240.783 650.128V556.148L322.26 509.159ZM241.999 557.554L320.433 602.787L241.999 648.021V557.554ZM321.044 601.734L242.609 556.5L321.044 511.266V601.734Z" fill="#D7D7D7"/>
<path fill-rule="evenodd" clip-rule="evenodd" d="M161.738 509.159V603.139L80.2609 650.128V556.148L161.738 509.159ZM81.477 557.554L159.911 602.787L81.477 648.021V557.554ZM160.522 601.734L82.0876 556.5L160.522 511.266V601.734Z" fill="#D7D7D7"/>
<path fill-rule="evenodd" clip-rule="evenodd" d="M2088 601.734V695.714L2006.52 742.702V648.722L2088 601.734ZM2007.74 650.128L2086.17 695.362L2007.74 740.596V650.128ZM2086.78 694.308L2008.35 649.074L2086.78 603.841V694.308Z" fill="#D7D7D7"/>
<path fill-rule="evenodd" clip-rule="evenodd" d="M1927.48 601.734V695.714L1846 742.702V648.722L1927.48 601.734ZM1847.22 650.128L1925.65 695.362L1847.22 740.596V650.128ZM1926.26 694.308L1847.83 649.074L1926.26 603.841V694.308Z" fill="#D7D7D7"/>
<path fill-rule="evenodd" clip-rule="evenodd" d="M1766.96 601.734V695.714L1685.48 742.702V648.722L1766.96 601.734ZM1686.7 650.128L1765.13 695.362L1686.7 740.596V650.128ZM1765.74 694.308L1687.31 649.074L1765.74 603.841V694.308Z" fill="#D7D7D7"/>
<path fill-rule="evenodd" clip-rule="evenodd" d="M1606.43 601.734V695.714L1524.96 742.702V648.722L1606.43 601.734ZM1526.17 650.128L1604.61 695.362L1526.17 740.596V650.128ZM1605.22 694.308L1526.78 649.074L1605.22 603.841V694.308Z" fill="#D7D7D7"/>
<path fill-rule="evenodd" clip-rule="evenodd" d="M1445.91 601.734V695.714L1364.44 742.702V648.722L1445.91 601.734ZM1365.65 650.128L1444.09 695.362L1365.65 740.596V650.128ZM1444.7 694.308L1366.26 649.074L1444.7 603.841V694.308Z" fill="#D7D7D7"/>
<path fill-rule="evenodd" clip-rule="evenodd" d="M1285.39 601.734V695.714L1203.91 742.702V648.722L1285.39 601.734ZM1205.13 650.128L1283.56 695.362L1205.13 740.596V650.128ZM1284.17 694.308L1205.74 649.074L1284.17 603.841V694.308Z" fill="#D7D7D7"/>
<path fill-rule="evenodd" clip-rule="evenodd" d="M1124.87 601.734V695.714L1043.39 742.702V648.722L1124.87 601.734ZM1044.61 650.128L1123.04 695.362L1044.61 740.596V650.128ZM1123.65 694.308L1045.22 649.074L1123.65 603.841V694.308Z" fill="#D7D7D7"/>
<path fill-rule="evenodd" clip-rule="evenodd" d="M964.347 601.734V695.714L882.87 742.702V648.722L964.347 601.734ZM884.086 650.128L962.52 695.362L884.086 740.596V650.128ZM963.131 694.308L884.697 649.074L963.131 603.841V694.308Z" fill="#D7D7D7"/>
<path fill-rule="evenodd" clip-rule="evenodd" d="M803.825 601.734V695.714L722.348 742.702V648.722L803.825 601.734ZM723.564 650.128L801.999 695.362L723.564 740.596V650.128ZM802.609 694.308L724.175 649.074L802.609 603.841V694.308Z" fill="#D7D7D7"/>
<path fill-rule="evenodd" clip-rule="evenodd" d="M643.303 601.734V695.714L561.826 742.702V648.722L643.303 601.734ZM563.043 650.128L641.477 695.362L563.043 740.596V650.128ZM642.087 694.308L563.653 649.074L642.087 603.841V694.308Z" fill="#D7D7D7"/>
<path fill-rule="evenodd" clip-rule="evenodd" d="M482.782 601.734V695.714L401.305 742.702V648.722L482.782 601.734ZM402.521 650.128L480.955 695.362L402.521 740.596V650.128ZM481.566 694.308L403.131 649.074L481.566 603.841V694.308Z" fill="#D7D7D7"/>
<path fill-rule="evenodd" clip-rule="evenodd" d="M322.26 601.734V695.714L240.783 742.702V648.722L322.26 601.734ZM241.999 650.128L320.433 695.362L241.999 740.596V650.128ZM321.044 694.308L242.609 649.074L321.044 603.841V694.308Z" fill="#D7D7D7"/>
<path fill-rule="evenodd" clip-rule="evenodd" d="M161.738 601.734V695.714L80.2609 742.702V648.722L161.738 601.734ZM81.477 650.128L159.911 695.362L81.477 740.596V650.128ZM160.522 694.308L82.0876 649.074L160.522 603.841V694.308Z" fill="#D7D7D7"/>
<path fill-rule="evenodd" clip-rule="evenodd" d="M2088 694.308V788.288L2006.52 835.277V741.297L2088 694.308ZM2007.74 742.702L2086.17 787.936L2007.74 833.17V742.702ZM2086.78 786.883L2008.35 741.649L2086.78 696.415V786.883Z" fill="#D7D7D7"/>
<path fill-rule="evenodd" clip-rule="evenodd" d="M1927.48 694.308V788.288L1846 835.277V741.297L1927.48 694.308ZM1847.22 742.702L1925.65 787.936L1847.22 833.17V742.702ZM1926.26 786.883L1847.83 741.649L1926.26 696.415V786.883Z" fill="#D7D7D7"/>
<path fill-rule="evenodd" clip-rule="evenodd" d="M1766.96 694.308V788.288L1685.48 835.277V741.297L1766.96 694.308ZM1686.7 742.702L1765.13 787.936L1686.7 833.17V742.702ZM1765.74 786.883L1687.31 741.649L1765.74 696.415V786.883Z" fill="#D7D7D7"/>
<path fill-rule="evenodd" clip-rule="evenodd" d="M1606.43 694.308V788.288L1524.96 835.277V741.297L1606.43 694.308ZM1526.17 742.702L1604.61 787.936L1526.17 833.17V742.702ZM1605.22 786.883L1526.78 741.649L1605.22 696.415V786.883Z" fill="#D7D7D7"/>
<path fill-rule="evenodd" clip-rule="evenodd" d="M1445.91 694.308V788.288L1364.44 835.277V741.297L1445.91 694.308ZM1365.65 742.702L1444.09 787.936L1365.65 833.17V742.702ZM1444.7 786.883L1366.26 741.649L1444.7 696.415V786.883Z" fill="#D7D7D7"/>
<path fill-rule="evenodd" clip-rule="evenodd" d="M1285.39 694.308V788.288L1203.91 835.277V741.297L1285.39 694.308ZM1205.13 742.702L1283.56 787.936L1205.13 833.17V742.702ZM1284.17 786.883L1205.74 741.649L1284.17 696.415V786.883Z" fill="#D7D7D7"/>
<path fill-rule="evenodd" clip-rule="evenodd" d="M1124.87 694.308V788.288L1043.39 835.277V741.297L1124.87 694.308ZM1044.61 742.702L1123.04 787.936L1044.61 833.17V742.702ZM1123.65 786.883L1045.22 741.649L1123.65 696.415V786.883Z" fill="#D7D7D7"/>
<path fill-rule="evenodd" clip-rule="evenodd" d="M964.347 694.308V788.288L882.87 835.277V741.297L964.347 694.308ZM884.086 742.702L962.52 787.936L884.086 833.17V742.702ZM963.131 786.883L884.697 741.649L963.131 696.415V786.883Z" fill="#D7D7D7"/>
<path fill-rule="evenodd" clip-rule="evenodd" d="M803.825 694.308V788.288L722.348 835.277V741.297L803.825 694.308ZM723.564 742.702L801.999 787.936L723.564 833.17V742.702ZM802.609 786.883L724.175 741.649L802.609 696.415V786.883Z" fill="#D7D7D7"/>
<path fill-rule="evenodd" clip-rule="evenodd" d="M643.303 694.308V788.288L561.826 835.277V741.297L643.303 694.308ZM563.043 742.702L641.477 787.936L563.043 833.17V742.702ZM642.087 786.883L563.653 741.649L642.087 696.415V786.883Z" fill="#D7D7D7"/>
<path fill-rule="evenodd" clip-rule="evenodd" d="M482.782 694.308V788.288L401.305 835.277V741.297L482.782 694.308ZM402.521 742.702L480.955 787.936L402.521 833.17V742.702ZM481.566 786.883L403.131 741.649L481.566 696.415V786.883Z" fill="#D7D7D7"/>
<path fill-rule="evenodd" clip-rule="evenodd" d="M322.26 694.308V788.288L240.783 835.277V741.297L322.26 694.308ZM241.999 742.702L320.433 787.936L241.999 833.17V742.702ZM321.044 786.883L242.609 741.649L321.044 696.415V786.883Z" fill="#D7D7D7"/>
<path fill-rule="evenodd" clip-rule="evenodd" d="M161.738 694.308V788.288L80.2609 835.277V741.297L161.738 694.308ZM81.477 742.702L159.911 787.936L81.477 833.17V742.702ZM160.522 786.883L82.0876 741.649L160.522 696.415V786.883Z" fill="#D7D7D7"/>
<path fill-rule="evenodd" clip-rule="evenodd" d="M2088 786.883V880.863L2006.52 927.851V833.871L2088 786.883ZM2007.74 835.277L2086.17 880.511L2007.74 925.744V835.277ZM2086.78 879.457L2008.35 834.223L2086.78 788.99V879.457Z" fill="#D7D7D7"/>
<path fill-rule="evenodd" clip-rule="evenodd" d="M1927.48 786.883V880.863L1846 927.851V833.871L1927.48 786.883ZM1847.22 835.277L1925.65 880.511L1847.22 925.744V835.277ZM1926.26 879.457L1847.83 834.223L1926.26 788.99V879.457Z" fill="#D7D7D7"/>
<path fill-rule="evenodd" clip-rule="evenodd" d="M1766.96 786.883V880.863L1685.48 927.851V833.871L1766.96 786.883ZM1686.7 835.277L1765.13 880.511L1686.7 925.744V835.277ZM1765.74 879.457L1687.31 834.223L1765.74 788.99V879.457Z" fill="#D7D7D7"/>
<path fill-rule="evenodd" clip-rule="evenodd" d="M1606.43 786.883V880.863L1524.96 927.851V833.871L1606.43 786.883ZM1526.17 835.277L1604.61 880.511L1526.17 925.744V835.277ZM1605.22 879.457L1526.78 834.223L1605.22 788.99V879.457Z" fill="#D7D7D7"/>
<path fill-rule="evenodd" clip-rule="evenodd" d="M1445.91 786.883V880.863L1364.44 927.851V833.871L1445.91 786.883ZM1365.65 835.277L1444.09 880.511L1365.65 925.744V835.277ZM1444.7 879.457L1366.26 834.223L1444.7 788.99V879.457Z" fill="#D7D7D7"/>
<path fill-rule="evenodd" clip-rule="evenodd" d="M1285.39 786.883V880.863L1203.91 927.851V833.871L1285.39 786.883ZM1205.13 835.277L1283.56 880.511L1205.13 925.744V835.277ZM1284.17 879.457L1205.74 834.223L1284.17 788.99V879.457Z" fill="#D7D7D7"/>
<path fill-rule="evenodd" clip-rule="evenodd" d="M1124.87 786.883V880.863L1043.39 927.851V833.871L1124.87 786.883ZM1044.61 835.277L1123.04 880.511L1044.61 925.744V835.277ZM1123.65 879.457L1045.22 834.223L1123.65 788.99V879.457Z" fill="#D7D7D7"/>
<path fill-rule="evenodd" clip-rule="evenodd" d="M964.347 786.883V880.863L882.87 927.851V833.871L964.347 786.883ZM884.086 835.277L962.52 880.511L884.086 925.744V835.277ZM963.131 879.457L884.697 834.223L963.131 788.99V879.457Z" fill="#D7D7D7"/>
<path fill-rule="evenodd" clip-rule="evenodd" d="M803.825 786.883V880.863L722.348 927.851V833.871L803.825 786.883ZM723.564 835.277L801.999 880.511L723.564 925.744V835.277ZM802.609 879.457L724.175 834.223L802.609 788.99V879.457Z" fill="#D7D7D7"/>
<path fill-rule="evenodd" clip-rule="evenodd" d="M643.303 786.883V880.863L561.826 927.851V833.871L643.303 786.883ZM563.043 835.277L641.477 880.511L563.043 925.744V835.277ZM642.087 879.457L563.653 834.223L642.087 788.99V879.457Z" fill="#D7D7D7"/>
<path fill-rule="evenodd" clip-rule="evenodd" d="M482.782 786.883V880.863L401.305 927.851V833.871L482.782 786.883ZM402.521 835.277L480.955 880.511L402.521 925.744V835.277ZM481.566 879.457L403.131 834.223L481.566 788.99V879.457Z" fill="#D7D7D7"/>
<path fill-rule="evenodd" clip-rule="evenodd" d="M322.26 786.883V880.863L240.783 927.851V833.871L322.26 786.883ZM241.999 835.277L320.433 880.511L241.999 925.744V835.277ZM321.044 879.457L242.609 834.223L321.044 788.99V879.457Z" fill="#D7D7D7"/>
<path fill-rule="evenodd" clip-rule="evenodd" d="M161.738 786.883V880.863L80.2609 927.851V833.871L161.738 786.883ZM81.477 835.277L159.911 880.511L81.477 925.744V835.277ZM160.522 879.457L82.0876 834.223L160.522 788.99V879.457Z" fill="#D7D7D7"/>
<path fill-rule="evenodd" clip-rule="evenodd" d="M2088 879.457V973.437L2006.52 1020.43V926.446L2088 879.457ZM2007.74 927.851L2086.17 973.085L2007.74 1018.32V927.851ZM2086.78 972.032L2008.35 926.798L2086.78 881.564V972.032Z" fill="#D7D7D7"/>
<path fill-rule="evenodd" clip-rule="evenodd" d="M1927.48 879.457V973.437L1846 1020.43V926.446L1927.48 879.457ZM1847.22 927.851L1925.65 973.085L1847.22 1018.32V927.851ZM1926.26 972.032L1847.83 926.798L1926.26 881.564V972.032Z" fill="#D7D7D7"/>
<path fill-rule="evenodd" clip-rule="evenodd" d="M1766.96 879.457V973.437L1685.48 1020.43V926.446L1766.96 879.457ZM1686.7 927.851L1765.13 973.085L1686.7 1018.32V927.851ZM1765.74 972.032L1687.31 926.798L1765.74 881.564V972.032Z" fill="#D7D7D7"/>
<path fill-rule="evenodd" clip-rule="evenodd" d="M1606.43 879.457V973.437L1524.96 1020.43V926.446L1606.43 879.457ZM1526.17 927.851L1604.61 973.085L1526.17 1018.32V927.851ZM1605.22 972.032L1526.78 926.798L1605.22 881.564V972.032Z" fill="#D7D7D7"/>
<path fill-rule="evenodd" clip-rule="evenodd" d="M1445.91 879.457V973.437L1364.44 1020.43V926.446L1445.91 879.457ZM1365.65 927.851L1444.09 973.085L1365.65 1018.32V927.851ZM1444.7 972.032L1366.26 926.798L1444.7 881.564V972.032Z" fill="#D7D7D7"/>
<path fill-rule="evenodd" clip-rule="evenodd" d="M1285.39 879.457V973.437L1203.91 1020.43V926.446L1285.39 879.457ZM1205.13 927.851L1283.56 973.085L1205.13 1018.32V927.851ZM1284.17 972.032L1205.74 926.798L1284.17 881.564V972.032Z" fill="#D7D7D7"/>
<path fill-rule="evenodd" clip-rule="evenodd" d="M1124.87 879.457V973.437L1043.39 1020.43V926.446L1124.87 879.457ZM1044.61 927.851L1123.04 973.085L1044.61 1018.32V927.851ZM1123.65 972.032L1045.22 926.798L1123.65 881.564V972.032Z" fill="#D7D7D7"/>
<path fill-rule="evenodd" clip-rule="evenodd" d="M964.347 879.457V973.437L882.87 1020.43V926.446L964.347 879.457ZM884.086 927.851L962.52 973.085L884.086 1018.32V927.851ZM963.131 972.032L884.697 926.798L963.131 881.564V972.032Z" fill="#D7D7D7"/>
<path fill-rule="evenodd" clip-rule="evenodd" d="M803.825 879.457V973.437L722.348 1020.43V926.446L803.825 879.457ZM723.564 927.851L801.999 973.085L723.564 1018.32V927.851ZM802.609 972.032L724.175 926.798L802.609 881.564V972.032Z" fill="#D7D7D7"/>
<path fill-rule="evenodd" clip-rule="evenodd" d="M643.303 879.457V973.437L561.826 1020.43V926.446L643.303 879.457ZM563.043 927.851L641.477 973.085L563.043 1018.32V927.851ZM642.087 972.032L563.653 926.798L642.087 881.564V972.032Z" fill="#D7D7D7"/>
<path fill-rule="evenodd" clip-rule="evenodd" d="M482.782 879.457V973.437L401.305 1020.43V926.446L482.782 879.457ZM402.521 927.851L480.955 973.085L402.521 1018.32V927.851ZM481.566 972.032L403.131 926.798L481.566 881.564V972.032Z" fill="#D7D7D7"/>
<path fill-rule="evenodd" clip-rule="evenodd" d="M322.26 879.457V973.437L240.783 1020.43V926.446L322.26 879.457ZM241.999 927.851L320.433 973.085L241.999 1018.32V927.851ZM321.044 972.032L242.609 926.798L321.044 881.564V972.032Z" fill="#D7D7D7"/>
<path fill-rule="evenodd" clip-rule="evenodd" d="M161.738 879.457V973.437L80.2609 1020.43V926.446L161.738 879.457ZM81.477 927.851L159.911 973.085L81.477 1018.32V927.851ZM160.522 972.032L82.0876 926.798L160.522 881.564V972.032Z" fill="#D7D7D7"/>
<path fill-rule="evenodd" clip-rule="evenodd" d="M2088 972.032V1066.01L2006.52 1113V1019.02L2088 972.032ZM2007.74 1020.43L2086.17 1065.66L2007.74 1110.89V1020.43ZM2086.78 1064.61L2008.35 1019.37L2086.78 974.139V1064.61Z" fill="#D7D7D7"/>
<path fill-rule="evenodd" clip-rule="evenodd" d="M1927.48 972.032V1066.01L1846 1113V1019.02L1927.48 972.032ZM1847.22 1020.43L1925.65 1065.66L1847.22 1110.89V1020.43ZM1926.26 1064.61L1847.83 1019.37L1926.26 974.139V1064.61Z" fill="#D7D7D7"/>
<path fill-rule="evenodd" clip-rule="evenodd" d="M1766.96 972.032V1066.01L1685.48 1113V1019.02L1766.96 972.032ZM1686.7 1020.43L1765.13 1065.66L1686.7 1110.89V1020.43ZM1765.74 1064.61L1687.31 1019.37L1765.74 974.139V1064.61Z" fill="#D7D7D7"/>
<path fill-rule="evenodd" clip-rule="evenodd" d="M1606.43 972.032V1066.01L1524.96 1113V1019.02L1606.43 972.032ZM1526.17 1020.43L1604.61 1065.66L1526.17 1110.89V1020.43ZM1605.22 1064.61L1526.78 1019.37L1605.22 974.139V1064.61Z" fill="#D7D7D7"/>
<path fill-rule="evenodd" clip-rule="evenodd" d="M1445.91 972.032V1066.01L1364.44 1113V1019.02L1445.91 972.032ZM1365.65 1020.43L1444.09 1065.66L1365.65 1110.89V1020.43ZM1444.7 1064.61L1366.26 1019.37L1444.7 974.139V1064.61Z" fill="#D7D7D7"/>
<path fill-rule="evenodd" clip-rule="evenodd" d="M1285.39 972.032V1066.01L1203.91 1113V1019.02L1285.39 972.032ZM1205.13 1020.43L1283.56 1065.66L1205.13 1110.89V1020.43ZM1284.17 1064.61L1205.74 1019.37L1284.17 974.139V1064.61Z" fill="#D7D7D7"/>
<path fill-rule="evenodd" clip-rule="evenodd" d="M1124.87 972.032V1066.01L1043.39 1113V1019.02L1124.87 972.032ZM1044.61 1020.43L1123.04 1065.66L1044.61 1110.89V1020.43ZM1123.65 1064.61L1045.22 1019.37L1123.65 974.139V1064.61Z" fill="#D7D7D7"/>
<path fill-rule="evenodd" clip-rule="evenodd" d="M964.347 972.032V1066.01L882.87 1113V1019.02L964.347 972.032ZM884.086 1020.43L962.52 1065.66L884.086 1110.89V1020.43ZM963.131 1064.61L884.697 1019.37L963.131 974.139V1064.61Z" fill="#D7D7D7"/>
<path fill-rule="evenodd" clip-rule="evenodd" d="M803.825 972.032V1066.01L722.348 1113V1019.02L803.825 972.032ZM723.564 1020.43L801.999 1065.66L723.564 1110.89V1020.43ZM802.609 1064.61L724.175 1019.37L802.609 974.139V1064.61Z" fill="#D7D7D7"/>
<path fill-rule="evenodd" clip-rule="evenodd" d="M643.303 972.032V1066.01L561.826 1113V1019.02L643.303 972.032ZM563.043 1020.43L641.477 1065.66L563.043 1110.89V1020.43ZM642.087 1064.61L563.653 1019.37L642.087 974.139V1064.61Z" fill="#D7D7D7"/>
<path fill-rule="evenodd" clip-rule="evenodd" d="M482.782 972.032V1066.01L401.305 1113V1019.02L482.782 972.032ZM402.521 1020.43L480.955 1065.66L402.521 1110.89V1020.43ZM481.566 1064.61L403.131 1019.37L481.566 974.139V1064.61Z" fill="#D7D7D7"/>
<path fill-rule="evenodd" clip-rule="evenodd" d="M322.26 972.032V1066.01L240.783 1113V1019.02L322.26 972.032ZM241.999 1020.43L320.433 1065.66L241.999 1110.89V1020.43ZM321.044 1064.61L242.609 1019.37L321.044 974.139V1064.61Z" fill="#D7D7D7"/>
<path fill-rule="evenodd" clip-rule="evenodd" d="M161.738 972.032V1066.01L80.2609 1113V1019.02L161.738 972.032ZM81.477 1020.43L159.911 1065.66L81.477 1110.89V1020.43ZM160.522 1064.61L82.0876 1019.37L160.522 974.139V1064.61Z" fill="#D7D7D7"/>
<path fill-rule="evenodd" clip-rule="evenodd" d="M2007.74 462.872V556.852L1926.26 603.841V509.861L2007.74 462.872ZM1927.48 511.266L2005.91 556.5L1927.48 601.734V511.266ZM2006.52 555.447L1928.09 510.213L2006.52 464.979V555.447Z" fill="#D7D7D7"/>
<path fill-rule="evenodd" clip-rule="evenodd" d="M1847.22 462.872V556.852L1765.74 603.841V509.861L1847.22 462.872ZM1766.96 511.266L1845.39 556.5L1766.96 601.734V511.266ZM1846 555.447L1767.57 510.213L1846 464.979V555.447Z" fill="#D7D7D7"/>
<path fill-rule="evenodd" clip-rule="evenodd" d="M1686.7 462.872V556.852L1605.22 603.841V509.861L1686.7 462.872ZM1606.43 511.266L1684.87 556.5L1606.43 601.734V511.266ZM1685.48 555.447L1607.05 510.213L1685.48 464.979V555.447Z" fill="#D7D7D7"/>
<path fill-rule="evenodd" clip-rule="evenodd" d="M1526.17 462.872V556.852L1444.7 603.841V509.861L1526.17 462.872ZM1445.91 511.266L1524.35 556.5L1445.91 601.734V511.266ZM1524.96 555.447L1446.52 510.213L1524.96 464.979V555.447Z" fill="#D7D7D7"/>
<path fill-rule="evenodd" clip-rule="evenodd" d="M1365.65 462.872V556.852L1284.17 603.841V509.861L1365.65 462.872ZM1285.39 511.266L1363.83 556.5L1285.39 601.734V511.266ZM1364.44 555.447L1286 510.213L1364.44 464.979V555.447Z" fill="#D7D7D7"/>
<path fill-rule="evenodd" clip-rule="evenodd" d="M1205.13 462.872V556.852L1123.65 603.841V509.861L1205.13 462.872ZM1124.87 511.266L1203.3 556.5L1124.87 601.734V511.266ZM1203.91 555.447L1125.48 510.213L1203.91 464.979V555.447Z" fill="#D7D7D7"/>
<path fill-rule="evenodd" clip-rule="evenodd" d="M1044.61 462.872V556.852L963.131 603.841V509.861L1044.61 462.872ZM964.347 511.266L1042.78 556.5L964.347 601.734V511.266ZM1043.39 555.447L964.958 510.213L1043.39 464.979V555.447Z" fill="#D7D7D7"/>
<path fill-rule="evenodd" clip-rule="evenodd" d="M884.086 462.872V556.852L802.609 603.841V509.861L884.086 462.872ZM803.825 511.266L882.26 556.5L803.825 601.734V511.266ZM882.87 555.447L804.436 510.213L882.87 464.979V555.447Z" fill="#D7D7D7"/>
<path fill-rule="evenodd" clip-rule="evenodd" d="M723.564 462.872V556.852L642.087 603.841V509.861L723.564 462.872ZM643.303 511.266L721.738 556.5L643.303 601.734V511.266ZM722.348 555.447L643.914 510.213L722.348 464.979V555.447Z" fill="#D7D7D7"/>
<path fill-rule="evenodd" clip-rule="evenodd" d="M563.043 462.872V556.852L481.566 603.841V509.861L563.043 462.872ZM482.782 511.266L561.216 556.5L482.782 601.734V511.266ZM561.826 555.447L483.392 510.213L561.826 464.979V555.447Z" fill="#D7D7D7"/>
<path fill-rule="evenodd" clip-rule="evenodd" d="M402.521 462.872V556.852L321.044 603.841V509.861L402.521 462.872ZM322.26 511.266L400.694 556.5L322.26 601.734V511.266ZM401.305 555.447L322.87 510.213L401.305 464.979V555.447Z" fill="#D7D7D7"/>
<path fill-rule="evenodd" clip-rule="evenodd" d="M241.999 462.872V556.852L160.522 603.841V509.861L241.999 462.872ZM161.738 511.266L240.172 556.5L161.738 601.734V511.266ZM240.783 555.447L162.349 510.213L240.783 464.979V555.447Z" fill="#D7D7D7"/>
<path fill-rule="evenodd" clip-rule="evenodd" d="M81.477 462.872V556.852L0 603.841V509.861L81.477 462.872ZM1.2161 511.266L79.6504 556.5L1.2161 601.734V511.266ZM80.2609 555.447L1.82665 510.213L80.2609 464.979V555.447Z" fill="#D7D7D7"/>
<path fill-rule="evenodd" clip-rule="evenodd" d="M2007.74 555.447V649.427L1926.26 696.415V602.435L2007.74 555.447ZM1927.48 603.841L2005.91 649.074L1927.48 694.308V603.841ZM2006.52 648.021L1928.09 602.787L2006.52 557.554V648.021Z" fill="#D7D7D7"/>
<path fill-rule="evenodd" clip-rule="evenodd" d="M1847.22 555.447V649.427L1765.74 696.415V602.435L1847.22 555.447ZM1766.96 603.841L1845.39 649.074L1766.96 694.308V603.841ZM1846 648.021L1767.57 602.787L1846 557.554V648.021Z" fill="#D7D7D7"/>
<path fill-rule="evenodd" clip-rule="evenodd" d="M1686.7 555.447V649.427L1605.22 696.415V602.435L1686.7 555.447ZM1606.43 603.841L1684.87 649.074L1606.43 694.308V603.841ZM1685.48 648.021L1607.05 602.787L1685.48 557.554V648.021Z" fill="#D7D7D7"/>
<path fill-rule="evenodd" clip-rule="evenodd" d="M1526.17 555.447V649.427L1444.7 696.415V602.435L1526.17 555.447ZM1445.91 603.841L1524.35 649.074L1445.91 694.308V603.841ZM1524.96 648.021L1446.52 602.787L1524.96 557.554V648.021Z" fill="#D7D7D7"/>
<path fill-rule="evenodd" clip-rule="evenodd" d="M1365.65 555.447V649.427L1284.17 696.415V602.435L1365.65 555.447ZM1285.39 603.841L1363.83 649.074L1285.39 694.308V603.841ZM1364.44 648.021L1286 602.787L1364.44 557.554V648.021Z" fill="#D7D7D7"/>
<path fill-rule="evenodd" clip-rule="evenodd" d="M1205.13 555.447V649.427L1123.65 696.415V602.435L1205.13 555.447ZM1124.87 603.841L1203.3 649.074L1124.87 694.308V603.841ZM1203.91 648.021L1125.48 602.787L1203.91 557.554V648.021Z" fill="#D7D7D7"/>
<path fill-rule="evenodd" clip-rule="evenodd" d="M1044.61 555.447V649.427L963.131 696.415V602.435L1044.61 555.447ZM964.347 603.841L1042.78 649.074L964.347 694.308V603.841ZM1043.39 648.021L964.958 602.787L1043.39 557.554V648.021Z" fill="#D7D7D7"/>
<path fill-rule="evenodd" clip-rule="evenodd" d="M884.086 555.447V649.427L802.609 696.415V602.435L884.086 555.447ZM803.825 603.841L882.26 649.074L803.825 694.308V603.841ZM882.87 648.021L804.436 602.787L882.87 557.554V648.021Z" fill="#D7D7D7"/>
<path fill-rule="evenodd" clip-rule="evenodd" d="M723.564 555.447V649.427L642.087 696.415V602.435L723.564 555.447ZM643.303 603.841L721.738 649.074L643.303 694.308V603.841ZM722.348 648.021L643.914 602.787L722.348 557.554V648.021Z" fill="#D7D7D7"/>
<path fill-rule="evenodd" clip-rule="evenodd" d="M563.043 555.447V649.427L481.566 696.415V602.435L563.043 555.447ZM482.782 603.841L561.216 649.074L482.782 694.308V603.841ZM561.826 648.021L483.392 602.787L561.826 557.554V648.021Z" fill="#D7D7D7"/>
<path fill-rule="evenodd" clip-rule="evenodd" d="M402.521 555.447V649.427L321.044 696.415V602.435L402.521 555.447ZM322.26 603.841L400.694 649.074L322.26 694.308V603.841ZM401.305 648.021L322.87 602.787L401.305 557.554V648.021Z" fill="#D7D7D7"/>
<path fill-rule="evenodd" clip-rule="evenodd" d="M241.999 555.447V649.427L160.522 696.415V602.435L241.999 555.447ZM161.738 603.841L240.172 649.074L161.738 694.308V603.841ZM240.783 648.021L162.349 602.787L240.783 557.554V648.021Z" fill="#D7D7D7"/>
<path fill-rule="evenodd" clip-rule="evenodd" d="M81.477 555.447V649.427L0 696.415V602.435L81.477 555.447ZM1.2161 603.841L79.6504 649.074L1.2161 694.308V603.841ZM80.2609 648.021L1.82665 602.787L80.2609 557.554V648.021Z" fill="#D7D7D7"/>
<path fill-rule="evenodd" clip-rule="evenodd" d="M2007.74 648.021V742.001L1926.26 788.99V695.01L2007.74 648.021ZM1927.48 696.415L2005.91 741.649L1927.48 786.883V696.415ZM2006.52 740.596L1928.09 695.362L2006.52 650.128V740.596Z" fill="#D7D7D7"/>
<path fill-rule="evenodd" clip-rule="evenodd" d="M1847.22 648.021V742.001L1765.74 788.99V695.01L1847.22 648.021ZM1766.96 696.415L1845.39 741.649L1766.96 786.883V696.415ZM1846 740.596L1767.57 695.362L1846 650.128V740.596Z" fill="#D7D7D7"/>
<path fill-rule="evenodd" clip-rule="evenodd" d="M1686.7 648.021V742.001L1605.22 788.99V695.01L1686.7 648.021ZM1606.43 696.415L1684.87 741.649L1606.43 786.883V696.415ZM1685.48 740.596L1607.05 695.362L1685.48 650.128V740.596Z" fill="#D7D7D7"/>
<path fill-rule="evenodd" clip-rule="evenodd" d="M1526.17 648.021V742.001L1444.7 788.99V695.01L1526.17 648.021ZM1445.91 696.415L1524.35 741.649L1445.91 786.883V696.415ZM1524.96 740.596L1446.52 695.362L1524.96 650.128V740.596Z" fill="#D7D7D7"/>
<path fill-rule="evenodd" clip-rule="evenodd" d="M1365.65 648.021V742.001L1284.17 788.99V695.01L1365.65 648.021ZM1285.39 696.415L1363.83 741.649L1285.39 786.883V696.415ZM1364.44 740.596L1286 695.362L1364.44 650.128V740.596Z" fill="#D7D7D7"/>
<path fill-rule="evenodd" clip-rule="evenodd" d="M1205.13 648.021V742.001L1123.65 788.99V695.01L1205.13 648.021ZM1124.87 696.415L1203.3 741.649L1124.87 786.883V696.415ZM1203.91 740.596L1125.48 695.362L1203.91 650.128V740.596Z" fill="#D7D7D7"/>
<path fill-rule="evenodd" clip-rule="evenodd" d="M1044.61 648.021V742.001L963.131 788.99V695.01L1044.61 648.021ZM964.347 696.415L1042.78 741.649L964.347 786.883V696.415ZM1043.39 740.596L964.958 695.362L1043.39 650.128V740.596Z" fill="#D7D7D7"/>
<path fill-rule="evenodd" clip-rule="evenodd" d="M884.086 648.021V742.001L802.609 788.99V695.01L884.086 648.021ZM803.825 696.415L882.26 741.649L803.825 786.883V696.415ZM882.87 740.596L804.436 695.362L882.87 650.128V740.596Z" fill="#D7D7D7"/>
<path fill-rule="evenodd" clip-rule="evenodd" d="M723.564 648.021V742.001L642.087 788.99V695.01L723.564 648.021ZM643.303 696.415L721.738 741.649L643.303 786.883V696.415ZM722.348 740.596L643.914 695.362L722.348 650.128V740.596Z" fill="#D7D7D7"/>
<path fill-rule="evenodd" clip-rule="evenodd" d="M563.043 648.021V742.001L481.566 788.99V695.01L563.043 648.021ZM482.782 696.415L561.216 741.649L482.782 786.883V696.415ZM561.826 740.596L483.392 695.362L561.826 650.128V740.596Z" fill="#D7D7D7"/>
<path fill-rule="evenodd" clip-rule="evenodd" d="M402.521 648.021V742.001L321.044 788.99V695.01L402.521 648.021ZM322.26 696.415L400.694 741.649L322.26 786.883V696.415ZM401.305 740.596L322.87 695.362L401.305 650.128V740.596Z" fill="#D7D7D7"/>
<path fill-rule="evenodd" clip-rule="evenodd" d="M241.999 648.021V742.001L160.522 788.99V695.01L241.999 648.021ZM161.738 696.415L240.172 741.649L161.738 786.883V696.415ZM240.783 740.596L162.349 695.362L240.783 650.128V740.596Z" fill="#D7D7D7"/>
<path fill-rule="evenodd" clip-rule="evenodd" d="M81.477 648.021V742.001L0 788.99V695.01L81.477 648.021ZM1.2161 696.415L79.6504 741.649L1.2161 786.883V696.415ZM80.2609 740.596L1.82665 695.362L80.2609 650.128V740.596Z" fill="#D7D7D7"/>
<path fill-rule="evenodd" clip-rule="evenodd" d="M2007.74 740.596V834.576L1926.26 881.564V787.584L2007.74 740.596ZM1927.48 788.99L2005.91 834.223L1927.48 879.457V788.99ZM2006.52 833.17L1928.09 787.936L2006.52 742.702V833.17Z" fill="#D7D7D7"/>
<path fill-rule="evenodd" clip-rule="evenodd" d="M1847.22 740.596V834.576L1765.74 881.564V787.584L1847.22 740.596ZM1766.96 788.99L1845.39 834.223L1766.96 879.457V788.99ZM1846 833.17L1767.57 787.936L1846 742.702V833.17Z" fill="#D7D7D7"/>
<path fill-rule="evenodd" clip-rule="evenodd" d="M1686.7 740.596V834.576L1605.22 881.564V787.584L1686.7 740.596ZM1606.43 788.99L1684.87 834.223L1606.43 879.457V788.99ZM1685.48 833.17L1607.05 787.936L1685.48 742.702V833.17Z" fill="#D7D7D7"/>
<path fill-rule="evenodd" clip-rule="evenodd" d="M1526.17 740.596V834.576L1444.7 881.564V787.584L1526.17 740.596ZM1445.91 788.99L1524.35 834.223L1445.91 879.457V788.99ZM1524.96 833.17L1446.52 787.936L1524.96 742.702V833.17Z" fill="#D7D7D7"/>
<path fill-rule="evenodd" clip-rule="evenodd" d="M1365.65 740.596V834.576L1284.17 881.564V787.584L1365.65 740.596ZM1285.39 788.99L1363.83 834.223L1285.39 879.457V788.99ZM1364.44 833.17L1286 787.936L1364.44 742.702V833.17Z" fill="#D7D7D7"/>
<path fill-rule="evenodd" clip-rule="evenodd" d="M1205.13 740.596V834.576L1123.65 881.564V787.584L1205.13 740.596ZM1124.87 788.99L1203.3 834.223L1124.87 879.457V788.99ZM1203.91 833.17L1125.48 787.936L1203.91 742.702V833.17Z" fill="#D7D7D7"/>
<path fill-rule="evenodd" clip-rule="evenodd" d="M1044.61 740.596V834.576L963.131 881.564V787.584L1044.61 740.596ZM964.347 788.99L1042.78 834.223L964.347 879.457V788.99ZM1043.39 833.17L964.958 787.936L1043.39 742.702V833.17Z" fill="#D7D7D7"/>
<path fill-rule="evenodd" clip-rule="evenodd" d="M884.086 740.596V834.576L802.609 881.564V787.584L884.086 740.596ZM803.825 788.99L882.26 834.223L803.825 879.457V788.99ZM882.87 833.17L804.436 787.936L882.87 742.702V833.17Z" fill="#D7D7D7"/>
<path fill-rule="evenodd" clip-rule="evenodd" d="M723.564 740.596V834.576L642.087 881.564V787.584L723.564 740.596ZM643.303 788.99L721.738 834.223L643.303 879.457V788.99ZM722.348 833.17L643.914 787.936L722.348 742.702V833.17Z" fill="#D7D7D7"/>
<path fill-rule="evenodd" clip-rule="evenodd" d="M563.043 740.596V834.576L481.566 881.564V787.584L563.043 740.596ZM482.782 788.99L561.216 834.223L482.782 879.457V788.99ZM561.826 833.17L483.392 787.936L561.826 742.702V833.17Z" fill="#D7D7D7"/>
<path fill-rule="evenodd" clip-rule="evenodd" d="M402.521 740.596V834.576L321.044 881.564V787.584L402.521 740.596ZM322.26 788.99L400.694 834.223L322.26 879.457V788.99ZM401.305 833.17L322.87 787.936L401.305 742.702V833.17Z" fill="#D7D7D7"/>
<path fill-rule="evenodd" clip-rule="evenodd" d="M241.999 740.596V834.576L160.522 881.564V787.584L241.999 740.596ZM161.738 788.99L240.172 834.223L161.738 879.457V788.99ZM240.783 833.17L162.349 787.936L240.783 742.702V833.17Z" fill="#D7D7D7"/>
<path fill-rule="evenodd" clip-rule="evenodd" d="M81.477 740.596V834.576L0 881.564V787.584L81.477 740.596ZM1.2161 788.99L79.6504 834.223L1.2161 879.457V788.99ZM80.2609 833.17L1.82665 787.936L80.2609 742.702V833.17Z" fill="#D7D7D7"/>
<path fill-rule="evenodd" clip-rule="evenodd" d="M2007.74 833.17V927.15L1926.26 974.139V880.158L2007.74 833.17ZM1927.48 881.564L2005.91 926.798L1927.48 972.032V881.564ZM2006.52 925.744L1928.09 880.511L2006.52 835.277V925.744Z" fill="#D7D7D7"/>
<path fill-rule="evenodd" clip-rule="evenodd" d="M1847.22 833.17V927.15L1765.74 974.139V880.158L1847.22 833.17ZM1766.96 881.564L1845.39 926.798L1766.96 972.032V881.564ZM1846 925.744L1767.57 880.511L1846 835.277V925.744Z" fill="#D7D7D7"/>
<path fill-rule="evenodd" clip-rule="evenodd" d="M1686.7 833.17V927.15L1605.22 974.139V880.158L1686.7 833.17ZM1606.43 881.564L1684.87 926.798L1606.43 972.032V881.564ZM1685.48 925.744L1607.05 880.511L1685.48 835.277V925.744Z" fill="#D7D7D7"/>
<path fill-rule="evenodd" clip-rule="evenodd" d="M1526.17 833.17V927.15L1444.7 974.139V880.158L1526.17 833.17ZM1445.91 881.564L1524.35 926.798L1445.91 972.032V881.564ZM1524.96 925.744L1446.52 880.511L1524.96 835.277V925.744Z" fill="#D7D7D7"/>
<path fill-rule="evenodd" clip-rule="evenodd" d="M1365.65 833.17V927.15L1284.17 974.139V880.158L1365.65 833.17ZM1285.39 881.564L1363.83 926.798L1285.39 972.032V881.564ZM1364.44 925.744L1286 880.511L1364.44 835.277V925.744Z" fill="#D7D7D7"/>
<path fill-rule="evenodd" clip-rule="evenodd" d="M1205.13 833.17V927.15L1123.65 974.139V880.158L1205.13 833.17ZM1124.87 881.564L1203.3 926.798L1124.87 972.032V881.564ZM1203.91 925.744L1125.48 880.511L1203.91 835.277V925.744Z" fill="#D7D7D7"/>
<path fill-rule="evenodd" clip-rule="evenodd" d="M1044.61 833.17V927.15L963.131 974.139V880.158L1044.61 833.17ZM964.347 881.564L1042.78 926.798L964.347 972.032V881.564ZM1043.39 925.744L964.958 880.511L1043.39 835.277V925.744Z" fill="#D7D7D7"/>
<path fill-rule="evenodd" clip-rule="evenodd" d="M884.086 833.17V927.15L802.609 974.139V880.158L884.086 833.17ZM803.825 881.564L882.26 926.798L803.825 972.032V881.564ZM882.87 925.744L804.436 880.511L882.87 835.277V925.744Z" fill="#D7D7D7"/>
<path fill-rule="evenodd" clip-rule="evenodd" d="M723.564 833.17V927.15L642.087 974.139V880.158L723.564 833.17ZM643.303 881.564L721.738 926.798L643.303 972.032V881.564ZM722.348 925.744L643.914 880.511L722.348 835.277V925.744Z" fill="#D7D7D7"/>
<path fill-rule="evenodd" clip-rule="evenodd" d="M563.043 833.17V927.15L481.566 974.139V880.158L563.043 833.17ZM482.782 881.564L561.216 926.798L482.782 972.032V881.564ZM561.826 925.744L483.392 880.511L561.826 835.277V925.744Z" fill="#D7D7D7"/>
<path fill-rule="evenodd" clip-rule="evenodd" d="M402.521 833.17V927.15L321.044 974.139V880.158L402.521 833.17ZM322.26 881.564L400.694 926.798L322.26 972.032V881.564ZM401.305 925.744L322.87 880.511L401.305 835.277V925.744Z" fill="#D7D7D7"/>
<path fill-rule="evenodd" clip-rule="evenodd" d="M241.999 833.17V927.15L160.522 974.139V880.158L241.999 833.17ZM161.738 881.564L240.172 926.798L161.738 972.032V881.564ZM240.783 925.744L162.349 880.511L240.783 835.277V925.744Z" fill="#D7D7D7"/>
<path fill-rule="evenodd" clip-rule="evenodd" d="M81.477 833.17V927.15L0 974.139V880.158L81.477 833.17ZM1.2161 881.564L79.6504 926.798L1.2161 972.032V881.564ZM80.2609 925.744L1.82665 880.511L80.2609 835.277V925.744Z" fill="#D7D7D7"/>
<path fill-rule="evenodd" clip-rule="evenodd" d="M2007.74 925.744V1019.72L1926.26 1066.71V972.733L2007.74 925.744ZM1927.48 974.139L2005.91 1019.37L1927.48 1064.61V974.139ZM2006.52 1018.32L1928.09 973.085L2006.52 927.851V1018.32Z" fill="#D7D7D7"/>
<path fill-rule="evenodd" clip-rule="evenodd" d="M1847.22 925.744V1019.72L1765.74 1066.71V972.733L1847.22 925.744ZM1766.96 974.139L1845.39 1019.37L1766.96 1064.61V974.139ZM1846 1018.32L1767.57 973.085L1846 927.851V1018.32Z" fill="#D7D7D7"/>
<path fill-rule="evenodd" clip-rule="evenodd" d="M1686.7 925.744V1019.72L1605.22 1066.71V972.733L1686.7 925.744ZM1606.43 974.139L1684.87 1019.37L1606.43 1064.61V974.139ZM1685.48 1018.32L1607.05 973.085L1685.48 927.851V1018.32Z" fill="#D7D7D7"/>
<path fill-rule="evenodd" clip-rule="evenodd" d="M1526.17 925.744V1019.72L1444.7 1066.71V972.733L1526.17 925.744ZM1445.91 974.139L1524.35 1019.37L1445.91 1064.61V974.139ZM1524.96 1018.32L1446.52 973.085L1524.96 927.851V1018.32Z" fill="#D7D7D7"/>
<path fill-rule="evenodd" clip-rule="evenodd" d="M1365.65 925.744V1019.72L1284.17 1066.71V972.733L1365.65 925.744ZM1285.39 974.139L1363.83 1019.37L1285.39 1064.61V974.139ZM1364.44 1018.32L1286 973.085L1364.44 927.851V1018.32Z" fill="#D7D7D7"/>
<path fill-rule="evenodd" clip-rule="evenodd" d="M1205.13 925.744V1019.72L1123.65 1066.71V972.733L1205.13 925.744ZM1124.87 974.139L1203.3 1019.37L1124.87 1064.61V974.139ZM1203.91 1018.32L1125.48 973.085L1203.91 927.851V1018.32Z" fill="#D7D7D7"/>
<path fill-rule="evenodd" clip-rule="evenodd" d="M1044.61 925.744V1019.72L963.131 1066.71V972.733L1044.61 925.744ZM964.347 974.139L1042.78 1019.37L964.347 1064.61V974.139ZM1043.39 1018.32L964.958 973.085L1043.39 927.851V1018.32Z" fill="#D7D7D7"/>
<path fill-rule="evenodd" clip-rule="evenodd" d="M884.086 925.744V1019.72L802.609 1066.71V972.733L884.086 925.744ZM803.825 974.139L882.26 1019.37L803.825 1064.61V974.139ZM882.87 1018.32L804.436 973.085L882.87 927.851V1018.32Z" fill="#D7D7D7"/>
<path fill-rule="evenodd" clip-rule="evenodd" d="M723.564 925.744V1019.72L642.087 1066.71V972.733L723.564 925.744ZM643.303 974.139L721.738 1019.37L643.303 1064.61V974.139ZM722.348 1018.32L643.914 973.085L722.348 927.851V1018.32Z" fill="#D7D7D7"/>
<path fill-rule="evenodd" clip-rule="evenodd" d="M563.043 925.744V1019.72L481.566 1066.71V972.733L563.043 925.744ZM482.782 974.139L561.216 1019.37L482.782 1064.61V974.139ZM561.826 1018.32L483.392 973.085L561.826 927.851V1018.32Z" fill="#D7D7D7"/>
<path fill-rule="evenodd" clip-rule="evenodd" d="M402.521 925.744V1019.72L321.044 1066.71V972.733L402.521 925.744ZM322.26 974.139L400.694 1019.37L322.26 1064.61V974.139ZM401.305 1018.32L322.87 973.085L401.305 927.851V1018.32Z" fill="#D7D7D7"/>
<path fill-rule="evenodd" clip-rule="evenodd" d="M241.999 925.744V1019.72L160.522 1066.71V972.733L241.999 925.744ZM161.738 974.139L240.172 1019.37L161.738 1064.61V974.139ZM240.783 1018.32L162.349 973.085L240.783 927.851V1018.32Z" fill="#D7D7D7"/>
<path fill-rule="evenodd" clip-rule="evenodd" d="M81.477 925.744V1019.72L0 1066.71V972.733L81.477 925.744ZM1.2161 974.139L79.6504 1019.37L1.2161 1064.61V974.139ZM80.2609 1018.32L1.82665 973.085L80.2609 927.851V1018.32Z" fill="#D7D7D7"/>
<path fill-rule="evenodd" clip-rule="evenodd" d="M2006.52 1110.89L1928.09 1065.66L2006.52 1020.43V1110.89Z" fill="#D7D7D7"/>
<path fill-rule="evenodd" clip-rule="evenodd" d="M1846 1110.89L1767.57 1065.66L1846 1020.43V1110.89Z" fill="#D7D7D7"/>
<path fill-rule="evenodd" clip-rule="evenodd" d="M1685.48 1110.89L1607.05 1065.66L1685.48 1020.43V1110.89Z" fill="#D7D7D7"/>
<path fill-rule="evenodd" clip-rule="evenodd" d="M1524.96 1110.89L1446.52 1065.66L1524.96 1020.43V1110.89Z" fill="#D7D7D7"/>
<path fill-rule="evenodd" clip-rule="evenodd" d="M1364.44 1110.89L1286 1065.66L1364.44 1020.43V1110.89Z" fill="#D7D7D7"/>
<path fill-rule="evenodd" clip-rule="evenodd" d="M1203.91 1110.89L1125.48 1065.66L1203.91 1020.43V1110.89Z" fill="#D7D7D7"/>
<path fill-rule="evenodd" clip-rule="evenodd" d="M1043.39 1110.89L964.958 1065.66L1043.39 1020.43V1110.89Z" fill="#D7D7D7"/>
<path fill-rule="evenodd" clip-rule="evenodd" d="M882.87 1110.89L804.436 1065.66L882.87 1020.43V1110.89Z" fill="#D7D7D7"/>
<path fill-rule="evenodd" clip-rule="evenodd" d="M722.348 1110.89L643.914 1065.66L722.348 1020.43V1110.89Z" fill="#D7D7D7"/>
<path fill-rule="evenodd" clip-rule="evenodd" d="M561.826 1110.89L483.392 1065.66L561.826 1020.43V1110.89Z" fill="#D7D7D7"/>
<path fill-rule="evenodd" clip-rule="evenodd" d="M401.305 1110.89L322.87 1065.66L401.305 1020.43V1110.89Z" fill="#D7D7D7"/>
<path fill-rule="evenodd" clip-rule="evenodd" d="M240.783 1110.89L162.349 1065.66L240.783 1020.43V1110.89Z" fill="#D7D7D7"/>
<path fill-rule="evenodd" clip-rule="evenodd" d="M80.2609 1110.89L1.82665 1065.66L80.2609 1020.43V1110.89Z" fill="#D7D7D7"/>
</g>
</svg>
