<svg width="780" height="632" viewBox="0 0 780 632" fill="none" xmlns="http://www.w3.org/2000/svg">
<g opacity="0.5">
<path fill-rule="evenodd" clip-rule="evenodd" d="M2007.74 -238.892L2086.17 -193.659L2007.74 -148.425V-238.892Z" fill="#D7D7D7"/>
<path fill-rule="evenodd" clip-rule="evenodd" d="M1847.22 -238.892L1925.65 -193.659L1847.22 -148.425V-238.892Z" fill="#D7D7D7"/>
<path fill-rule="evenodd" clip-rule="evenodd" d="M1686.7 -238.892L1765.13 -193.659L1686.7 -148.425V-238.892Z" fill="#D7D7D7"/>
<path fill-rule="evenodd" clip-rule="evenodd" d="M1526.17 -238.892L1604.61 -193.659L1526.17 -148.425V-238.892Z" fill="#D7D7D7"/>
<path fill-rule="evenodd" clip-rule="evenodd" d="M1365.65 -238.892L1444.09 -193.659L1365.65 -148.425V-238.892Z" fill="#D7D7D7"/>
<path fill-rule="evenodd" clip-rule="evenodd" d="M1205.13 -238.892L1283.56 -193.659L1205.13 -148.425V-238.892Z" fill="#D7D7D7"/>
<path fill-rule="evenodd" clip-rule="evenodd" d="M1044.61 -238.892L1123.04 -193.659L1044.61 -148.425V-238.892Z" fill="#D7D7D7"/>
<path fill-rule="evenodd" clip-rule="evenodd" d="M884.086 -238.892L962.521 -193.659L884.086 -148.425V-238.892Z" fill="#D7D7D7"/>
<path fill-rule="evenodd" clip-rule="evenodd" d="M723.564 -238.892L801.999 -193.659L723.564 -148.425V-238.892Z" fill="#D7D7D7"/>
<path fill-rule="evenodd" clip-rule="evenodd" d="M563.043 -238.892L641.477 -193.659L563.043 -148.425V-238.892Z" fill="#D7D7D7"/>
<path fill-rule="evenodd" clip-rule="evenodd" d="M402.521 -238.892L480.955 -193.659L402.521 -148.425V-238.892Z" fill="#D7D7D7"/>
<path fill-rule="evenodd" clip-rule="evenodd" d="M241.999 -238.892L320.433 -193.659L241.999 -148.425V-238.892Z" fill="#D7D7D7"/>
<path fill-rule="evenodd" clip-rule="evenodd" d="M81.477 -238.892L159.911 -193.659L81.477 -148.425V-238.892Z" fill="#D7D7D7"/>
<path fill-rule="evenodd" clip-rule="evenodd" d="M2007.74 -240.999V-147.019L1926.26 -100.031V-194.011L2007.74 -240.999ZM1927.48 -192.605L2005.91 -147.371L1927.48 -102.138V-192.605ZM2006.52 -148.425L1928.09 -193.659L2006.52 -238.892V-148.425Z" fill="#D7D7D7"/>
<path fill-rule="evenodd" clip-rule="evenodd" d="M1847.22 -240.999V-147.019L1765.74 -100.031V-194.011L1847.22 -240.999ZM1766.96 -192.605L1845.39 -147.371L1766.96 -102.138V-192.605ZM1846 -148.425L1767.57 -193.659L1846 -238.892V-148.425Z" fill="#D7D7D7"/>
<path fill-rule="evenodd" clip-rule="evenodd" d="M1686.7 -240.999V-147.019L1605.22 -100.031V-194.011L1686.7 -240.999ZM1606.43 -192.605L1684.87 -147.371L1606.43 -102.138V-192.605ZM1685.48 -148.425L1607.05 -193.659L1685.48 -238.892V-148.425Z" fill="#D7D7D7"/>
<path fill-rule="evenodd" clip-rule="evenodd" d="M1526.17 -240.999V-147.019L1444.7 -100.031V-194.011L1526.17 -240.999ZM1445.91 -192.605L1524.35 -147.371L1445.91 -102.138V-192.605ZM1524.96 -148.425L1446.52 -193.659L1524.96 -238.892V-148.425Z" fill="#D7D7D7"/>
<path fill-rule="evenodd" clip-rule="evenodd" d="M1365.65 -240.999V-147.019L1284.17 -100.031V-194.011L1365.65 -240.999ZM1285.39 -192.605L1363.83 -147.371L1285.39 -102.138V-192.605ZM1364.44 -148.425L1286 -193.659L1364.44 -238.892V-148.425Z" fill="#D7D7D7"/>
<path fill-rule="evenodd" clip-rule="evenodd" d="M1205.13 -240.999V-147.019L1123.65 -100.031V-194.011L1205.13 -240.999ZM1124.87 -192.605L1203.3 -147.371L1124.87 -102.138V-192.605ZM1203.91 -148.425L1125.48 -193.659L1203.91 -238.892V-148.425Z" fill="#D7D7D7"/>
<path fill-rule="evenodd" clip-rule="evenodd" d="M1044.61 -240.999V-147.019L963.131 -100.031V-194.011L1044.61 -240.999ZM964.347 -192.605L1042.78 -147.371L964.347 -102.138V-192.605ZM1043.39 -148.425L964.958 -193.659L1043.39 -238.892V-148.425Z" fill="#D7D7D7"/>
<path fill-rule="evenodd" clip-rule="evenodd" d="M884.086 -240.999V-147.019L802.609 -100.031V-194.011L884.086 -240.999ZM803.825 -192.605L882.26 -147.371L803.825 -102.138V-192.605ZM882.87 -148.425L804.436 -193.659L882.87 -238.892V-148.425Z" fill="#D7D7D7"/>
<path fill-rule="evenodd" clip-rule="evenodd" d="M723.564 -240.999V-147.019L642.087 -100.031V-194.011L723.564 -240.999ZM643.303 -192.605L721.738 -147.371L643.303 -102.138V-192.605ZM722.348 -148.425L643.914 -193.659L722.348 -238.892V-148.425Z" fill="#D7D7D7"/>
<path fill-rule="evenodd" clip-rule="evenodd" d="M563.043 -240.999V-147.019L481.566 -100.031V-194.011L563.043 -240.999ZM482.782 -192.605L561.216 -147.371L482.782 -102.138V-192.605ZM561.826 -148.425L483.392 -193.659L561.826 -238.892V-148.425Z" fill="#D7D7D7"/>
<path fill-rule="evenodd" clip-rule="evenodd" d="M402.521 -240.999V-147.019L321.044 -100.031V-194.011L402.521 -240.999ZM322.26 -192.605L400.694 -147.371L322.26 -102.138V-192.605ZM401.305 -148.425L322.87 -193.659L401.305 -238.892V-148.425Z" fill="#D7D7D7"/>
<path fill-rule="evenodd" clip-rule="evenodd" d="M241.999 -240.999V-147.019L160.522 -100.031V-194.011L241.999 -240.999ZM161.738 -192.605L240.172 -147.371L161.738 -102.138V-192.605ZM240.783 -148.425L162.349 -193.659L240.783 -238.892V-148.425Z" fill="#D7D7D7"/>
<path fill-rule="evenodd" clip-rule="evenodd" d="M81.477 -240.999V-147.019L0 -100.031V-194.011L81.477 -240.999ZM1.2161 -192.605L79.6504 -147.371L1.2161 -102.138V-192.605ZM80.2609 -148.425L1.82665 -193.659L80.2609 -238.892V-148.425Z" fill="#D7D7D7"/>
<path fill-rule="evenodd" clip-rule="evenodd" d="M2088 -194.712V-100.732L2006.52 -53.7435V-147.723L2088 -194.712ZM2007.74 -146.318L2086.17 -101.084L2007.74 -55.8504V-146.318ZM2086.78 -102.138L2008.35 -147.371L2086.78 -192.605V-102.138Z" fill="#D7D7D7"/>
<path fill-rule="evenodd" clip-rule="evenodd" d="M1927.48 -194.712V-100.732L1846 -53.7435V-147.723L1927.48 -194.712ZM1847.22 -146.318L1925.65 -101.084L1847.22 -55.8504V-146.318ZM1926.26 -102.138L1847.83 -147.371L1926.26 -192.605V-102.138Z" fill="#D7D7D7"/>
<path fill-rule="evenodd" clip-rule="evenodd" d="M1766.96 -194.712V-100.732L1685.48 -53.7435V-147.723L1766.96 -194.712ZM1686.7 -146.318L1765.13 -101.084L1686.7 -55.8504V-146.318ZM1765.74 -102.138L1687.31 -147.371L1765.74 -192.605V-102.138Z" fill="#D7D7D7"/>
<path fill-rule="evenodd" clip-rule="evenodd" d="M1606.43 -194.712V-100.732L1524.96 -53.7435V-147.723L1606.43 -194.712ZM1526.17 -146.318L1604.61 -101.084L1526.17 -55.8504V-146.318ZM1605.22 -102.138L1526.78 -147.371L1605.22 -192.605V-102.138Z" fill="#D7D7D7"/>
<path fill-rule="evenodd" clip-rule="evenodd" d="M1445.91 -194.712V-100.732L1364.44 -53.7435V-147.723L1445.91 -194.712ZM1365.65 -146.318L1444.09 -101.084L1365.65 -55.8504V-146.318ZM1444.7 -102.138L1366.26 -147.371L1444.7 -192.605V-102.138Z" fill="#D7D7D7"/>
<path fill-rule="evenodd" clip-rule="evenodd" d="M1285.39 -194.712V-100.732L1203.91 -53.7435V-147.723L1285.39 -194.712ZM1205.13 -146.318L1283.56 -101.084L1205.13 -55.8504V-146.318ZM1284.17 -102.138L1205.74 -147.371L1284.17 -192.605V-102.138Z" fill="#D7D7D7"/>
<path fill-rule="evenodd" clip-rule="evenodd" d="M1124.87 -194.712V-100.732L1043.39 -53.7435V-147.723L1124.87 -194.712ZM1044.61 -146.318L1123.04 -101.084L1044.61 -55.8504V-146.318ZM1123.65 -102.138L1045.22 -147.371L1123.65 -192.605V-102.138Z" fill="#D7D7D7"/>
<path fill-rule="evenodd" clip-rule="evenodd" d="M964.347 -194.712V-100.732L882.87 -53.7435V-147.723L964.347 -194.712ZM884.086 -146.318L962.521 -101.084L884.086 -55.8504V-146.318ZM963.131 -102.138L884.697 -147.371L963.131 -192.605V-102.138Z" fill="#D7D7D7"/>
<path fill-rule="evenodd" clip-rule="evenodd" d="M803.825 -194.712V-100.732L722.348 -53.7435V-147.723L803.825 -194.712ZM723.564 -146.318L801.999 -101.084L723.564 -55.8504V-146.318ZM802.609 -102.138L724.175 -147.371L802.609 -192.605V-102.138Z" fill="#D7D7D7"/>
<path fill-rule="evenodd" clip-rule="evenodd" d="M643.303 -194.712V-100.732L561.826 -53.7435V-147.723L643.303 -194.712ZM563.043 -146.318L641.477 -101.084L563.043 -55.8504V-146.318ZM642.087 -102.138L563.653 -147.371L642.087 -192.605V-102.138Z" fill="#D7D7D7"/>
<path fill-rule="evenodd" clip-rule="evenodd" d="M482.782 -194.712V-100.732L401.305 -53.7435V-147.723L482.782 -194.712ZM402.521 -146.318L480.955 -101.084L402.521 -55.8504V-146.318ZM481.566 -102.138L403.131 -147.371L481.566 -192.605V-102.138Z" fill="#D7D7D7"/>
<path fill-rule="evenodd" clip-rule="evenodd" d="M322.26 -194.712V-100.732L240.783 -53.7435V-147.723L322.26 -194.712ZM241.999 -146.318L320.433 -101.084L241.999 -55.8504V-146.318ZM321.044 -102.138L242.609 -147.371L321.044 -192.605V-102.138Z" fill="#D7D7D7"/>
<path fill-rule="evenodd" clip-rule="evenodd" d="M161.738 -194.712V-100.732L80.2609 -53.7435V-147.723L161.738 -194.712ZM81.477 -146.318L159.911 -101.084L81.477 -55.8504V-146.318ZM160.522 -102.138L82.0876 -147.371L160.522 -192.605V-102.138Z" fill="#D7D7D7"/>
<path fill-rule="evenodd" clip-rule="evenodd" d="M2007.74 -148.425V-54.4448L1926.26 -7.45628V-101.436L2007.74 -148.425ZM1927.48 -100.031L2005.91 -54.7969L1927.48 -9.56316V-100.031ZM2006.52 -55.8504L1928.09 -101.084L2006.52 -146.318V-55.8504Z" fill="#D7D7D7"/>
<path fill-rule="evenodd" clip-rule="evenodd" d="M1847.22 -148.425V-54.4448L1765.74 -7.45628V-101.436L1847.22 -148.425ZM1766.96 -100.031L1845.39 -54.7969L1766.96 -9.56316V-100.031ZM1846 -55.8504L1767.57 -101.084L1846 -146.318V-55.8504Z" fill="#D7D7D7"/>
<path fill-rule="evenodd" clip-rule="evenodd" d="M1686.7 -148.425V-54.4448L1605.22 -7.45628V-101.436L1686.7 -148.425ZM1606.43 -100.031L1684.87 -54.7969L1606.43 -9.56316V-100.031ZM1685.48 -55.8504L1607.05 -101.084L1685.48 -146.318V-55.8504Z" fill="#D7D7D7"/>
<path fill-rule="evenodd" clip-rule="evenodd" d="M1526.17 -148.425V-54.4448L1444.7 -7.45628V-101.436L1526.17 -148.425ZM1445.91 -100.031L1524.35 -54.7969L1445.91 -9.56316V-100.031ZM1524.96 -55.8504L1446.52 -101.084L1524.96 -146.318V-55.8504Z" fill="#D7D7D7"/>
<path fill-rule="evenodd" clip-rule="evenodd" d="M1365.65 -148.425V-54.4448L1284.17 -7.45628V-101.436L1365.65 -148.425ZM1285.39 -100.031L1363.83 -54.7969L1285.39 -9.56316V-100.031ZM1364.44 -55.8504L1286 -101.084L1364.44 -146.318V-55.8504Z" fill="#D7D7D7"/>
<path fill-rule="evenodd" clip-rule="evenodd" d="M1205.13 -148.425V-54.4448L1123.65 -7.45628V-101.436L1205.13 -148.425ZM1124.87 -100.031L1203.3 -54.7969L1124.87 -9.56316V-100.031ZM1203.91 -55.8504L1125.48 -101.084L1203.91 -146.318V-55.8504Z" fill="#D7D7D7"/>
<path fill-rule="evenodd" clip-rule="evenodd" d="M1044.61 -148.425V-54.4448L963.131 -7.45628V-101.436L1044.61 -148.425ZM964.347 -100.031L1042.78 -54.7969L964.347 -9.56316V-100.031ZM1043.39 -55.8504L964.958 -101.084L1043.39 -146.318V-55.8504Z" fill="#D7D7D7"/>
<path fill-rule="evenodd" clip-rule="evenodd" d="M884.086 -148.425V-54.4448L802.609 -7.45628V-101.436L884.086 -148.425ZM803.825 -100.031L882.26 -54.7969L803.825 -9.56316V-100.031ZM882.87 -55.8504L804.436 -101.084L882.87 -146.318V-55.8504Z" fill="#D7D7D7"/>
<path fill-rule="evenodd" clip-rule="evenodd" d="M723.564 -148.425V-54.4448L642.087 -7.45628V-101.436L723.564 -148.425ZM643.303 -100.031L721.738 -54.7969L643.303 -9.56316V-100.031ZM722.348 -55.8504L643.914 -101.084L722.348 -146.318V-55.8504Z" fill="#D7D7D7"/>
<path fill-rule="evenodd" clip-rule="evenodd" d="M563.043 -148.425V-54.4448L481.566 -7.45628V-101.436L563.043 -148.425ZM482.782 -100.031L561.216 -54.7969L482.782 -9.56316V-100.031ZM561.826 -55.8504L483.392 -101.084L561.826 -146.318V-55.8504Z" fill="#D7D7D7"/>
<path fill-rule="evenodd" clip-rule="evenodd" d="M402.521 -148.425V-54.4448L321.044 -7.45628V-101.436L402.521 -148.425ZM322.26 -100.031L400.694 -54.7969L322.26 -9.56316V-100.031ZM401.305 -55.8504L322.87 -101.084L401.305 -146.318V-55.8504Z" fill="#D7D7D7"/>
<path fill-rule="evenodd" clip-rule="evenodd" d="M241.999 -148.425V-54.4448L160.522 -7.45628V-101.436L241.999 -148.425ZM161.738 -100.031L240.172 -54.7969L161.738 -9.56316V-100.031ZM240.783 -55.8504L162.349 -101.084L240.783 -146.318V-55.8504Z" fill="#D7D7D7"/>
<path fill-rule="evenodd" clip-rule="evenodd" d="M81.477 -148.425V-54.4448L0 -7.45628V-101.436L81.477 -148.425ZM1.2161 -100.031L79.6504 -54.7969L1.2161 -9.56316V-100.031ZM80.2609 -55.8504L1.82665 -101.084L80.2609 -146.318V-55.8504Z" fill="#D7D7D7"/>
<path fill-rule="evenodd" clip-rule="evenodd" d="M2088 -102.138V-8.15761L2006.52 38.831V-55.1491L2088 -102.138ZM2007.74 -53.7435L2086.17 -8.5097L2007.74 36.7241V-53.7435ZM2086.78 -9.56316L2008.35 -54.7969L2086.78 -100.031V-9.56316Z" fill="#D7D7D7"/>
<path fill-rule="evenodd" clip-rule="evenodd" d="M1927.48 -102.138V-8.15761L1846 38.831V-55.1491L1927.48 -102.138ZM1847.22 -53.7435L1925.65 -8.5097L1847.22 36.7241V-53.7435ZM1926.26 -9.56316L1847.83 -54.7969L1926.26 -100.031V-9.56316Z" fill="#D7D7D7"/>
<path fill-rule="evenodd" clip-rule="evenodd" d="M1766.96 -102.138V-8.15761L1685.48 38.831V-55.1491L1766.96 -102.138ZM1686.7 -53.7435L1765.13 -8.5097L1686.7 36.7241V-53.7435ZM1765.74 -9.56316L1687.31 -54.7969L1765.74 -100.031V-9.56316Z" fill="#D7D7D7"/>
<path fill-rule="evenodd" clip-rule="evenodd" d="M1606.43 -102.138V-8.15761L1524.96 38.831V-55.1491L1606.43 -102.138ZM1526.17 -53.7435L1604.61 -8.5097L1526.17 36.7241V-53.7435ZM1605.22 -9.56316L1526.78 -54.7969L1605.22 -100.031V-9.56316Z" fill="#D7D7D7"/>
<path fill-rule="evenodd" clip-rule="evenodd" d="M1445.91 -102.138V-8.15761L1364.44 38.831V-55.1491L1445.91 -102.138ZM1365.65 -53.7435L1444.09 -8.5097L1365.65 36.7241V-53.7435ZM1444.7 -9.56316L1366.26 -54.7969L1444.7 -100.031V-9.56316Z" fill="#D7D7D7"/>
<path fill-rule="evenodd" clip-rule="evenodd" d="M1285.39 -102.138V-8.15761L1203.91 38.831V-55.1491L1285.39 -102.138ZM1205.13 -53.7435L1283.56 -8.5097L1205.13 36.7241V-53.7435ZM1284.17 -9.56316L1205.74 -54.7969L1284.17 -100.031V-9.56316Z" fill="#D7D7D7"/>
<path fill-rule="evenodd" clip-rule="evenodd" d="M1124.87 -102.138V-8.15761L1043.39 38.831V-55.1491L1124.87 -102.138ZM1044.61 -53.7435L1123.04 -8.5097L1044.61 36.7241V-53.7435ZM1123.65 -9.56316L1045.22 -54.7969L1123.65 -100.031V-9.56316Z" fill="#D7D7D7"/>
<path fill-rule="evenodd" clip-rule="evenodd" d="M964.347 -102.138V-8.15761L882.87 38.831V-55.1491L964.347 -102.138ZM884.086 -53.7435L962.521 -8.5097L884.086 36.7241V-53.7435ZM963.131 -9.56316L884.697 -54.7969L963.131 -100.031V-9.56316Z" fill="#D7D7D7"/>
<path fill-rule="evenodd" clip-rule="evenodd" d="M803.825 -102.138V-8.15761L722.348 38.831V-55.1491L803.825 -102.138ZM723.564 -53.7435L801.999 -8.5097L723.564 36.7241V-53.7435ZM802.609 -9.56316L724.175 -54.7969L802.609 -100.031V-9.56316Z" fill="#D7D7D7"/>
<path fill-rule="evenodd" clip-rule="evenodd" d="M643.303 -102.138V-8.15761L561.826 38.831V-55.1491L643.303 -102.138ZM563.043 -53.7435L641.477 -8.5097L563.043 36.7241V-53.7435ZM642.087 -9.56316L563.653 -54.7969L642.087 -100.031V-9.56316Z" fill="#D7D7D7"/>
<path fill-rule="evenodd" clip-rule="evenodd" d="M482.782 -102.138V-8.15761L401.305 38.831V-55.1491L482.782 -102.138ZM402.521 -53.7435L480.955 -8.5097L402.521 36.7241V-53.7435ZM481.566 -9.56316L403.131 -54.7969L481.566 -100.031V-9.56316Z" fill="#D7D7D7"/>
<path fill-rule="evenodd" clip-rule="evenodd" d="M322.26 -102.138V-8.15761L240.783 38.831V-55.1491L322.26 -102.138ZM241.999 -53.7435L320.433 -8.5097L241.999 36.7241V-53.7435ZM321.044 -9.56316L242.609 -54.7969L321.044 -100.031V-9.56316Z" fill="#D7D7D7"/>
<path fill-rule="evenodd" clip-rule="evenodd" d="M161.738 -102.138V-8.15761L80.2609 38.831V-55.1491L161.738 -102.138ZM81.477 -53.7435L159.911 -8.5097L81.477 36.7241V-53.7435ZM160.522 -9.56316L82.0876 -54.7969L160.522 -100.031V-9.56316Z" fill="#D7D7D7"/>
<path fill-rule="evenodd" clip-rule="evenodd" d="M2007.74 -55.8504V38.1296L1926.26 85.1182V-8.86183L2007.74 -55.8504ZM1927.48 -7.45628L2005.91 37.7775L1927.48 83.0113V-7.45628ZM2006.52 36.7241L1928.09 -8.5097L2006.52 -53.7435V36.7241Z" fill="#D7D7D7"/>
<path fill-rule="evenodd" clip-rule="evenodd" d="M1847.22 -55.8504V38.1296L1765.74 85.1182V-8.86183L1847.22 -55.8504ZM1766.96 -7.45628L1845.39 37.7775L1766.96 83.0113V-7.45628ZM1846 36.7241L1767.57 -8.5097L1846 -53.7435V36.7241Z" fill="#D7D7D7"/>
<path fill-rule="evenodd" clip-rule="evenodd" d="M1686.7 -55.8504V38.1296L1605.22 85.1182V-8.86183L1686.7 -55.8504ZM1606.43 -7.45628L1684.87 37.7775L1606.43 83.0113V-7.45628ZM1685.48 36.7241L1607.05 -8.5097L1685.48 -53.7435V36.7241Z" fill="#D7D7D7"/>
<path fill-rule="evenodd" clip-rule="evenodd" d="M1526.17 -55.8504V38.1296L1444.7 85.1182V-8.86183L1526.17 -55.8504ZM1445.91 -7.45628L1524.35 37.7775L1445.91 83.0113V-7.45628ZM1524.96 36.7241L1446.52 -8.5097L1524.96 -53.7435V36.7241Z" fill="#D7D7D7"/>
<path fill-rule="evenodd" clip-rule="evenodd" d="M1365.65 -55.8504V38.1296L1284.17 85.1182V-8.86183L1365.65 -55.8504ZM1285.39 -7.45628L1363.83 37.7775L1285.39 83.0113V-7.45628ZM1364.44 36.7241L1286 -8.5097L1364.44 -53.7435V36.7241Z" fill="#D7D7D7"/>
<path fill-rule="evenodd" clip-rule="evenodd" d="M1205.13 -55.8504V38.1296L1123.65 85.1182V-8.86183L1205.13 -55.8504ZM1124.87 -7.45628L1203.3 37.7775L1124.87 83.0113V-7.45628ZM1203.91 36.7241L1125.48 -8.5097L1203.91 -53.7435V36.7241Z" fill="#D7D7D7"/>
<path fill-rule="evenodd" clip-rule="evenodd" d="M1044.61 -55.8504V38.1296L963.131 85.1182V-8.86183L1044.61 -55.8504ZM964.347 -7.45628L1042.78 37.7775L964.347 83.0113V-7.45628ZM1043.39 36.7241L964.958 -8.5097L1043.39 -53.7435V36.7241Z" fill="#D7D7D7"/>
<path fill-rule="evenodd" clip-rule="evenodd" d="M884.086 -55.8504V38.1296L802.609 85.1182V-8.86183L884.086 -55.8504ZM803.825 -7.45628L882.26 37.7775L803.825 83.0113V-7.45628ZM882.87 36.7241L804.436 -8.5097L882.87 -53.7435V36.7241Z" fill="#D7D7D7"/>
<path fill-rule="evenodd" clip-rule="evenodd" d="M723.564 -55.8504V38.1296L642.087 85.1182V-8.86183L723.564 -55.8504ZM643.303 -7.45628L721.738 37.7775L643.303 83.0113V-7.45628ZM722.348 36.7241L643.914 -8.5097L722.348 -53.7435V36.7241Z" fill="#D7D7D7"/>
<path fill-rule="evenodd" clip-rule="evenodd" d="M563.043 -55.8504V38.1296L481.566 85.1182V-8.86183L563.043 -55.8504ZM482.782 -7.45628L561.216 37.7775L482.782 83.0113V-7.45628ZM561.826 36.7241L483.392 -8.5097L561.826 -53.7435V36.7241Z" fill="#D7D7D7"/>
<path fill-rule="evenodd" clip-rule="evenodd" d="M402.521 -55.8504V38.1296L321.044 85.1182V-8.86183L402.521 -55.8504ZM322.26 -7.45628L400.694 37.7775L322.26 83.0113V-7.45628ZM401.305 36.7241L322.87 -8.5097L401.305 -53.7435V36.7241Z" fill="#D7D7D7"/>
<path fill-rule="evenodd" clip-rule="evenodd" d="M241.999 -55.8504V38.1296L160.522 85.1182V-8.86183L241.999 -55.8504ZM161.738 -7.45628L240.172 37.7775L161.738 83.0113V-7.45628ZM240.783 36.7241L162.349 -8.5097L240.783 -53.7435V36.7241Z" fill="#D7D7D7"/>
<path fill-rule="evenodd" clip-rule="evenodd" d="M81.477 -55.8504V38.1296L0 85.1182V-8.86183L81.477 -55.8504ZM1.2161 -7.45628L79.6504 37.7775L1.2161 83.0113V-7.45628ZM80.2609 36.7241L1.82665 -8.5097L80.2609 -53.7435V36.7241Z" fill="#D7D7D7"/>
<path fill-rule="evenodd" clip-rule="evenodd" d="M2088 -9.56316V84.4168L2006.52 131.405V37.4254L2088 -9.56316ZM2007.74 38.831L2086.17 84.0647L2007.74 129.298V38.831ZM2086.78 83.0113L2008.35 37.7775L2086.78 -7.45628V83.0113Z" fill="#D7D7D7"/>
<path fill-rule="evenodd" clip-rule="evenodd" d="M1927.48 -9.56316V84.4168L1846 131.405V37.4254L1927.48 -9.56316ZM1847.22 38.831L1925.65 84.0647L1847.22 129.298V38.831ZM1926.26 83.0113L1847.83 37.7775L1926.26 -7.45628V83.0113Z" fill="#D7D7D7"/>
<path fill-rule="evenodd" clip-rule="evenodd" d="M1766.96 -9.56316V84.4168L1685.48 131.405V37.4254L1766.96 -9.56316ZM1686.7 38.831L1765.13 84.0647L1686.7 129.298V38.831ZM1765.74 83.0113L1687.31 37.7775L1765.74 -7.45628V83.0113Z" fill="#D7D7D7"/>
<path fill-rule="evenodd" clip-rule="evenodd" d="M1606.43 -9.56316V84.4168L1524.96 131.405V37.4254L1606.43 -9.56316ZM1526.17 38.831L1604.61 84.0647L1526.17 129.298V38.831ZM1605.22 83.0113L1526.78 37.7775L1605.22 -7.45628V83.0113Z" fill="#D7D7D7"/>
<path fill-rule="evenodd" clip-rule="evenodd" d="M1445.91 -9.56316V84.4168L1364.44 131.405V37.4254L1445.91 -9.56316ZM1365.65 38.831L1444.09 84.0647L1365.65 129.298V38.831ZM1444.7 83.0113L1366.26 37.7775L1444.7 -7.45628V83.0113Z" fill="#D7D7D7"/>
<path fill-rule="evenodd" clip-rule="evenodd" d="M1285.39 -9.56316V84.4168L1203.91 131.405V37.4254L1285.39 -9.56316ZM1205.13 38.831L1283.56 84.0647L1205.13 129.298V38.831ZM1284.17 83.0113L1205.74 37.7775L1284.17 -7.45628V83.0113Z" fill="#D7D7D7"/>
<path fill-rule="evenodd" clip-rule="evenodd" d="M1124.87 -9.56316V84.4168L1043.39 131.405V37.4254L1124.87 -9.56316ZM1044.61 38.831L1123.04 84.0647L1044.61 129.298V38.831ZM1123.65 83.0113L1045.22 37.7775L1123.65 -7.45628V83.0113Z" fill="#D7D7D7"/>
<path fill-rule="evenodd" clip-rule="evenodd" d="M964.347 -9.56316V84.4168L882.87 131.405V37.4254L964.347 -9.56316ZM884.086 38.831L962.521 84.0647L884.086 129.298V38.831ZM963.131 83.0113L884.697 37.7775L963.131 -7.45628V83.0113Z" fill="#D7D7D7"/>
<path fill-rule="evenodd" clip-rule="evenodd" d="M803.825 -9.56316V84.4168L722.348 131.405V37.4254L803.825 -9.56316ZM723.564 38.831L801.999 84.0647L723.564 129.298V38.831ZM802.609 83.0113L724.175 37.7775L802.609 -7.45628V83.0113Z" fill="#D7D7D7"/>
<path fill-rule="evenodd" clip-rule="evenodd" d="M643.303 -9.56316V84.4168L561.826 131.405V37.4254L643.303 -9.56316ZM563.043 38.831L641.477 84.0647L563.043 129.298V38.831ZM642.087 83.0113L563.653 37.7775L642.087 -7.45628V83.0113Z" fill="#D7D7D7"/>
<path fill-rule="evenodd" clip-rule="evenodd" d="M482.782 -9.56316V84.4168L401.305 131.405V37.4254L482.782 -9.56316ZM402.521 38.831L480.955 84.0647L402.521 129.298V38.831ZM481.566 83.0113L403.131 37.7775L481.566 -7.45628V83.0113Z" fill="#D7D7D7"/>
<path fill-rule="evenodd" clip-rule="evenodd" d="M322.26 -9.56316V84.4168L240.783 131.405V37.4254L322.26 -9.56316ZM241.999 38.831L320.433 84.0647L241.999 129.298V38.831ZM321.044 83.0113L242.609 37.7775L321.044 -7.45628V83.0113Z" fill="#D7D7D7"/>
<path fill-rule="evenodd" clip-rule="evenodd" d="M161.738 -9.56316V84.4168L80.2609 131.405V37.4254L161.738 -9.56316ZM81.477 38.831L159.911 84.0647L81.477 129.298V38.831ZM160.522 83.0113L82.0876 37.7775L160.522 -7.45628V83.0113Z" fill="#D7D7D7"/>
<path fill-rule="evenodd" clip-rule="evenodd" d="M2007.74 36.7241V130.704L1926.26 177.693V83.7126L2007.74 36.7241ZM1927.48 85.1182L2005.91 130.352L1927.48 175.586V85.1182ZM2006.52 129.298L1928.09 84.0647L2006.52 38.831V129.298Z" fill="#D7D7D7"/>
<path fill-rule="evenodd" clip-rule="evenodd" d="M1847.22 36.7241V130.704L1765.74 177.693V83.7126L1847.22 36.7241ZM1766.96 85.1182L1845.39 130.352L1766.96 175.586V85.1182ZM1846 129.298L1767.57 84.0647L1846 38.831V129.298Z" fill="#D7D7D7"/>
<path fill-rule="evenodd" clip-rule="evenodd" d="M1686.7 36.7241V130.704L1605.22 177.693V83.7126L1686.7 36.7241ZM1606.43 85.1182L1684.87 130.352L1606.43 175.586V85.1182ZM1685.48 129.298L1607.05 84.0647L1685.48 38.831V129.298Z" fill="#D7D7D7"/>
<path fill-rule="evenodd" clip-rule="evenodd" d="M1526.17 36.7241V130.704L1444.7 177.693V83.7126L1526.17 36.7241ZM1445.91 85.1182L1524.35 130.352L1445.91 175.586V85.1182ZM1524.96 129.298L1446.52 84.0647L1524.96 38.831V129.298Z" fill="#D7D7D7"/>
<path fill-rule="evenodd" clip-rule="evenodd" d="M1365.65 36.7241V130.704L1284.17 177.693V83.7126L1365.65 36.7241ZM1285.39 85.1182L1363.83 130.352L1285.39 175.586V85.1182ZM1364.44 129.298L1286 84.0647L1364.44 38.831V129.298Z" fill="#D7D7D7"/>
<path fill-rule="evenodd" clip-rule="evenodd" d="M1205.13 36.7241V130.704L1123.65 177.693V83.7126L1205.13 36.7241ZM1124.87 85.1182L1203.3 130.352L1124.87 175.586V85.1182ZM1203.91 129.298L1125.48 84.0647L1203.91 38.831V129.298Z" fill="#D7D7D7"/>
<path fill-rule="evenodd" clip-rule="evenodd" d="M1044.61 36.7241V130.704L963.131 177.693V83.7126L1044.61 36.7241ZM964.347 85.1182L1042.78 130.352L964.347 175.586V85.1182ZM1043.39 129.298L964.958 84.0647L1043.39 38.831V129.298Z" fill="#D7D7D7"/>
<path fill-rule="evenodd" clip-rule="evenodd" d="M884.086 36.7241V130.704L802.609 177.693V83.7126L884.086 36.7241ZM803.825 85.1182L882.26 130.352L803.825 175.586V85.1182ZM882.87 129.298L804.436 84.0647L882.87 38.831V129.298Z" fill="#D7D7D7"/>
<path fill-rule="evenodd" clip-rule="evenodd" d="M723.564 36.7241V130.704L642.087 177.693V83.7126L723.564 36.7241ZM643.303 85.1182L721.738 130.352L643.303 175.586V85.1182ZM722.348 129.298L643.914 84.0647L722.348 38.831V129.298Z" fill="#D7D7D7"/>
<path fill-rule="evenodd" clip-rule="evenodd" d="M563.043 36.7241V130.704L481.566 177.693V83.7126L563.043 36.7241ZM482.782 85.1182L561.216 130.352L482.782 175.586V85.1182ZM561.826 129.298L483.392 84.0647L561.826 38.831V129.298Z" fill="#D7D7D7"/>
<path fill-rule="evenodd" clip-rule="evenodd" d="M402.521 36.7241V130.704L321.044 177.693V83.7126L402.521 36.7241ZM322.26 85.1182L400.694 130.352L322.26 175.586V85.1182ZM401.305 129.298L322.87 84.0647L401.305 38.831V129.298Z" fill="#D7D7D7"/>
<path fill-rule="evenodd" clip-rule="evenodd" d="M241.999 36.7241V130.704L160.522 177.693V83.7126L241.999 36.7241ZM161.738 85.1182L240.172 130.352L161.738 175.586V85.1182ZM240.783 129.298L162.349 84.0647L240.783 38.831V129.298Z" fill="#D7D7D7"/>
<path fill-rule="evenodd" clip-rule="evenodd" d="M81.477 36.7241V130.704L0 177.693V83.7126L81.477 36.7241ZM1.2161 85.1182L79.6504 130.352L1.2161 175.586V85.1182ZM80.2609 129.298L1.82665 84.0647L80.2609 38.831V129.298Z" fill="#D7D7D7"/>
<path fill-rule="evenodd" clip-rule="evenodd" d="M2088 83.0113V176.991L2006.52 223.98V130L2088 83.0113ZM2007.74 131.405L2086.17 176.639L2007.74 221.873V131.405ZM2086.78 175.586L2008.35 130.352L2086.78 85.1182V175.586Z" fill="#D7D7D7"/>
<path fill-rule="evenodd" clip-rule="evenodd" d="M1927.48 83.0113V176.991L1846 223.98V130L1927.48 83.0113ZM1847.22 131.405L1925.65 176.639L1847.22 221.873V131.405ZM1926.26 175.586L1847.83 130.352L1926.26 85.1182V175.586Z" fill="#D7D7D7"/>
<path fill-rule="evenodd" clip-rule="evenodd" d="M1766.96 83.0113V176.991L1685.48 223.98V130L1766.96 83.0113ZM1686.7 131.405L1765.13 176.639L1686.7 221.873V131.405ZM1765.74 175.586L1687.31 130.352L1765.74 85.1182V175.586Z" fill="#D7D7D7"/>
<path fill-rule="evenodd" clip-rule="evenodd" d="M1606.43 83.0113V176.991L1524.96 223.98V130L1606.43 83.0113ZM1526.17 131.405L1604.61 176.639L1526.17 221.873V131.405ZM1605.22 175.586L1526.78 130.352L1605.22 85.1182V175.586Z" fill="#D7D7D7"/>
<path fill-rule="evenodd" clip-rule="evenodd" d="M1445.91 83.0113V176.991L1364.44 223.98V130L1445.91 83.0113ZM1365.65 131.405L1444.09 176.639L1365.65 221.873V131.405ZM1444.7 175.586L1366.26 130.352L1444.7 85.1182V175.586Z" fill="#D7D7D7"/>
<path fill-rule="evenodd" clip-rule="evenodd" d="M1285.39 83.0113V176.991L1203.91 223.98V130L1285.39 83.0113ZM1205.13 131.405L1283.56 176.639L1205.13 221.873V131.405ZM1284.17 175.586L1205.74 130.352L1284.17 85.1182V175.586Z" fill="#D7D7D7"/>
<path fill-rule="evenodd" clip-rule="evenodd" d="M1124.87 83.0113V176.991L1043.39 223.98V130L1124.87 83.0113ZM1044.61 131.405L1123.04 176.639L1044.61 221.873V131.405ZM1123.65 175.586L1045.22 130.352L1123.65 85.1182V175.586Z" fill="#D7D7D7"/>
<path fill-rule="evenodd" clip-rule="evenodd" d="M964.347 83.0113V176.991L882.87 223.98V130L964.347 83.0113ZM884.086 131.405L962.521 176.639L884.086 221.873V131.405ZM963.131 175.586L884.697 130.352L963.131 85.1182V175.586Z" fill="#D7D7D7"/>
<path fill-rule="evenodd" clip-rule="evenodd" d="M803.825 83.0113V176.991L722.348 223.98V130L803.825 83.0113ZM723.564 131.405L801.999 176.639L723.564 221.873V131.405ZM802.609 175.586L724.175 130.352L802.609 85.1182V175.586Z" fill="#D7D7D7"/>
<path fill-rule="evenodd" clip-rule="evenodd" d="M643.303 83.0113V176.991L561.826 223.98V130L643.303 83.0113ZM563.043 131.405L641.477 176.639L563.043 221.873V131.405ZM642.087 175.586L563.653 130.352L642.087 85.1182V175.586Z" fill="#D7D7D7"/>
<path fill-rule="evenodd" clip-rule="evenodd" d="M482.782 83.0113V176.991L401.305 223.98V130L482.782 83.0113ZM402.521 131.405L480.955 176.639L402.521 221.873V131.405ZM481.566 175.586L403.131 130.352L481.566 85.1182V175.586Z" fill="#D7D7D7"/>
<path fill-rule="evenodd" clip-rule="evenodd" d="M322.26 83.0113V176.991L240.783 223.98V130L322.26 83.0113ZM241.999 131.405L320.433 176.639L241.999 221.873V131.405ZM321.044 175.586L242.609 130.352L321.044 85.1182V175.586Z" fill="#D7D7D7"/>
<path fill-rule="evenodd" clip-rule="evenodd" d="M161.738 83.0113V176.991L80.2609 223.98V130L161.738 83.0113ZM81.477 131.405L159.911 176.639L81.477 221.873V131.405ZM160.522 175.586L82.0876 130.352L160.522 85.1182V175.586Z" fill="#D7D7D7"/>
<path fill-rule="evenodd" clip-rule="evenodd" d="M2007.74 129.298V223.278L1926.26 270.267V176.287L2007.74 129.298ZM1927.48 177.693L2005.91 222.926L1927.48 268.16V177.693ZM2006.52 221.873L1928.09 176.639L2006.52 131.405V221.873Z" fill="#D7D7D7"/>
<path fill-rule="evenodd" clip-rule="evenodd" d="M1847.22 129.298V223.278L1765.74 270.267V176.287L1847.22 129.298ZM1766.96 177.693L1845.39 222.926L1766.96 268.16V177.693ZM1846 221.873L1767.57 176.639L1846 131.405V221.873Z" fill="#D7D7D7"/>
<path fill-rule="evenodd" clip-rule="evenodd" d="M1686.7 129.298V223.278L1605.22 270.267V176.287L1686.7 129.298ZM1606.43 177.693L1684.87 222.926L1606.43 268.16V177.693ZM1685.48 221.873L1607.05 176.639L1685.48 131.405V221.873Z" fill="#D7D7D7"/>
<path fill-rule="evenodd" clip-rule="evenodd" d="M1526.17 129.298V223.278L1444.7 270.267V176.287L1526.17 129.298ZM1445.91 177.693L1524.35 222.926L1445.91 268.16V177.693ZM1524.96 221.873L1446.52 176.639L1524.96 131.405V221.873Z" fill="#D7D7D7"/>
<path fill-rule="evenodd" clip-rule="evenodd" d="M1365.65 129.298V223.278L1284.17 270.267V176.287L1365.65 129.298ZM1285.39 177.693L1363.83 222.926L1285.39 268.16V177.693ZM1364.44 221.873L1286 176.639L1364.44 131.405V221.873Z" fill="#D7D7D7"/>
<path fill-rule="evenodd" clip-rule="evenodd" d="M1205.13 129.298V223.278L1123.65 270.267V176.287L1205.13 129.298ZM1124.87 177.693L1203.3 222.926L1124.87 268.16V177.693ZM1203.91 221.873L1125.48 176.639L1203.91 131.405V221.873Z" fill="#D7D7D7"/>
<path fill-rule="evenodd" clip-rule="evenodd" d="M1044.61 129.298V223.278L963.131 270.267V176.287L1044.61 129.298ZM964.347 177.693L1042.78 222.926L964.347 268.16V177.693ZM1043.39 221.873L964.958 176.639L1043.39 131.405V221.873Z" fill="#D7D7D7"/>
<path fill-rule="evenodd" clip-rule="evenodd" d="M884.086 129.298V223.278L802.609 270.267V176.287L884.086 129.298ZM803.825 177.693L882.26 222.926L803.825 268.16V177.693ZM882.87 221.873L804.436 176.639L882.87 131.405V221.873Z" fill="#D7D7D7"/>
<path fill-rule="evenodd" clip-rule="evenodd" d="M723.564 129.298V223.278L642.087 270.267V176.287L723.564 129.298ZM643.303 177.693L721.738 222.926L643.303 268.16V177.693ZM722.348 221.873L643.914 176.639L722.348 131.405V221.873Z" fill="#D7D7D7"/>
<path fill-rule="evenodd" clip-rule="evenodd" d="M563.043 129.298V223.278L481.566 270.267V176.287L563.043 129.298ZM482.782 177.693L561.216 222.926L482.782 268.16V177.693ZM561.826 221.873L483.392 176.639L561.826 131.405V221.873Z" fill="#D7D7D7"/>
<path fill-rule="evenodd" clip-rule="evenodd" d="M402.521 129.298V223.278L321.044 270.267V176.287L402.521 129.298ZM322.26 177.693L400.694 222.926L322.26 268.16V177.693ZM401.305 221.873L322.87 176.639L401.305 131.405V221.873Z" fill="#D7D7D7"/>
<path fill-rule="evenodd" clip-rule="evenodd" d="M241.999 129.298V223.278L160.522 270.267V176.287L241.999 129.298ZM161.738 177.693L240.172 222.926L161.738 268.16V177.693ZM240.783 221.873L162.349 176.639L240.783 131.405V221.873Z" fill="#D7D7D7"/>
<path fill-rule="evenodd" clip-rule="evenodd" d="M81.477 129.298V223.278L0 270.267V176.287L81.477 129.298ZM1.2161 177.693L79.6504 222.926L1.2161 268.16V177.693ZM80.2609 221.873L1.82665 176.639L80.2609 131.405V221.873Z" fill="#D7D7D7"/>
<path fill-rule="evenodd" clip-rule="evenodd" d="M2088 175.586V269.566L2006.52 316.554V222.574L2088 175.586ZM2007.74 223.98L2086.17 269.214L2007.74 314.447V223.98ZM2086.78 268.16L2008.35 222.926L2086.78 177.693V268.16Z" fill="#D7D7D7"/>
<path fill-rule="evenodd" clip-rule="evenodd" d="M1927.48 175.586V269.566L1846 316.554V222.574L1927.48 175.586ZM1847.22 223.98L1925.65 269.214L1847.22 314.447V223.98ZM1926.26 268.16L1847.83 222.926L1926.26 177.693V268.16Z" fill="#D7D7D7"/>
<path fill-rule="evenodd" clip-rule="evenodd" d="M1766.96 175.586V269.566L1685.48 316.554V222.574L1766.96 175.586ZM1686.7 223.98L1765.13 269.214L1686.7 314.447V223.98ZM1765.74 268.16L1687.31 222.926L1765.74 177.693V268.16Z" fill="#D7D7D7"/>
<path fill-rule="evenodd" clip-rule="evenodd" d="M1606.43 175.586V269.566L1524.96 316.554V222.574L1606.43 175.586ZM1526.17 223.98L1604.61 269.214L1526.17 314.447V223.98ZM1605.22 268.16L1526.78 222.926L1605.22 177.693V268.16Z" fill="#D7D7D7"/>
<path fill-rule="evenodd" clip-rule="evenodd" d="M1445.91 175.586V269.566L1364.44 316.554V222.574L1445.91 175.586ZM1365.65 223.98L1444.09 269.214L1365.65 314.447V223.98ZM1444.7 268.16L1366.26 222.926L1444.7 177.693V268.16Z" fill="#D7D7D7"/>
<path fill-rule="evenodd" clip-rule="evenodd" d="M1285.39 175.586V269.566L1203.91 316.554V222.574L1285.39 175.586ZM1205.13 223.98L1283.56 269.214L1205.13 314.447V223.98ZM1284.17 268.16L1205.74 222.926L1284.17 177.693V268.16Z" fill="#D7D7D7"/>
<path fill-rule="evenodd" clip-rule="evenodd" d="M1124.87 175.586V269.566L1043.39 316.554V222.574L1124.87 175.586ZM1044.61 223.98L1123.04 269.214L1044.61 314.447V223.98ZM1123.65 268.16L1045.22 222.926L1123.65 177.693V268.16Z" fill="#D7D7D7"/>
<path fill-rule="evenodd" clip-rule="evenodd" d="M964.347 175.586V269.566L882.87 316.554V222.574L964.347 175.586ZM884.086 223.98L962.521 269.214L884.086 314.447V223.98ZM963.131 268.16L884.697 222.926L963.131 177.693V268.16Z" fill="#D7D7D7"/>
<path fill-rule="evenodd" clip-rule="evenodd" d="M803.825 175.586V269.566L722.348 316.554V222.574L803.825 175.586ZM723.564 223.98L801.999 269.214L723.564 314.447V223.98ZM802.609 268.16L724.175 222.926L802.609 177.693V268.16Z" fill="#D7D7D7"/>
<path fill-rule="evenodd" clip-rule="evenodd" d="M643.303 175.586V269.566L561.826 316.554V222.574L643.303 175.586ZM563.043 223.98L641.477 269.214L563.043 314.447V223.98ZM642.087 268.16L563.653 222.926L642.087 177.693V268.16Z" fill="#D7D7D7"/>
<path fill-rule="evenodd" clip-rule="evenodd" d="M482.782 175.586V269.566L401.305 316.554V222.574L482.782 175.586ZM402.521 223.98L480.955 269.214L402.521 314.447V223.98ZM481.566 268.16L403.131 222.926L481.566 177.693V268.16Z" fill="#D7D7D7"/>
<path fill-rule="evenodd" clip-rule="evenodd" d="M322.26 175.586V269.566L240.783 316.554V222.574L322.26 175.586ZM241.999 223.98L320.433 269.214L241.999 314.447V223.98ZM321.044 268.16L242.609 222.926L321.044 177.693V268.16Z" fill="#D7D7D7"/>
<path fill-rule="evenodd" clip-rule="evenodd" d="M161.738 175.586V269.566L80.2609 316.554V222.574L161.738 175.586ZM81.477 223.98L159.911 269.214L81.477 314.447V223.98ZM160.522 268.16L82.0876 222.926L160.522 177.693V268.16Z" fill="#D7D7D7"/>
<path fill-rule="evenodd" clip-rule="evenodd" d="M2088 268.16V362.14L2006.52 409.129V315.149L2088 268.16ZM2007.74 316.554L2086.17 361.788L2007.74 407.022V316.554ZM2086.78 360.735L2008.35 315.501L2086.78 270.267V360.735Z" fill="#D7D7D7"/>
<path fill-rule="evenodd" clip-rule="evenodd" d="M1927.48 268.16V362.14L1846 409.129V315.149L1927.48 268.16ZM1847.22 316.554L1925.65 361.788L1847.22 407.022V316.554ZM1926.26 360.735L1847.83 315.501L1926.26 270.267V360.735Z" fill="#D7D7D7"/>
<path fill-rule="evenodd" clip-rule="evenodd" d="M1766.96 268.16V362.14L1685.48 409.129V315.149L1766.96 268.16ZM1686.7 316.554L1765.13 361.788L1686.7 407.022V316.554ZM1765.74 360.735L1687.31 315.501L1765.74 270.267V360.735Z" fill="#D7D7D7"/>
<path fill-rule="evenodd" clip-rule="evenodd" d="M1606.43 268.16V362.14L1524.96 409.129V315.149L1606.43 268.16ZM1526.17 316.554L1604.61 361.788L1526.17 407.022V316.554ZM1605.22 360.735L1526.78 315.501L1605.22 270.267V360.735Z" fill="#D7D7D7"/>
<path fill-rule="evenodd" clip-rule="evenodd" d="M1445.91 268.16V362.14L1364.44 409.129V315.149L1445.91 268.16ZM1365.65 316.554L1444.09 361.788L1365.65 407.022V316.554ZM1444.7 360.735L1366.26 315.501L1444.7 270.267V360.735Z" fill="#D7D7D7"/>
<path fill-rule="evenodd" clip-rule="evenodd" d="M1285.39 268.16V362.14L1203.91 409.129V315.149L1285.39 268.16ZM1205.13 316.554L1283.56 361.788L1205.13 407.022V316.554ZM1284.17 360.735L1205.74 315.501L1284.17 270.267V360.735Z" fill="#D7D7D7"/>
<path fill-rule="evenodd" clip-rule="evenodd" d="M1124.87 268.16V362.14L1043.39 409.129V315.149L1124.87 268.16ZM1044.61 316.554L1123.04 361.788L1044.61 407.022V316.554ZM1123.65 360.735L1045.22 315.501L1123.65 270.267V360.735Z" fill="#D7D7D7"/>
<path fill-rule="evenodd" clip-rule="evenodd" d="M964.347 268.16V362.14L882.87 409.129V315.149L964.347 268.16ZM884.086 316.554L962.521 361.788L884.086 407.022V316.554ZM963.131 360.735L884.697 315.501L963.131 270.267V360.735Z" fill="#D7D7D7"/>
<path fill-rule="evenodd" clip-rule="evenodd" d="M803.825 268.16V362.14L722.348 409.129V315.149L803.825 268.16ZM723.564 316.554L801.999 361.788L723.564 407.022V316.554ZM802.609 360.735L724.175 315.501L802.609 270.267V360.735Z" fill="#D7D7D7"/>
<path fill-rule="evenodd" clip-rule="evenodd" d="M643.303 268.16V362.14L561.826 409.129V315.149L643.303 268.16ZM563.043 316.554L641.477 361.788L563.043 407.022V316.554ZM642.087 360.735L563.653 315.501L642.087 270.267V360.735Z" fill="#D7D7D7"/>
<path fill-rule="evenodd" clip-rule="evenodd" d="M482.782 268.16V362.14L401.305 409.129V315.149L482.782 268.16ZM402.521 316.554L480.955 361.788L402.521 407.022V316.554ZM481.566 360.735L403.131 315.501L481.566 270.267V360.735Z" fill="#D7D7D7"/>
<path fill-rule="evenodd" clip-rule="evenodd" d="M322.26 268.16V362.14L240.783 409.129V315.149L322.26 268.16ZM241.999 316.554L320.433 361.788L241.999 407.022V316.554ZM321.044 360.735L242.609 315.501L321.044 270.267V360.735Z" fill="#D7D7D7"/>
<path fill-rule="evenodd" clip-rule="evenodd" d="M161.738 268.16V362.14L80.2609 409.129V315.149L161.738 268.16ZM81.477 316.554L159.911 361.788L81.477 407.022V316.554ZM160.522 360.735L82.0876 315.501L160.522 270.267V360.735Z" fill="#D7D7D7"/>
<path fill-rule="evenodd" clip-rule="evenodd" d="M2088 360.735V454.715L2006.52 501.703V407.723L2088 360.735ZM2007.74 409.129L2086.17 454.362L2007.74 499.596V409.129ZM2086.78 453.309L2008.35 408.075L2086.78 362.841V453.309Z" fill="#D7D7D7"/>
<path fill-rule="evenodd" clip-rule="evenodd" d="M1927.48 360.735V454.715L1846 501.703V407.723L1927.48 360.735ZM1847.22 409.129L1925.65 454.362L1847.22 499.596V409.129ZM1926.26 453.309L1847.83 408.075L1926.26 362.841V453.309Z" fill="#D7D7D7"/>
<path fill-rule="evenodd" clip-rule="evenodd" d="M1766.96 360.735V454.715L1685.48 501.703V407.723L1766.96 360.735ZM1686.7 409.129L1765.13 454.362L1686.7 499.596V409.129ZM1765.74 453.309L1687.31 408.075L1765.74 362.841V453.309Z" fill="#D7D7D7"/>
<path fill-rule="evenodd" clip-rule="evenodd" d="M1606.43 360.735V454.715L1524.96 501.703V407.723L1606.43 360.735ZM1526.17 409.129L1604.61 454.362L1526.17 499.596V409.129ZM1605.22 453.309L1526.78 408.075L1605.22 362.841V453.309Z" fill="#D7D7D7"/>
<path fill-rule="evenodd" clip-rule="evenodd" d="M1445.91 360.735V454.715L1364.44 501.703V407.723L1445.91 360.735ZM1365.65 409.129L1444.09 454.362L1365.65 499.596V409.129ZM1444.7 453.309L1366.26 408.075L1444.7 362.841V453.309Z" fill="#D7D7D7"/>
<path fill-rule="evenodd" clip-rule="evenodd" d="M1285.39 360.735V454.715L1203.91 501.703V407.723L1285.39 360.735ZM1205.13 409.129L1283.56 454.362L1205.13 499.596V409.129ZM1284.17 453.309L1205.74 408.075L1284.17 362.841V453.309Z" fill="#D7D7D7"/>
<path fill-rule="evenodd" clip-rule="evenodd" d="M1124.87 360.735V454.715L1043.39 501.703V407.723L1124.87 360.735ZM1044.61 409.129L1123.04 454.362L1044.61 499.596V409.129ZM1123.65 453.309L1045.22 408.075L1123.65 362.841V453.309Z" fill="#D7D7D7"/>
<path fill-rule="evenodd" clip-rule="evenodd" d="M964.347 360.735V454.715L882.87 501.703V407.723L964.347 360.735ZM884.086 409.129L962.521 454.362L884.086 499.596V409.129ZM963.131 453.309L884.697 408.075L963.131 362.841V453.309Z" fill="#D7D7D7"/>
<path fill-rule="evenodd" clip-rule="evenodd" d="M803.825 360.735V454.715L722.348 501.703V407.723L803.825 360.735ZM723.564 409.129L801.999 454.362L723.564 499.596V409.129ZM802.609 453.309L724.175 408.075L802.609 362.841V453.309Z" fill="#D7D7D7"/>
<path fill-rule="evenodd" clip-rule="evenodd" d="M643.303 360.735V454.715L561.826 501.703V407.723L643.303 360.735ZM563.043 409.129L641.477 454.362L563.043 499.596V409.129ZM642.087 453.309L563.653 408.075L642.087 362.841V453.309Z" fill="#D7D7D7"/>
<path fill-rule="evenodd" clip-rule="evenodd" d="M482.782 360.735V454.715L401.305 501.703V407.723L482.782 360.735ZM402.521 409.129L480.955 454.362L402.521 499.596V409.129ZM481.566 453.309L403.131 408.075L481.566 362.841V453.309Z" fill="#D7D7D7"/>
<path fill-rule="evenodd" clip-rule="evenodd" d="M322.26 360.735V454.715L240.783 501.703V407.723L322.26 360.735ZM241.999 409.129L320.433 454.362L241.999 499.596V409.129ZM321.044 453.309L242.609 408.075L321.044 362.841V453.309Z" fill="#D7D7D7"/>
<path fill-rule="evenodd" clip-rule="evenodd" d="M161.738 360.735V454.715L80.2609 501.703V407.723L161.738 360.735ZM81.477 409.129L159.911 454.362L81.477 499.596V409.129ZM160.522 453.309L82.0876 408.075L160.522 362.841V453.309Z" fill="#D7D7D7"/>
<path fill-rule="evenodd" clip-rule="evenodd" d="M2088 453.309V547.289L2006.52 594.278V500.298L2088 453.309ZM2007.74 501.703L2086.17 546.937L2007.74 592.171V501.703ZM2086.78 545.883L2008.35 500.65L2086.78 455.416V545.883Z" fill="#D7D7D7"/>
<path fill-rule="evenodd" clip-rule="evenodd" d="M1927.48 453.309V547.289L1846 594.278V500.298L1927.48 453.309ZM1847.22 501.703L1925.65 546.937L1847.22 592.171V501.703ZM1926.26 545.883L1847.83 500.65L1926.26 455.416V545.883Z" fill="#D7D7D7"/>
<path fill-rule="evenodd" clip-rule="evenodd" d="M1766.96 453.309V547.289L1685.48 594.278V500.298L1766.96 453.309ZM1686.7 501.703L1765.13 546.937L1686.7 592.171V501.703ZM1765.74 545.883L1687.31 500.65L1765.74 455.416V545.883Z" fill="#D7D7D7"/>
<path fill-rule="evenodd" clip-rule="evenodd" d="M1606.43 453.309V547.289L1524.96 594.278V500.298L1606.43 453.309ZM1526.17 501.703L1604.61 546.937L1526.17 592.171V501.703ZM1605.22 545.883L1526.78 500.65L1605.22 455.416V545.883Z" fill="#D7D7D7"/>
<path fill-rule="evenodd" clip-rule="evenodd" d="M1445.91 453.309V547.289L1364.44 594.278V500.298L1445.91 453.309ZM1365.65 501.703L1444.09 546.937L1365.65 592.171V501.703ZM1444.7 545.883L1366.26 500.65L1444.7 455.416V545.883Z" fill="#D7D7D7"/>
<path fill-rule="evenodd" clip-rule="evenodd" d="M1285.39 453.309V547.289L1203.91 594.278V500.298L1285.39 453.309ZM1205.13 501.703L1283.56 546.937L1205.13 592.171V501.703ZM1284.17 545.883L1205.74 500.65L1284.17 455.416V545.883Z" fill="#D7D7D7"/>
<path fill-rule="evenodd" clip-rule="evenodd" d="M1124.87 453.309V547.289L1043.39 594.278V500.298L1124.87 453.309ZM1044.61 501.703L1123.04 546.937L1044.61 592.171V501.703ZM1123.65 545.883L1045.22 500.65L1123.65 455.416V545.883Z" fill="#D7D7D7"/>
<path fill-rule="evenodd" clip-rule="evenodd" d="M964.347 453.309V547.289L882.87 594.278V500.298L964.347 453.309ZM884.086 501.703L962.521 546.937L884.086 592.171V501.703ZM963.131 545.883L884.697 500.65L963.131 455.416V545.883Z" fill="#D7D7D7"/>
<path fill-rule="evenodd" clip-rule="evenodd" d="M803.825 453.309V547.289L722.348 594.278V500.298L803.825 453.309ZM723.564 501.703L801.999 546.937L723.564 592.171V501.703ZM802.609 545.883L724.175 500.65L802.609 455.416V545.883Z" fill="#D7D7D7"/>
<path fill-rule="evenodd" clip-rule="evenodd" d="M643.303 453.309V547.289L561.826 594.278V500.298L643.303 453.309ZM563.043 501.703L641.477 546.937L563.043 592.171V501.703ZM642.087 545.883L563.653 500.65L642.087 455.416V545.883Z" fill="#D7D7D7"/>
<path fill-rule="evenodd" clip-rule="evenodd" d="M482.782 453.309V547.289L401.305 594.278V500.298L482.782 453.309ZM402.521 501.703L480.955 546.937L402.521 592.171V501.703ZM481.566 545.883L403.131 500.65L481.566 455.416V545.883Z" fill="#D7D7D7"/>
<path fill-rule="evenodd" clip-rule="evenodd" d="M322.26 453.309V547.289L240.783 594.278V500.298L322.26 453.309ZM241.999 501.703L320.433 546.937L241.999 592.171V501.703ZM321.044 545.883L242.609 500.65L321.044 455.416V545.883Z" fill="#D7D7D7"/>
<path fill-rule="evenodd" clip-rule="evenodd" d="M161.738 453.309V547.289L80.2609 594.278V500.298L161.738 453.309ZM81.477 501.703L159.911 546.937L81.477 592.171V501.703ZM160.522 545.883L82.0876 500.65L160.522 455.416V545.883Z" fill="#D7D7D7"/>
<path fill-rule="evenodd" clip-rule="evenodd" d="M2088 545.883V639.864L2006.52 686.852V592.872L2088 545.883ZM2007.74 594.278L2086.17 639.511L2007.74 684.745V594.278ZM2086.78 638.458L2008.35 593.224L2086.78 547.99V638.458Z" fill="#D7D7D7"/>
<path fill-rule="evenodd" clip-rule="evenodd" d="M1927.48 545.883V639.864L1846 686.852V592.872L1927.48 545.883ZM1847.22 594.278L1925.65 639.511L1847.22 684.745V594.278ZM1926.26 638.458L1847.83 593.224L1926.26 547.99V638.458Z" fill="#D7D7D7"/>
<path fill-rule="evenodd" clip-rule="evenodd" d="M1766.96 545.883V639.864L1685.48 686.852V592.872L1766.96 545.883ZM1686.7 594.278L1765.13 639.511L1686.7 684.745V594.278ZM1765.74 638.458L1687.31 593.224L1765.74 547.99V638.458Z" fill="#D7D7D7"/>
<path fill-rule="evenodd" clip-rule="evenodd" d="M1606.43 545.883V639.864L1524.96 686.852V592.872L1606.43 545.883ZM1526.17 594.278L1604.61 639.511L1526.17 684.745V594.278ZM1605.22 638.458L1526.78 593.224L1605.22 547.99V638.458Z" fill="#D7D7D7"/>
<path fill-rule="evenodd" clip-rule="evenodd" d="M1445.91 545.883V639.864L1364.44 686.852V592.872L1445.91 545.883ZM1365.65 594.278L1444.09 639.511L1365.65 684.745V594.278ZM1444.7 638.458L1366.26 593.224L1444.7 547.99V638.458Z" fill="#D7D7D7"/>
<path fill-rule="evenodd" clip-rule="evenodd" d="M1285.39 545.883V639.864L1203.91 686.852V592.872L1285.39 545.883ZM1205.13 594.278L1283.56 639.511L1205.13 684.745V594.278ZM1284.17 638.458L1205.74 593.224L1284.17 547.99V638.458Z" fill="#D7D7D7"/>
<path fill-rule="evenodd" clip-rule="evenodd" d="M1124.87 545.883V639.864L1043.39 686.852V592.872L1124.87 545.883ZM1044.61 594.278L1123.04 639.511L1044.61 684.745V594.278ZM1123.65 638.458L1045.22 593.224L1123.65 547.99V638.458Z" fill="#D7D7D7"/>
<path fill-rule="evenodd" clip-rule="evenodd" d="M964.347 545.883V639.864L882.87 686.852V592.872L964.347 545.883ZM884.086 594.278L962.521 639.511L884.086 684.745V594.278ZM963.131 638.458L884.697 593.224L963.131 547.99V638.458Z" fill="#D7D7D7"/>
<path fill-rule="evenodd" clip-rule="evenodd" d="M803.825 545.883V639.864L722.348 686.852V592.872L803.825 545.883ZM723.564 594.278L801.999 639.511L723.564 684.745V594.278ZM802.609 638.458L724.175 593.224L802.609 547.99V638.458Z" fill="#D7D7D7"/>
<path fill-rule="evenodd" clip-rule="evenodd" d="M643.303 545.883V639.864L561.826 686.852V592.872L643.303 545.883ZM563.043 594.278L641.477 639.511L563.043 684.745V594.278ZM642.087 638.458L563.653 593.224L642.087 547.99V638.458Z" fill="#D7D7D7"/>
<path fill-rule="evenodd" clip-rule="evenodd" d="M482.782 545.883V639.864L401.305 686.852V592.872L482.782 545.883ZM402.521 594.278L480.955 639.511L402.521 684.745V594.278ZM481.566 638.458L403.131 593.224L481.566 547.99V638.458Z" fill="#D7D7D7"/>
<path fill-rule="evenodd" clip-rule="evenodd" d="M322.26 545.883V639.864L240.783 686.852V592.872L322.26 545.883ZM241.999 594.278L320.433 639.511L241.999 684.745V594.278ZM321.044 638.458L242.609 593.224L321.044 547.99V638.458Z" fill="#D7D7D7"/>
<path fill-rule="evenodd" clip-rule="evenodd" d="M161.738 545.883V639.864L80.2609 686.852V592.872L161.738 545.883ZM81.477 594.278L159.911 639.511L81.477 684.745V594.278ZM160.522 638.458L82.0876 593.224L160.522 547.99V638.458Z" fill="#D7D7D7"/>
<path fill-rule="evenodd" clip-rule="evenodd" d="M2088 638.458V732.438L2006.52 779.426V685.446L2088 638.458ZM2007.74 686.852L2086.17 732.086L2007.74 777.32V686.852ZM2086.78 731.032L2008.35 685.799L2086.78 640.565V731.032Z" fill="#D7D7D7"/>
<path fill-rule="evenodd" clip-rule="evenodd" d="M1927.48 638.458V732.438L1846 779.426V685.446L1927.48 638.458ZM1847.22 686.852L1925.65 732.086L1847.22 777.32V686.852ZM1926.26 731.032L1847.83 685.799L1926.26 640.565V731.032Z" fill="#D7D7D7"/>
<path fill-rule="evenodd" clip-rule="evenodd" d="M1766.96 638.458V732.438L1685.48 779.426V685.446L1766.96 638.458ZM1686.7 686.852L1765.13 732.086L1686.7 777.32V686.852ZM1765.74 731.032L1687.31 685.799L1765.74 640.565V731.032Z" fill="#D7D7D7"/>
<path fill-rule="evenodd" clip-rule="evenodd" d="M1606.43 638.458V732.438L1524.96 779.426V685.446L1606.43 638.458ZM1526.17 686.852L1604.61 732.086L1526.17 777.32V686.852ZM1605.22 731.032L1526.78 685.799L1605.22 640.565V731.032Z" fill="#D7D7D7"/>
<path fill-rule="evenodd" clip-rule="evenodd" d="M1445.91 638.458V732.438L1364.44 779.426V685.446L1445.91 638.458ZM1365.65 686.852L1444.09 732.086L1365.65 777.32V686.852ZM1444.7 731.032L1366.26 685.799L1444.7 640.565V731.032Z" fill="#D7D7D7"/>
<path fill-rule="evenodd" clip-rule="evenodd" d="M1285.39 638.458V732.438L1203.91 779.426V685.446L1285.39 638.458ZM1205.13 686.852L1283.56 732.086L1205.13 777.32V686.852ZM1284.17 731.032L1205.74 685.799L1284.17 640.565V731.032Z" fill="#D7D7D7"/>
<path fill-rule="evenodd" clip-rule="evenodd" d="M1124.87 638.458V732.438L1043.39 779.426V685.446L1124.87 638.458ZM1044.61 686.852L1123.04 732.086L1044.61 777.32V686.852ZM1123.65 731.032L1045.22 685.799L1123.65 640.565V731.032Z" fill="#D7D7D7"/>
<path fill-rule="evenodd" clip-rule="evenodd" d="M964.347 638.458V732.438L882.87 779.426V685.446L964.347 638.458ZM884.086 686.852L962.521 732.086L884.086 777.32V686.852ZM963.131 731.032L884.697 685.799L963.131 640.565V731.032Z" fill="#D7D7D7"/>
<path fill-rule="evenodd" clip-rule="evenodd" d="M803.825 638.458V732.438L722.348 779.426V685.446L803.825 638.458ZM723.564 686.852L801.999 732.086L723.564 777.32V686.852ZM802.609 731.032L724.175 685.799L802.609 640.565V731.032Z" fill="#D7D7D7"/>
<path fill-rule="evenodd" clip-rule="evenodd" d="M643.303 638.458V732.438L561.826 779.426V685.446L643.303 638.458ZM563.043 686.852L641.477 732.086L563.043 777.32V686.852ZM642.087 731.032L563.653 685.799L642.087 640.565V731.032Z" fill="#D7D7D7"/>
<path fill-rule="evenodd" clip-rule="evenodd" d="M482.782 638.458V732.438L401.305 779.426V685.446L482.782 638.458ZM402.521 686.852L480.955 732.086L402.521 777.32V686.852ZM481.566 731.032L403.131 685.799L481.566 640.565V731.032Z" fill="#D7D7D7"/>
<path fill-rule="evenodd" clip-rule="evenodd" d="M322.26 638.458V732.438L240.783 779.426V685.446L322.26 638.458ZM241.999 686.852L320.433 732.086L241.999 777.32V686.852ZM321.044 731.032L242.609 685.799L321.044 640.565V731.032Z" fill="#D7D7D7"/>
<path fill-rule="evenodd" clip-rule="evenodd" d="M161.738 638.458V732.438L80.2609 779.426V685.446L161.738 638.458ZM81.477 686.852L159.911 732.086L81.477 777.32V686.852ZM160.522 731.032L82.0876 685.799L160.522 640.565V731.032Z" fill="#D7D7D7"/>
<path fill-rule="evenodd" clip-rule="evenodd" d="M2088 731.032V825.012L2006.52 872.001V778.021L2088 731.032ZM2007.74 779.426L2086.17 824.66L2007.74 869.894V779.426ZM2086.78 823.607L2008.35 778.373L2086.78 733.139V823.607Z" fill="#D7D7D7"/>
<path fill-rule="evenodd" clip-rule="evenodd" d="M1927.48 731.032V825.012L1846 872.001V778.021L1927.48 731.032ZM1847.22 779.426L1925.65 824.66L1847.22 869.894V779.426ZM1926.26 823.607L1847.83 778.373L1926.26 733.139V823.607Z" fill="#D7D7D7"/>
<path fill-rule="evenodd" clip-rule="evenodd" d="M1766.96 731.032V825.012L1685.48 872.001V778.021L1766.96 731.032ZM1686.7 779.426L1765.13 824.66L1686.7 869.894V779.426ZM1765.74 823.607L1687.31 778.373L1765.74 733.139V823.607Z" fill="#D7D7D7"/>
<path fill-rule="evenodd" clip-rule="evenodd" d="M1606.43 731.032V825.012L1524.96 872.001V778.021L1606.43 731.032ZM1526.17 779.426L1604.61 824.66L1526.17 869.894V779.426ZM1605.22 823.607L1526.78 778.373L1605.22 733.139V823.607Z" fill="#D7D7D7"/>
<path fill-rule="evenodd" clip-rule="evenodd" d="M1445.91 731.032V825.012L1364.44 872.001V778.021L1445.91 731.032ZM1365.65 779.426L1444.09 824.66L1365.65 869.894V779.426ZM1444.7 823.607L1366.26 778.373L1444.7 733.139V823.607Z" fill="#D7D7D7"/>
<path fill-rule="evenodd" clip-rule="evenodd" d="M1285.39 731.032V825.012L1203.91 872.001V778.021L1285.39 731.032ZM1205.13 779.426L1283.56 824.66L1205.13 869.894V779.426ZM1284.17 823.607L1205.74 778.373L1284.17 733.139V823.607Z" fill="#D7D7D7"/>
<path fill-rule="evenodd" clip-rule="evenodd" d="M1124.87 731.032V825.012L1043.39 872.001V778.021L1124.87 731.032ZM1044.61 779.426L1123.04 824.66L1044.61 869.894V779.426ZM1123.65 823.607L1045.22 778.373L1123.65 733.139V823.607Z" fill="#D7D7D7"/>
<path fill-rule="evenodd" clip-rule="evenodd" d="M964.347 731.032V825.012L882.87 872.001V778.021L964.347 731.032ZM884.086 779.426L962.521 824.66L884.086 869.894V779.426ZM963.131 823.607L884.697 778.373L963.131 733.139V823.607Z" fill="#D7D7D7"/>
<path fill-rule="evenodd" clip-rule="evenodd" d="M803.825 731.032V825.012L722.348 872.001V778.021L803.825 731.032ZM723.564 779.426L801.999 824.66L723.564 869.894V779.426ZM802.609 823.607L724.175 778.373L802.609 733.139V823.607Z" fill="#D7D7D7"/>
<path fill-rule="evenodd" clip-rule="evenodd" d="M643.303 731.032V825.012L561.826 872.001V778.021L643.303 731.032ZM563.043 779.426L641.477 824.66L563.043 869.894V779.426ZM642.087 823.607L563.653 778.373L642.087 733.139V823.607Z" fill="#D7D7D7"/>
<path fill-rule="evenodd" clip-rule="evenodd" d="M482.782 731.032V825.012L401.305 872.001V778.021L482.782 731.032ZM402.521 779.426L480.955 824.66L402.521 869.894V779.426ZM481.566 823.607L403.131 778.373L481.566 733.139V823.607Z" fill="#D7D7D7"/>
<path fill-rule="evenodd" clip-rule="evenodd" d="M322.26 731.032V825.012L240.783 872.001V778.021L322.26 731.032ZM241.999 779.426L320.433 824.66L241.999 869.894V779.426ZM321.044 823.607L242.609 778.373L321.044 733.139V823.607Z" fill="#D7D7D7"/>
<path fill-rule="evenodd" clip-rule="evenodd" d="M161.738 731.032V825.012L80.2609 872.001V778.021L161.738 731.032ZM81.477 779.426L159.911 824.66L81.477 869.894V779.426ZM160.522 823.607L82.0876 778.373L160.522 733.139V823.607Z" fill="#D7D7D7"/>
<path fill-rule="evenodd" clip-rule="evenodd" d="M2007.74 221.873V315.853L1926.26 362.841V268.862L2007.74 221.873ZM1927.48 270.267L2005.91 315.501L1927.48 360.735V270.267ZM2006.52 314.447L1928.09 269.214L2006.52 223.98V314.447Z" fill="#D7D7D7"/>
<path fill-rule="evenodd" clip-rule="evenodd" d="M1847.22 221.873V315.853L1765.74 362.841V268.862L1847.22 221.873ZM1766.96 270.267L1845.39 315.501L1766.96 360.735V270.267ZM1846 314.447L1767.57 269.214L1846 223.98V314.447Z" fill="#D7D7D7"/>
<path fill-rule="evenodd" clip-rule="evenodd" d="M1686.7 221.873V315.853L1605.22 362.841V268.862L1686.7 221.873ZM1606.43 270.267L1684.87 315.501L1606.43 360.735V270.267ZM1685.48 314.447L1607.05 269.214L1685.48 223.98V314.447Z" fill="#D7D7D7"/>
<path fill-rule="evenodd" clip-rule="evenodd" d="M1526.17 221.873V315.853L1444.7 362.841V268.862L1526.17 221.873ZM1445.91 270.267L1524.35 315.501L1445.91 360.735V270.267ZM1524.96 314.447L1446.52 269.214L1524.96 223.98V314.447Z" fill="#D7D7D7"/>
<path fill-rule="evenodd" clip-rule="evenodd" d="M1365.65 221.873V315.853L1284.17 362.841V268.862L1365.65 221.873ZM1285.39 270.267L1363.83 315.501L1285.39 360.735V270.267ZM1364.44 314.447L1286 269.214L1364.44 223.98V314.447Z" fill="#D7D7D7"/>
<path fill-rule="evenodd" clip-rule="evenodd" d="M1205.13 221.873V315.853L1123.65 362.841V268.862L1205.13 221.873ZM1124.87 270.267L1203.3 315.501L1124.87 360.735V270.267ZM1203.91 314.447L1125.48 269.214L1203.91 223.98V314.447Z" fill="#D7D7D7"/>
<path fill-rule="evenodd" clip-rule="evenodd" d="M1044.61 221.873V315.853L963.131 362.841V268.862L1044.61 221.873ZM964.347 270.267L1042.78 315.501L964.347 360.735V270.267ZM1043.39 314.447L964.958 269.214L1043.39 223.98V314.447Z" fill="#D7D7D7"/>
<path fill-rule="evenodd" clip-rule="evenodd" d="M884.086 221.873V315.853L802.609 362.841V268.862L884.086 221.873ZM803.825 270.267L882.26 315.501L803.825 360.735V270.267ZM882.87 314.447L804.436 269.214L882.87 223.98V314.447Z" fill="#D7D7D7"/>
<path fill-rule="evenodd" clip-rule="evenodd" d="M723.564 221.873V315.853L642.087 362.841V268.862L723.564 221.873ZM643.303 270.267L721.738 315.501L643.303 360.735V270.267ZM722.348 314.447L643.914 269.214L722.348 223.98V314.447Z" fill="#D7D7D7"/>
<path fill-rule="evenodd" clip-rule="evenodd" d="M563.043 221.873V315.853L481.566 362.841V268.862L563.043 221.873ZM482.782 270.267L561.216 315.501L482.782 360.735V270.267ZM561.826 314.447L483.392 269.214L561.826 223.98V314.447Z" fill="#D7D7D7"/>
<path fill-rule="evenodd" clip-rule="evenodd" d="M402.521 221.873V315.853L321.044 362.841V268.862L402.521 221.873ZM322.26 270.267L400.694 315.501L322.26 360.735V270.267ZM401.305 314.447L322.87 269.214L401.305 223.98V314.447Z" fill="#D7D7D7"/>
<path fill-rule="evenodd" clip-rule="evenodd" d="M241.999 221.873V315.853L160.522 362.841V268.862L241.999 221.873ZM161.738 270.267L240.172 315.501L161.738 360.735V270.267ZM240.783 314.447L162.349 269.214L240.783 223.98V314.447Z" fill="#D7D7D7"/>
<path fill-rule="evenodd" clip-rule="evenodd" d="M81.477 221.873V315.853L0 362.841V268.862L81.477 221.873ZM1.2161 270.267L79.6504 315.501L1.2161 360.735V270.267ZM80.2609 314.447L1.82665 269.214L80.2609 223.98V314.447Z" fill="#D7D7D7"/>
<path fill-rule="evenodd" clip-rule="evenodd" d="M2007.74 314.447V408.427L1926.26 455.416V361.436L2007.74 314.447ZM1927.48 362.841L2005.91 408.075L1927.48 453.309V362.841ZM2006.52 407.022L1928.09 361.788L2006.52 316.554V407.022Z" fill="#D7D7D7"/>
<path fill-rule="evenodd" clip-rule="evenodd" d="M1847.22 314.447V408.427L1765.74 455.416V361.436L1847.22 314.447ZM1766.96 362.841L1845.39 408.075L1766.96 453.309V362.841ZM1846 407.022L1767.57 361.788L1846 316.554V407.022Z" fill="#D7D7D7"/>
<path fill-rule="evenodd" clip-rule="evenodd" d="M1686.7 314.447V408.427L1605.22 455.416V361.436L1686.7 314.447ZM1606.43 362.841L1684.87 408.075L1606.43 453.309V362.841ZM1685.48 407.022L1607.05 361.788L1685.48 316.554V407.022Z" fill="#D7D7D7"/>
<path fill-rule="evenodd" clip-rule="evenodd" d="M1526.17 314.447V408.427L1444.7 455.416V361.436L1526.17 314.447ZM1445.91 362.841L1524.35 408.075L1445.91 453.309V362.841ZM1524.96 407.022L1446.52 361.788L1524.96 316.554V407.022Z" fill="#D7D7D7"/>
<path fill-rule="evenodd" clip-rule="evenodd" d="M1365.65 314.447V408.427L1284.17 455.416V361.436L1365.65 314.447ZM1285.39 362.841L1363.83 408.075L1285.39 453.309V362.841ZM1364.44 407.022L1286 361.788L1364.44 316.554V407.022Z" fill="#D7D7D7"/>
<path fill-rule="evenodd" clip-rule="evenodd" d="M1205.13 314.447V408.427L1123.65 455.416V361.436L1205.13 314.447ZM1124.87 362.841L1203.3 408.075L1124.87 453.309V362.841ZM1203.91 407.022L1125.48 361.788L1203.91 316.554V407.022Z" fill="#D7D7D7"/>
<path fill-rule="evenodd" clip-rule="evenodd" d="M1044.61 314.447V408.427L963.131 455.416V361.436L1044.61 314.447ZM964.347 362.841L1042.78 408.075L964.347 453.309V362.841ZM1043.39 407.022L964.958 361.788L1043.39 316.554V407.022Z" fill="#D7D7D7"/>
<path fill-rule="evenodd" clip-rule="evenodd" d="M884.086 314.447V408.427L802.609 455.416V361.436L884.086 314.447ZM803.825 362.841L882.26 408.075L803.825 453.309V362.841ZM882.87 407.022L804.436 361.788L882.87 316.554V407.022Z" fill="#D7D7D7"/>
<path fill-rule="evenodd" clip-rule="evenodd" d="M723.564 314.447V408.427L642.087 455.416V361.436L723.564 314.447ZM643.303 362.841L721.738 408.075L643.303 453.309V362.841ZM722.348 407.022L643.914 361.788L722.348 316.554V407.022Z" fill="#D7D7D7"/>
<path fill-rule="evenodd" clip-rule="evenodd" d="M563.043 314.447V408.427L481.566 455.416V361.436L563.043 314.447ZM482.782 362.841L561.216 408.075L482.782 453.309V362.841ZM561.826 407.022L483.392 361.788L561.826 316.554V407.022Z" fill="#D7D7D7"/>
<path fill-rule="evenodd" clip-rule="evenodd" d="M402.521 314.447V408.427L321.044 455.416V361.436L402.521 314.447ZM322.26 362.841L400.694 408.075L322.26 453.309V362.841ZM401.305 407.022L322.87 361.788L401.305 316.554V407.022Z" fill="#D7D7D7"/>
<path fill-rule="evenodd" clip-rule="evenodd" d="M241.999 314.447V408.427L160.522 455.416V361.436L241.999 314.447ZM161.738 362.841L240.172 408.075L161.738 453.309V362.841ZM240.783 407.022L162.349 361.788L240.783 316.554V407.022Z" fill="#D7D7D7"/>
<path fill-rule="evenodd" clip-rule="evenodd" d="M81.477 314.447V408.427L0 455.416V361.436L81.477 314.447ZM1.2161 362.841L79.6504 408.075L1.2161 453.309V362.841ZM80.2609 407.022L1.82665 361.788L80.2609 316.554V407.022Z" fill="#D7D7D7"/>
<path fill-rule="evenodd" clip-rule="evenodd" d="M2007.74 407.022V501.002L1926.26 547.99V454.01L2007.74 407.022ZM1927.48 455.416L2005.91 500.65L1927.48 545.883V455.416ZM2006.52 499.596L1928.09 454.362L2006.52 409.129V499.596Z" fill="#D7D7D7"/>
<path fill-rule="evenodd" clip-rule="evenodd" d="M1847.22 407.022V501.002L1765.74 547.99V454.01L1847.22 407.022ZM1766.96 455.416L1845.39 500.65L1766.96 545.883V455.416ZM1846 499.596L1767.57 454.362L1846 409.129V499.596Z" fill="#D7D7D7"/>
<path fill-rule="evenodd" clip-rule="evenodd" d="M1686.7 407.022V501.002L1605.22 547.99V454.01L1686.7 407.022ZM1606.43 455.416L1684.87 500.65L1606.43 545.883V455.416ZM1685.48 499.596L1607.05 454.362L1685.48 409.129V499.596Z" fill="#D7D7D7"/>
<path fill-rule="evenodd" clip-rule="evenodd" d="M1526.17 407.022V501.002L1444.7 547.99V454.01L1526.17 407.022ZM1445.91 455.416L1524.35 500.65L1445.91 545.883V455.416ZM1524.96 499.596L1446.52 454.362L1524.96 409.129V499.596Z" fill="#D7D7D7"/>
<path fill-rule="evenodd" clip-rule="evenodd" d="M1365.65 407.022V501.002L1284.17 547.99V454.01L1365.65 407.022ZM1285.39 455.416L1363.83 500.65L1285.39 545.883V455.416ZM1364.44 499.596L1286 454.362L1364.44 409.129V499.596Z" fill="#D7D7D7"/>
<path fill-rule="evenodd" clip-rule="evenodd" d="M1205.13 407.022V501.002L1123.65 547.99V454.01L1205.13 407.022ZM1124.87 455.416L1203.3 500.65L1124.87 545.883V455.416ZM1203.91 499.596L1125.48 454.362L1203.91 409.129V499.596Z" fill="#D7D7D7"/>
<path fill-rule="evenodd" clip-rule="evenodd" d="M1044.61 407.022V501.002L963.131 547.99V454.01L1044.61 407.022ZM964.347 455.416L1042.78 500.65L964.347 545.883V455.416ZM1043.39 499.596L964.958 454.362L1043.39 409.129V499.596Z" fill="#D7D7D7"/>
<path fill-rule="evenodd" clip-rule="evenodd" d="M884.086 407.022V501.002L802.609 547.99V454.01L884.086 407.022ZM803.825 455.416L882.26 500.65L803.825 545.883V455.416ZM882.87 499.596L804.436 454.362L882.87 409.129V499.596Z" fill="#D7D7D7"/>
<path fill-rule="evenodd" clip-rule="evenodd" d="M723.564 407.022V501.002L642.087 547.99V454.01L723.564 407.022ZM643.303 455.416L721.738 500.65L643.303 545.883V455.416ZM722.348 499.596L643.914 454.362L722.348 409.129V499.596Z" fill="#D7D7D7"/>
<path fill-rule="evenodd" clip-rule="evenodd" d="M563.043 407.022V501.002L481.566 547.99V454.01L563.043 407.022ZM482.782 455.416L561.216 500.65L482.782 545.883V455.416ZM561.826 499.596L483.392 454.362L561.826 409.129V499.596Z" fill="#D7D7D7"/>
<path fill-rule="evenodd" clip-rule="evenodd" d="M402.521 407.022V501.002L321.044 547.99V454.01L402.521 407.022ZM322.26 455.416L400.694 500.65L322.26 545.883V455.416ZM401.305 499.596L322.87 454.362L401.305 409.129V499.596Z" fill="#D7D7D7"/>
<path fill-rule="evenodd" clip-rule="evenodd" d="M241.999 407.022V501.002L160.522 547.99V454.01L241.999 407.022ZM161.738 455.416L240.172 500.65L161.738 545.883V455.416ZM240.783 499.596L162.349 454.362L240.783 409.129V499.596Z" fill="#D7D7D7"/>
<path fill-rule="evenodd" clip-rule="evenodd" d="M81.477 407.022V501.002L0 547.99V454.01L81.477 407.022ZM1.2161 455.416L79.6504 500.65L1.2161 545.883V455.416ZM80.2609 499.596L1.82665 454.362L80.2609 409.129V499.596Z" fill="#D7D7D7"/>
<path fill-rule="evenodd" clip-rule="evenodd" d="M2007.74 499.596V593.576L1926.26 640.565V546.585L2007.74 499.596ZM1927.48 547.99L2005.91 593.224L1927.48 638.458V547.99ZM2006.52 592.171L1928.09 546.937L2006.52 501.703V592.171Z" fill="#D7D7D7"/>
<path fill-rule="evenodd" clip-rule="evenodd" d="M1847.22 499.596V593.576L1765.74 640.565V546.585L1847.22 499.596ZM1766.96 547.99L1845.39 593.224L1766.96 638.458V547.99ZM1846 592.171L1767.57 546.937L1846 501.703V592.171Z" fill="#D7D7D7"/>
<path fill-rule="evenodd" clip-rule="evenodd" d="M1686.7 499.596V593.576L1605.22 640.565V546.585L1686.7 499.596ZM1606.43 547.99L1684.87 593.224L1606.43 638.458V547.99ZM1685.48 592.171L1607.05 546.937L1685.48 501.703V592.171Z" fill="#D7D7D7"/>
<path fill-rule="evenodd" clip-rule="evenodd" d="M1526.17 499.596V593.576L1444.7 640.565V546.585L1526.17 499.596ZM1445.91 547.99L1524.35 593.224L1445.91 638.458V547.99ZM1524.96 592.171L1446.52 546.937L1524.96 501.703V592.171Z" fill="#D7D7D7"/>
<path fill-rule="evenodd" clip-rule="evenodd" d="M1365.65 499.596V593.576L1284.17 640.565V546.585L1365.65 499.596ZM1285.39 547.99L1363.83 593.224L1285.39 638.458V547.99ZM1364.44 592.171L1286 546.937L1364.44 501.703V592.171Z" fill="#D7D7D7"/>
<path fill-rule="evenodd" clip-rule="evenodd" d="M1205.13 499.596V593.576L1123.65 640.565V546.585L1205.13 499.596ZM1124.87 547.99L1203.3 593.224L1124.87 638.458V547.99ZM1203.91 592.171L1125.48 546.937L1203.91 501.703V592.171Z" fill="#D7D7D7"/>
<path fill-rule="evenodd" clip-rule="evenodd" d="M1044.61 499.596V593.576L963.131 640.565V546.585L1044.61 499.596ZM964.347 547.99L1042.78 593.224L964.347 638.458V547.99ZM1043.39 592.171L964.958 546.937L1043.39 501.703V592.171Z" fill="#D7D7D7"/>
<path fill-rule="evenodd" clip-rule="evenodd" d="M884.086 499.596V593.576L802.609 640.565V546.585L884.086 499.596ZM803.825 547.99L882.26 593.224L803.825 638.458V547.99ZM882.87 592.171L804.436 546.937L882.87 501.703V592.171Z" fill="#D7D7D7"/>
<path fill-rule="evenodd" clip-rule="evenodd" d="M723.564 499.596V593.576L642.087 640.565V546.585L723.564 499.596ZM643.303 547.99L721.738 593.224L643.303 638.458V547.99ZM722.348 592.171L643.914 546.937L722.348 501.703V592.171Z" fill="#D7D7D7"/>
<path fill-rule="evenodd" clip-rule="evenodd" d="M563.043 499.596V593.576L481.566 640.565V546.585L563.043 499.596ZM482.782 547.99L561.216 593.224L482.782 638.458V547.99ZM561.826 592.171L483.392 546.937L561.826 501.703V592.171Z" fill="#D7D7D7"/>
<path fill-rule="evenodd" clip-rule="evenodd" d="M402.521 499.596V593.576L321.044 640.565V546.585L402.521 499.596ZM322.26 547.99L400.694 593.224L322.26 638.458V547.99ZM401.305 592.171L322.87 546.937L401.305 501.703V592.171Z" fill="#D7D7D7"/>
<path fill-rule="evenodd" clip-rule="evenodd" d="M241.999 499.596V593.576L160.522 640.565V546.585L241.999 499.596ZM161.738 547.99L240.172 593.224L161.738 638.458V547.99ZM240.783 592.171L162.349 546.937L240.783 501.703V592.171Z" fill="#D7D7D7"/>
<path fill-rule="evenodd" clip-rule="evenodd" d="M81.477 499.596V593.576L0 640.565V546.585L81.477 499.596ZM1.2161 547.99L79.6504 593.224L1.2161 638.458V547.99ZM80.2609 592.171L1.82665 546.937L80.2609 501.703V592.171Z" fill="#D7D7D7"/>
<path fill-rule="evenodd" clip-rule="evenodd" d="M2007.74 592.171V686.151L1926.26 733.139V639.159L2007.74 592.171ZM1927.48 640.565L2005.91 685.799L1927.48 731.032V640.565ZM2006.52 684.745L1928.09 639.511L2006.52 594.278V684.745Z" fill="#D7D7D7"/>
<path fill-rule="evenodd" clip-rule="evenodd" d="M1847.22 592.171V686.151L1765.74 733.139V639.159L1847.22 592.171ZM1766.96 640.565L1845.39 685.799L1766.96 731.032V640.565ZM1846 684.745L1767.57 639.511L1846 594.278V684.745Z" fill="#D7D7D7"/>
<path fill-rule="evenodd" clip-rule="evenodd" d="M1686.7 592.171V686.151L1605.22 733.139V639.159L1686.7 592.171ZM1606.43 640.565L1684.87 685.799L1606.43 731.032V640.565ZM1685.48 684.745L1607.05 639.511L1685.48 594.278V684.745Z" fill="#D7D7D7"/>
<path fill-rule="evenodd" clip-rule="evenodd" d="M1526.17 592.171V686.151L1444.7 733.139V639.159L1526.17 592.171ZM1445.91 640.565L1524.35 685.799L1445.91 731.032V640.565ZM1524.96 684.745L1446.52 639.511L1524.96 594.278V684.745Z" fill="#D7D7D7"/>
<path fill-rule="evenodd" clip-rule="evenodd" d="M1365.65 592.171V686.151L1284.17 733.139V639.159L1365.65 592.171ZM1285.39 640.565L1363.83 685.799L1285.39 731.032V640.565ZM1364.44 684.745L1286 639.511L1364.44 594.278V684.745Z" fill="#D7D7D7"/>
<path fill-rule="evenodd" clip-rule="evenodd" d="M1205.13 592.171V686.151L1123.65 733.139V639.159L1205.13 592.171ZM1124.87 640.565L1203.3 685.799L1124.87 731.032V640.565ZM1203.91 684.745L1125.48 639.511L1203.91 594.278V684.745Z" fill="#D7D7D7"/>
<path fill-rule="evenodd" clip-rule="evenodd" d="M1044.61 592.171V686.151L963.131 733.139V639.159L1044.61 592.171ZM964.347 640.565L1042.78 685.799L964.347 731.032V640.565ZM1043.39 684.745L964.958 639.511L1043.39 594.278V684.745Z" fill="#D7D7D7"/>
<path fill-rule="evenodd" clip-rule="evenodd" d="M884.086 592.171V686.151L802.609 733.139V639.159L884.086 592.171ZM803.825 640.565L882.26 685.799L803.825 731.032V640.565ZM882.87 684.745L804.436 639.511L882.87 594.278V684.745Z" fill="#D7D7D7"/>
<path fill-rule="evenodd" clip-rule="evenodd" d="M723.564 592.171V686.151L642.087 733.139V639.159L723.564 592.171ZM643.303 640.565L721.738 685.799L643.303 731.032V640.565ZM722.348 684.745L643.914 639.511L722.348 594.278V684.745Z" fill="#D7D7D7"/>
<path fill-rule="evenodd" clip-rule="evenodd" d="M563.043 592.171V686.151L481.566 733.139V639.159L563.043 592.171ZM482.782 640.565L561.216 685.799L482.782 731.032V640.565ZM561.826 684.745L483.392 639.511L561.826 594.278V684.745Z" fill="#D7D7D7"/>
<path fill-rule="evenodd" clip-rule="evenodd" d="M402.521 592.171V686.151L321.044 733.139V639.159L402.521 592.171ZM322.26 640.565L400.694 685.799L322.26 731.032V640.565ZM401.305 684.745L322.87 639.511L401.305 594.278V684.745Z" fill="#D7D7D7"/>
<path fill-rule="evenodd" clip-rule="evenodd" d="M241.999 592.171V686.151L160.522 733.139V639.159L241.999 592.171ZM161.738 640.565L240.172 685.799L161.738 731.032V640.565ZM240.783 684.745L162.349 639.511L240.783 594.278V684.745Z" fill="#D7D7D7"/>
<path fill-rule="evenodd" clip-rule="evenodd" d="M81.477 592.171V686.151L0 733.139V639.159L81.477 592.171ZM1.2161 640.565L79.6504 685.799L1.2161 731.032V640.565ZM80.2609 684.745L1.82665 639.511L80.2609 594.278V684.745Z" fill="#D7D7D7"/>
<path fill-rule="evenodd" clip-rule="evenodd" d="M2007.74 684.745V778.725L1926.26 825.714V731.734L2007.74 684.745ZM1927.48 733.139L2005.91 778.373L1927.48 823.607V733.139ZM2006.52 777.32L1928.09 732.086L2006.52 686.852V777.32Z" fill="#D7D7D7"/>
<path fill-rule="evenodd" clip-rule="evenodd" d="M1847.22 684.745V778.725L1765.74 825.714V731.734L1847.22 684.745ZM1766.96 733.139L1845.39 778.373L1766.96 823.607V733.139ZM1846 777.32L1767.57 732.086L1846 686.852V777.32Z" fill="#D7D7D7"/>
<path fill-rule="evenodd" clip-rule="evenodd" d="M1686.7 684.745V778.725L1605.22 825.714V731.734L1686.7 684.745ZM1606.43 733.139L1684.87 778.373L1606.43 823.607V733.139ZM1685.48 777.32L1607.05 732.086L1685.48 686.852V777.32Z" fill="#D7D7D7"/>
<path fill-rule="evenodd" clip-rule="evenodd" d="M1526.17 684.745V778.725L1444.7 825.714V731.734L1526.17 684.745ZM1445.91 733.139L1524.35 778.373L1445.91 823.607V733.139ZM1524.96 777.32L1446.52 732.086L1524.96 686.852V777.32Z" fill="#D7D7D7"/>
<path fill-rule="evenodd" clip-rule="evenodd" d="M1365.65 684.745V778.725L1284.17 825.714V731.734L1365.65 684.745ZM1285.39 733.139L1363.83 778.373L1285.39 823.607V733.139ZM1364.44 777.32L1286 732.086L1364.44 686.852V777.32Z" fill="#D7D7D7"/>
<path fill-rule="evenodd" clip-rule="evenodd" d="M1205.13 684.745V778.725L1123.65 825.714V731.734L1205.13 684.745ZM1124.87 733.139L1203.3 778.373L1124.87 823.607V733.139ZM1203.91 777.32L1125.48 732.086L1203.91 686.852V777.32Z" fill="#D7D7D7"/>
<path fill-rule="evenodd" clip-rule="evenodd" d="M1044.61 684.745V778.725L963.131 825.714V731.734L1044.61 684.745ZM964.347 733.139L1042.78 778.373L964.347 823.607V733.139ZM1043.39 777.32L964.958 732.086L1043.39 686.852V777.32Z" fill="#D7D7D7"/>
<path fill-rule="evenodd" clip-rule="evenodd" d="M884.086 684.745V778.725L802.609 825.714V731.734L884.086 684.745ZM803.825 733.139L882.26 778.373L803.825 823.607V733.139ZM882.87 777.32L804.436 732.086L882.87 686.852V777.32Z" fill="#D7D7D7"/>
<path fill-rule="evenodd" clip-rule="evenodd" d="M723.564 684.745V778.725L642.087 825.714V731.734L723.564 684.745ZM643.303 733.139L721.738 778.373L643.303 823.607V733.139ZM722.348 777.32L643.914 732.086L722.348 686.852V777.32Z" fill="#D7D7D7"/>
<path fill-rule="evenodd" clip-rule="evenodd" d="M563.043 684.745V778.725L481.566 825.714V731.734L563.043 684.745ZM482.782 733.139L561.216 778.373L482.782 823.607V733.139ZM561.826 777.32L483.392 732.086L561.826 686.852V777.32Z" fill="#D7D7D7"/>
<path fill-rule="evenodd" clip-rule="evenodd" d="M402.521 684.745V778.725L321.044 825.714V731.734L402.521 684.745ZM322.26 733.139L400.694 778.373L322.26 823.607V733.139ZM401.305 777.32L322.87 732.086L401.305 686.852V777.32Z" fill="#D7D7D7"/>
<path fill-rule="evenodd" clip-rule="evenodd" d="M241.999 684.745V778.725L160.522 825.714V731.734L241.999 684.745ZM161.738 733.139L240.172 778.373L161.738 823.607V733.139ZM240.783 777.32L162.349 732.086L240.783 686.852V777.32Z" fill="#D7D7D7"/>
<path fill-rule="evenodd" clip-rule="evenodd" d="M81.477 684.745V778.725L0 825.714V731.734L81.477 684.745ZM1.2161 733.139L79.6504 778.373L1.2161 823.607V733.139ZM80.2609 777.32L1.82665 732.086L80.2609 686.852V777.32Z" fill="#D7D7D7"/>
<path fill-rule="evenodd" clip-rule="evenodd" d="M2006.52 869.894L1928.09 824.66L2006.52 779.426V869.894Z" fill="#D7D7D7"/>
<path fill-rule="evenodd" clip-rule="evenodd" d="M1846 869.894L1767.57 824.66L1846 779.426V869.894Z" fill="#D7D7D7"/>
<path fill-rule="evenodd" clip-rule="evenodd" d="M1685.48 869.894L1607.05 824.66L1685.48 779.426V869.894Z" fill="#D7D7D7"/>
<path fill-rule="evenodd" clip-rule="evenodd" d="M1524.96 869.894L1446.52 824.66L1524.96 779.426V869.894Z" fill="#D7D7D7"/>
<path fill-rule="evenodd" clip-rule="evenodd" d="M1364.44 869.894L1286 824.66L1364.44 779.426V869.894Z" fill="#D7D7D7"/>
<path fill-rule="evenodd" clip-rule="evenodd" d="M1203.91 869.894L1125.48 824.66L1203.91 779.426V869.894Z" fill="#D7D7D7"/>
<path fill-rule="evenodd" clip-rule="evenodd" d="M1043.39 869.894L964.958 824.66L1043.39 779.426V869.894Z" fill="#D7D7D7"/>
<path fill-rule="evenodd" clip-rule="evenodd" d="M882.87 869.894L804.436 824.66L882.87 779.426V869.894Z" fill="#D7D7D7"/>
<path fill-rule="evenodd" clip-rule="evenodd" d="M722.348 869.894L643.914 824.66L722.348 779.426V869.894Z" fill="#D7D7D7"/>
<path fill-rule="evenodd" clip-rule="evenodd" d="M561.826 869.894L483.392 824.66L561.826 779.426V869.894Z" fill="#D7D7D7"/>
<path fill-rule="evenodd" clip-rule="evenodd" d="M401.305 869.894L322.87 824.66L401.305 779.426V869.894Z" fill="#D7D7D7"/>
<path fill-rule="evenodd" clip-rule="evenodd" d="M240.783 869.894L162.349 824.66L240.783 779.426V869.894Z" fill="#D7D7D7"/>
<path fill-rule="evenodd" clip-rule="evenodd" d="M80.2609 869.894L1.82665 824.66L80.2609 779.426V869.894Z" fill="#D7D7D7"/>
</g>
</svg>
