<svg width="200" height="114" viewBox="0 0 200 114" fill="none" xmlns="http://www.w3.org/2000/svg">
<circle cx="141.018" cy="56.9827" r="54.5679" stroke="url(#paint0_radial_17_817)" stroke-width="4.82961"/>
<path d="M26.9171 65.521V70.6755H14.6289C10.6108 70.6755 7.15841 69.3595 4.27163 66.7273C1.42389 64.0584 0 60.8231 0 57.0215V29.5488H5.61749V57.0215C5.61749 59.3974 6.49522 61.4083 8.25069 63.0534C10.0062 64.6984 12.1324 65.521 14.6289 65.521H26.9171ZM68.0513 48.5768H53.4809C50.9451 48.5768 48.7997 49.3993 47.0442 51.0444C45.2887 52.6894 44.411 54.6815 44.411 57.0215C44.411 59.361 45.2887 61.3535 47.0442 62.9985C48.8385 64.6436 50.9844 65.4661 53.4809 65.4661H68.0513V70.6755H53.4809C49.4237 70.6755 45.9713 69.341 43.1237 66.6725C40.3149 64.0036 38.9105 60.7867 38.9105 57.0215C38.9105 53.2558 40.3149 50.0389 43.1237 47.3704C45.9713 44.665 49.4237 43.3126 53.4809 43.3126H68.0513V48.5768ZM51.4914 58.831C50.9844 58.3191 50.7307 57.6975 50.7307 56.9666C50.7307 56.2353 50.9844 55.6321 51.4914 55.157C52.0377 54.6451 52.7005 54.3893 53.4809 54.3893H60.7953V59.5439H53.4809C52.7005 59.5439 52.0377 59.3061 51.4914 58.831ZM72.8857 66.6725C70.038 63.9672 68.614 60.7134 68.614 56.9118C68.614 53.1097 70.038 49.8744 72.8857 47.2059C75.7333 44.5005 79.1857 43.148 83.2429 43.148H97.9888V48.4123H83.2429C80.7071 48.4123 78.542 49.2528 76.7477 50.9347C74.9922 52.5798 74.1145 54.5718 74.1145 56.9118C74.1145 59.2877 74.9922 61.3166 76.7477 62.9985C78.542 64.68 80.7071 65.521 83.2429 65.521H97.9888V70.7303H83.2429C79.225 70.7303 75.7726 69.3775 72.8857 66.6725ZM115.772 42.9287C119.947 42.9287 123.458 44.2812 126.305 46.9865C129.153 49.6551 130.557 52.9268 130.518 56.8021V70.6755H124.959V56.8021C124.959 54.4258 124.062 52.3968 122.268 50.7154C120.473 48.997 118.308 48.1381 115.772 48.1381C113.237 48.1381 111.072 48.997 109.277 50.7154C107.483 52.3968 106.586 54.4258 106.586 56.8021V70.6755H100.91V29.5488H106.586V45.9447C109.238 43.9337 112.3 42.9287 115.772 42.9287ZM133.47 29.5488H138.971V43.2577H148.099V48.4123H138.971V56.9666C138.971 59.3061 139.868 61.3166 141.662 62.9985C143.457 64.68 145.603 65.521 148.099 65.521V70.6755C144.081 70.6755 140.629 69.3595 137.742 66.7273C134.894 64.0952 133.47 60.9148 133.47 57.186V29.5488Z" fill="#1A1A21"/>
<path d="M35.9269 43.2588H29.9844V70.6768H35.9269V43.2588Z" fill="#1A1A21"/>
<path d="M37.1811 29.6787C37.5235 30.3504 37.2881 36.9706 37.1738 37.6958C37.0595 38.4207 36.7139 39.0929 36.1817 39.6267C35.6492 40.1604 34.9534 40.5323 34.1822 40.6951C33.411 40.8579 32.5995 40.8043 31.8498 40.5413C31.1 40.2778 30.4459 39.8169 29.9704 39.2162C29.4945 38.6161 29.2189 37.9032 29.1773 37.1676C29.1361 36.4325 29.3313 35.7076 29.7382 35.0852C30.145 34.4627 36.4629 29.9782 37.1811 29.6787Z" fill="#1270C7"/>
<path fill-rule="evenodd" clip-rule="evenodd" d="M165.305 86.0792C169.462 86.0762 173.02 84.7422 175.98 82.0762C178.942 79.3709 180.423 76.1356 180.423 72.3703V58.5518H174.718V72.3703C174.718 74.7467 173.798 76.7756 171.956 78.4571C170.118 80.0996 167.901 80.9221 165.305 80.9247V86.0792Z" fill="#1A1A21"/>
<path fill-rule="evenodd" clip-rule="evenodd" d="M155.03 66.9478C157.878 69.6531 161.389 71.0056 165.563 71.0056C169.035 71.0056 172.097 70.0001 174.75 67.9896V72.3045H180.426V43.2588H174.75V57.1322C174.75 59.5085 173.853 61.5375 172.058 63.2189C170.264 64.9373 168.098 65.7962 165.563 65.7962C163.027 65.7962 160.862 64.9373 159.068 63.2189C157.273 61.5375 156.376 59.5085 156.376 57.1322V43.2588H150.817V57.1322C150.778 61.0071 152.182 64.2792 155.03 66.9478Z" fill="#1A1A21"/>
<path d="M165.398 80.9307H157.992V86.0801H165.398V80.9307Z" fill="#1A1A21"/>
<defs>
<radialGradient id="paint0_radial_17_817" cx="0" cy="0" r="1" gradientUnits="userSpaceOnUse" gradientTransform="translate(198.001 -0.18253) rotate(139.304) scale(150.313)">
<stop stop-color="#1270C7"/>
<stop offset="0.74628" stop-color="#1270C7" stop-opacity="0"/>
</radialGradient>
</defs>
</svg>
