<svg xmlns="http://www.w3.org/2000/svg" width="92" height="32" viewBox="0 0 92 32" fill="none">
  <path d="M14.5479 20.6166V23.211H8.36297C6.34062 23.211 4.60296 22.5486 3.14999 21.2238C1.71667 19.8805 1 18.2521 1 16.3387V2.51123H3.82738V16.3387C3.82738 17.5345 4.26916 18.5467 5.15272 19.3747C6.03627 20.2026 7.10643 20.6166 8.36297 20.6166H14.5479ZM35.2514 12.0883H27.9179C26.6415 12.0883 25.5617 12.5023 24.6782 13.3303C23.7946 14.1583 23.3528 15.161 23.3528 16.3387C23.3528 17.5162 23.7946 18.5191 24.6782 19.3471C25.5813 20.175 26.6613 20.589 27.9179 20.589H35.2514V23.211H27.9179C25.8758 23.211 24.1381 22.5393 22.7049 21.1962C21.2912 19.8529 20.5844 18.2338 20.5844 16.3387C20.5844 14.4434 21.2912 12.8243 22.7049 11.4811C24.1381 10.1195 25.8758 9.43876 27.9179 9.43876H35.2514V12.0883ZM26.9165 17.2495C26.6613 16.9918 26.5336 16.6789 26.5336 16.3111C26.5336 15.943 26.6613 15.6394 26.9165 15.4003C27.1915 15.1426 27.5251 15.0139 27.9179 15.0139H31.5994V17.6083H27.9179C27.5251 17.6083 27.1915 17.4886 26.9165 17.2495ZM37.6846 21.1962C36.2514 19.8346 35.5346 18.1969 35.5346 16.2835C35.5346 14.3698 36.2514 12.7415 37.6846 11.3983C39.1179 10.0367 40.8555 9.35596 42.8976 9.35596H50.3195V12.0055H42.8976C41.6213 12.0055 40.5316 12.4286 39.6284 13.2751C38.7449 14.1031 38.3031 15.1058 38.3031 16.2835C38.3031 17.4793 38.7449 18.5005 39.6284 19.3471C40.5316 20.1934 41.6213 20.6166 42.8976 20.6166H50.3195V23.2386H42.8976C40.8753 23.2386 39.1377 22.5577 37.6846 21.1962ZM59.2703 9.24556C61.3713 9.24556 63.1384 9.92628 64.5717 11.2879C66.0049 12.6311 66.7118 14.2778 66.6922 16.2283V23.211H63.8943V16.2283C63.8943 15.0322 63.4426 14.011 62.5395 13.1647C61.6364 12.2999 60.5466 11.8675 59.2703 11.8675C57.994 11.8675 56.9043 12.2999 56.0012 13.1647C55.098 14.011 54.6464 15.0322 54.6464 16.2283V23.211H51.7895V2.51123H54.6464V10.7635C55.9816 9.75141 57.5228 9.24556 59.2703 9.24556ZM68.1779 2.51123H70.9464V9.41116H75.5409V12.0055H70.9464V16.3111C70.9464 17.4886 71.3981 18.5005 72.3012 19.3471C73.2043 20.1934 74.2843 20.6166 75.5409 20.6166V23.211C73.5186 23.211 71.7809 22.5486 70.3279 21.2238C68.8947 19.899 68.1779 18.2983 68.1779 16.4215V2.51123Z" fill="#1A1A21"/>
  <path d="M19.0847 9.4126H16.0938V23.2125H19.0847V9.4126Z" fill="#1A1A21"/>
  <path d="M19.7148 2.57666C19.8871 2.91476 19.7686 6.24678 19.7111 6.61182C19.6536 6.97666 19.4796 7.31497 19.2118 7.58364C18.9437 7.8523 18.5935 8.03946 18.2054 8.1214C17.8172 8.20334 17.4088 8.17638 17.0314 8.04399C16.6541 7.91138 16.3248 7.67937 16.0855 7.37707C15.846 7.07498 15.7072 6.71619 15.6863 6.34596C15.6656 5.97595 15.7638 5.61112 15.9686 5.29782C16.1734 4.98452 19.3533 2.72738 19.7148 2.57666Z" fill="#1270C7"/>
  <path fill-rule="evenodd" clip-rule="evenodd" d="M84.1995 30.9647C86.2919 30.9632 88.083 30.2917 89.5724 28.9499C91.0631 27.5882 91.8086 25.9599 91.8086 24.0647V17.1096H88.9375V24.0647C88.9375 25.2608 88.4741 26.282 87.5473 27.1283C86.6221 27.955 85.5062 28.369 84.1995 28.3703V30.9647Z" fill="#1A1A21"/>
  <path fill-rule="evenodd" clip-rule="evenodd" d="M79.0272 21.3357C80.4604 22.6973 82.2276 23.3781 84.3285 23.3781C86.0759 23.3781 87.6172 22.872 88.9525 21.8601V24.0318H91.8093V9.4126H88.9525V16.3953C88.9525 17.5914 88.5008 18.6126 87.5977 19.4589C86.6943 20.3238 85.6046 20.7561 84.3285 20.7561C83.0522 20.7561 81.9625 20.3238 81.0594 19.4589C80.156 18.6126 79.7046 17.5914 79.7046 16.3953V9.4126H76.9067V16.3953C76.8869 18.3456 77.5937 19.9926 79.0272 21.3357Z" fill="#1A1A21"/>
  <path d="M84.2509 28.373H80.5234V30.9648H84.2509V28.373Z" fill="#1A1A21"/>
</svg>