<svg xmlns="http://www.w3.org/2000/svg" width="70" height="70" viewBox="0 0 70 70" fill="none">
  <path d="M40.3237 2.12562C39.7335 1.75196 39.032 1.63397 38.3472 1.79271C37.6526 1.95403 37.0389 2.39769 36.6635 3.00991C36.4829 3.30413 36.0947 3.39396 35.0025 3.39396C33.9102 3.39396 33.5221 3.30427 33.3416 3.01005C32.9661 2.39769 32.3523 1.9539 31.6578 1.79271C30.9731 1.63384 30.2712 1.7521 29.6812 2.12562C27.5546 3.47189 26.2852 5.77724 26.2852 8.29259V17.655C26.2852 19.2135 27.3103 20.5368 28.7215 20.9872V26.2982H41.2831V20.9869C42.6944 20.5362 43.7194 19.2126 43.7194 17.6537V8.29259C43.7195 5.77724 42.4501 3.47189 40.3237 2.12562ZM28.7461 8.29259C28.7461 6.62558 29.5876 5.09733 30.9974 4.20497C31.0067 4.19896 31.0283 4.18542 31.0637 4.18542C31.0748 4.18542 31.0871 4.18665 31.1008 4.1898C31.1279 4.19608 31.196 4.21905 31.2437 4.29671C32.1996 5.85489 33.9541 5.85489 35.0023 5.85489C36.0506 5.85489 37.8051 5.85489 38.761 4.29671C38.8086 4.21919 38.8767 4.19622 38.9038 4.18993C38.9619 4.1764 38.9949 4.19718 39.0072 4.20497C40.4171 5.09733 41.2586 6.62558 41.2586 8.29259V17.6537C41.2586 18.226 40.7931 18.6914 40.2209 18.6914H36.2328V15.2006C36.2328 14.5209 35.682 13.9701 35.0023 13.9701C34.3227 13.9701 33.7719 14.5209 33.7719 15.2006V18.6914H29.7824C29.2109 18.6914 28.7461 18.2266 28.7461 17.6551V8.29259ZM38.8221 23.8375H31.1824V21.1524H38.8221V23.8375Z" fill="#1E6EC4"/>
  <path d="M43.8327 36.9675H26.1719V39.4285H43.8327V36.9675Z" fill="#1E6EC4"/>
  <path d="M40.1579 42.0823H29.8477V44.5432H40.1579V42.0823Z" fill="#1E6EC4"/>
  <path d="M55.2719 33.5128V23.9104H14.7305V33.5128H18.619V59.2504H14.7305V68.8529H55.2718V59.2504H51.3833V33.5128H55.2719ZM52.811 61.7114V66.3919H17.1914V61.7114H18.619H51.3831H52.811ZM21.0801 59.2504V33.5128H48.9223V59.2504H21.0801ZM18.6192 31.0519H17.1915V26.3713H52.811V31.0519H51.3834H18.6192Z" fill="black"/>
</svg>