<svg width="100" height="100" viewBox="0 0 100 100" fill="none" xmlns="http://www.w3.org/2000/svg">
<circle opacity="0.1" cx="50" cy="50" r="50" fill="#1E6EC4"/>
<path d="M55.3237 17.1249C54.7335 16.7512 54.032 16.6332 53.3472 16.792C52.6526 16.9533 52.0389 17.397 51.6635 18.0092C51.4829 18.3034 51.0947 18.3932 50.0025 18.3932C48.9102 18.3932 48.5221 18.3035 48.3416 18.0093C47.9661 17.397 47.3523 16.9532 46.6578 16.792C45.9731 16.6331 45.2712 16.7514 44.6812 17.1249C42.5546 18.4712 41.2852 20.7765 41.2852 23.2919V32.6542C41.2852 34.2128 42.3103 35.5361 43.7215 35.9865V41.2974H56.2831V35.9862C57.6944 35.5354 58.7194 34.2119 58.7194 32.653V23.2919C58.7195 20.7765 57.4501 18.4712 55.3237 17.1249ZM43.7461 23.2919C43.7461 21.6248 44.5876 20.0966 45.9974 19.2042C46.0067 19.1982 46.0283 19.1847 46.0637 19.1847C46.0748 19.1847 46.0871 19.1859 46.1008 19.1891C46.1279 19.1954 46.196 19.2183 46.2437 19.296C47.1996 20.8542 48.9541 20.8542 50.0023 20.8542C51.0506 20.8542 52.8051 20.8542 53.761 19.296C53.8086 19.2185 53.8767 19.1955 53.9038 19.1892C53.9619 19.1757 53.9949 19.1964 54.0072 19.2042C55.4171 20.0966 56.2586 21.6248 56.2586 23.2919V32.653C56.2586 33.2253 55.7931 33.6907 55.2209 33.6907H51.2328V30.1998C51.2328 29.5202 50.682 28.9694 50.0023 28.9694C49.3227 28.9694 48.7719 29.5202 48.7719 30.1998V33.6907H44.7824C44.2109 33.6907 43.7461 33.2258 43.7461 32.6544V23.2919ZM53.8221 38.8368H46.1824V36.1516H53.8221V38.8368Z" fill="#1E6EC4"/>
<path d="M58.8327 51.9668H41.1719V54.4277H58.8327V51.9668Z" fill="#1E6EC4"/>
<path d="M55.1579 57.0815H44.8477V59.5425H55.1579V57.0815Z" fill="#1E6EC4"/>
<path d="M70.2719 48.5121V38.9096H29.7305V48.5121H33.619V74.2497H29.7305V83.8521H70.2718V74.2497H66.3833V48.5121H70.2719ZM67.811 76.7106V81.3912H32.1914V76.7106H33.619H66.3831H67.811ZM36.0801 74.2497V48.5121H63.9223V74.2497H36.0801ZM33.6192 46.0511H32.1915V41.3706H67.811V46.0511H66.3834H33.6192Z" fill="black"/>
</svg>
