<svg width="100" height="100" viewBox="0 0 100 100" fill="none" xmlns="http://www.w3.org/2000/svg">
<circle opacity="0.1" cx="50" cy="50" r="50" fill="#1E6EC4"/>
<path d="M30.3125 80.625C30.075 80.6249 29.8439 80.5475 29.6543 80.4044C29.4646 80.2613 29.3267 80.0604 29.2614 79.832C28.697 77.8709 26.5609 72.6133 23.4842 71.8477C23.2477 71.7884 23.0378 71.6518 22.8878 71.4596C22.7378 71.2674 22.6564 71.0305 22.6564 70.7867C22.6564 70.5429 22.7378 70.3061 22.8878 70.1139C23.0378 69.9216 23.2477 69.7851 23.4842 69.7258C26.5708 68.9536 28.7003 63.697 29.2614 61.7414C29.3247 61.511 29.4618 61.3076 29.6516 61.1625C29.8414 61.0173 30.0735 60.9383 30.3125 60.9375C30.5501 60.9376 30.7811 61.015 30.9707 61.1581C31.1604 61.3012 31.2983 61.5021 31.3636 61.7305C31.928 63.6916 34.0641 68.9492 37.1408 69.7203C37.3773 69.7796 37.5872 69.9162 37.7372 70.1084C37.8872 70.3006 37.9686 70.5374 37.9686 70.7812C37.9686 71.0251 37.8872 71.2619 37.7372 71.4541C37.5872 71.6463 37.3773 71.7829 37.1408 71.8422C34.0542 72.6144 31.9247 77.8709 31.3636 79.832C31.2983 80.0604 31.1604 80.2613 30.9707 80.4044C30.7811 80.5475 30.5501 80.6249 30.3125 80.625ZM26.2011 70.7812C28.0108 72.3026 29.4221 74.2425 30.3125 76.4327C31.203 74.2425 32.6142 72.3026 34.4239 70.7812C32.6142 69.2599 31.203 67.32 30.3125 65.1298C29.4221 67.32 28.0108 69.2599 26.2011 70.7812Z" fill="#1E6EC4"/>
<path d="M69.6875 43.4375C69.45 43.4374 69.2189 43.36 69.0293 43.2169C68.8396 43.0738 68.7017 42.8729 68.6364 42.6445C68.072 40.6834 65.9359 35.4258 62.8592 34.6602C62.6227 34.6009 62.4128 34.4643 62.2628 34.2721C62.1128 34.0799 62.0314 33.843 62.0314 33.5992C62.0314 33.3554 62.1128 33.1186 62.2628 32.9264C62.4128 32.7341 62.6227 32.5976 62.8592 32.5383C65.9458 31.7661 68.0753 26.5095 68.6364 24.5484C68.7007 24.319 68.8382 24.1169 69.0279 23.9728C69.2177 23.8287 69.4493 23.7504 69.6875 23.75C69.9251 23.7501 70.1561 23.8275 70.3457 23.9706C70.5354 24.1137 70.6733 24.3146 70.7386 24.543C71.303 26.5041 73.4391 31.7617 76.5158 32.5328C76.7523 32.5921 76.9622 32.7287 77.1122 32.9209C77.2622 33.1131 77.3436 33.3499 77.3436 33.5938C77.3436 33.8376 77.2622 34.0744 77.1122 34.2666C76.9622 34.4588 76.7523 34.5954 76.5158 34.6547C73.4292 35.4269 71.2997 40.6834 70.7386 42.6445C70.6733 42.8729 70.5354 43.0738 70.3457 43.2169C70.1561 43.36 69.9251 43.4374 69.6875 43.4375ZM65.5761 33.5938C67.3858 35.1151 68.7971 37.055 69.6875 39.2452C70.5779 37.055 71.9892 35.1151 73.7989 33.5938C71.9892 32.0724 70.5779 30.1325 69.6875 27.9423C68.7971 30.1325 67.3858 32.0724 65.5761 33.5938Z" fill="#1E6EC4"/>
<path d="M30.3125 36.875C30.075 36.8749 29.8439 36.7975 29.6543 36.6544C29.4646 36.5113 29.3267 36.3104 29.2614 36.082C28.697 34.1209 26.5609 28.8633 23.4842 28.0977C23.2477 28.0384 23.0378 27.9018 22.8878 27.7096C22.7378 27.5174 22.6564 27.2805 22.6564 27.0367C22.6564 26.7929 22.7378 26.5561 22.8878 26.3639C23.0378 26.1716 23.2477 26.0351 23.4842 25.9758C26.5708 25.2036 28.7003 19.947 29.2614 17.9914C29.3247 17.761 29.4618 17.5576 29.6516 17.4125C29.8414 17.2673 30.0735 17.1883 30.3125 17.1875C30.5501 17.1876 30.7811 17.265 30.9707 17.4081C31.1604 17.5512 31.2983 17.7521 31.3636 17.9805C31.928 19.9416 34.0641 25.1992 37.1408 25.9703C37.3773 26.0296 37.5872 26.1662 37.7372 26.3584C37.8872 26.5506 37.9686 26.7874 37.9686 27.0312C37.9686 27.2751 37.8872 27.5119 37.7372 27.7041C37.5872 27.8963 37.3773 28.0329 37.1408 28.0922C34.0542 28.8644 31.9247 34.1209 31.3636 36.0766C31.2993 36.306 31.1618 36.5081 30.9721 36.6522C30.7824 36.7963 30.5508 36.8746 30.3125 36.875ZM26.2011 27.0312C28.0108 28.5526 29.4221 30.4925 30.3125 32.6827C31.203 30.4925 32.6142 28.5526 34.4239 27.0312C32.6142 25.5099 31.203 23.57 30.3125 21.3798C29.4221 23.57 28.0108 25.5099 26.2011 27.0312Z" fill="#1E6EC4"/>
<path d="M46.7187 82.8125C42.0757 82.8116 37.5822 81.1707 34.0312 78.1794C33.8151 77.9907 33.6818 77.7246 33.66 77.4385C33.6383 77.1524 33.7298 76.8692 33.9149 76.65C34.1 76.4307 34.3638 76.293 34.6495 76.2665C34.9352 76.2399 35.2199 76.3267 35.4422 76.5081C37.992 78.6567 41.1025 80.0321 44.4077 80.4724C47.7128 80.9128 51.075 80.3997 54.0984 78.9936C57.1218 77.5875 59.6805 75.347 61.4735 72.5357C63.2664 69.7244 64.2188 66.4594 64.2187 63.125C64.2187 52.9641 49.8457 27.4381 46.7187 25.9659C43.9078 27.2938 31.9093 48.25 29.572 60.0559C29.5443 60.197 29.4891 60.3313 29.4095 60.4511C29.3299 60.5708 29.2275 60.6737 29.1081 60.7538C28.9887 60.834 28.8547 60.8897 28.7137 60.918C28.5727 60.9463 28.4275 60.9465 28.2865 60.9186C28.1454 60.8907 28.0112 60.8352 27.8916 60.7554C27.772 60.6756 27.6693 60.573 27.5894 60.4535C27.5095 60.3339 27.4539 60.1998 27.4259 60.0588C27.3979 59.9178 27.3979 59.7726 27.4261 59.6316C29.5468 48.9062 42.4006 23.75 46.7187 23.75C51.5028 23.75 66.4062 53.5569 66.4062 63.125C66.4001 68.3446 64.324 73.3486 60.6332 77.0395C56.9424 80.7303 51.9383 82.8064 46.7187 82.8125Z" fill="black"/>
<path d="M46.7188 76.25C46.4287 76.25 46.1505 76.1348 45.9454 75.9296C45.7402 75.7245 45.625 75.4463 45.625 75.1562C45.625 74.8662 45.7402 74.588 45.9454 74.3829C46.1505 74.1777 46.4287 74.0625 46.7188 74.0625C49.6186 74.0593 52.3987 72.906 54.4492 70.8555C56.4997 68.805 57.6531 66.0248 57.6562 63.125C57.6562 62.8349 57.7715 62.5567 57.9766 62.3516C58.1817 62.1465 58.4599 62.0312 58.75 62.0312C59.0401 62.0312 59.3183 62.1465 59.5234 62.3516C59.7285 62.5567 59.8438 62.8349 59.8438 63.125C59.84 66.6048 58.456 69.941 55.9954 72.4016C53.5348 74.8622 50.1986 76.2462 46.7188 76.25Z" fill="black"/>
</svg>
