<svg width="100" height="100" viewBox="0 0 100 100" fill="none" xmlns="http://www.w3.org/2000/svg">
<circle opacity="0.1" cx="50" cy="50" r="50" fill="#1E6EC4"/>
<path d="M42 54.5L25.0001 54.5L25 25.0001L53 25.0001L53 54.5001L46 54.5" stroke="#1E6EC4" stroke-width="2" stroke-dasharray="2.5 2.5"/>
<path d="M46 79H57V58M57 58V47M57 58H79V38M57 41V38M79 38V21H57M79 38H66.5H57M57 38V35M39 79H21V58M44 62.5V53V58H21M21 58V21H57M57 29V21" stroke="black" stroke-width="2.5"/>
<path d="M75.5 41.5L60.5 41.5L60.5 54.5L75.5 54.5L75.5 41.5Z" stroke="#1E6EC4" stroke-width="2" stroke-dasharray="2.5 2.5"/>
</svg>
