<svg width="100" height="100" viewBox="0 0 100 100" fill="none" xmlns="http://www.w3.org/2000/svg">
<circle opacity="0.1" cx="50" cy="50" r="50" fill="#1E6EC4"/>
<path d="M72.9688 32.5C72.8207 32.5 72.6742 32.47 72.5381 32.4117C72.4019 32.3534 72.2791 32.2681 72.1769 32.1609C69.3166 29.1576 65.876 26.7665 62.0639 25.1327C58.2518 23.4989 54.1475 22.6565 50 22.6565C45.8526 22.6565 41.7483 23.4989 37.9362 25.1327C34.124 26.7665 30.6835 29.1576 27.8232 32.1609C27.724 32.2649 27.6054 32.3484 27.4741 32.4065C27.3427 32.4647 27.2012 32.4964 27.0576 32.4998C26.914 32.5033 26.7711 32.4784 26.6371 32.4267C26.5031 32.3749 26.3806 32.2972 26.2766 32.1981C26.1726 32.099 26.0892 31.9804 26.031 31.849C25.9729 31.7177 25.9411 31.5762 25.9377 31.4325C25.9307 31.1425 26.0392 30.8616 26.2394 30.6516C29.304 27.4338 32.9903 24.872 37.0747 23.1215C41.159 21.3711 45.5564 20.4685 50 20.4685C54.4437 20.4685 58.841 21.3711 62.9254 23.1215C67.0098 24.872 70.696 27.4338 73.7607 30.6516C73.9084 30.8065 74.0074 31.0015 74.0454 31.2122C74.0834 31.4229 74.0587 31.6401 73.9744 31.837C73.8901 32.0338 73.7498 32.2015 73.5711 32.3194C73.3923 32.4372 73.1829 32.5 72.9688 32.5Z" fill="black"/>
<path d="M27.0312 32.5C26.7412 32.5 26.463 32.3848 26.2579 32.1796C26.0527 31.9745 25.9375 31.6963 25.9375 31.4062V24.8438C25.9375 24.5537 26.0527 24.2755 26.2579 24.0704C26.463 23.8652 26.7412 23.75 27.0312 23.75C27.3213 23.75 27.5995 23.8652 27.8046 24.0704C28.0098 24.2755 28.125 24.5537 28.125 24.8438V31.4062C28.125 31.6963 28.0098 31.9745 27.8046 32.1796C27.5995 32.3848 27.3213 32.5 27.0312 32.5Z" fill="black"/>
<path d="M33.5938 32.5H27.0312C26.7412 32.5 26.463 32.3848 26.2579 32.1796C26.0527 31.9745 25.9375 31.6963 25.9375 31.4062C25.9375 31.1162 26.0527 30.838 26.2579 30.6329C26.463 30.4277 26.7412 30.3125 27.0312 30.3125H33.5938C33.8838 30.3125 34.162 30.4277 34.3671 30.6329C34.5723 30.838 34.6875 31.1162 34.6875 31.4062C34.6875 31.6963 34.5723 31.9745 34.3671 32.1796C34.162 32.3848 33.8838 32.5 33.5938 32.5Z" fill="black"/>
<path d="M72.9688 76.25C72.6787 76.25 72.4005 76.1348 72.1954 75.9296C71.9902 75.7245 71.875 75.4463 71.875 75.1562V68.5938C71.875 68.3037 71.9902 68.0255 72.1954 67.8204C72.4005 67.6152 72.6787 67.5 72.9688 67.5C73.2588 67.5 73.537 67.6152 73.7421 67.8204C73.9473 68.0255 74.0625 68.3037 74.0625 68.5938V75.1562C74.0625 75.4463 73.9473 75.7245 73.7421 75.9296C73.537 76.1348 73.2588 76.25 72.9688 76.25Z" fill="black"/>
<path d="M72.9688 69.6875H67.5C67.2099 69.6875 66.9317 69.5723 66.7266 69.3671C66.5215 69.162 66.4062 68.8838 66.4062 68.5938C66.4062 68.3037 66.5215 68.0255 66.7266 67.8204C66.9317 67.6152 67.2099 67.5 67.5 67.5H72.9688C73.2588 67.5 73.537 67.6152 73.7421 67.8204C73.9473 68.0255 74.0625 68.3037 74.0625 68.5938C74.0625 68.8838 73.9473 69.162 73.7421 69.3671C73.537 69.5723 73.2588 69.6875 72.9688 69.6875Z" fill="black"/>
<path d="M70.7813 65.3125C70.4912 65.3125 70.213 65.1973 70.0079 64.9922C69.8028 64.787 69.6875 64.5088 69.6875 64.2188V53.2813H64.2188C64.0208 53.2813 63.8265 53.2276 63.6566 53.1258C63.4867 53.0241 63.3477 52.8781 63.2542 52.7035C63.1608 52.5289 63.1166 52.3322 63.1262 52.1344C63.1358 51.9367 63.1989 51.7452 63.3088 51.5805L74.2463 35.1742C74.3765 34.9789 74.5662 34.8307 74.7871 34.7514C75.0081 34.6722 75.2487 34.6662 75.4734 34.7342C75.6981 34.8023 75.8949 34.9408 76.0348 35.1294C76.1746 35.3179 76.2501 35.5465 76.25 35.7813V45.625H81.7188C81.914 45.625 82.1057 45.6773 82.2739 45.7764C82.4422 45.8755 82.5808 46.0178 82.6754 46.1885C82.7701 46.3593 82.8173 46.5523 82.8122 46.7475C82.807 46.9426 82.7498 47.1329 82.6463 47.2984L71.7088 64.7984C71.6105 64.9557 71.4738 65.0855 71.3115 65.1754C71.1493 65.2653 70.9668 65.3125 70.7813 65.3125ZM66.2619 51.0938H70.7813C71.0714 51.0938 71.3496 51.209 71.5547 51.4141C71.7598 51.6192 71.875 51.8974 71.875 52.1875V60.4049L79.75 47.8125H75.1563C74.8662 47.8125 74.588 47.6973 74.3829 47.4922C74.1778 47.287 74.0625 47.0088 74.0625 46.7188V39.3906L66.2619 51.0938Z" fill="black"/>
<path d="M50 79.5312C45.5539 79.5479 41.1515 78.6529 37.0648 76.9015C32.978 75.1501 29.2938 72.5795 26.2394 69.3484C26.0392 69.1384 25.9307 68.8575 25.9377 68.5675C25.9447 68.2774 26.0666 68.002 26.2766 67.8019C26.4866 67.6017 26.7675 67.4932 27.0576 67.5002C27.3476 67.5071 27.623 67.629 27.8232 67.8391C30.6835 70.8424 34.124 73.2335 37.9361 74.8673C41.7483 76.5011 45.8525 77.3435 50 77.3435C54.1475 77.3435 58.2518 76.5011 62.0639 74.8673C65.876 73.2335 69.3166 70.8424 72.1769 67.8391C72.3771 67.629 72.6524 67.5071 72.9425 67.5002C73.2325 67.4932 73.5134 67.6017 73.7235 67.8019C73.9335 68.002 74.0554 68.2774 74.0624 68.5675C74.0693 68.8575 73.9608 69.1384 73.7607 69.3484C70.7063 72.5795 67.022 75.1501 62.9353 76.9015C58.8486 78.6529 54.4462 79.5479 50 79.5312Z" fill="black"/>
<path d="M27.0312 65.3125C24.4214 65.3096 21.9193 64.2716 20.0739 62.4261C18.2284 60.5807 17.1904 58.0786 17.1875 55.4688C17.1875 51.1506 23.4711 34.6875 27.0312 34.6875C30.5914 34.6875 36.875 51.1506 36.875 55.4688C36.8721 58.0786 35.8341 60.5807 33.9886 62.4261C32.1432 64.2716 29.6411 65.3096 27.0312 65.3125ZM27.0312 36.9559C25.1325 38.4544 19.375 50.8367 19.375 55.4688C19.375 57.4993 20.1816 59.4467 21.6175 60.8825C23.0533 62.3184 25.0007 63.125 27.0312 63.125C29.0618 63.125 31.0092 62.3184 32.445 60.8825C33.8809 59.4467 34.6875 57.4993 34.6875 55.4688C34.6875 50.8367 28.93 38.4544 27.0312 36.9559Z" fill="#1E6EC4"/>
<path d="M27.0312 60.9375C26.7412 60.9375 26.463 60.8223 26.2579 60.6171C26.0527 60.412 25.9375 60.1338 25.9375 59.8438C25.9375 59.5537 26.0527 59.2755 26.2579 59.0704C26.463 58.8652 26.7412 58.75 27.0312 58.75C27.9015 58.75 28.7361 58.4043 29.3514 57.7889C29.9668 57.1736 30.3125 56.339 30.3125 55.4688C30.3125 55.1787 30.4277 54.9005 30.6329 54.6954C30.838 54.4902 31.1162 54.375 31.4062 54.375C31.6963 54.375 31.9745 54.4902 32.1796 54.6954C32.3848 54.9005 32.5 55.1787 32.5 55.4688C32.4983 56.9186 31.9215 58.3086 30.8963 59.3338C29.8711 60.359 28.4811 60.9358 27.0312 60.9375Z" fill="#1E6EC4"/>
</svg>
