<svg width="100" height="100" viewBox="0 0 100 100" fill="none" xmlns="http://www.w3.org/2000/svg">
<circle opacity="0.1" cx="50" cy="50" r="50" fill="#1E6EC4"/>
<g clip-path="url(#clip0_358_9479)">
<mask id="mask0_358_9479" style="mask-type:luminance" maskUnits="userSpaceOnUse" x="15" y="15" width="70" height="70">
<path d="M15 15H85V85H15V15Z" fill="white"/>
</mask>
<g mask="url(#mask0_358_9479)">
<path d="M75.7819 28.2178C74.0733 29.9264 71.3032 29.9264 69.5947 28.2178C67.8861 26.5093 67.8861 23.7392 69.5947 22.0306C71.3032 20.3221 74.0733 20.3221 75.7819 22.0306C77.4904 23.7392 77.4904 26.5093 75.7819 28.2178Z" stroke="black" stroke-width="2.73437" stroke-miterlimit="10" stroke-linecap="round" stroke-linejoin="round"/>
<path d="M30.4054 77.9693C28.6968 79.6779 25.9268 79.6779 24.2182 77.9693C22.5096 76.2607 22.5096 73.4907 24.2182 71.7821C25.9268 70.0735 28.6968 70.0735 30.4054 71.7821C32.114 73.4907 32.114 76.2607 30.4054 77.9693Z" stroke="black" stroke-width="2.73437" stroke-miterlimit="10" stroke-linecap="round" stroke-linejoin="round"/>
<path d="M43.3674 82.9789C45.5117 83.4077 47.7296 83.6328 50.0001 83.6328C68.5749 83.6328 83.6329 68.5749 83.6329 50C83.6329 41.8913 80.7629 34.4533 75.9839 28.6451" stroke="black" stroke-width="2.73437" stroke-miterlimit="10" stroke-linecap="round" stroke-linejoin="round"/>
<path d="M56.6965 17.034C54.5324 16.5967 52.293 16.3672 50 16.3672C31.4251 16.3672 16.3672 31.4251 16.3672 50C16.3672 58.1086 19.2372 65.5467 24.0162 71.3549" stroke="black" stroke-width="2.73437" stroke-miterlimit="10" stroke-linecap="round" stroke-linejoin="round"/>
<path d="M50 59.9298C44.5159 59.9298 40.0701 55.4841 40.0701 49.9999C40.0701 44.5158 44.5159 40.0702 50 40.0702C55.4841 40.0702 59.9299 44.5158 59.9299 49.9999C59.9299 55.4841 55.4841 59.9298 50 59.9298ZM69.8017 45.7134C69.2808 43.2891 68.3269 41.0257 67.0235 39.009L69.6431 36.3893L63.5961 30.3467L60.9787 32.9642C58.9619 31.6609 56.6987 30.707 54.2744 30.1862V26.4843H45.7256V30.1862C43.3013 30.707 41.0381 31.6609 39.0214 32.9642L36.4039 30.3467L30.3569 36.3893L32.9765 39.009C31.6731 41.0257 30.7192 43.2891 30.1983 45.7134H26.4867L26.4821 54.262H30.1982C30.7191 56.6863 31.673 58.9497 32.9763 60.9665L30.3468 63.596L36.3894 69.6431L39.0211 67.0113C41.038 68.3148 43.3013 69.2686 45.7256 69.7895V73.5155H54.2744V69.7895C56.6987 69.2686 58.9621 68.3148 60.9789 67.0113L63.6106 69.6431L69.6532 63.596L67.0237 60.9665C68.327 58.9497 69.2809 56.6863 69.8018 54.262H73.518V45.7134H69.8017Z" stroke="#1E6EC4" stroke-width="2.73437" stroke-miterlimit="10" stroke-linecap="round" stroke-linejoin="round"/>
</g>
</g>
<defs>
<clipPath id="clip0_358_9479">
<rect width="70" height="70" fill="white" transform="translate(15 15)"/>
</clipPath>
</defs>
</svg>
