<svg width="100" height="100" viewBox="0 0 100 100" fill="none" xmlns="http://www.w3.org/2000/svg">
<circle opacity="0.1" cx="50" cy="50" r="50" fill="#1E6EC4"/>
<g clip-path="url(#clip0_357_9456)">
<g clip-path="url(#clip1_357_9456)">
<path d="M55.8335 25.2865C55.8008 25.4562 55.4744 27.3888 55.4744 27.4476C55.4744 27.4737 55.2589 27.5521 55.0043 27.6239C54.0249 27.9112 53.3263 28.1854 52.3535 28.6751L51.348 29.1778L50.4013 28.4988C49.879 28.1266 49.4285 27.8198 49.4089 27.8198C49.3893 27.8198 48.3708 28.8187 47.1564 30.0331L44.9431 32.2464L45.6352 33.2258L46.3338 34.1986L45.818 35.2041C45.4719 35.8896 45.1977 36.5491 44.9692 37.2607L44.6297 38.3119L43.474 38.5012L42.3184 38.6906L42.2988 41.8441L42.2858 44.9911L42.4294 45.0237C42.5143 45.0433 43.0366 45.1282 43.5916 45.2196C44.1465 45.3175 44.6166 45.4024 44.6297 45.422C44.6427 45.435 44.7603 45.7811 44.8778 46.1794C45.1651 47.1261 45.4654 47.8443 45.9485 48.7583L46.3338 49.4961L45.6482 50.4493C45.2695 50.9782 44.9627 51.4287 44.9627 51.4483C44.9627 51.4679 45.9616 52.4864 47.176 53.7008L49.3893 55.9141L50.3687 55.222L51.348 54.5234L52.2164 54.9739C53.0978 55.4244 54.1359 55.8423 54.9912 56.0904L55.4548 56.221L55.6441 57.3766L55.8335 58.5388L58.987 58.5584L62.134 58.5714L62.1666 58.4278C62.1862 58.3429 62.2711 57.8206 62.3625 57.2656C62.5257 56.3059 62.578 56.1622 62.7738 56.1557C62.8195 56.1557 63.2113 56.0382 63.6552 55.888C64.5497 55.5942 65.3854 55.2286 66.1297 54.8042L66.6325 54.5234L67.5922 55.209C68.1211 55.5877 68.5716 55.8945 68.5912 55.8945C68.6108 55.8945 69.6293 54.8956 70.8437 53.6812L73.057 51.4679L72.3584 50.4885L71.6663 49.5092L71.9014 49.0978C72.4302 48.1707 73.0309 46.6951 73.2921 45.6701L73.3639 45.4024L74.5195 45.2131L75.6817 45.0237L75.7013 41.8702L75.7143 38.7232L75.5707 38.6906C75.4858 38.671 74.9635 38.5861 74.4085 38.4947C73.4488 38.3315 73.3051 38.2792 73.2986 38.0834C73.2986 38.0377 73.168 37.6133 73.0113 37.1367C72.711 36.2487 72.3127 35.3347 71.9079 34.623L71.6729 34.2182L72.3519 33.2584C72.7306 32.7361 73.0374 32.2856 73.0374 32.266C73.0374 32.2464 72.0385 31.2279 70.8241 30.0135L68.6108 27.8002L67.6249 28.4988L66.6455 29.1974L66.1363 28.9101C65.2287 28.3943 63.8119 27.8198 62.813 27.5651L62.5453 27.4933L62.356 26.3377L62.1666 25.1755L59.0131 25.1559L55.8661 25.1429L55.8335 25.2865ZM60.4364 27.1407C60.4364 27.2321 60.7694 29.1582 60.789 29.1778C60.8021 29.1908 61.1481 29.2692 61.5529 29.3606C63.3418 29.7589 64.8762 30.4248 66.4235 31.4891L66.6978 31.6719L67.5204 31.0843C67.9709 30.7643 68.3561 30.4967 68.3822 30.4967C68.4084 30.4967 68.8785 30.9406 69.4204 31.4825L70.4128 32.4749L69.8317 33.278C69.5118 33.722 69.2506 34.1268 69.2506 34.1725C69.2506 34.2117 69.4465 34.5446 69.6815 34.9037C70.5172 36.1834 71.0983 37.5937 71.5031 39.3239C71.6533 39.9703 71.7055 40.0878 71.823 40.1139C71.8949 40.1335 72.365 40.2118 72.8612 40.2967L73.7556 40.4403V41.8702C73.7556 42.6537 73.736 43.2935 73.7165 43.2935C73.6512 43.2935 71.7055 43.6265 71.6925 43.6396C71.6859 43.6461 71.588 44.0509 71.4705 44.534C71.0461 46.336 70.341 47.9422 69.4008 49.248L69.1788 49.5549L69.7729 50.371C70.0929 50.828 70.3605 51.2132 70.3605 51.2393C70.3605 51.2655 69.9166 51.7355 69.3747 52.2775L68.3822 53.2699L67.5792 52.6888C67.1352 52.3689 66.7369 52.1077 66.6978 52.1077C66.6586 52.1077 66.3125 52.3036 65.9339 52.5451C64.5367 53.4266 63.146 54.0011 61.5529 54.3537C61.1481 54.4451 60.8021 54.53 60.7825 54.543C60.7694 54.5626 60.678 55.0327 60.5866 55.5942L60.4168 56.6127H58.987C58.2035 56.6127 57.5637 56.5931 57.5637 56.5735C57.5637 56.4821 57.2307 54.5561 57.2111 54.5365C57.198 54.5234 56.852 54.4451 56.4472 54.3537C54.8672 54.0011 53.4308 53.407 52.0205 52.506L51.2893 52.0489L50.4797 52.63C50.0292 52.9565 49.644 53.2176 49.6179 53.2176C49.5917 53.2176 49.1216 52.7737 48.5797 52.2318L47.5873 51.2393L48.1945 50.3971L48.8017 49.5549L48.3839 48.8889C47.8158 47.9879 47.3131 46.9889 47.0258 46.1989C46.7973 45.5656 46.399 44.0378 46.399 43.8028C46.399 43.6396 46.2619 43.6004 45.1781 43.4241L44.2445 43.2739V41.8506C44.2445 41.0606 44.2641 40.4208 44.2836 40.4208C44.4012 40.4208 46.3011 40.0812 46.3468 40.0551C46.3729 40.0355 46.399 39.9703 46.399 39.9115C46.399 39.6895 46.7973 38.1552 47.0258 37.5219C47.2935 36.758 47.8028 35.746 48.3904 34.8123L48.8148 34.1398L48.2272 33.3302C47.9007 32.8863 47.6396 32.5011 47.6396 32.4749C47.6396 32.4488 48.0835 31.9787 48.6254 31.4368L49.6179 30.4444L50.4601 31.0516L51.3089 31.6588L52.0271 31.2018C53.4308 30.3073 54.8737 29.7132 56.4472 29.3606C56.852 29.2692 57.198 29.1843 57.2176 29.1713C57.2307 29.1517 57.3221 28.6816 57.4135 28.1201L57.5833 27.1016H59.0131C59.7966 27.1016 60.4364 27.1211 60.4364 27.1407Z" fill="#1E6EC4"/>
<path d="M57.2046 31.143C54.8672 31.5739 52.9868 32.5402 51.3807 34.1333C49.2783 36.2226 48.1619 38.893 48.1619 41.8571C48.1619 44.8213 49.2783 47.4917 51.3807 49.581C52.8758 51.063 54.7105 52.0489 56.8455 52.5125C57.4461 52.6431 57.7138 52.6627 59 52.6627C60.2863 52.6627 60.5539 52.6431 61.1546 52.5125C65.0785 51.6572 68.0884 48.9738 69.3289 45.2261C69.7011 44.0835 69.8447 43.1564 69.8447 41.8571C69.8447 40.5579 69.7011 39.6307 69.3289 38.4882C68.0884 34.7536 65.072 32.0505 61.1873 31.2083C60.2405 31.0059 58.1317 30.9733 57.2046 31.143ZM60.8282 33.2062C65.751 34.3096 68.787 39.1868 67.5596 44.0248C66.7369 47.2632 64.1318 49.7768 60.8282 50.5081C60.0839 50.6778 58.4581 50.7105 57.6289 50.5799C53.3786 49.9074 50.1859 46.1663 50.1859 41.8571C50.1859 38.5665 52.0075 35.5762 54.9586 34.0223C55.6898 33.6436 56.741 33.278 57.5049 33.1474C58.2427 33.0168 60.1426 33.0495 60.8282 33.2062Z" fill="#1E6EC4"/>
<path d="M57.5637 35.0604C56.8259 35.2302 56.3362 35.4065 55.7421 35.7264C54.0315 36.6405 52.8236 38.1682 52.2882 40.0747C52.1315 40.6623 52.1119 40.8125 52.1119 41.8571C52.1119 42.9018 52.1315 43.052 52.2882 43.6396C53.0391 46.3295 55.1936 48.2817 57.9097 48.7126C58.6083 48.8301 60.1296 48.7648 60.7302 48.5951C61.4093 48.4057 61.7096 48.2817 62.3103 47.9618C65.516 46.2577 66.8545 42.2228 65.3006 38.9387C64.9284 38.1487 64.615 37.6851 64.06 37.0975C63.1199 36.1051 62.1209 35.5109 60.7302 35.1192C60.0382 34.9233 58.3145 34.8907 57.5637 35.0604ZM60.0969 37.0583C62.9175 37.7243 64.5562 40.6166 63.6748 43.3915C63.1525 45.0302 61.6508 46.3556 59.9272 46.6951C59.3265 46.8061 58.099 46.7408 57.5637 46.558C54.2665 45.4481 53.0456 41.6025 55.1153 38.8603C55.8008 37.9593 57.0675 37.1824 58.1513 37.0061C58.5561 36.9408 59.7182 36.9669 60.0969 37.0583Z" fill="#1E6EC4"/>
<path d="M58.0208 41.8571V44.8605H59.0327H60.0447V41.8571V38.8538H59.0327H58.0208V41.8571Z" fill="#1E6EC4"/>
</g>
<path d="M39.8572 65.7143C39.8572 65.162 40.3049 64.7143 40.8572 64.7143H48.2857H68.4286H68.4355H68.4424H68.4495H68.4566H68.4637H68.4709H68.4782H68.4856H68.493H68.5005H68.5081H68.5157H68.5234H68.5312H68.539H68.5469H68.5548H68.5629H68.5709H68.5791H68.5873H68.5956H68.6039H68.6123H68.6208H68.6293H68.6379H68.6466H68.6553H68.6641H68.6729H68.6818H68.6908H68.6999H68.7089H68.7181H68.7273H68.7366H68.7459H68.7553H68.7648H68.7743H68.7839H68.7935H68.8032H68.813H68.8228H68.8327H68.8426H68.8526H68.8626H68.8727H68.8829H68.8931H68.9034H68.9137H68.9241H68.9346H68.9451H68.9556H68.9663H68.9769H68.9877H68.9985H69.0093H69.0202H69.0311H69.0421H69.0532H69.0643H69.0755H69.0867H69.098H69.1093H69.1207H69.1321H69.1436H69.1552H69.1667H69.1784H69.1901H69.2018H69.2136H69.2255H69.2374H69.2493H69.2613H69.2734H69.2855H69.2977H69.3099H69.3221H69.3344H69.3468H69.3592H69.3716H69.3841H69.3967H69.4093H69.4219H69.4346H69.4474H69.4601H69.473H69.4859H69.4988H69.5118H69.5248H69.5378H69.551H69.5641H69.5773H69.5906H69.6039H69.6172H69.6306H69.644H69.6575H69.671H69.6846H69.6982H69.7118H69.7255H69.7393H69.753H69.7668H69.7807H69.7946H69.8086H69.8225H69.8366H69.8507H69.8648H69.8789H69.8931H69.9073H69.9216H69.9359H69.9503H69.9647H69.9791H69.9936H70.0081H70.0227H70.0373H70.0519H70.0665H70.0813H70.096H70.1108H70.1256H70.1405H70.1553H70.1703H70.1852H70.2002H70.2153H70.2304H70.2455H70.2606H70.2758H70.291H70.3063H70.3216H70.3369H70.3522H70.3676H70.383H70.3985H70.414H70.4295H70.4451H70.4607H70.4763H70.4919H70.5076H70.5234H70.5391H70.5549H70.5707H70.5865H70.6024H70.6183H70.6343H70.6502H70.6662H70.6823H70.6983H70.7144H70.7305H70.7467H70.7629H70.7791H70.7953H70.8116H70.8279H70.8442H70.8605H70.8769H70.8933H70.9097H70.9262H70.9427H70.9592H70.9757H70.9923H71.0088H71.0255H71.0421H71.0588H71.0754H71.0922H71.1089H71.1257H71.1424H71.1592H71.1761H71.1929H71.2098H71.2267H71.2436H71.2606H71.2776H71.2946H71.3116H71.3286H71.3457H71.3628H71.3799H71.397H71.4141H71.4313H71.4485H71.4657H71.4829H71.5002H71.5174H71.5347H71.552H71.5693H71.5867H71.6041H71.6214H71.6388H71.6562H71.6737H71.6911H71.7086H71.7261H71.7436H71.7611H71.7786H71.7962H71.8138H71.8314H71.849H71.8666H71.8842H71.9018H71.9195H71.9372H71.9549H71.9726H71.9903H72.008H72.0258H72.0435H72.0613H72.0791H72.0969H72.1147H72.1325H72.1504H72.1682H72.1861H72.204H72.2218H72.2397H72.2576H72.2756H72.2935H72.3114H72.3294H72.3473H72.3653H72.3833H72.4013H72.4192H72.4373H72.4553H72.4733H72.4913H72.5094H72.5274H72.5455H72.5635H72.5816H72.5997H72.6177H72.6358H72.6539H72.672H72.6901H72.7082H72.7264H72.7445H72.7626H72.7807H72.7989H72.817H72.8352H72.8533H72.8715H72.8896H72.9078H72.926H72.9441H72.9623H72.9805H72.9987H73.0168H73.035H73.0532H73.0714H73.0896H73.1078H73.126H73.1441H73.1623H73.1805H73.1987H73.2169H73.2351H73.2533H73.2715H73.2897H73.3079H73.3261H73.3442H73.3624H73.3806H73.3988H73.417H73.4351H73.4533H73.4715H73.4896H73.5078H73.526H73.5441H73.5623H73.5804H73.5986H73.6167H73.6348H73.653H73.6711H73.6892H73.7073H73.7254H73.7435H73.7616H73.7797H73.7978H73.8159H73.834H73.852H73.8701H73.8881H73.9062H73.9242H73.9422H73.9602H73.9782H73.9962H74.0142H74.0322H74.0502H74.0681H74.0861H74.104H74.1219H74.1398H74.1578H74.1757H74.1935H74.2114H74.2293H74.2471H74.265H74.2828H74.3006H74.3184H74.3362H74.354H74.3717H74.3895H74.4072H74.4249H74.4426H74.4603H74.478H74.4957H74.5133H74.531H74.5486H74.5662H74.5838H74.6013H74.6189H74.6364H74.6539H74.6715H74.6889H74.7064H74.7239H74.7413H74.7587H74.7761H74.7935H74.8109H74.8282H74.8455H74.8629H74.8801H74.8974H74.9147H74.9319H74.9491H74.9663H74.9835H75.0006H75.0177H75.0348H75.0519H75.069H75.086H75.103H75.12H75.137H75.154H75.1709H75.1878H75.2047H75.2216H75.2384H75.2552H75.272H75.2888H75.3055H75.3222H75.3389H75.3556H75.3722H75.3888H75.4054H75.422H75.4385H75.455H75.4715H75.488H75.5044H75.5208H75.5372H75.5535H75.5699H75.5862H75.6024H75.6187H75.6349H75.651H75.6672H75.6833H75.6994H75.7155H75.7315H75.7475H75.7635H75.7794H75.7953H75.8112H75.8271H75.8429H75.8587H75.8744H75.8902H75.9059H75.9215H75.9371H75.9527H75.9683H75.9838H75.9993H76.0148H76.0302H76.0456H76.061H76.0763H76.0916H76.1068H76.1221H76.1373H76.1524H76.1675H76.1826H76.1976H76.2127H76.2276H76.2426H76.2575H76.2723H76.2871C76.8385 64.7143 77.2857 65.1611 77.2857 65.7143V78C77.2857 78.5537 76.8388 79 76.2879 79H76.2767H76.2656H76.2543H76.2431H76.2318H76.2205H76.2092H76.1979H76.1865H76.1751H76.1637H76.1523H76.1408H76.1293H76.1178H76.1063H76.0947H76.0831H76.0715H76.0599H76.0482H76.0365H76.0248H76.0131H76.0013H75.9895H75.9777H75.9659H75.954H75.9422H75.9303H75.9184H75.9064H75.8944H75.8824H75.8704H75.8584H75.8463H75.8342H75.8221H75.81H75.7978H75.7857H75.7735H75.7612H75.749H75.7367H75.7244H75.7121H75.6998H75.6874H75.675H75.6626H75.6502H75.6377H75.6252H75.6128H75.6002H75.5877H75.5751H75.5625H75.5499H75.5373H75.5247H75.512H75.4993H75.4866H75.4738H75.4611H75.4483H75.4355H75.4227H75.4098H75.3969H75.3841H75.3711H75.3582H75.3453H75.3323H75.3193H75.3063H75.2932H75.2802H75.2671H75.254H75.2409H75.2277H75.2146H75.2014H75.1882H75.175H75.1617H75.1484H75.1352H75.1219H75.1085H75.0952H75.0818H75.0684H75.055H75.0416H75.0281H75.0147H75.0012H74.9877H74.9742H74.9606H74.947H74.9335H74.9198H74.9062H74.8926H74.8789H74.8652H74.8515H74.8378H74.8241H74.8103H74.7965H74.7827H74.7689H74.7551H74.7412H74.7273H74.7135H74.6995H74.6856H74.6717H74.6577H74.6437H74.6297H74.6157H74.6016H74.5876H74.5735H74.5594H74.5453H74.5312H74.517H74.5028H74.4886H74.4744H74.4602H74.446H74.4317H74.4174H74.4032H74.3888H74.3745H74.3602H74.3458H74.3314H74.317H74.3026H74.2882H74.2737H74.2593H74.2448H74.2303H74.2157H74.2012H74.1867H74.1721H74.1575H74.1429H74.1283H74.1136H74.099H74.0843H74.0696H74.0549H74.0402H74.0255H74.0107H73.996H73.9812H73.9664H73.9516H73.9367H73.9219H73.907H73.8921H73.8772H73.8623H73.8474H73.8325H73.8175H73.8025H73.7875H73.7725H73.7575H73.7425H73.7274H73.7124H73.6973H73.6822H73.6671H73.652H73.6368H73.6217H73.6065H73.5913H73.5761H73.5609H73.5457H73.5304H73.5152H73.4999H73.4846H73.4693H73.454H73.4386H73.4233H73.4079H73.3926H73.3772H73.3618H73.3464H73.3309H73.3155H73.3H73.2846H73.2691H73.2536H73.2381H73.2225H73.207H73.1914H73.1759H73.1603H73.1447H73.1291H73.1135H73.0978H73.0822H73.0665H73.0509H73.0352H73.0195H73.0038H72.9881H72.9723H72.9566H72.9408H72.925H72.9092H72.8934H72.8776H72.8618H72.846H72.8301H72.8143H72.7984H72.7825H72.7666H72.7507H72.7348H72.7188H72.7029H72.6869H72.671H72.655H72.639H72.623H72.607H72.591H72.5749H72.5589H72.5428H72.5267H72.5107H72.4946H72.4785H72.4623H72.4462H72.4301H72.4139H72.3978H72.3816H72.3654H72.3492H72.333H72.3168H72.3006H72.2843H72.2681H72.2518H72.2356H72.2193H72.203H72.1867H72.1704H72.1541H72.1377H72.1214H72.1051H72.0887H72.0723H72.056H72.0396H72.0232H72.0068H71.9903H71.9739H71.9575H71.941H71.9246H71.9081H71.8917H71.8752H71.8587H71.8422H71.8257H71.8092H71.7926H71.7761H71.7595H71.743H71.7264H71.7099H71.6933H71.6767H71.6601H71.6435H71.6269H71.6102H71.5936H71.577H71.5603H71.5437H71.527H71.5103H71.4937H71.477H71.4603H71.4436H71.4269H71.4101H71.3934H71.3767H71.3599H71.3432H71.3264H71.3097H71.2929H71.2761H71.2593H71.2425H71.2257H71.2089H71.1921H71.1753H71.1584H71.1416H71.1248H71.1079H71.0911H71.0742H71.0573H71.0404H71.0236H71.0067H70.9898H70.9729H70.956H70.939H70.9221H70.9052H70.8883H70.8713H70.8544H70.8374H70.8204H70.8035H70.7865H70.7695H70.7526H70.7356H70.7186H70.7016H70.6846H70.6676H70.6505H70.6335H70.6165H70.5995H70.5824H70.5654H70.5483H70.5313H70.5142H70.4972H70.4801H70.463H70.4459H70.4289H70.4118H70.3947H70.3776H70.3605H70.3434H70.3263H70.3091H70.292H70.2749H70.2578H70.2406H70.2235H70.2064H70.1892H70.1721H70.1549H70.1378H70.1206H70.1034H70.0863H70.0691H70.0519H70.0348H70.0176H70.0004H69.9832H69.966H69.9488H69.9316H69.9144H69.8972H69.88H69.8628H69.8456H69.8283H69.8111H69.7939H69.7767H69.7595H69.7422H69.725H69.7077H69.6905H69.6733H69.656H69.6388H69.6215H69.6043H69.587H69.5698H69.5525H69.5352H69.518H69.5007H69.4835H69.4662H69.4489H69.4316H69.4144H69.3971H69.3798H69.3625H69.3453H69.328H69.3107H69.2934H69.2761H69.2588H69.2416H69.2243H69.207H69.1897H69.1724H69.1551H69.1378H69.1205H69.1032H69.0859H69.0686H69.0513H69.034H69.0167H68.9994H68.9821H68.9648H68.9475H68.9302H68.9129H68.8956H68.8783H68.861H68.8437H68.8264H68.8091H68.7918H68.7745H68.7572H68.7399H68.7226H68.7053H68.688H68.6707H68.6534H68.6361H68.6188H68.6015H68.5842H68.5669H68.5496H68.5323H68.515H68.4978H68.4805H68.4632H68.4459H68.4286H68.3952H68.3615H68.3277H68.2936H68.2594H68.225H68.1904H68.1555H68.1205H68.0853H68.0499H68.0144H67.9786H67.9426H67.9065H67.8702H67.8336H67.797H67.7601H67.723H67.6858H67.6484H67.6108H67.573H67.5351H67.4969H67.4587H67.4202H67.3816H67.3427H67.3038H67.2646H67.2253H67.1858H67.1462H67.1064H67.0664H67.0263H66.986H66.9455H66.9049H66.8641H66.8232H66.7821H66.7409H66.6995H66.658H66.6163H66.5744H66.5324H66.4903H66.448H66.4055H66.3629H66.3202H66.2773H66.2343H66.1912H66.1479H66.1044H66.0608H66.0171H65.9733H65.9293H65.8852H65.8409H65.7965H65.752H65.7074H65.6626H65.6177H65.5727H65.5275H65.4822H65.4368H65.3913H65.3457H65.2999H65.254H65.208H65.1619H65.1156H65.0693H65.0228H64.9762H64.9295H64.8827H64.8358H64.7888H64.7416H64.6944H64.6471H64.5996H64.552H64.5044H64.4566H64.4088H64.3608H64.3127H64.2646H64.2163H64.168H64.1195H64.071H64.0223H63.9736H63.9248H63.8759H63.8269H63.7778H63.7287H63.6794H63.6301H63.5806H63.5311H63.4816H63.4319H63.3822H63.3323H63.2824H63.2325H63.1824H63.1323H63.0821H63.0318H62.9815H62.9311H62.8806H62.8301H62.7794H62.7288H62.678H62.6272H62.5764H62.5254H62.4744H62.4234H62.3723H62.3211H62.2699H62.2186H62.1673H62.1159H62.0645H62.013H61.9614H61.9099H61.8582H61.8065H61.7548H61.703H61.6512H61.5994H61.5475H61.4955H61.4436H61.3915H61.3395H61.2874H61.2353H61.1831H61.1309H61.0787H61.0264H60.9741H60.9218H60.8694H60.8171H60.7647H60.7122H60.6598H60.6073H60.5548H60.5023H60.4498H60.3972H60.3446H60.292H60.2394H60.1868H60.1342H60.0815H60.0289H59.9762H59.9235H59.8708H59.8181H59.7654H59.7127H59.66H59.6073H59.5546H59.5019H59.4491H59.3964H59.3437H59.291H59.2383H59.1856H59.1329H59.0802H59.0275H58.9748H58.9221H58.8695H58.8169H58.7642H58.7116H58.659H58.6064H58.5539H58.5013H58.4488H58.3963H58.3438H58.2913H58.2389H58.1865H58.1341H58.0817H58.0294H57.9771H57.9248H57.8726H57.8204H57.7682H57.716H57.6639H57.6118H57.5598H57.5078H57.4558H57.4039H57.352H57.3002H57.2484H57.1967H57.145H57.0933H57.0417H56.9901H56.9386H56.8872H56.8357H56.7844H56.7331H56.6818H56.6306H56.5795H56.5284H56.4774H56.4265H56.3756H56.3247H56.2739H56.2232H56.1726H56.122H56.0715H56.0211H55.9707H55.9204H55.8702H55.82H55.7699H55.7199H55.67H55.6201H55.5703H55.5206H55.471H55.4215H55.372H55.3226H55.2733H55.2241H55.175H55.126H55.077H55.0281H54.9794H54.9307H54.8821H54.8336H54.7852H54.7369H54.6887H54.6406H54.5926H54.5447H54.4969H54.4492H54.4015H54.354H54.3066H54.2593H54.2122H54.1651H54.1181H54.0712H54.0245H53.9779H53.9313H53.8849H53.8386H53.7924H53.7464H53.7004H53.6546H53.6089H53.5633H53.5178H53.4725H53.4273H53.3822H53.3372H53.2924H53.2477H53.2031H53.1587H53.1143H53.0701H53.0261H52.9822H52.9384H52.8948H52.8512H52.8079H52.7647H52.7216H52.6786H52.6358H52.5932H52.5506H52.5083H52.4661H52.424H52.3821H52.3403H52.2987H52.2572H52.2159H52.1747H52.1337H52.0929H52.0522H52.0116H51.9713H51.9311H51.891H51.8511H51.8114H51.7718H51.7324H51.6932H51.6542H51.6153H51.5765H51.538H51.4996H51.4614H51.4234H51.3855H51.3478H51.3103H51.273H51.2359H51.1989H51.1621H51.1255H51.0891H51.0529H51.0168H50.981H50.9453H50.9098H50.8745H50.8394H50.8045H50.7698H50.7352H50.7009H50.6668H50.6328H50.5991H50.5656H50.5322H50.4991H50.4661H50.4334H50.4009H50.3686H50.3364H50.3045H50.2728H50.2413H50.21H50.179H50.1481H50.1175H50.087H50.0568H50.0268H49.997H49.9675H49.9381H49.909H49.8801H49.8514H49.823H49.7947H49.7667H49.739H49.7114H49.6841H49.657H49.6301H49.6035H49.5771H49.551H49.525H49.4994H49.4739H49.4487H49.4237H49.399H49.3745H49.3503H49.3263H49.3025H49.279H49.2557H49.2327H49.2099H49.1874H49.1651H49.1431H49.1214H49.0998H49.0786H49.0576H49.0369H49.0164H48.9961H48.9762H48.9565H48.937H48.9179H48.8989H48.8803H48.8619H48.8438H48.826H48.8084H48.7911H48.774H48.7573H48.7408H48.7246H48.7087H48.693H48.6776H48.6625H48.6477H48.6331H48.6189H48.6049H48.5912H48.5778H48.5647H48.5519H48.5393H48.5271H48.5151H48.5034H48.492H48.4809H48.4701H48.4596H48.4494H48.4395H48.4299H48.4206H48.4116H48.4029H48.3945H48.3864H48.3786H48.3711H48.364H48.3571H48.3505H48.3443H48.3383H48.3327H48.3274H48.3224H48.3177H48.3133H48.3093H48.3055H48.3021H48.299H48.2962H48.2938H48.2917H48.2899H48.2884H48.2872H48.2864H48.2859C48.2858 79 48.2857 79 48.2857 80V79H40.8572C40.3049 79 39.8572 78.5523 39.8572 78V65.7143Z" stroke="black" stroke-width="2"/>
<path d="M55.5714 72.0714C55.5714 71.4797 56.0511 71 56.6428 71H60.5C61.0917 71 61.5714 71.4797 61.5714 72.0714C61.5714 72.6632 61.0917 73.1429 60.5 73.1429H56.6428C56.0511 73.1429 55.5714 72.6632 55.5714 72.0714Z" fill="black"/>
<rect x="25.7971" y="58.2735" width="8.97143" height="20.7265" rx="1" stroke="black" stroke-width="2"/>
<path d="M30.2828 57.2735V40.0327" stroke="black" stroke-width="2"/>
<path d="M35.6582 40.9918H24.848C24.2232 40.9918 23.7514 40.4252 23.8645 39.8107L26.2307 26.9617C26.3181 26.4873 26.7318 26.1429 27.2142 26.1429H33.3164C33.7995 26.1429 34.2136 26.4883 34.3002 26.9635L36.642 39.8125C36.7539 40.4265 36.2823 40.9918 35.6582 40.9918Z" stroke="black" stroke-width="2"/>
</g>
<defs>
<clipPath id="clip0_357_9456">
<rect width="60" height="60" fill="white" transform="translate(20 20)"/>
</clipPath>
<clipPath id="clip1_357_9456">
<rect width="33.4286" height="33.4286" fill="white" transform="translate(42.2858 25.1429)"/>
</clipPath>
</defs>
</svg>
