<svg width="100" height="100" viewBox="0 0 100 100" fill="none" xmlns="http://www.w3.org/2000/svg">
<circle opacity="0.1" cx="50" cy="50" r="50" fill="#1E6EC4"/>
<g clip-path="url(#clip0_358_9459)">
<path d="M49.3941 20.2484C48.6091 20.7287 20.8773 43.8327 20.6547 44.1959C20.3618 44.6645 20.3501 45.7072 20.643 46.2228C21.0062 46.8906 23.4783 49.5852 23.982 49.8547C24.5678 50.1945 25.2708 50.1945 25.88 49.8899C26.1378 49.761 26.3487 49.6555 26.3721 49.6555C26.3955 49.6555 26.419 56.2165 26.4307 64.2303L26.4658 78.8167L26.7119 79.1447C26.8408 79.3205 27.1337 79.5899 27.3445 79.7422L27.7312 80H50.4251H73.119L73.5056 79.7305C73.7165 79.5899 74.0094 79.3205 74.1383 79.1447L74.3843 78.8167L74.4195 64.2303C74.4312 56.2165 74.4546 49.6555 74.478 49.6555C74.5015 49.6555 74.7124 49.761 74.9701 49.8899C75.5793 50.1945 76.2823 50.1945 76.8681 49.8547C77.3719 49.5852 79.844 46.8906 80.2072 46.2228C80.4649 45.7658 80.4883 44.7348 80.2423 44.2662C80.1369 44.067 78.8012 42.8603 77.2547 41.5715L74.4546 39.2283L74.4195 33.2063C74.3843 27.3248 74.3726 27.1725 74.1383 26.8562C74.0094 26.6805 73.7516 26.4227 73.5759 26.2938C73.2713 26.0595 73.0721 26.0478 70.0025 26.0126C66.7923 25.9775 66.7572 25.9775 66.3706 26.247C65.5153 26.821 65.4919 26.9265 65.4216 29.4337L65.363 31.7066L58.7434 26.2001C55.0998 23.1656 51.8896 20.5413 51.6084 20.3538C50.9406 19.9203 50.0033 19.8852 49.3941 20.2484ZM64.2031 33.546C71.7365 39.7907 77.9811 44.9926 78.0983 45.0863C78.2975 45.2503 78.2389 45.3441 77.1141 46.6094L75.9074 47.9684L63.4298 37.6115C56.576 31.9292 50.8351 27.2428 50.6945 27.2077C50.5422 27.1608 50.3079 27.1608 50.1556 27.2077C50.015 27.2428 44.2859 31.9175 37.4437 37.5881C27.4148 45.9064 24.9545 47.8864 24.8256 47.781C24.7319 47.7107 24.1812 47.1015 23.6071 46.4336L22.5527 45.2386L36.4596 33.6866C44.1101 27.3365 50.4016 22.1464 50.4485 22.1581C50.4837 22.1698 56.6814 27.2897 64.2031 33.546ZM72.334 32.7962V37.4943L71.549 36.8265C71.1038 36.4633 70.026 35.5729 69.1473 34.8582L67.5422 33.546V30.8162L67.5304 28.0981H69.9322H72.334V32.7962ZM61.3795 38.7128L72.334 47.8044V62.8478V77.8911H50.4251H28.5161V62.8478V47.8044L39.4472 38.7245C45.4458 33.7218 50.3782 29.6329 50.3899 29.6329C50.4134 29.6212 55.3575 33.7101 61.3795 38.7128Z" fill="black"/>
<path d="M49.8963 42.5072L49.6344 42.7286L49.5876 44.5372L49.5408 46.3457L48.1375 45.5152C46.6313 44.6294 46.3413 44.5372 45.9203 44.8693C45.6303 45.0908 45.5461 45.4691 45.7051 45.8382C45.7987 46.0689 46.1823 46.3365 47.6978 47.2223L49.5782 48.3296L49.5876 50.461V52.6018L49.1479 52.7125C48.5304 52.8601 47.6885 53.3215 47.1458 53.7921L46.6968 54.1981L44.8444 53.1462L42.9921 52.085L42.9453 49.852L42.8985 47.6191L42.6366 47.3976C42.2905 47.1116 41.8227 47.1023 41.4859 47.3884L41.2333 47.6098L41.252 49.3261C41.2614 50.2765 41.252 51.0516 41.2239 51.0516C41.1959 51.0516 40.5129 50.6733 39.7084 50.2211C38.2303 49.3815 37.8467 49.2523 37.5099 49.5106C37.1263 49.7967 37.0421 50.3411 37.3228 50.6917C37.4163 50.8117 38.1461 51.2823 38.9506 51.7436L40.4007 52.5648L38.9787 53.3307C38.2022 53.7552 37.4912 54.1888 37.407 54.2903C37.1637 54.5672 37.1918 55.047 37.4631 55.3607C37.8654 55.8221 38.1648 55.7298 40.2697 54.5764L42.1314 53.5429L43.9183 54.5672C44.9006 55.13 45.7332 55.6191 45.7706 55.656C45.808 55.6836 45.7706 56.0435 45.6864 56.4495C45.5648 57.0493 45.5554 57.2984 45.649 57.8705C45.7051 58.258 45.7706 58.6548 45.7987 58.7563C45.8455 58.9132 45.6022 59.0793 44.1522 59.9097C43.2166 60.4449 42.3746 60.9155 42.2811 60.9616C42.1501 61.0262 41.6824 60.8048 40.2323 60.0112C38.1648 58.8855 37.8841 58.8024 37.4725 59.2177C37.1825 59.4945 37.1544 60.0666 37.407 60.3342C37.5005 60.4264 38.1928 60.8417 38.9506 61.2477C39.7084 61.6537 40.3258 62.0043 40.3258 62.032C40.3258 62.0597 39.7084 62.438 38.9506 62.8624C38.1835 63.2961 37.4725 63.739 37.3602 63.8497C37.0702 64.1266 37.0702 64.6156 37.3602 64.9478C37.7531 65.3999 38.1086 65.3076 39.7645 64.3572L41.2146 63.5268L41.2614 65.3261C41.3081 66.987 41.3269 67.1346 41.4953 67.2546C41.7853 67.4668 42.0846 67.5037 42.3934 67.3745C42.8892 67.1808 42.9453 66.8947 42.9453 64.5971V62.5395L44.8444 61.4691L46.7342 60.3895L47.2113 60.8324C47.7352 61.3215 48.2591 61.6167 49.0263 61.8567L49.5408 62.0135L49.5689 64.1358L49.5876 66.2673L47.8381 67.2915C45.9297 68.408 45.5648 68.7125 45.5648 69.1369C45.5648 69.4968 45.9109 69.8659 46.3132 69.9305C46.6032 69.9766 46.8091 69.8843 48.0627 69.1462C48.8392 68.6848 49.5034 68.3065 49.5314 68.3065C49.5595 68.3065 49.5876 69.1 49.5876 70.0597C49.5876 71.8036 49.5876 71.8221 49.8215 72.0435C50.1395 72.3665 50.7196 72.3665 51.0376 72.0435C51.2715 71.8221 51.2715 71.8036 51.2715 70.0597C51.2715 69.1 51.2996 68.3065 51.3277 68.3065C51.3557 68.3065 51.9451 68.6387 52.6187 69.0447C54.153 69.9489 54.2933 70.0043 54.7049 69.8659C55.2756 69.6813 55.4253 68.9063 54.9762 68.5095C54.8733 68.4172 53.9939 67.8636 53.021 67.3007L51.2715 66.2673L51.2902 64.145L51.3183 62.0227L51.9264 61.8197C52.6935 61.5614 53.2736 61.2292 53.7507 60.7586L54.1249 60.3803L56.024 61.4599L57.9138 62.5395V64.5233C57.9138 65.6121 57.9606 66.664 58.0167 66.8486C58.1103 67.1992 58.4658 67.476 58.8025 67.476C59.0364 67.476 59.4761 67.2177 59.551 67.0424C59.5884 66.9501 59.6071 66.1196 59.5977 65.1877L59.5884 63.4991L59.9907 63.7206C60.2152 63.8497 60.8794 64.2281 61.4688 64.5695C62.7224 65.2892 63.134 65.3722 63.4989 64.9478C63.7796 64.6156 63.7889 64.1266 63.5083 63.8497C63.3866 63.7298 62.6756 63.2869 61.9179 62.8624C61.1507 62.438 60.5333 62.0597 60.5333 62.032C60.5333 62.0043 61.1039 61.6813 61.8056 61.303C63.4428 60.4264 63.6205 60.2788 63.6205 59.8082C63.6205 59.5406 63.555 59.3745 63.3866 59.2177C62.9844 58.8117 62.6756 58.8855 60.842 59.9005C59.9252 60.408 59.0645 60.8693 58.9335 60.9247C58.709 61.0262 58.5499 60.9524 56.8754 60.002C55.8743 59.4299 55.0511 58.9501 55.0417 58.9409C55.0324 58.9409 55.0885 58.5994 55.1727 58.1934C55.3037 57.566 55.3037 57.363 55.2101 56.7263C55.1446 56.3203 55.0791 55.9143 55.0791 55.8221C55.0604 55.6929 55.5095 55.3976 56.9034 54.5948L58.7371 53.5429L60.5988 54.5764C62.6943 55.7298 62.9937 55.8221 63.396 55.3607C63.6673 55.047 63.6954 54.5672 63.4615 54.2996C63.3679 54.1888 62.6569 53.7644 61.8711 53.3399L60.4584 52.5648L61.8991 51.7436C62.7037 51.3007 63.4334 50.8301 63.5363 50.7009C63.817 50.3411 63.7328 49.8059 63.3492 49.5106C63.0124 49.2523 62.6289 49.3815 61.1507 50.2211C60.3462 50.6733 59.6726 51.0516 59.6445 51.0516C59.6165 51.0516 59.5977 50.2673 59.5977 49.3076V47.5545L59.3545 47.3699C59.0177 47.1116 58.5499 47.1208 58.2225 47.3976L57.9606 47.6191L57.9138 49.852L57.867 52.085L56.0147 53.1462L54.1623 54.1981L53.7133 53.8013C53.1707 53.3215 52.3287 52.8601 51.7206 52.7125L51.2715 52.6018V50.461L51.2809 48.3296L53.1613 47.2223C54.6769 46.3365 55.0604 46.0689 55.154 45.8382C55.313 45.4691 55.2288 45.0908 54.9388 44.8693C54.5178 44.5372 54.2278 44.6294 52.7216 45.5152L51.3183 46.3457L51.2715 44.5372L51.2248 42.7286L50.9628 42.5072C50.8131 42.3872 50.5792 42.2857 50.4296 42.2857C50.2799 42.2857 50.046 42.3872 49.8963 42.5072ZM51.6738 54.4933C53.7039 55.4068 54.1997 57.8982 52.6561 59.4391C52.4316 59.6606 52.048 59.9466 51.7861 60.0758C51.3744 60.2973 51.206 60.3249 50.4296 60.3249C49.6531 60.3249 49.4847 60.2973 49.073 60.0758C46.4816 58.7286 46.8091 55.2223 49.6156 54.318C50.177 54.1335 51.047 54.2073 51.6738 54.4933Z" fill="#1E6EC4"/>
</g>
<defs>
<clipPath id="clip0_358_9459">
<rect width="60" height="60" fill="white" transform="translate(20 20)"/>
</clipPath>
</defs>
</svg>
