<svg width="100" height="100" viewBox="0 0 100 100" fill="none" xmlns="http://www.w3.org/2000/svg">
<circle opacity="0.1" cx="50" cy="50" r="50" fill="#1E6EC4"/>
<path d="M34.8168 40.0033C34.8204 40.0035 34.8254 40.004 34.8312 40.0045C35.232 40.0406 40.9809 40.6151 44.308 44.0562C44.7674 44.5314 44.9546 45.2251 44.7962 45.8657C44.4868 47.1187 44.3298 48.4598 44.3298 49.8519C44.3298 51.2277 44.4832 52.5551 44.7858 53.7973C44.9436 54.4452 44.7611 55.1194 44.2972 55.6C40.9213 59.0989 35.07 59.6772 34.8225 59.7001L18.4064 59.7037V57.3323H13.9999V42.2976H18.4064V40H34.7431L34.8168 40.0033ZM20.1295 43.1593V44.0209V45.5918H18.4063V44.0209H15.723V55.6092H18.4063V50.3444V49.8147V49.5786C18.4063 49.1027 18.792 48.717 19.2679 48.717C19.7438 48.717 20.1295 49.1027 20.1295 49.5786V49.8147V50.3444V55.6092V56.4708V57.9805H34.6985C35.174 57.9284 40.2551 57.3076 43.0572 54.4035C43.1078 54.3511 43.1287 54.2756 43.1116 54.2052C42.7764 52.8297 42.6066 51.3649 42.6066 49.8519C42.6066 48.3207 42.7804 46.8405 43.1232 45.4526C43.1404 45.3825 43.1198 45.3063 43.0693 45.254C40.8826 42.9925 37.2945 42.1393 35.6047 41.8513V55.3224C35.6047 55.7983 35.219 56.184 34.7431 56.184C34.2672 56.184 33.8815 55.7983 33.8815 55.3224V41.7233H20.1296L20.1295 43.1593Z" fill="black"/>
<ellipse cx="53.7042" cy="50.0741" rx="2.40741" ry="2.40741" transform="rotate(-90 53.7042 50.0741)" fill="#1E6EC4"/>
<ellipse cx="63.3338" cy="57.2963" rx="2.40741" ry="2.40741" transform="rotate(-90 63.3338 57.2963)" fill="#1E6EC4"/>
<ellipse cx="82.5931" cy="57.2963" rx="2.40741" ry="2.40741" transform="rotate(-90 82.5931 57.2963)" fill="#1E6EC4"/>
<ellipse cx="63.3338" cy="42.8519" rx="2.40741" ry="2.40741" transform="rotate(-90 63.3338 42.8519)" fill="#1E6EC4"/>
<ellipse cx="82.5931" cy="42.8519" rx="2.40741" ry="2.40741" transform="rotate(-90 82.5931 42.8519)" fill="#1E6EC4"/>
<ellipse cx="72.9634" cy="35.6296" rx="2.40741" ry="2.40741" transform="rotate(-90 72.9634 35.6296)" fill="#1E6EC4"/>
<ellipse cx="72.9634" cy="64.5185" rx="2.40741" ry="2.40741" transform="rotate(-90 72.9634 64.5185)" fill="#1E6EC4"/>
<ellipse cx="82.5931" cy="71.7407" rx="2.40741" ry="2.40741" transform="rotate(-90 82.5931 71.7407)" fill="#1E6EC4"/>
<ellipse cx="82.5931" cy="28.4074" rx="2.40741" ry="2.40741" transform="rotate(-90 82.5931 28.4074)" fill="#1E6EC4"/>
<ellipse cx="72.9634" cy="50.0741" rx="2.40741" ry="2.40741" transform="rotate(-90 72.9634 50.0741)" fill="#1E6EC4"/>
</svg>
