<svg width="100" height="100" viewBox="0 0 100 100" fill="none" xmlns="http://www.w3.org/2000/svg">
<circle opacity="0.1" cx="50" cy="50" r="50" fill="#1E6EC4"/>
<path d="M50 64.2188C47.3903 64.2156 44.8883 63.1774 43.0429 61.3321C41.1976 59.4867 40.1594 56.9847 40.1562 54.375C40.1562 49.8622 46.5492 35.7812 50 35.7812C53.4508 35.7812 59.8438 49.8622 59.8438 54.375C59.8406 56.9847 58.8024 59.4867 56.9571 61.3321C55.1117 63.1774 52.6097 64.2156 50 64.2188ZM50 38.007C48.0892 39.0745 42.3438 50.0383 42.3438 54.375C42.3438 56.4056 43.1504 58.353 44.5862 59.7888C46.022 61.2246 47.9694 62.0312 50 62.0312C52.0306 62.0312 53.978 61.2246 55.4138 59.7888C56.8496 58.353 57.6562 56.4056 57.6562 54.375C57.6562 50.0372 51.9108 39.0745 50 38.007Z" fill="#1E6EC4"/>
<path d="M50 59.8438C49.7099 59.8438 49.4317 59.7285 49.2266 59.5234C49.0215 59.3183 48.9062 59.0401 48.9062 58.75C48.9062 58.4599 49.0215 58.1817 49.2266 57.9766C49.4317 57.7715 49.7099 57.6562 50 57.6562C50.8702 57.6562 51.7048 57.3105 52.3202 56.6952C52.9355 56.0798 53.2812 55.2452 53.2812 54.375C53.2812 54.0849 53.3965 53.8067 53.6016 53.6016C53.8067 53.3965 54.0849 53.2812 54.375 53.2812C54.6651 53.2812 54.9433 53.3965 55.1484 53.6016C55.3535 53.8067 55.4688 54.0849 55.4688 54.375C55.467 55.8249 54.8903 57.2149 53.8651 58.2401C52.8399 59.2653 51.4499 59.842 50 59.8438Z" fill="#1E6EC4"/>
<path d="M50 29.2188C49.7099 29.2188 49.4317 29.1035 49.2266 28.8984C49.0215 28.6933 48.9062 28.4151 48.9062 28.125V18.2812C48.9062 17.9912 49.0215 17.713 49.2266 17.5079C49.4317 17.3027 49.7099 17.1875 50 17.1875C50.2901 17.1875 50.5683 17.3027 50.7734 17.5079C50.9785 17.713 51.0938 17.9912 51.0938 18.2812V28.125C51.0938 28.4151 50.9785 28.6933 50.7734 28.8984C50.5683 29.1035 50.2901 29.2188 50 29.2188Z" fill="black"/>
<path d="M54.375 23.75C54.0849 23.7499 53.8068 23.6347 53.6017 23.4295L50 19.8278L46.3983 23.4295C46.192 23.6288 45.9157 23.739 45.6289 23.7365C45.3421 23.734 45.0678 23.619 44.865 23.4162C44.6622 23.2134 44.5472 22.9391 44.5447 22.6523C44.5422 22.3655 44.6525 22.0893 44.8517 21.883L49.2267 17.508C49.4318 17.3029 49.71 17.1877 50 17.1877C50.29 17.1877 50.5682 17.3029 50.7733 17.508L55.1483 21.883C55.3012 22.0359 55.4053 22.2308 55.4475 22.4429C55.4897 22.6551 55.468 22.875 55.3853 23.0748C55.3025 23.2746 55.1623 23.4454 54.9825 23.5656C54.8027 23.6858 54.5913 23.75 54.375 23.75Z" fill="black"/>
<path d="M28.125 51.0938H18.2812C17.9912 51.0938 17.713 50.9785 17.5079 50.7734C17.3027 50.5683 17.1875 50.2901 17.1875 50C17.1875 49.7099 17.3027 49.4317 17.5079 49.2266C17.713 49.0215 17.9912 48.9062 18.2812 48.9062H28.125C28.4151 48.9062 28.6933 49.0215 28.8984 49.2266C29.1035 49.4317 29.2188 49.7099 29.2188 50C29.2188 50.2901 29.1035 50.5683 28.8984 50.7734C28.6933 50.9785 28.4151 51.0938 28.125 51.0938Z" fill="black"/>
<path d="M22.6563 55.4688C22.3662 55.4687 22.088 55.3534 21.883 55.1483L17.508 50.7733C17.3029 50.5682 17.1877 50.29 17.1877 50C17.1877 49.71 17.3029 49.4318 17.508 49.2267L21.883 44.8517C22.0893 44.6525 22.3655 44.5422 22.6523 44.5447C22.9391 44.5472 23.2134 44.6623 23.4162 44.865C23.619 45.0678 23.734 45.3422 23.7365 45.6289C23.739 45.9157 23.6288 46.192 23.4295 46.3983L19.8278 50L23.4295 53.6017C23.5825 53.7547 23.6866 53.9495 23.7288 54.1617C23.771 54.3738 23.7493 54.5937 23.6665 54.7935C23.5838 54.9934 23.4436 55.1642 23.2638 55.2843C23.084 55.4045 22.8726 55.4687 22.6563 55.4688Z" fill="black"/>
<path d="M50 82.8125C49.7099 82.8125 49.4317 82.6973 49.2266 82.4921C49.0215 82.287 48.9062 82.0088 48.9062 81.7188V71.875C48.9062 71.5849 49.0215 71.3067 49.2266 71.1016C49.4317 70.8965 49.7099 70.7812 50 70.7812C50.2901 70.7812 50.5683 70.8965 50.7734 71.1016C50.9785 71.3067 51.0938 71.5849 51.0938 71.875V81.7188C51.0938 82.0088 50.9785 82.287 50.7734 82.4921C50.5683 82.6973 50.2901 82.8125 50 82.8125Z" fill="black"/>
<path d="M50 82.8125C49.7099 82.8124 49.4318 82.6972 49.2267 82.492L44.8517 78.117C44.6525 77.9107 44.5422 77.6345 44.5447 77.3477C44.5472 77.0609 44.6622 76.7866 44.865 76.5838C45.0678 76.381 45.3421 76.266 45.6289 76.2635C45.9157 76.261 46.192 76.3712 46.3983 76.5705L50 80.1722L53.6017 76.5705C53.808 76.3712 54.0843 76.261 54.3711 76.2635C54.6578 76.266 54.9322 76.381 55.1349 76.5838C55.3377 76.7866 55.4528 77.0609 55.4553 77.3477C55.4578 77.6345 55.3475 77.9107 55.1483 78.117L50.7733 82.492C50.5682 82.6972 50.29 82.8124 50 82.8125Z" fill="black"/>
<path d="M81.7188 51.0938H71.875C71.5849 51.0938 71.3067 50.9785 71.1016 50.7734C70.8965 50.5683 70.7812 50.2901 70.7812 50C70.7812 49.7099 70.8965 49.4317 71.1016 49.2266C71.3067 49.0215 71.5849 48.9062 71.875 48.9062H81.7188C82.0088 48.9062 82.287 49.0215 82.4921 49.2266C82.6973 49.4317 82.8125 49.7099 82.8125 50C82.8125 50.2901 82.6973 50.5683 82.4921 50.7734C82.287 50.9785 82.0088 51.0938 81.7188 51.0938Z" fill="black"/>
<path d="M77.3438 55.4688C77.1275 55.4687 76.9161 55.4045 76.7362 55.2843C76.5564 55.1642 76.4163 54.9934 76.3335 54.7935C76.2507 54.5937 76.2291 54.3738 76.2712 54.1617C76.3134 53.9495 76.4176 53.7547 76.5705 53.6017L80.1722 50L76.5705 46.3983C76.3712 46.192 76.261 45.9157 76.2635 45.6289C76.266 45.3422 76.381 45.0678 76.5838 44.865C76.7866 44.6623 77.0609 44.5472 77.3477 44.5447C77.6345 44.5422 77.9108 44.6525 78.117 44.8517L82.492 49.2267C82.6971 49.4318 82.8123 49.71 82.8123 50C82.8123 50.29 82.6971 50.5682 82.492 50.7733L78.117 55.1483C77.912 55.3534 77.6338 55.4687 77.3438 55.4688Z" fill="black"/>
<path d="M66.4063 34.6875C66.19 34.6875 65.9786 34.6233 65.7987 34.5031C65.6189 34.3829 65.4788 34.2121 65.396 34.0123C65.3132 33.8124 65.2916 33.5926 65.3337 33.3804C65.3759 33.1683 65.4801 32.9734 65.633 32.8205L72.1955 26.258C72.4018 26.0587 72.678 25.9485 72.9648 25.951C73.2516 25.9535 73.5259 26.0685 73.7287 26.2713C73.9315 26.4741 74.0465 26.7484 74.049 27.0352C74.0515 27.322 73.9413 27.5982 73.742 27.8045L67.1795 34.367C66.9745 34.5722 66.6963 34.6874 66.4063 34.6875Z" fill="black"/>
<path d="M72.9688 34.6875C72.6787 34.6875 72.4005 34.5723 72.1954 34.3671C71.9902 34.162 71.875 33.8838 71.875 33.5938V28.125H66.4062C66.1162 28.125 65.838 28.0098 65.6329 27.8046C65.4277 27.5995 65.3125 27.3213 65.3125 27.0312C65.3125 26.7412 65.4277 26.463 65.6329 26.2579C65.838 26.0527 66.1162 25.9375 66.4062 25.9375H72.9688C73.2588 25.9375 73.537 26.0527 73.7421 26.2579C73.9473 26.463 74.0625 26.7412 74.0625 27.0312V33.5938C74.0625 33.8838 73.9473 34.162 73.7421 34.3671C73.537 34.5723 73.2588 34.6875 72.9688 34.6875Z" fill="black"/>
<path d="M33.5937 34.6875C33.3037 34.6874 33.0255 34.5722 32.8205 34.367L26.258 27.8045C26.0587 27.5982 25.9485 27.322 25.951 27.0352C25.9535 26.7484 26.0685 26.4741 26.2713 26.2713C26.4741 26.0685 26.7484 25.9535 27.0352 25.951C27.322 25.9485 27.5982 26.0587 27.8045 26.258L34.367 32.8205C34.5199 32.9734 34.6241 33.1683 34.6663 33.3804C34.7084 33.5926 34.6868 33.8124 34.604 34.0123C34.5212 34.2121 34.3811 34.3829 34.2013 34.5031C34.0214 34.6233 33.81 34.6875 33.5937 34.6875Z" fill="black"/>
<path d="M27.0312 34.6875C26.7412 34.6875 26.463 34.5723 26.2579 34.3671C26.0527 34.162 25.9375 33.8838 25.9375 33.5938V27.0312C25.9375 26.7412 26.0527 26.463 26.2579 26.2579C26.463 26.0527 26.7412 25.9375 27.0312 25.9375H33.5938C33.8838 25.9375 34.162 26.0527 34.3671 26.2579C34.5723 26.463 34.6875 26.7412 34.6875 27.0312C34.6875 27.3213 34.5723 27.5995 34.3671 27.8046C34.162 28.0098 33.8838 28.125 33.5938 28.125H28.125V33.5938C28.125 33.8838 28.0098 34.162 27.8046 34.3671C27.5995 34.5723 27.3213 34.6875 27.0312 34.6875Z" fill="black"/>
<path d="M27.0313 74.0625C26.815 74.0625 26.6036 73.9983 26.4237 73.8781C26.2439 73.7579 26.1038 73.5871 26.021 73.3873C25.9382 73.1875 25.9166 72.9676 25.9587 72.7554C26.0009 72.5433 26.1051 72.3484 26.258 72.1955L32.8205 65.633C33.0268 65.4337 33.303 65.3235 33.5898 65.326C33.8766 65.3285 34.1509 65.4435 34.3537 65.6463C34.5565 65.8491 34.6715 66.1234 34.674 66.4102C34.6765 66.697 34.5663 66.9732 34.367 67.1795L27.8045 73.742C27.5995 73.9472 27.3213 74.0624 27.0313 74.0625Z" fill="black"/>
<path d="M33.5938 74.0625H27.0312C26.7412 74.0625 26.463 73.9473 26.2579 73.7421C26.0527 73.537 25.9375 73.2588 25.9375 72.9688V66.4062C25.9375 66.1162 26.0527 65.838 26.2579 65.6329C26.463 65.4277 26.7412 65.3125 27.0312 65.3125C27.3213 65.3125 27.5995 65.4277 27.8046 65.6329C28.0098 65.838 28.125 66.1162 28.125 66.4062V71.875H33.5938C33.8838 71.875 34.162 71.9902 34.3671 72.1954C34.5723 72.4005 34.6875 72.6787 34.6875 72.9688C34.6875 73.2588 34.5723 73.537 34.3671 73.7421C34.162 73.9473 33.8838 74.0625 33.5938 74.0625Z" fill="black"/>
<path d="M72.9687 74.0625C72.6787 74.0624 72.4005 73.9472 72.1955 73.742L65.633 67.1795C65.4337 66.9732 65.3235 66.697 65.326 66.4102C65.3285 66.1234 65.4435 65.8491 65.6463 65.6463C65.8491 65.4435 66.1234 65.3285 66.4102 65.326C66.697 65.3235 66.9732 65.4337 67.1795 65.633L73.742 72.1955C73.8949 72.3484 73.9991 72.5433 74.0413 72.7554C74.0834 72.9676 74.0618 73.1875 73.979 73.3873C73.8962 73.5871 73.7561 73.7579 73.5763 73.8781C73.3964 73.9983 73.185 74.0625 72.9687 74.0625Z" fill="black"/>
<path d="M72.9688 74.0625H66.4062C66.1162 74.0625 65.838 73.9473 65.6329 73.7421C65.4277 73.537 65.3125 73.2588 65.3125 72.9688C65.3125 72.6787 65.4277 72.4005 65.6329 72.1954C65.838 71.9902 66.1162 71.875 66.4062 71.875H71.875V66.4062C71.875 66.1162 71.9902 65.838 72.1954 65.6329C72.4005 65.4277 72.6787 65.3125 72.9688 65.3125C73.2588 65.3125 73.537 65.4277 73.7421 65.6329C73.9473 65.838 74.0625 66.1162 74.0625 66.4062V72.9688C74.0625 73.2588 73.9473 73.537 73.7421 73.7421C73.537 73.9473 73.2588 74.0625 72.9688 74.0625Z" fill="black"/>
</svg>
