<svg width="50" height="50" viewBox="0 0 50 50" fill="none" xmlns="http://www.w3.org/2000/svg">
<path d="M39.3474 25.8393L28.8633 44.0469L30.3867 44.9241L40.8709 26.7165L39.3474 25.8393Z" fill="#1E6EC4"/>
<path d="M40.0344 27.2841C39.8857 27.2841 39.7349 27.2463 39.5967 27.1667C39.176 26.9245 39.0315 26.3871 39.2736 25.9665L39.6159 25.3721C39.858 24.9514 40.3953 24.8068 40.8161 25.0491C41.2368 25.2913 41.3814 25.8287 41.1392 26.2493L40.7969 26.8436C40.6343 27.1261 40.3385 27.2841 40.0344 27.2841Z" fill="#1E6EC4"/>
<path d="M28.3862 37.4854C25.0888 37.4854 22.4062 34.8027 22.4062 31.5054C22.4062 28.208 25.0889 25.5254 28.3862 25.5254C31.6836 25.5254 34.3662 28.208 34.3662 31.5054C34.3662 34.8027 31.6837 37.4854 28.3862 37.4854ZM28.3862 27.2831C26.0581 27.2831 24.1641 29.1772 24.1641 31.5053C24.1641 33.8333 26.0582 35.7274 28.3862 35.7274C30.7143 35.7274 32.6084 33.8333 32.6084 31.5053C32.6084 29.1772 30.7144 27.2831 28.3862 27.2831Z" fill="#1E6EC4"/>
<path d="M41.3706 45.0771C38.0731 45.0771 35.3906 42.3945 35.3906 39.0972C35.3906 35.7998 38.0732 33.1172 41.3706 33.1172C44.668 33.1172 47.3506 35.7998 47.3506 39.0972C47.3506 42.3945 44.6681 45.0771 41.3706 45.0771ZM41.3706 34.8749C39.0425 34.8749 37.1484 36.769 37.1484 39.0971C37.1484 41.4251 39.0426 43.3192 41.3706 43.3192C43.6986 43.3192 45.5928 41.4251 45.5928 39.0971C45.5928 36.769 43.6987 34.8749 41.3706 34.8749Z" fill="#1E6EC4"/>
<path d="M33.821 22.9319L33.5171 22.282C29.3826 13.4622 22.5645 3.17354 22.495 3.06904L21.7631 1.96777L21.0311 3.06904C20.4497 3.94365 6.79297 24.5823 6.79297 32.5386C6.79297 40.7931 13.5086 47.5087 21.7631 47.5087C23.018 47.5087 24.2651 47.3529 25.4702 47.046C25.9069 46.9347 26.344 46.8018 26.7695 46.6509L26.1818 44.9941C25.8066 45.1272 25.4213 45.2444 25.0362 45.3425C23.9728 45.6134 22.8717 45.7509 21.7631 45.7509C14.4777 45.7509 8.55078 39.8239 8.55078 32.5386C8.55078 29.5082 10.9464 23.6398 15.4786 15.5682C18.0007 11.0765 20.5483 7.04736 21.7629 5.16504C23.6644 8.11367 28.8371 16.3335 32.113 23.4313L32.1139 23.431L32.2288 23.6767C32.3781 23.996 32.6948 24.1834 33.0255 24.1834C33.1501 24.1834 33.2768 24.1568 33.3973 24.1004C33.8369 23.8948 34.0267 23.3716 33.821 22.9319Z" fill="#1A1A21"/>
<path d="M14.6754 24.6855C14.782 24.7279 14.8919 24.7479 14.9999 24.7479C15.3494 24.7479 15.6799 24.5381 15.8169 24.1936L15.9247 23.9225C16.6345 22.2171 17.4109 20.5157 18.2341 18.8633L18.3093 18.7124L16.736 17.9287L16.6608 18.0795C15.8222 19.7626 15.0313 21.4957 14.3078 23.2328C14.3064 23.2361 14.3046 23.2392 14.3034 23.2425L14.2967 23.2592C14.2811 23.2968 14.2651 23.3342 14.2496 23.3718L14.2516 23.3727L14.1836 23.544C14.0042 23.9952 14.2244 24.5062 14.6754 24.6855Z" fill="#1A1A21"/>
</svg>
