<svg width="50" height="50" viewBox="0 0 50 50" fill="none" xmlns="http://www.w3.org/2000/svg">
<g clip-path="url(#clip0_350_2660)">
<rect x="10.8929" y="0.892857" width="28.2143" height="44.6429" stroke="black" stroke-width="1.78571"/>
<rect x="14.2852" y="46.4286" width="1.42857" height="3.57143" fill="black"/>
<rect x="15.7148" y="48.5714" width="18.5714" height="1.42857" fill="black"/>
<rect x="34.2852" y="46.4286" width="1.42857" height="3.57143" fill="black"/>
<rect x="21.4291" y="25.7143" width="7.14286" height="10" stroke="#1E6EC4" stroke-width="1.42857"/>
<rect x="35.7129" y="7.85718" width="3.57143" height="1.42857" rx="0.714286" fill="black"/>
<rect x="35.7129" y="19.2858" width="3.57143" height="1.42857" rx="0.714286" fill="black"/>
<rect x="35.7129" y="30.7146" width="3.57143" height="1.42857" rx="0.714286" fill="black"/>
<rect x="35.7129" y="13.5715" width="3.57143" height="1.42857" rx="0.714286" fill="black"/>
<rect x="35.7129" y="25.0001" width="3.57143" height="1.42857" rx="0.714286" fill="black"/>
<rect x="35.7129" y="36.4287" width="3.57143" height="1.42857" rx="0.714286" fill="black"/>
<rect x="10.7129" y="7.85718" width="3.57143" height="1.42857" rx="0.714286" fill="black"/>
<rect x="10.7129" y="19.2858" width="3.57143" height="1.42857" rx="0.714286" fill="black"/>
<rect x="10.7129" y="30.7146" width="3.57143" height="1.42857" rx="0.714286" fill="black"/>
<rect x="10.7129" y="13.5715" width="3.57143" height="1.42857" rx="0.714286" fill="black"/>
<rect x="10.7129" y="25.0001" width="3.57143" height="1.42857" rx="0.714286" fill="black"/>
<rect x="10.7129" y="36.4287" width="3.57143" height="1.42857" rx="0.714286" fill="black"/>
<rect x="19.2852" y="40.0001" width="11.4286" height="1.42857" rx="0.714286" fill="black"/>
<path d="M25.0192 20.6019C21.8574 20.6019 19.2852 18.0296 19.2852 14.8679C19.2852 11.952 23.8268 6.42822 24.3446 5.80801L25.0192 5L25.6938 5.80801C26.2117 6.42832 30.7533 11.952 30.7533 14.8679C30.7533 18.0296 28.1811 20.6019 25.0192 20.6019ZM25.0194 7.77041C23.2619 10.0152 21.043 13.3515 21.043 14.8679C21.043 17.0604 22.8268 18.844 25.0192 18.844C27.2117 18.844 28.9955 17.0604 28.9955 14.8679C28.9955 13.3498 26.7768 10.0144 25.0194 7.77041Z" fill="black"/>
<path d="M9.99916 5.71422L15.7135 -7.1467e-05L17.8563 -7.15513e-05L9.99916 7.85707L9.99916 5.71422Z" fill="black"/>
<path d="M15.7137 46.4286L9.99941 40.7142L9.99944 38.5713L17.8566 46.4286L15.7137 46.4286Z" fill="black"/>
<path d="M34.2863 1.73718e-05L40.0005 5.71422L40.0004 7.85712L32.1434 1.75404e-05L34.2863 1.73718e-05Z" fill="black"/>
<path d="M40.0008 40.7144L34.2866 46.4287L32.1437 46.4287L40.0008 38.5715L40.0008 40.7144Z" fill="black"/>
<rect x="39.2866" y="29.2857" width="3.57143" height="3.57143" stroke="black" stroke-width="1.42857"/>
<rect x="7.14202" y="29.2857" width="3.57143" height="3.57143" stroke="black" stroke-width="1.42857"/>
<rect x="39.2866" y="34.9999" width="3.57143" height="3.57143" stroke="black" stroke-width="1.42857"/>
<rect x="7.14202" y="34.9999" width="3.57143" height="3.57143" stroke="black" stroke-width="1.42857"/>
</g>
<defs>
<clipPath id="clip0_350_2660">
<rect width="50" height="50" fill="white"/>
</clipPath>
</defs>
</svg>
