<svg width="105" height="105" viewBox="0 0 105 105" fill="none" xmlns="http://www.w3.org/2000/svg">
<g clip-path="url(#clip0_422_5835)">
<path d="M30 97.4639L33 97.4639V104H30V97.4639Z" fill="#8A8A8A"/>
<rect x="33" y="101" width="39" height="3" fill="#8A8A8A"/>
<path d="M72 97.5L75 97.5002V104H72V97.5Z" fill="#8A8A8A"/>
<rect x="75" y="16.5" width="7.5" height="3" rx="1.5" fill="black"/>
<rect x="75" y="40.5001" width="7.5" height="3" rx="1.5" fill="black"/>
<rect x="75" y="64.5004" width="7.5" height="3" rx="1.5" fill="black"/>
<rect x="75" y="28.5002" width="7.5" height="3" rx="1.5" fill="black"/>
<rect x="75" y="52.5002" width="7.5" height="3" rx="1.5" fill="black"/>
<rect x="75" y="76.5002" width="7.5" height="3" rx="1.5" fill="black"/>
<rect x="22.5" y="16.5" width="7.5" height="3" rx="1.5" fill="black"/>
<rect x="22.5" y="40.5001" width="7.5" height="3" rx="1.5" fill="black"/>
<rect x="22.5" y="64.5004" width="7.5" height="3" rx="1.5" fill="black"/>
<rect x="22.5" y="28.5002" width="7.5" height="3" rx="1.5" fill="black"/>
<rect x="22.5" y="52.5002" width="7.5" height="3" rx="1.5" fill="black"/>
<rect x="22.5" y="76.5002" width="7.5" height="3" rx="1.5" fill="black"/>
<rect x="40.5001" y="84.0002" width="24" height="3" rx="1.5" fill="black"/>
<rect x="45" y="54" width="15" height="21" stroke="#1E6EC4" stroke-width="3"/>
<path d="M52.5416 43.2639C45.9018 43.2639 40.5 37.8621 40.5 31.2225C40.5 25.0991 50.0374 13.4993 51.1249 12.1968L52.5416 10.5L53.9582 12.1968C55.0458 13.4995 64.5831 25.0991 64.5831 31.2225C64.5831 37.8621 59.1814 43.2639 52.5416 43.2639ZM52.542 16.3179C48.8512 21.032 44.1914 28.0381 44.1914 31.2225C44.1914 35.8267 47.9374 39.5725 52.5416 39.5725C57.1458 39.5725 60.8917 35.8267 60.8917 31.2225C60.8917 28.0346 56.2324 21.0301 52.542 16.3179Z" fill="black"/>
<rect x="22.8751" y="1.875" width="59.25" height="93.75" stroke="black" stroke-width="3.75"/>
<path d="M21.0001 12L33.0001 -4.12185e-06L37.5001 -4.30066e-06L21.0001 16.5L21.0001 12Z" fill="black"/>
<path d="M33.0001 97.5L21.0001 85.4999L21.0001 80.9998L37.5001 97.5L33.0001 97.5Z" fill="black"/>
<path d="M72.0004 3.85794e-08L84.0002 11.9998L84.0001 16.4999L67.5004 1.12647e-07L72.0004 3.85794e-08Z" fill="black"/>
<path d="M84.0001 85.5L72.0001 97.5L67.5001 97.5L84.0001 81L84.0001 85.5Z" fill="black"/>
</g>
<defs>
<clipPath id="clip0_422_5835">
<rect width="105" height="105" fill="white"/>
</clipPath>
</defs>
</svg>
