<svg width="50" height="50" viewBox="0 0 50 50" fill="none" xmlns="http://www.w3.org/2000/svg">
<path d="M9.02168 38.3449C7.32529 36.3596 4.89043 37.0377 4.77852 37.0702L4.27344 35.3866C5.60352 34.9836 8.41563 34.9268 10.361 37.2063C10.7113 37.6167 10.6133 38.2434 10.1539 38.5264C9.78359 38.7545 9.3042 38.6755 9.02168 38.3449Z" fill="#1E6EC4"/>
<path d="M39.9101 38.5263C39.4507 38.2432 39.3527 37.6165 39.703 37.2062C41.6484 34.9268 44.4606 34.9837 45.7905 35.3865L45.281 37.0688L45.5357 36.2277L45.2854 37.0702C45.1734 37.0377 42.7386 36.3594 41.0422 38.3449C40.7598 38.6754 40.2803 38.7544 39.9101 38.5263Z" fill="#1E6EC4"/>
<path d="M46.3529 42.3316H3.64844V13.0859H46.353V42.3316H46.3529ZM5.40625 40.5738H44.5952V14.8437H5.40625V40.5738Z" fill="#1A1A21"/>
<path d="M5.40391 22.2721H0.113281V17.6191H5.40391V22.2721ZM1.87109 20.5143H3.64609V19.377H1.87109V20.5143Z" fill="#1A1A21"/>
<path d="M5.40391 28.6804H0.113281V24.0273H5.40391V28.6804ZM1.87109 26.9226H3.64609V25.7852H1.87109V26.9226Z" fill="#1A1A21"/>
<path d="M49.8844 22.2721H44.5938V17.6191H49.8844V22.2721ZM46.3516 20.5143H48.1266V19.377H46.3516V20.5143Z" fill="#1A1A21"/>
<path d="M49.8844 28.6804H44.5938V24.0273H49.8844V28.6804ZM46.3516 26.9226H48.1266V25.7852H46.3516V26.9226Z" fill="#1A1A21"/>
<path d="M24.9997 37.8626C21.8379 37.8626 19.2656 35.2903 19.2656 32.1286C19.2656 29.2127 23.8072 23.689 24.3251 23.0688L24.9997 22.2607L25.6743 23.0688C26.1922 23.6891 30.7338 29.2127 30.7338 32.1286C30.7338 35.2903 28.1615 37.8626 24.9997 37.8626ZM24.9999 25.0312C23.2424 27.276 21.0234 30.6122 21.0234 32.1286C21.0234 34.3211 22.8072 36.1048 24.9997 36.1048C27.1922 36.1048 28.976 34.3211 28.976 32.1286C28.976 30.6105 26.7572 27.2751 24.9999 25.0312Z" fill="#1E6EC4"/>
<path d="M13.8427 29.7839H12.2341C10.5558 29.7839 9.19531 28.4233 9.19531 26.7451V25.752H10.9531V26.7451C10.9531 27.4525 11.5267 28.0261 12.2341 28.0261H13.8426C14.5501 28.0261 15.1236 27.4525 15.1236 26.745V26.6309C15.1236 26.1454 15.5171 25.752 16.0025 25.752C16.488 25.752 16.8814 26.1454 16.8814 26.6309V26.7451C16.8814 28.4234 15.5209 29.7839 13.8427 29.7839Z" fill="#1A1A21"/>
<path d="M37.7645 29.7839H36.1561C34.4777 29.7839 33.1172 28.4233 33.1172 26.745V26.6309C33.1172 26.1454 33.5106 25.752 33.9961 25.752C34.4815 25.752 34.875 26.1454 34.875 26.6309V26.7451C34.875 27.4525 35.4485 28.0261 36.156 28.0261H37.7645C38.472 28.0261 39.0455 27.4525 39.0455 26.7451V25.752H40.8033V26.7451C40.8033 28.4234 39.4429 29.7839 37.7645 29.7839Z" fill="#1A1A21"/>
<path d="M13.0352 15.9006C12.5497 15.9006 12.1562 15.5071 12.1562 15.0217V13.9648H13.9141V15.0217C13.9141 15.5071 13.5206 15.9006 13.0352 15.9006Z" fill="#1A1A21"/>
<path d="M29.8549 18.7148H20.1445C19.6591 18.7148 19.2656 18.3214 19.2656 17.8359C19.2656 17.3505 19.6591 16.957 20.1445 16.957H29.8549C30.3403 16.957 30.7338 17.3505 30.7338 17.8359C30.7338 18.3213 30.3402 18.7148 29.8549 18.7148Z" fill="#1A1A21"/>
<path d="M6.50381 18.7139H4.48828V16.9561H6.50381C6.98926 16.9561 7.38271 17.3495 7.38271 17.835C7.38271 18.3203 6.98916 18.7139 6.50381 18.7139Z" fill="#1A1A21"/>
<path d="M43.4922 18.7139H45.5077V16.9561H43.4922C43.0067 16.9561 42.6133 17.3495 42.6133 17.835C42.6133 18.3203 43.0068 18.7139 43.4922 18.7139Z" fill="#1A1A21"/>
<path d="M16.8814 24.6151H9.19531V16.957H16.8814V24.6151ZM10.9531 22.8573H15.1236V18.7148H10.9531V22.8573Z" fill="#1E6EC4"/>
<path d="M40.8033 24.6151H33.1172V16.957H40.8033V24.6151ZM34.875 22.8573H39.0455V18.7148H34.875V22.8573Z" fill="#1E6EC4"/>
<path d="M36.957 15.9006C36.4716 15.9006 36.0781 15.5071 36.0781 15.0217V13.9648H37.8359V15.0217C37.8359 15.5071 37.4424 15.9006 36.957 15.9006Z" fill="#1A1A21"/>
</svg>
