<svg width="50" height="50" viewBox="0 0 50 50" fill="none" xmlns="http://www.w3.org/2000/svg">
<path d="M42.7911 25.0005C42.7911 24.7229 42.66 24.4616 42.4374 24.2957C42.3572 24.236 41.1969 23.3839 39.4253 22.695C41.1969 22.0062 42.3572 21.154 42.4374 21.0943C42.66 20.9284 42.7911 20.6672 42.7911 20.3896C42.7911 20.1119 42.66 19.8507 42.4374 19.6848C42.3015 19.5836 39.0634 17.2052 35.0022 17.2052C30.9411 17.2052 27.7029 19.5835 27.567 19.6848C27.5328 19.7103 27.5016 19.7387 27.4718 19.7684C26.7321 19.6104 25.9399 19.5105 25.1127 19.5105C24.2161 19.5105 23.3599 19.6267 22.568 19.8085C22.5281 19.7634 22.4843 19.7214 22.4351 19.6847C22.2991 19.5835 19.0609 17.2051 14.9998 17.2051C10.9387 17.2051 7.70059 19.5834 7.56465 19.6847C7.34209 19.8506 7.21094 20.1118 7.21094 20.3895C7.21094 20.6671 7.34209 20.9283 7.56465 21.0942C7.70059 21.1954 10.9387 23.5739 14.9998 23.5739C17.142 23.5739 19.0658 24.3812 20.2287 25.002C19.0694 25.6225 17.1515 26.427 14.9998 26.427C12.5188 26.427 10.3308 25.3443 9.27852 24.7223C8.89092 24.4931 8.39365 24.5928 8.12461 24.9539C7.8123 25.373 7.93135 25.9698 8.38076 26.2367C8.90527 26.5483 9.65898 26.949 10.5769 27.306C8.80527 27.9948 7.64492 28.847 7.56475 28.9066C7.34219 29.0726 7.21104 29.3338 7.21104 29.6114C7.21104 29.8891 7.34219 30.1503 7.56475 30.3162C7.70068 30.4174 10.9388 32.7958 14.9999 32.7958C19.061 32.7958 22.2992 30.4175 22.4352 30.3162C22.4844 30.2796 22.5283 30.2376 22.5681 30.1924C23.3599 30.3741 24.2161 30.4903 25.1128 30.4903C25.94 30.4903 26.7322 30.3906 27.4719 30.2325C27.5017 30.2622 27.5329 30.2906 27.5671 30.3161C27.6922 30.4093 30.4462 32.4321 34.0511 32.7529C34.563 32.7985 35.0023 32.3901 35.0023 31.8762C35.0023 31.4209 34.6546 31.0421 34.2012 31.0011C32.3874 30.8367 30.7923 30.1534 29.7764 29.6113C30.9398 28.9905 32.8621 28.1848 35.0023 28.1848C37.1443 28.1848 39.0678 28.9918 40.2307 29.6126C40.0715 29.6978 39.8983 29.7862 39.7124 29.8755L40.4732 31.4602C41.666 30.8874 42.4065 30.3392 42.4374 30.3161C42.66 30.1502 42.7911 29.889 42.7911 29.6113C42.7911 29.3337 42.66 29.0725 42.4374 28.9065C42.3572 28.8469 41.1969 27.9947 39.4253 27.3059C41.1969 26.617 42.3572 25.7648 42.4374 25.7052C42.66 25.5394 42.7911 25.2781 42.7911 25.0005ZM35.0022 18.9631C37.1425 18.9631 39.0646 19.7687 40.2281 20.3896C39.0646 21.0104 37.1425 21.8161 35.0022 21.8161C32.8599 21.8161 30.9361 21.0089 29.7733 20.388C30.9325 19.7676 32.8506 18.9631 35.0022 18.9631ZM30.3416 22.6966C29.1824 23.3171 27.2645 24.1216 25.1128 24.1216C22.9724 24.1216 21.05 23.3157 19.8869 22.6951C21.0503 22.0743 22.9726 21.2686 25.1128 21.2686C27.2549 21.2685 29.1784 22.0755 30.3416 22.6966ZM9.77402 20.3896C10.9374 19.7687 12.8597 18.9631 14.9999 18.9631C17.1401 18.9631 19.0624 19.7687 20.2258 20.3896C19.0624 21.0104 17.1401 21.8161 14.9999 21.8161C12.8595 21.8162 10.9371 21.0104 9.77402 20.3896ZM14.9999 31.0379C12.8595 31.0379 10.9371 30.232 9.77402 29.6114C10.9374 28.9906 12.8597 28.1849 14.9999 28.1849C17.1421 28.1849 19.0656 28.9919 20.2287 29.613C19.0695 30.2335 17.1516 31.0379 14.9999 31.0379ZM19.8869 27.3059C21.0503 26.6851 22.9726 25.8794 25.1128 25.8794C27.253 25.8794 29.1753 26.6851 30.3387 27.3059C29.1753 27.9268 27.253 28.7324 25.1128 28.7324C22.9724 28.7325 21.05 27.9267 19.8869 27.3059ZM35.0022 26.427C32.8601 26.427 30.9362 25.6197 29.7733 24.9989C30.9326 24.3784 32.8506 23.5739 35.0022 23.5739C37.1425 23.5739 39.0646 24.3796 40.228 25.0004C39.0646 25.6213 37.1425 26.427 35.0022 26.427Z" fill="#1E6EC4"/>
<path d="M48.7982 12.4717H44.938C44.4525 12.4717 44.0591 12.8651 44.0591 13.3506V14.0217C43.9003 13.9849 43.7355 13.9647 43.5661 13.9647H16.6177V15.7226H43.5661C43.8167 15.7226 44.0241 15.9398 44.0591 16.2215V33.7793C44.0242 34.0609 43.8167 34.2782 43.5661 34.2782H6.43154C6.20088 34.2782 6.00674 34.0939 5.9501 33.845V16.1558C6.00684 15.9068 6.20088 15.7226 6.43154 15.7226H10.6491C11.1346 15.7226 11.528 15.3291 11.528 14.8437C11.528 14.3582 11.1346 13.9647 10.6491 13.9647H6.43154C6.26631 13.9647 6.10537 13.9838 5.9501 14.0189V13.3506C5.9501 12.8651 5.55664 12.4717 5.07119 12.4717H1.21094C0.725488 12.4717 0.332031 12.8651 0.332031 13.3506V36.6502C0.332031 37.1356 0.725488 37.5291 1.21094 37.5291H5.07119C5.55664 37.5291 5.9501 37.1356 5.9501 36.6502V35.9818C6.10537 36.017 6.26631 36.036 6.43154 36.036H43.5661C43.7355 36.036 43.9003 36.0159 44.0591 35.9791V36.6502C44.0591 37.1356 44.4525 37.5291 44.938 37.5291H48.7982C49.2837 37.5291 49.6772 37.1356 49.6772 36.6502V13.3506C49.6772 12.8651 49.2837 12.4717 48.7982 12.4717ZM2.08984 35.7713V14.2295H4.19229V16.0209C4.18135 16.1142 4.1751 16.2088 4.1751 16.3051V33.6957C4.1751 33.7919 4.18135 33.8866 4.19229 33.9799V35.7713H2.08984ZM47.9193 35.7713H45.8169V33.854C45.8203 33.8017 45.8227 33.749 45.8227 33.6957V16.3051C45.8227 16.2519 45.8203 16.1992 45.8169 16.1468V14.2295H47.9193V35.7713Z" fill="#1A1A21"/>
</svg>
