<svg width="50" height="50" viewBox="0 0 50 50" fill="none" xmlns="http://www.w3.org/2000/svg">
<path d="M21.5683 14.9915C21.5719 14.9918 21.577 14.9923 21.5829 14.9928C21.9918 15.0296 27.8563 15.6156 31.2502 19.1259C31.7189 19.6106 31.9098 20.3183 31.7482 20.9718C31.4326 22.2499 31.2724 23.618 31.2724 25.0381C31.2724 26.4415 31.4289 27.7956 31.7376 29.0628C31.8986 29.7237 31.7124 30.4114 31.2392 30.9018C27.7954 34.4709 21.8265 35.0608 21.5741 35.0842L4.82806 35.0879V32.6688H0.333042V17.3319H4.82806V14.9882H21.4931L21.5683 14.9915ZM6.58578 18.2109V19.0898V20.6924H4.82796V19.0898H2.09076V30.9111H4.82796V25.5405V25.0001V24.7593C4.82796 24.2738 5.22142 23.8804 5.70687 23.8804C6.19232 23.8804 6.58578 24.2738 6.58578 24.7593V25.0001V25.5405V30.9111V31.79V33.3301H21.4476C21.9327 33.2769 27.1159 32.6437 29.9743 29.6812C30.0259 29.6277 30.0472 29.5507 30.0297 29.4789C29.6878 28.0757 29.5146 26.5815 29.5146 25.0381C29.5146 23.4761 29.6919 21.9661 30.0416 20.5504C30.0591 20.4788 30.0381 20.4012 29.9866 20.3478C27.756 18.0408 24.0957 17.1705 22.372 16.8767V30.6186C22.372 31.104 21.9786 31.4975 21.4931 31.4975C21.0077 31.4975 20.6142 31.104 20.6142 30.6186V16.7461H6.58587L6.58578 18.2109Z" fill="#1A1A21"/>
<path d="M33.3472 30.0851L48.7852 37.1074V35.1763L34.075 28.485C33.6331 28.284 33.112 28.4792 32.911 28.9211C32.7101 29.363 32.9054 29.8841 33.3472 30.0851Z" fill="#1E6EC4"/>
<path d="M32.911 21.0785C33.112 21.5204 33.6331 21.7156 34.075 21.5147L48.7852 14.8233V12.8922L33.3472 19.9146C32.9054 20.1155 32.7101 20.6366 32.911 21.0785Z" fill="#1E6EC4"/>
<path d="M36.036 25C36.036 25.4854 36.4295 25.8789 36.9149 25.8789H48.7852V24.1211H36.9149C36.4296 24.1211 36.036 24.5146 36.036 25Z" fill="#1E6EC4"/>
<path d="M42.2286 20.9458C42.3412 21.4179 42.8152 21.7095 43.2874 21.5969L48.7852 20.2864V18.4793L42.8798 19.887C42.4076 19.9996 42.1161 20.4736 42.2286 20.9458Z" fill="#1E6EC4"/>
<path d="M42.8798 30.1128L48.7852 31.5205V29.7134L43.2874 28.4028C42.8152 28.2902 42.3412 28.5818 42.2286 29.054C42.1161 29.5263 42.4076 30.0003 42.8798 30.1128Z" fill="#1E6EC4"/>
</svg>
