<svg width="50" height="50" viewBox="0 0 50 50" fill="none" xmlns="http://www.w3.org/2000/svg">
<path d="M43.3069 15.1851C41.9658 11.9532 39.3559 9.33052 36.1237 7.96694C35.6948 7.78599 35.4777 7.30581 35.6313 6.86636L35.6314 6.86616C35.7992 6.38579 36.3379 6.14956 36.8067 6.34741C40.4616 7.88989 43.4132 10.8563 44.9307 14.5121C45.1258 14.9821 44.8861 15.5195 44.4045 15.6842L44.4042 15.6843C43.9638 15.835 43.4852 15.615 43.3069 15.1851Z" fill="#1E6EC4"/>
<path d="M38.9989 17.5898C38.1854 15.1581 36.3157 13.2287 33.9077 12.3359C33.483 12.1784 33.2487 11.723 33.3661 11.2856L33.3663 11.2848C33.5013 10.7818 34.0402 10.5097 34.5285 10.6911C37.4281 11.7693 39.68 14.0936 40.6628 17.0226C40.8285 17.5164 40.5389 18.0465 40.0315 18.165L40.0309 18.1652C39.5899 18.2681 39.1426 18.0192 38.9989 17.5898Z" fill="#1E6EC4"/>
<path d="M47.5771 12.7796C45.7357 8.70973 42.4294 5.42887 38.3372 3.61061C37.9072 3.41959 37.7017 2.92613 37.8726 2.48775C38.0544 2.02154 38.5889 1.79908 39.0462 2.00211C43.5351 3.99547 47.1618 7.59469 49.1807 12.0599C49.3869 12.5159 49.1679 13.052 48.7029 13.2368C48.2657 13.4105 47.771 13.2083 47.5771 12.7796Z" fill="#1E6EC4"/>
<path d="M31.589 47.9942C31.589 47.5702 31.8916 47.2058 32.309 47.1305C34.1978 46.7898 35.6353 45.1338 35.6353 43.1483V19.9105C35.6353 17.6759 33.8237 15.8643 31.589 15.8643H8.35098C6.11631 15.8643 4.30469 17.6758 4.30469 19.9105V43.1484C4.30469 45.3831 6.11621 47.1947 8.35098 47.1947H25.4157V48.9525H8.35098C5.14551 48.9525 2.54688 46.354 2.54688 43.1484V19.9105C2.54688 16.7051 5.14541 14.1064 8.35098 14.1064H31.589C34.7944 14.1064 37.3931 16.705 37.3931 19.9105V43.1484C37.3931 45.9934 35.3355 48.3668 32.6305 48.8589C32.0889 48.9574 31.589 48.5447 31.589 47.9942Z" fill="#1A1A21"/>
<path d="M11.9978 32.0799H10.6113V35.1718H8.87109V26.7256H12.0094C13.0072 26.7256 13.7768 26.9479 14.3183 27.3927C14.8597 27.8375 15.1303 28.4658 15.1303 29.278C15.1303 29.8543 15.0057 30.3348 14.7562 30.7196C14.5067 31.1044 14.1286 31.4109 13.6221 31.6391L15.4494 35.0906V35.1719H13.5815L11.9978 32.0799ZM10.6113 30.6703H12.0151C12.4521 30.6703 12.7904 30.5592 13.0304 30.3367C13.2701 30.1145 13.39 29.8079 13.39 29.4173C13.39 29.019 13.277 28.7058 13.0507 28.4775C12.8245 28.2494 12.4772 28.1353 12.0094 28.1353H10.6114L10.6113 30.6703Z" fill="#1E6EC4"/>
<path d="M23.3271 35.1718H21.5869V31.5521H18.1934V35.1718H16.4531V26.7256H18.1934V30.1481H21.5869V26.7256H23.3271V35.1718Z" fill="#1E6EC4"/>
<path d="M24.6406 28.3496C24.6406 27.8313 24.8089 27.4108 25.1453 27.0879C25.4817 26.7649 25.9226 26.6035 26.4679 26.6035C27.0209 26.6035 27.4657 26.7631 27.8021 27.082C28.1386 27.4012 28.3068 27.8332 28.3068 28.3785V28.7962C28.3068 29.3183 28.1386 29.738 27.8021 30.055C27.4657 30.3722 27.0248 30.5307 26.4795 30.5307C25.9303 30.5307 25.4865 30.3711 25.1481 30.0521C24.8097 29.733 24.6406 29.3028 24.6406 28.7614V28.3496ZM25.7544 28.7963C25.7544 29.0283 25.8212 29.2149 25.9546 29.356C26.088 29.4972 26.2629 29.5678 26.4796 29.5678C26.6962 29.5678 26.8682 29.4963 26.9959 29.3531C27.1235 29.2101 27.1873 29.0187 27.1873 28.7788V28.3495C27.1873 28.1175 27.1235 27.9299 26.9959 27.7868C26.8682 27.6438 26.6923 27.5722 26.468 27.5722C26.2553 27.5722 26.0832 27.6428 25.9518 27.7839C25.8202 27.9251 25.7544 28.1214 25.7544 28.3727V28.7963ZM26.8102 34.5393L25.9922 34.0983L30.1167 27.4968L30.9346 27.9377L26.8102 34.5393ZM28.6781 33.1006C28.6781 32.5784 28.8482 32.1579 29.1886 31.8389C29.5288 31.5197 29.9697 31.3603 30.5112 31.3603C31.0604 31.3603 31.5041 31.5179 31.8426 31.8331C32.181 32.1483 32.3501 32.5824 32.3501 33.1354V33.553C32.3501 34.0714 32.1838 34.4899 31.8513 34.8089C31.5187 35.128 31.0759 35.2875 30.5229 35.2875C29.9659 35.2875 29.5193 35.127 29.1828 34.806C28.8463 34.485 28.6781 34.0596 28.6781 33.5298V33.1006ZM29.7918 33.553C29.7918 33.7658 29.8614 33.9475 30.0007 34.0983C30.1399 34.2491 30.314 34.3245 30.5229 34.3245C30.9946 34.3245 31.2306 34.0635 31.2306 33.5413V33.1005C31.2306 32.8684 31.1647 32.6818 31.0333 32.5407C30.9017 32.3996 30.7277 32.329 30.5111 32.329C30.2945 32.329 30.1205 32.3996 29.9891 32.5407C29.8575 32.6818 29.7917 32.8742 29.7917 33.1179L29.7918 33.553Z" fill="#1E6EC4"/>
</svg>
