<svg width="71" height="70" viewBox="0 0 71 70" fill="none" xmlns="http://www.w3.org/2000/svg">
<path d="M61.1327 21.2589C59.2551 16.7342 55.6013 13.0625 51.0762 11.1535C50.4757 10.9002 50.1718 10.2279 50.3868 9.6127L50.387 9.61242C50.6219 8.9399 51.3761 8.60918 52.0324 8.88617C57.1492 11.0456 61.2815 15.1986 63.406 20.3167C63.6792 20.9747 63.3435 21.7271 62.6694 21.9577L62.669 21.9579C62.0524 22.1688 61.3823 21.8608 61.1327 21.2589Z" fill="#1E6EC4"/>
<path d="M55.1059 24.625C53.9669 21.2207 51.3494 18.5195 47.9782 17.2695C47.3836 17.0491 47.0557 16.4114 47.22 15.7991L47.2203 15.798C47.4092 15.0938 48.1638 14.7129 48.8474 14.9669C52.9068 16.4763 56.0594 19.7303 57.4353 23.8309C57.6674 24.5223 57.2618 25.2644 56.5516 25.4302L56.5506 25.4305C55.9334 25.5746 55.307 25.2261 55.1059 24.625Z" fill="#1E6EC4"/>
<path d="M67.1167 17.8909C64.5388 12.193 59.91 7.59979 54.1808 5.05422C53.5788 4.7868 53.2912 4.09596 53.5304 3.48223C53.7849 2.82953 54.5333 2.51809 55.1735 2.80232C61.4579 5.59303 66.5353 10.6319 69.3618 16.8833C69.6504 17.5216 69.3439 18.2722 68.6928 18.5309C68.0807 18.7741 67.3883 18.4909 67.1167 17.8909Z" fill="#1E6EC4"/>
<path d="M44.7297 67.1921C44.7297 66.5984 45.1534 66.0882 45.7378 65.9828C48.3822 65.5059 50.3945 63.1874 50.3945 60.4078V27.8749C50.3945 24.7464 47.8584 22.2101 44.7297 22.2101H12.1965C9.06801 22.2101 6.53174 24.7462 6.53174 27.8749V60.408C6.53174 63.5365 9.06787 66.0728 12.1965 66.0728H36.0872V68.5337H12.1965C7.70889 68.5337 4.0708 64.8957 4.0708 60.408V27.8749C4.0708 23.3872 7.70875 19.7492 12.1965 19.7492H44.7297C49.2174 19.7492 52.8555 23.3871 52.8555 27.8749V60.408C52.8555 64.3908 49.9749 67.7136 46.1878 68.4026C45.4296 68.5405 44.7297 67.9628 44.7297 67.1921Z" fill="black"/>
<path d="M17.2977 44.9106H15.3567V49.2393H12.9204V37.4146H17.314C18.711 37.4146 19.7883 37.7259 20.5464 38.3485C21.3044 38.9713 21.6833 39.8509 21.6833 40.988C21.6833 41.7948 21.5088 42.4674 21.1595 43.0062C20.8103 43.5449 20.2809 43.9741 19.5718 44.2935L22.1301 49.1256V49.2394H19.515L17.2977 44.9106ZM15.3567 42.9372H17.3221C17.9339 42.9372 18.4075 42.7816 18.7434 42.4702C19.079 42.159 19.2469 41.7298 19.2469 41.183C19.2469 40.6254 19.0886 40.1868 18.7718 39.8673C18.4552 39.548 17.969 39.3881 17.314 39.3881H15.3569L15.3567 42.9372Z" fill="#1E6EC4"/>
<path d="M33.1588 49.2393H30.7225V44.1716H25.9715V49.2393H23.5352V37.4146H25.9715V42.2062H30.7225V37.4146H33.1588V49.2393Z" fill="#1E6EC4"/>
<path d="M35.0024 39.6886C35.0024 38.9631 35.238 38.3744 35.709 37.9222C36.18 37.4701 36.7971 37.2441 37.5606 37.2441C38.3348 37.2441 38.9576 37.4675 39.4286 37.914C39.8996 38.3608 40.1351 38.9657 40.1351 39.7291V40.3138C40.1351 41.0447 39.8996 41.6324 39.4286 42.0762C38.9576 42.5202 38.3403 42.7421 37.5769 42.7421C36.8079 42.7421 36.1867 42.5187 35.713 42.0722C35.2391 41.6254 35.0024 41.0231 35.0024 40.2652V39.6886ZM36.5617 40.314C36.5617 40.6388 36.6552 40.9001 36.842 41.0975C37.0287 41.2952 37.2736 41.3941 37.577 41.3941C37.8802 41.3941 38.121 41.294 38.2998 41.0936C38.4785 40.8933 38.5678 40.6253 38.5678 40.2895V39.6885C38.5678 39.3637 38.4785 39.101 38.2998 38.9007C38.121 38.7004 37.8748 38.6002 37.5607 38.6002C37.2629 38.6002 37.0221 38.6991 36.838 38.8966C36.6539 39.0943 36.5617 39.3691 36.5617 39.7209V40.314ZM38.0398 48.3541L36.8946 47.7369L42.6689 38.4947L43.814 39.112L38.0398 48.3541ZM40.6549 46.34C40.6549 45.609 40.8931 45.0203 41.3696 44.5736C41.8459 44.1268 42.4632 43.9035 43.2213 43.9035C43.9901 43.9035 44.6113 44.1242 45.0852 44.5655C45.5589 45.0069 45.7957 45.6146 45.7957 46.3888V46.9734C45.7957 47.6991 45.5629 48.2851 45.0973 48.7316C44.6317 49.1784 44.0118 49.4017 43.2376 49.4017C42.4579 49.4017 41.8326 49.1769 41.3615 48.7275C40.8904 48.2781 40.6549 47.6826 40.6549 46.9409V46.34ZM42.2141 46.9734C42.2141 47.2713 42.3116 47.5256 42.5065 47.7369C42.7015 47.948 42.9451 48.0535 43.2376 48.0535C43.898 48.0535 44.2284 47.688 44.2284 46.957V46.3399C44.2284 46.0149 44.1362 45.7538 43.9522 45.5562C43.7679 45.3586 43.5244 45.2598 43.2212 45.2598C42.9179 45.2598 42.6743 45.3586 42.4903 45.5562C42.3061 45.7538 42.2139 46.0231 42.2139 46.3642L42.2141 46.9734Z" fill="#1E6EC4"/>
</svg>
