<svg width="71" height="70" viewBox="0 0 71 70" fill="none" xmlns="http://www.w3.org/2000/svg">
<path d="M26.2256 16.3521H23.7646V9.01838C23.7646 8.33875 24.3155 7.78791 24.9951 7.78791C25.6747 7.78791 26.2256 8.33875 26.2256 9.01838V16.3521Z" fill="#1E6EC4"/>
<path d="M31.2666 16.3521H28.8057V9.01838C28.8057 8.33875 29.3565 7.78791 30.0361 7.78791C30.7158 7.78791 31.2666 8.33875 31.2666 9.01838V16.3521Z" fill="#1E6EC4"/>
<path d="M36.3081 16.3521H33.8472V9.01838C33.8472 8.33875 34.398 7.78791 35.0776 7.78791C35.7573 7.78791 36.3081 8.33875 36.3081 9.01838V16.3521Z" fill="#1E6EC4"/>
<path d="M41.3496 16.3521H38.8887V9.01838C38.8887 8.33875 39.4395 7.78791 40.1191 7.78791C40.7988 7.78791 41.3496 8.33875 41.3496 9.01838V16.3521Z" fill="#1E6EC4"/>
<path d="M46.3906 16.3521H43.9297V9.01838C43.9297 8.33875 44.4805 7.78791 45.1602 7.78791C45.8398 7.78791 46.3906 8.33875 46.3906 9.01838V16.3521Z" fill="#1E6EC4"/>
<path d="M41.9713 69.4232H27.9102C24.2087 69.4232 21.1959 66.4184 21.183 62.7199L19.8457 26.6012H50.0358L48.6987 62.7199C48.6857 66.4185 45.6728 69.4232 41.9713 69.4232ZM22.3996 29.0622L23.644 62.673V62.6958C23.644 65.0483 25.5579 66.9622 27.9103 66.9622H41.9714C44.324 66.9622 46.2379 65.0483 46.2379 62.6958L46.2387 62.6503L47.4822 29.0622H22.3996Z" fill="black"/>
<path d="M49.0628 29.0622H21.0925C18.5804 29.0622 16.5366 27.0184 16.5366 24.5063H18.9976C18.9976 25.6614 19.9374 26.6012 21.0925 26.6012H49.0627C50.2197 26.6012 51.1578 25.6632 51.1578 24.5062V19.6775C51.1578 18.5205 50.2199 17.5826 49.0628 17.5826H21.0925C19.9354 17.5826 18.9976 18.5205 18.9976 19.6775V20.8614C18.9976 21.541 18.4467 22.0918 17.7671 22.0918C17.0875 22.0918 16.5366 21.541 16.5366 20.8614V19.6775C16.5366 17.1613 18.5763 15.1216 21.0925 15.1216H49.0627C51.5789 15.1216 53.6187 17.1615 53.6187 19.6777V24.5063C53.6187 27.0225 51.579 29.0622 49.0628 29.0622Z" fill="black"/>
<path d="M22.3228 16.3521H19.8618V6.47432C19.8618 3.90783 21.9498 1.81973 24.5164 1.81973H45.3347C47.9012 1.81973 49.9893 3.9077 49.9893 6.47432V12.2522H47.5284V6.47432C47.5284 5.26463 46.5444 4.28066 45.3347 4.28066H24.5164C23.3067 4.28066 22.3228 5.26463 22.3228 6.47432V16.3521Z" fill="black"/>
<path d="M35.0774 59.5562C31.0329 59.5562 27.7427 56.2659 27.7427 52.2215C27.7427 48.6452 33.3527 38.0528 33.9924 36.8568L35.0775 34.828L36.1626 36.8568C36.8023 38.0528 42.4123 48.6452 42.4123 52.2215C42.4122 56.2659 39.1218 59.5562 35.0774 59.5562ZM35.0774 40.1017C32.8651 44.457 30.2036 50.3184 30.2036 52.2214C30.2036 54.9087 32.39 57.0951 35.0774 57.0951C37.7647 57.0951 39.9511 54.9087 39.9511 52.2214C39.9513 50.3184 37.2896 44.4571 35.0774 40.1017Z" fill="#1E6EC4"/>
<path d="M35.0776 25.0074C34.398 25.0074 33.8472 24.4565 33.8472 23.7769V20.9992C33.8472 20.3196 34.398 19.7687 35.0776 19.7687C35.7573 19.7687 36.3081 20.3196 36.3081 20.9992V23.7769C36.3081 24.4565 35.7573 25.0074 35.0776 25.0074Z" fill="#1E6EC4"/>
<path d="M46.876 25.0074C46.1963 25.0074 45.6455 24.4565 45.6455 23.7769V20.9992C45.6455 20.3196 46.1963 19.7687 46.876 19.7687C47.5556 19.7687 48.1064 20.3196 48.1064 20.9992V23.7769C48.1064 24.4565 47.5556 25.0074 46.876 25.0074Z" fill="#1E6EC4"/>
<path d="M35.0776 25.0074C34.398 25.0074 33.8472 24.4565 33.8472 23.7769V20.9992C33.8472 20.3196 34.398 19.7687 35.0776 19.7687C35.7573 19.7687 36.3081 20.3196 36.3081 20.9992V23.7769C36.3081 24.4565 35.7573 25.0074 35.0776 25.0074Z" fill="#1E6EC4"/>
<path d="M23.2788 25.0074C22.5992 25.0074 22.0483 24.4565 22.0483 23.7769V20.9992C22.0483 20.3196 22.5992 19.7687 23.2788 19.7687C23.9584 19.7687 24.5093 20.3196 24.5093 20.9992V23.7769C24.5093 24.4565 23.9584 25.0074 23.2788 25.0074Z" fill="#1E6EC4"/>
</svg>
