<svg width="70" height="70" viewBox="0 0 70 70" fill="none" xmlns="http://www.w3.org/2000/svg">
<g clip-path="url(#clip0_476_600)">
<rect width="1.44689" height="5.08626" rx="0.423856" transform="matrix(0.849005 -0.528385 0.528391 0.849002 63.2109 24.6816)" fill="black"/>
<rect width="1.5016" height="5.08626" rx="0.423856" transform="matrix(0.849005 -0.528385 0.528391 0.849002 5.125 60.9253)" fill="black"/>
<rect x="0.875725" y="0.203843" width="66.5454" height="15.6826" rx="1.05964" transform="matrix(0.849005 -0.528385 0.528391 0.849002 2.72374 55.5018)" stroke="black" stroke-width="1.27157"/>
<rect x="-0.0658791" y="0.29238" width="17.3781" height="2.02907" rx="0.211928" transform="matrix(0.534387 0.84524 -0.845243 0.534381 8.85904 51.0136)" fill="#1E6EC4" stroke="#1E6EC4" stroke-width="0.423856"/>
<rect x="-0.0658791" y="0.29238" width="17.3781" height="2.02907" rx="0.211928" transform="matrix(0.534387 0.84524 -0.845243 0.534381 6.28482 52.6611)" fill="#1E6EC4" stroke="#1E6EC4" stroke-width="0.423856"/>
<rect x="-0.0658791" y="0.29238" width="17.3781" height="2.02907" rx="0.211928" transform="matrix(0.534387 0.84524 -0.845243 0.534381 58.6286 20.1781)" fill="#1E6EC4" stroke="#1E6EC4" stroke-width="0.423856"/>
<rect x="-0.0658791" y="0.29238" width="17.3781" height="2.02907" rx="0.211928" transform="matrix(0.534387 0.84524 -0.845243 0.534381 56.0543 21.8241)" fill="#1E6EC4" stroke="#1E6EC4" stroke-width="0.423856"/>
<path d="M31.892 51.6588L27.8233 45.1215L30.3729 43.5348C30.9457 43.1783 31.4906 42.9644 32.0077 42.8931C32.5248 42.8218 32.9988 42.8895 33.4298 43.0964C33.8609 43.3032 34.2236 43.6432 34.5181 44.1163C34.8126 44.5895 34.9574 45.0651 34.9527 45.5432C34.944 46.015 34.7935 46.4671 34.5012 46.8995C34.2089 47.332 33.7763 47.7264 33.2035 48.0829L31.1676 49.35L31.3205 48.6588L32.8259 51.0776L31.892 51.6588ZM36.2626 48.9387L33.124 47.6012L34.1232 46.9793L37.2806 48.3052L36.2626 48.9387ZM31.3786 48.7522L30.6735 48.5561L32.6814 47.3065C33.2791 46.9345 33.6511 46.526 33.7973 46.0808C33.9459 45.6256 33.8748 45.1645 33.5842 44.6976C33.2936 44.2306 32.9132 43.9664 32.443 43.9049C31.9791 43.8395 31.4483 43.9927 30.8506 44.3647L28.8427 45.6144L28.9723 44.8859L31.3786 48.7522ZM41.675 45.6739C41.1769 45.9839 40.6608 46.1886 40.1265 46.2878C39.5986 46.3832 39.0859 46.3783 38.5886 46.2732C38.0874 46.1619 37.6238 45.9581 37.1976 45.6619C36.7714 45.3657 36.4091 44.9779 36.1107 44.4985C35.8124 44.0191 35.6244 43.5228 35.5469 43.0097C35.4693 42.4965 35.4932 41.9936 35.6185 41.501C35.74 41.0022 35.9601 40.537 36.2788 40.1054C36.5976 39.6738 37.0091 39.3011 37.5134 38.9872C38.0115 38.6772 38.5214 38.4765 39.0432 38.385C39.5673 38.2833 40.0799 38.2882 40.5811 38.3995C41.0846 38.5008 41.5464 38.7014 41.9663 39.0015C42.3925 39.2977 42.7567 39.6886 43.059 40.1742C43.3612 40.6599 43.5511 41.1593 43.6286 41.6725C43.7124 42.1818 43.6905 42.6878 43.5628 43.1905C43.4375 43.683 43.2155 44.1451 42.8967 44.5767C42.5803 44.9982 42.1731 45.364 41.675 45.6739ZM41.1577 44.8428C41.5188 44.618 41.8132 44.3485 42.0407 44.0341C42.2745 43.7158 42.4338 43.3749 42.5184 43.0112C42.6054 42.6375 42.6162 42.2594 42.5509 41.8768C42.4918 41.4903 42.3498 41.1166 42.1251 40.7555C41.9003 40.3943 41.6277 40.1019 41.307 39.8782C40.9927 39.6507 40.6505 39.4965 40.2807 39.4157C39.9132 39.3249 39.535 39.314 39.1462 39.3832C38.7636 39.4486 38.3918 39.5936 38.0307 39.8184C37.6634 40.047 37.3628 40.3204 37.129 40.6387C36.9014 40.9531 36.7441 41.2971 36.6571 41.6709C36.5663 42.0384 36.5504 42.4153 36.6095 42.8018C36.6748 43.1844 36.8199 43.5562 37.0446 43.9173C37.2694 44.2784 37.5389 44.5728 37.8533 44.8003C38.1739 45.024 38.5211 45.1794 38.8949 45.2664C39.2647 45.3472 39.6409 45.3549 40.0235 45.2895C40.4123 45.2203 40.7904 45.0714 41.1577 44.8428Z" fill="#1E6EC4"/>
<rect width="1.66619" height="5.07278" rx="0.422733" transform="matrix(0.847947 -0.53008 0.530086 0.847944 59.7402 5.16455)" fill="black"/>
<rect width="1.48222" height="5.07278" rx="0.422733" transform="matrix(0.847947 -0.53008 0.530086 0.847944 2.06641 41.7319)" fill="black"/>
<rect x="0.87381" y="0.201557" width="66.3692" height="15.6411" rx="1.05683" transform="matrix(0.847947 -0.53008 0.530086 0.847944 -0.282571 36.4465)" stroke="black" stroke-width="1.2682"/>
<rect x="-0.0651219" y="0.291736" width="17.332" height="2.0237" rx="0.211366" transform="matrix(0.536075 0.844171 -0.844174 0.536069 3.20044 33.4852)" fill="#1E6EC4" stroke="#1E6EC4" stroke-width="0.422733"/>
<rect x="-0.0651219" y="0.291736" width="17.332" height="2.0237" rx="0.211366" transform="matrix(0.536075 0.844171 -0.844174 0.536069 5.76685 31.8383)" fill="#1E6EC4" stroke="#1E6EC4" stroke-width="0.422733"/>
<path d="M54.8854 1.19914C54.9839 1.13656 55.1145 1.16571 55.1771 1.26426L64.2417 15.5386C64.3043 15.6371 64.2752 15.7677 64.1766 15.8303L62.8251 16.6885C62.7266 16.7511 62.596 16.722 62.5334 16.6234L53.4687 2.3491C53.4062 2.25056 53.4353 2.11994 53.5339 2.05736L54.8854 1.19914ZM52.2653 2.85864C52.3638 2.79606 52.4944 2.82522 52.557 2.92376L61.6216 17.1981C61.6842 17.2966 61.6551 17.4272 61.5565 17.4898L60.205 18.3481C60.1065 18.4106 59.9759 18.3815 59.9133 18.2829L50.8487 4.0086C50.7861 3.91006 50.8152 3.77944 50.9138 3.71687L52.2653 2.85864Z" fill="#1E6EC4" stroke="#1E6EC4" stroke-width="0.422733"/>
<path d="M26.7608 32.2057L22.6791 25.6766L25.2255 24.0847C25.7976 23.7271 26.3421 23.5121 26.859 23.4398C27.3759 23.3674 27.8501 23.4342 28.2816 23.6402C28.713 23.8461 29.0764 24.1854 29.3719 24.658C29.6673 25.1306 29.8131 25.6059 29.8093 26.084C29.8015 26.5558 29.652 27.0082 29.3605 27.4412C29.069 27.8742 28.6373 28.2695 28.0652 28.6272L26.0318 29.8983L26.1833 29.2068L27.6935 31.6226L26.7608 32.2057ZM31.126 29.4769L27.9847 28.1456L28.9827 27.5217L32.1427 28.8413L31.126 29.4769ZM26.2416 29.3001L25.5362 29.1055L27.5416 27.8518C28.1385 27.4786 28.5097 27.0693 28.655 26.6239C28.8026 26.1684 28.7307 25.7074 28.4391 25.2411C28.1476 24.7747 27.7667 24.5112 27.2964 24.4506C26.8323 24.3862 26.3018 24.5405 25.7048 24.9137L23.6994 26.1673L23.8276 25.4386L26.2416 29.3001ZM36.5319 26.2013C36.0344 26.5123 35.5187 26.7179 34.9846 26.8182C34.4568 26.9147 33.9442 26.9109 33.4467 26.8067C32.9453 26.6964 32.4812 26.4936 32.0544 26.1982C31.6276 25.9029 31.2646 25.5158 30.9653 25.037C30.6659 24.5582 30.477 24.0623 30.3984 23.5492C30.3199 23.0362 30.3427 22.5333 30.4671 22.0404C30.5875 21.5414 30.8067 21.0757 31.1246 20.6435C31.4424 20.2113 31.8532 19.8377 32.3569 19.5229C32.8544 19.2119 33.3639 19.0101 33.8855 18.9176C34.4094 18.8149 34.922 18.8188 35.4234 18.9291C35.9272 19.0293 36.3893 19.229 36.8099 19.5283C37.2367 19.8236 37.6016 20.2138 37.9049 20.6988C38.2081 21.1838 38.399 21.6829 38.4775 22.1959C38.5623 22.705 38.5414 23.2111 38.4147 23.714C38.2904 24.2069 38.0693 24.6694 37.7514 25.1016C37.4358 25.5238 37.0293 25.8903 36.5319 26.2013ZM36.0129 25.3711C36.3736 25.1457 36.6674 24.8755 36.8943 24.5607C37.1275 24.242 37.286 23.9007 37.3699 23.5369C37.4562 23.163 37.4663 22.7848 37.4002 22.4024C37.3403 22.0161 37.1976 21.6426 36.9721 21.2819C36.7467 20.9213 36.4734 20.6294 36.1523 20.4063C35.8375 20.1794 35.4951 20.0259 35.125 19.9459C34.7573 19.8557 34.3792 19.8457 33.9905 19.9157C33.6081 19.9818 33.2365 20.1276 32.8759 20.353C32.509 20.5824 32.209 20.8564 31.9758 21.1751C31.7488 21.49 31.5922 21.8343 31.506 22.2082C31.4159 22.5759 31.4007 22.9529 31.4606 23.3393C31.5267 23.7217 31.6725 24.0933 31.898 24.4539C32.1235 24.8146 32.3936 25.1084 32.7085 25.3353C33.0295 25.5584 33.377 25.713 33.7509 25.7993C34.1209 25.8793 34.4972 25.8863 34.8796 25.8202C35.2683 25.7502 35.646 25.6005 36.0129 25.3711Z" fill="#1E6EC4"/>
</g>
<defs>
<clipPath id="clip0_476_600">
<rect width="70" height="70" fill="white"/>
</clipPath>
</defs>
</svg>
