<svg width="71" height="70" viewBox="0 0 71 70" fill="none" xmlns="http://www.w3.org/2000/svg">
<g clip-path="url(#clip0_72_247)">
<path d="M30.6959 20.9867C30.701 20.9871 30.7081 20.9878 30.7164 20.9885C31.2889 21.0401 39.4991 21.8605 44.2506 26.7749C44.9067 27.4535 45.174 28.4442 44.9477 29.3591C44.5059 31.1485 44.2817 33.0638 44.2817 35.052C44.2817 37.0167 44.5008 38.9125 44.933 40.6865C45.1583 41.6119 44.8977 42.5746 44.2352 43.2611C39.4139 48.2579 31.0574 49.0838 30.704 49.1165L7.25958 49.1217V45.735H0.966553V24.2633H7.25958V20.9821L30.5906 20.9821L30.6959 20.9867ZM9.72038 25.4939V26.7244V28.968L7.25945 28.968V26.7244H3.42735V43.2742H7.25945V35.7554V34.9988V34.6616C7.25945 33.982 7.81028 33.4312 8.48991 33.4312C9.16954 33.4312 9.72038 33.982 9.72038 34.6616V34.9988V35.7554V43.2742V44.5047V46.6607H30.5269C31.206 46.5862 38.4625 45.6997 42.4642 41.5522C42.5366 41.4775 42.5664 41.3696 42.5419 41.2691C42.0633 39.3046 41.8207 37.2128 41.8207 35.052C41.8207 32.8651 42.069 30.7512 42.5586 28.7692C42.5831 28.669 42.5537 28.5603 42.4815 28.4855C39.3587 25.2558 34.2343 24.0373 31.8211 23.626V42.8646C31.8211 43.5442 31.2703 44.0951 30.5906 44.0951C29.911 44.0951 29.3602 43.5442 29.3602 42.8646V23.4432H9.72052L9.72038 25.4939Z" fill="black"/>
<path d="M47.2008 42.1191L68.814 51.9504V49.2468L48.2197 39.8789C47.6011 39.5976 46.8716 39.8709 46.5902 40.4895C46.3088 41.1082 46.5823 41.8377 47.2008 42.1191Z" fill="#1E6EC4"/>
<path d="M46.5902 29.5105C46.8716 30.1291 47.6011 30.4024 48.2197 30.1211L68.814 20.7532V18.0496L47.2008 27.8809C46.5823 28.1623 46.3088 28.8918 46.5902 29.5105Z" fill="#1E6EC4"/>
<path d="M50.9652 35C50.9652 35.6796 51.516 36.2305 52.1957 36.2305H68.814V33.7695H52.1957C51.5162 33.7695 50.9652 34.3204 50.9652 35Z" fill="#1E6EC4"/>
<path d="M59.6348 29.3243C59.7924 29.9853 60.4561 30.3935 61.1171 30.2359L68.814 28.4011V25.8712L60.5464 27.842C59.8854 27.9996 59.4773 28.6632 59.6348 29.3243Z" fill="#1E6EC4"/>
<path d="M60.5464 42.1579L68.814 44.1287V41.5987L61.1171 39.764C60.4561 39.6063 59.7924 40.0146 59.6348 40.6756C59.4773 41.3368 59.8854 42.0004 60.5464 42.1579Z" fill="#1E6EC4"/>
</g>
<defs>
<clipPath id="clip0_72_247">
<rect width="70" height="70" fill="white" transform="matrix(0 -1 -1 0 70.5 70)"/>
</clipPath>
</defs>
</svg>
