<svg width="71" height="70" viewBox="0 0 71 70" fill="none" xmlns="http://www.w3.org/2000/svg">
<g clip-path="url(#clip0_72_329)">
<path fill-rule="evenodd" clip-rule="evenodd" d="M34.9575 14L35.8342 15.4894C39.6452 21.9642 42.0758 26.527 44.7214 32.2887C44.9551 32.7977 44.7292 33.3996 44.2191 33.6308C43.709 33.862 43.108 33.6352 42.8743 33.1263C40.4717 27.8944 38.2497 23.6649 34.9621 18.0144C31.5065 23.9673 29.1524 28.3228 26.4547 33.7872C24.7238 37.293 25.4711 41.5191 28.2612 44.2897C31.1155 47.1241 35.3595 47.7067 38.7964 46.0645L39.6708 47.8945C35.4909 49.8916 30.318 49.1905 26.8321 45.7289C23.4392 42.3597 22.5095 37.1967 24.6361 32.8893C27.5808 26.9248 30.1214 22.2676 34.0849 15.4917L34.9575 14Z" fill="black"/>
<path d="M30.6829 28.3573L32.9176 24.1396L34.6849 25.076L32.4502 29.2937C32.1916 29.7817 31.5864 29.9677 31.0983 29.7091C30.6103 29.4505 30.4243 28.8453 30.6829 28.3573Z" fill="black"/>
<path d="M44.3552 45.192C43.8512 45.192 43.3872 45.116 42.9632 44.964C42.5392 44.812 42.1712 44.592 41.8592 44.304C41.5472 44.008 41.3032 43.644 41.1272 43.212C40.9512 42.78 40.8632 42.284 40.8632 41.724V36.6H42.5672V41.592C42.5672 42.256 42.7272 42.756 43.0472 43.092C43.3752 43.42 43.8152 43.584 44.3672 43.584C44.9032 43.584 45.3312 43.42 45.6512 43.092C45.9792 42.756 46.1432 42.256 46.1432 41.592V36.6H47.8472V41.724C47.8472 42.284 47.7592 42.78 47.5832 43.212C47.4072 43.644 47.1632 44.008 46.8512 44.304C46.5392 44.592 46.1712 44.812 45.7472 44.964C45.3232 45.116 44.8592 45.192 44.3552 45.192ZM51.9917 45L48.9797 36.6H50.8517L52.9277 42.876L55.0037 36.6H56.8277L53.8157 45H51.9917Z" fill="#1270C7"/>
<path d="M56.251 11.0874C43.1613 -0.14134 23.0148 -0.0647351 10.3674 18.7346" stroke="black" stroke-width="1.91182" stroke-linecap="round"/>
<path d="M7.26465 26.6463C3.83117 43.547 13.7084 61.1063 36.287 62.9986" stroke="black" stroke-width="1.91182" stroke-linecap="round"/>
<path d="M45.7358 60.7583C61.8853 54.7071 71.5346 37.0216 61.1659 16.8756" stroke="black" stroke-width="1.91182" stroke-linecap="round"/>
<path d="M38.6584 61.4284C39.4279 61.7233 39.5304 62.7701 38.8328 63.2087L34.7439 65.7794C33.9115 66.3027 32.9028 65.4366 33.2943 64.5347L33.8357 63.2873C33.9733 62.9703 33.9375 62.6048 33.741 62.3206L32.968 61.2019C32.409 60.3931 33.2305 59.3477 34.1485 59.6997L38.6584 61.4284Z" fill="black"/>
<path d="M10.5751 20.2564C9.88016 20.6992 8.97792 20.1586 9.04064 19.3369L9.40823 14.5211C9.48306 13.5407 10.7794 13.2456 11.2712 14.097L11.9514 15.2744C12.1243 15.5736 12.4393 15.7623 12.7846 15.7736L14.1437 15.8181C15.1264 15.8503 15.4775 17.1326 14.6484 17.6609L10.5751 20.2564Z" fill="black"/>
<path d="M59.9444 16.7234C59.9134 15.8999 60.8358 15.3944 61.5132 15.8637L65.4835 18.614C66.2917 19.1739 65.8915 20.4417 64.9083 20.436L63.5485 20.4282C63.203 20.4262 62.8809 20.6027 62.6967 20.8949L61.9717 22.0453C61.4474 22.8771 60.1634 22.5323 60.1264 21.5498L59.9444 16.7234Z" fill="black"/>
</g>
<defs>
<clipPath id="clip0_72_329">
<rect width="70" height="70" fill="white" transform="translate(0.5)"/>
</clipPath>
</defs>
</svg>
