<svg width="71" height="70" viewBox="0 0 71 70" fill="none" xmlns="http://www.w3.org/2000/svg">
<rect x="6.75" y="6.25" width="57.5" height="57.5" rx="8.75" stroke="black" stroke-width="2.5"/>
<g clip-path="url(#clip0_72_320)">
<path fill-rule="evenodd" clip-rule="evenodd" d="M32.9575 15L33.8342 16.4894C37.6452 22.9642 40.0758 27.527 42.7214 33.2887C42.9551 33.7977 42.7292 34.3996 42.2191 34.6308C41.709 34.862 41.108 34.6352 40.8743 34.1263C38.4717 28.8944 36.2497 24.6649 32.9621 19.0144C29.5065 24.9673 27.1524 29.3228 24.4547 34.7872C22.7238 38.293 23.4711 42.5191 26.2612 45.2897C29.1155 48.1241 33.3595 48.7067 36.7964 47.0645L37.6708 48.8945C33.4909 50.8916 28.318 50.1905 24.8321 46.7289C21.4392 43.3597 20.5095 38.1967 22.6361 33.8893C25.5808 27.9248 28.1214 23.2676 32.0849 16.4917L32.9575 15Z" fill="black"/>
<path d="M28.6829 31.3573L30.9176 27.1396L32.6849 28.076L30.4502 32.2937C30.1916 32.7817 29.5864 32.9677 29.0983 32.7091C28.6103 32.4505 28.4243 31.8453 28.6829 31.3573Z" fill="black"/>
</g>
<path d="M42.3552 47.192C41.8512 47.192 41.3872 47.116 40.9632 46.964C40.5392 46.812 40.1712 46.592 39.8592 46.304C39.5472 46.008 39.3032 45.644 39.1272 45.212C38.9512 44.78 38.8632 44.284 38.8632 43.724V38.6H40.5672V43.592C40.5672 44.256 40.7272 44.756 41.0472 45.092C41.3752 45.42 41.8152 45.584 42.3672 45.584C42.9032 45.584 43.3312 45.42 43.6512 45.092C43.9792 44.756 44.1432 44.256 44.1432 43.592V38.6H45.8472V43.724C45.8472 44.284 45.7592 44.78 45.5832 45.212C45.4072 45.644 45.1632 46.008 44.8512 46.304C44.5392 46.592 44.1712 46.812 43.7472 46.964C43.3232 47.116 42.8592 47.192 42.3552 47.192ZM49.9917 47L46.9797 38.6H48.8517L50.9277 44.876L53.0037 38.6H54.8277L51.8157 47H49.9917Z" fill="#1270C7"/>
<defs>
<clipPath id="clip0_72_320">
<rect width="35" height="35" fill="white" transform="translate(16.5 17)"/>
</clipPath>
</defs>
</svg>
