<svg width="71" height="70" viewBox="0 0 71 70" fill="none" xmlns="http://www.w3.org/2000/svg">
<path d="M35.0114 27.8271C38.703 27.8271 41.6956 24.8345 41.6956 21.1429C41.6956 17.4513 38.703 14.4587 35.0114 14.4587C31.3198 14.4587 28.3271 17.4513 28.3271 21.1429C28.3271 24.8345 31.3198 27.8271 35.0114 27.8271Z" stroke="black" stroke-width="2" stroke-linecap="square"/>
<path d="M46.1994 25.6786C45.9982 26.1346 45.9381 26.6404 46.0271 27.1309C46.116 27.6214 46.3498 28.0739 46.6984 28.4302L46.7891 28.521C47.0702 28.8018 47.2932 29.1353 47.4454 29.5024C47.5976 29.8695 47.6759 30.2629 47.6759 30.6603C47.6759 31.0577 47.5976 31.4512 47.4454 31.8182C47.2932 32.1853 47.0702 32.5188 46.7891 32.7997C46.5082 33.0808 46.1747 33.3038 45.8077 33.456C45.4406 33.6082 45.0471 33.6865 44.6497 33.6865C44.2524 33.6865 43.8589 33.6082 43.4918 33.456C43.1247 33.3038 42.7912 33.0808 42.5104 32.7997L42.4197 32.7089C42.0633 32.3604 41.6108 32.1266 41.1203 32.0376C40.6299 31.9487 40.124 32.0088 39.668 32.21C39.2208 32.4017 38.8394 32.7199 38.5708 33.1255C38.3022 33.5312 38.158 34.0065 38.1561 34.493V34.75C38.1561 35.552 37.8375 36.3211 37.2704 36.8882C36.7034 37.4552 35.9342 37.7738 35.1323 37.7738C34.3303 37.7738 33.5612 37.4552 32.9941 36.8882C32.4271 36.3211 32.1085 35.552 32.1085 34.75V34.6139C32.0968 34.1135 31.9348 33.6282 31.6436 33.221C31.3524 32.8139 30.9454 32.5037 30.4756 32.331C30.0196 32.1297 29.5137 32.0697 29.0233 32.1586C28.5328 32.2475 28.0803 32.4813 27.7239 32.8299L27.6332 32.9206C27.3524 33.2018 27.0189 33.4248 26.6518 33.577C26.2847 33.7291 25.8913 33.8075 25.4939 33.8075C25.0965 33.8075 24.703 33.7291 24.3359 33.577C23.9689 33.4248 23.6354 33.2018 23.3545 32.9206C23.0734 32.6398 22.8504 32.3063 22.6982 31.9392C22.546 31.5721 22.4677 31.1786 22.4677 30.7813C22.4677 30.3839 22.546 29.9904 22.6982 29.6233C22.8504 29.2562 23.0734 28.9227 23.3545 28.6419L23.4453 28.5512C23.7938 28.1949 24.0276 27.7423 24.1165 27.2519C24.2055 26.7614 24.1454 26.2555 23.9442 25.7995C23.7525 25.3524 23.4343 24.971 23.0287 24.7024C22.623 24.4337 22.1477 24.2896 21.6612 24.2876H21.4042C20.6022 24.2876 19.8331 23.969 19.266 23.402C18.699 22.8349 18.3804 22.0658 18.3804 21.2638C18.3804 20.4619 18.699 19.6927 19.266 19.1257C19.8331 18.5586 20.6022 18.24 21.4042 18.24H21.5403C22.0407 18.2283 22.526 18.0663 22.9332 17.7751C23.3403 17.4839 23.6504 17.077 23.8232 16.6071C24.0245 16.1511 24.0845 15.6453 23.9956 15.1548C23.9067 14.6644 23.6729 14.2118 23.3243 13.8555L23.2336 13.7648C22.9524 13.4839 22.7294 13.1504 22.5772 12.7834C22.4251 12.4163 22.3467 12.0228 22.3467 11.6254C22.3467 11.228 22.4251 10.8346 22.5772 10.4675C22.7294 10.1004 22.9524 9.7669 23.2336 9.48607C23.5144 9.20493 23.8479 8.9819 24.215 8.82973C24.5821 8.67756 24.9756 8.59923 25.3729 8.59923C25.7703 8.59923 26.1638 8.67756 26.5309 8.82973C26.898 8.9819 27.2314 9.20493 27.5123 9.48607L27.603 9.57679C27.9593 9.92534 28.4119 10.1592 28.9023 10.2481C29.3928 10.337 29.8986 10.277 30.3547 10.0757H30.4756C30.9228 9.88406 31.3042 9.56584 31.5728 9.16021C31.8414 8.75458 31.9856 8.27925 31.9875 7.79274V7.53572C31.9875 6.73375 32.3061 5.96463 32.8732 5.39756C33.4402 4.83048 34.2094 4.51191 35.0113 4.51191C35.8133 4.51191 36.5824 4.83048 37.1495 5.39756C37.7166 5.96463 38.0351 6.73375 38.0351 7.53572V7.67179C38.0371 8.1583 38.1812 8.63362 38.4499 9.03925C38.7185 9.44488 39.0999 9.76311 39.547 9.95476C40.0031 10.156 40.5089 10.2161 40.9994 10.1271C41.4898 10.0382 41.9424 9.80439 42.2987 9.45584L42.3894 9.36512C42.6703 9.08398 43.0037 8.86095 43.3708 8.70877C43.7379 8.5566 44.1314 8.47828 44.5288 8.47828C44.9261 8.47828 45.3196 8.5566 45.6867 8.70877C46.0538 8.86095 46.3873 9.08398 46.6681 9.36512C46.9493 9.64595 47.1723 9.97944 47.3245 10.3465C47.4766 10.7136 47.555 11.1071 47.555 11.5045C47.555 11.9018 47.4766 12.2953 47.3245 12.6624C47.1723 13.0295 46.9493 13.363 46.6681 13.6438L46.5774 13.7345C46.2289 14.0909 45.995 14.5434 45.9061 15.0339C45.8172 15.5243 45.8772 16.0302 46.0785 16.4862V16.6071C46.2701 17.0543 46.5884 17.4357 46.994 17.7043C47.3996 17.973 47.8749 18.1171 48.3615 18.1191H48.6185C49.4204 18.1191 50.1896 18.4376 50.7566 19.0047C51.3237 19.5718 51.6423 20.3409 51.6423 21.1429C51.6423 21.9448 51.3237 22.7139 50.7566 23.281C50.1896 23.8481 49.4204 24.1667 48.6185 24.1667H48.4824C47.9959 24.1686 47.5206 24.3128 47.1149 24.5814C46.7093 24.85 46.3911 25.2314 46.1994 25.6786Z" stroke="#1E6EC4" stroke-width="2" stroke-linecap="square"/>
<rect x="37.9209" y="59.3833" width="20.9173" height="7.54888" rx="1" stroke="black" stroke-width="2"/>
<path d="M55.0637 58.8606C55.2228 58.224 56.305 56.1869 59.3607 53.1313C63.1802 49.3117 66.9998 47.8794 66.9998 39.7629C66.9998 33.2696 66.9998 29.4182 66.9998 28.3042C65.2491 28.1451 61.5569 28.6862 60.793 32.1238C60.6256 32.8769 60.3156 38.5087 60.3156 42.6277C59.2015 43.7417 56.7825 46.1608 56.0186 46.9247C55.0637 47.8796 52.199 49.3119 48.8569 47.8796C48.3795 47.4021 52.199 45.0149 52.6765 43.1051C53.1539 41.1953 53.154 38.3307 52.1991 36.8984C51.2442 37.3758 44.0825 44.5375 43.1276 45.4923C42.1728 46.4472 41.6953 47.8796 41.6953 49.7893C41.6953 51.3172 41.6953 56.4734 41.6953 58.8606" stroke="black" stroke-width="2"/>
<rect x="-1" y="1" width="20.9173" height="7.54888" rx="1" transform="matrix(-1 0 0 1 31.5791 58.3833)" stroke="black" stroke-width="2"/>
<path d="M15.4363 58.8606C15.2772 58.224 14.195 56.1869 11.1393 53.1313C7.31977 49.3117 3.50022 47.8794 3.50022 39.7629C3.50022 33.2696 3.50022 29.4182 3.50022 28.3042C5.25085 28.1451 8.94308 28.6862 9.70699 32.1238C9.87435 32.8769 10.1844 38.5087 10.1844 42.6277C11.2985 43.7417 13.7175 46.1608 14.4814 46.9247C15.4363 47.8796 18.301 49.3119 21.6431 47.8796C22.1205 47.4021 18.301 45.0149 17.8235 43.1051C17.3461 41.1953 17.346 38.3307 18.3009 36.8984C19.2558 37.3758 26.4175 44.5375 27.3724 45.4923C28.3272 46.4472 28.8047 47.8796 28.8047 49.7893C28.8047 51.3172 28.8047 56.4734 28.8047 58.8606" stroke="black" stroke-width="2"/>
</svg>
